<svg width="176" height="51" viewBox="0 0 176 51" fill="none" xmlns="http://www.w3.org/2000/svg">
<mask id="mask0_62_12894" style="mask-type:luminance" maskUnits="userSpaceOnUse" x="0" y="0" width="176" height="51">
<path d="M176 0.584351H0V50.4157H176V0.584351Z" fill="white"/>
</mask>
<g mask="url(#mask0_62_12894)">
<path d="M175.962 29.8453C175.943 29.7282 175.924 29.615 175.906 29.498C175.868 29.2867 175.835 29.0716 175.804 28.8565C175.356 25.664 173.228 22.8828 170.249 21.5734C170.249 21.5734 170.242 21.5734 170.239 21.5695C170.223 21.562 170.205 21.5545 170.19 21.5469C170.175 21.5393 170.16 21.5318 170.141 21.5243C170.126 21.5167 170.107 21.5092 170.093 21.5016C170.078 21.4941 170.059 21.4865 170.044 21.479C170.036 21.479 170.029 21.4715 170.022 21.4677H170.01L169.995 21.4526H169.988L169.954 21.4337L169.909 21.4149C169.909 21.4149 169.906 21.4149 169.902 21.4149C169.887 21.4073 169.872 21.3997 169.857 21.3922C169.842 21.3846 169.823 21.3771 169.808 21.3696C169.794 21.3619 169.779 21.3544 169.76 21.3469C169.745 21.3394 169.73 21.3318 169.715 21.3243C169.7 21.3167 169.681 21.3092 169.662 21.2978C169.647 21.2903 169.632 21.2828 169.613 21.2752C169.595 21.2677 169.576 21.2564 169.557 21.2488C169.542 21.2412 169.527 21.2337 169.509 21.2261C169.494 21.2186 169.475 21.2111 169.456 21.1997C169.442 21.1922 169.427 21.1847 169.412 21.177C169.393 21.1695 169.378 21.162 169.359 21.1506C169.344 21.1431 169.326 21.1356 169.311 21.1281C169.296 21.1205 169.277 21.1129 169.262 21.1054C169.248 21.0978 169.228 21.0903 169.214 21.0828C169.199 21.0752 169.18 21.0676 169.165 21.0601C169.15 21.0526 169.135 21.045 169.116 21.0374C169.098 21.0299 169.082 21.0224 169.064 21.011C169.049 21.0035 169.038 20.996 169.023 20.9921C169.004 20.9846 168.986 20.9733 168.967 20.9657C168.952 20.9582 168.933 20.9507 168.918 20.9432C168.903 20.9355 168.884 20.928 168.869 20.9205C168.854 20.9129 168.836 20.9054 168.82 20.8979C168.802 20.8903 168.787 20.8827 168.768 20.8714C168.753 20.8638 168.734 20.8563 168.72 20.8488C168.705 20.8413 168.69 20.8336 168.675 20.8261C168.656 20.8186 168.641 20.8072 168.622 20.7997C168.604 20.7922 168.589 20.7847 168.57 20.7733C168.555 20.7658 168.54 20.7582 168.521 20.7506C168.506 20.7431 168.492 20.7356 168.477 20.728C168.458 20.7205 168.443 20.713 168.424 20.7016C168.409 20.6941 168.391 20.6865 168.376 20.6789C168.36 20.6714 168.342 20.6639 168.323 20.6525C168.308 20.645 168.289 20.6375 168.274 20.6299C168.259 20.6223 168.241 20.6148 168.225 20.6073C168.207 20.5997 168.193 20.5922 168.174 20.5809C168.159 20.5733 168.147 20.5657 168.132 20.562C168.114 20.5545 168.095 20.5431 168.076 20.5356C168.058 20.528 168.043 20.5204 168.024 20.5092C168.009 20.5016 167.994 20.494 167.975 20.4865C167.96 20.479 167.941 20.4715 167.926 20.4638C167.908 20.4563 167.893 20.4488 167.875 20.4374C167.86 20.4299 167.841 20.4224 167.826 20.4148C167.811 20.4073 167.796 20.3997 167.781 20.3921C167.765 20.3846 167.747 20.3771 167.732 20.3696C167.718 20.3619 167.699 20.3544 167.684 20.3469C167.665 20.3393 167.65 20.3318 167.631 20.3205C167.616 20.3129 167.598 20.3054 167.583 20.2978C167.567 20.2903 167.549 20.2827 167.534 20.2752C167.519 20.2677 167.5 20.26 167.485 20.2525C167.471 20.245 167.456 20.2375 167.441 20.2299C167.422 20.2223 167.407 20.2148 167.388 20.2035C167.373 20.1959 167.358 20.1884 167.339 20.1808C167.321 20.1733 167.306 20.1658 167.287 20.1544C167.272 20.1469 167.253 20.1393 167.238 20.1318C167.219 20.1242 167.204 20.1167 167.186 20.1054C167.172 20.0978 167.156 20.0903 167.138 20.0828C167.123 20.0751 167.104 20.0676 167.085 20.0563C167.07 20.0487 167.052 20.0412 167.036 20.0337C167.021 20.0262 167.003 20.0185 166.988 20.011C166.973 20.0035 166.954 19.9959 166.939 19.9884C166.925 19.9809 166.905 19.9732 166.891 19.9657C166.872 19.9582 166.857 19.9507 166.838 19.9393C166.823 19.9318 166.808 19.9243 166.79 19.9166C166.775 19.9091 166.756 19.9016 166.741 19.894C166.726 19.8865 166.707 19.879 166.692 19.8714C166.678 19.8638 166.663 19.8563 166.648 19.8488C166.629 19.8412 166.614 19.8336 166.595 19.8224C166.58 19.8147 166.561 19.8072 166.546 19.7997C166.531 19.7922 166.516 19.7846 166.502 19.7771C166.482 19.7695 166.464 19.7582 166.45 19.7506C166.434 19.7431 166.419 19.7355 166.404 19.728C166.389 19.7205 166.37 19.7129 166.355 19.7053C166.34 19.6978 166.322 19.6903 166.307 19.6827C166.292 19.6752 166.277 19.6676 166.262 19.6601C166.244 19.6525 166.228 19.6412 166.21 19.6337C166.191 19.6261 166.176 19.6186 166.157 19.6073C166.142 19.5997 166.127 19.5922 166.109 19.5846C166.093 19.577 166.078 19.5695 166.06 19.562C166.046 19.5545 166.027 19.5468 166.012 19.5393C165.997 19.5318 165.978 19.5242 165.959 19.5129C165.944 19.5054 165.933 19.4978 165.918 19.494C165.907 19.4903 165.895 19.4827 165.884 19.4751C164.68 18.8488 163.344 18.5204 162.02 18.5204C161.743 18.5204 161.459 18.5356 161.185 18.562C157.004 18.9959 153.678 20.8336 151.419 23.9281C151.411 23.9243 151.404 23.9205 151.396 23.913C151.378 23.9017 151.359 23.8903 151.337 23.8791C151.318 23.8677 151.303 23.8564 151.284 23.8489C151.266 23.8375 151.247 23.8262 151.224 23.8149C151.205 23.8036 151.187 23.7922 151.173 23.7809C151.153 23.7697 151.134 23.7583 151.116 23.747C151.097 23.7356 151.078 23.7243 151.06 23.713C151.041 23.7017 151.022 23.6903 151.007 23.679C150.989 23.6678 150.97 23.6564 150.948 23.6451C150.929 23.6337 150.914 23.6224 150.895 23.6149C150.877 23.6035 150.858 23.5923 150.835 23.5809C150.816 23.5696 150.801 23.5582 150.783 23.5507C150.764 23.5394 150.745 23.5281 150.727 23.5168C150.708 23.5054 150.689 23.4941 150.671 23.4828C150.652 23.4715 150.634 23.4602 150.615 23.4488C150.596 23.4375 150.578 23.4262 150.559 23.4149C150.54 23.4036 150.522 23.3922 150.502 23.3809C150.483 23.3696 150.465 23.3583 150.451 23.3469C150.431 23.3356 150.412 23.3244 150.394 23.313C150.375 23.3017 150.356 23.2903 150.338 23.279C150.323 23.2677 150.304 23.2602 150.285 23.2489C150.267 23.2375 150.248 23.2262 150.229 23.2148C150.211 23.2036 150.192 23.1922 150.174 23.1809C150.155 23.1696 150.136 23.1583 150.118 23.147C150.099 23.1356 150.084 23.1243 150.065 23.1129C150.047 23.1017 150.027 23.0904 150.008 23.079C149.99 23.0677 149.971 23.0564 149.952 23.0451C149.934 23.0337 149.915 23.0224 149.9 23.011C149.881 22.9998 149.866 22.9885 149.848 22.9771C149.829 22.9658 149.807 22.9545 149.788 22.9394C149.769 22.928 149.754 22.9168 149.736 22.9092C149.717 22.8979 149.698 22.8866 149.675 22.8752C149.657 22.8639 149.643 22.8526 149.624 22.845C149.604 22.8338 149.586 22.8224 149.567 22.8111C149.548 22.7997 149.53 22.7884 149.511 22.7772C149.492 22.7658 149.474 22.7545 149.455 22.7431C149.437 22.7319 149.418 22.7205 149.403 22.7092C149.384 22.6979 149.365 22.6865 149.347 22.6753C149.328 22.6639 149.31 22.6526 149.291 22.6412C149.272 22.63 149.254 22.6187 149.234 22.6073C149.215 22.596 149.197 22.5846 149.182 22.5734C149.163 22.562 149.144 22.5507 149.126 22.5393C149.107 22.5281 149.092 22.5168 149.073 22.5092C149.055 22.4979 149.036 22.4865 149.017 22.4752C148.999 22.4639 148.98 22.4526 148.961 22.4413C148.943 22.4299 148.924 22.4186 148.905 22.4073C148.887 22.396 148.868 22.3847 148.85 22.3733C148.83 22.362 148.811 22.3507 148.793 22.3394C148.774 22.328 148.755 22.3167 148.737 22.3055C148.718 22.2941 148.703 22.2828 148.684 22.2752C148.666 22.2639 148.647 22.2526 148.628 22.2413C148.61 22.23 148.591 22.2186 148.572 22.2073C148.554 22.1959 148.535 22.1847 148.517 22.1734C148.498 22.162 148.478 22.1507 148.464 22.1394C148.446 22.1281 148.427 22.1167 148.407 22.1054C148.389 22.094 148.375 22.0828 148.355 22.0752C148.336 22.0639 148.314 22.0488 148.295 22.0375C148.277 22.0262 148.262 22.0148 148.243 22.0073C148.224 21.996 148.206 21.9846 148.187 21.9733C148.168 21.962 148.15 21.9507 148.131 21.9394C148.113 21.928 148.094 21.9168 148.075 21.9054C148.057 21.8941 148.037 21.8827 148.018 21.8714C148 21.8602 147.981 21.8488 147.966 21.8375C147.947 21.8261 147.929 21.8149 147.91 21.8035C147.891 21.7922 147.873 21.7809 147.854 21.7695C147.835 21.7583 147.817 21.7469 147.802 21.7356C147.783 21.7242 147.764 21.713 147.746 21.7017C147.727 21.6903 147.708 21.679 147.69 21.6676C147.671 21.6564 147.656 21.645 147.637 21.6375C147.619 21.6262 147.6 21.6148 147.582 21.6035C147.562 21.5922 147.543 21.5809 147.529 21.5695C147.51 21.5582 147.491 21.5469 147.469 21.5356C147.45 21.5243 147.431 21.5129 147.413 21.5016C147.394 21.4903 147.379 21.479 147.36 21.4677C147.342 21.4563 147.323 21.445 147.304 21.4337C147.286 21.4224 147.267 21.411 147.249 21.3997C147.23 21.3885 147.21 21.3771 147.192 21.3658C147.173 21.3544 147.154 21.3431 147.136 21.3318C147.117 21.3205 147.098 21.3092 147.08 21.2978C147.061 21.2866 147.046 21.2752 147.027 21.2677C147.012 21.2563 146.994 21.2488 146.975 21.2375C145.609 20.3808 143.994 19.928 142.307 19.928C141.387 19.928 140.474 20.0601 139.576 20.3205C139.568 20.3167 139.561 20.3091 139.55 20.3054C139.534 20.2941 139.519 20.2827 139.505 20.2752C139.49 20.2639 139.475 20.2525 139.456 20.2412C139.441 20.2299 139.43 20.2223 139.416 20.2111C139.4 20.1997 139.385 20.1884 139.367 20.177C139.352 20.1658 139.336 20.1544 139.321 20.1469C139.306 20.1356 139.291 20.128 139.277 20.1167C139.262 20.1054 139.247 20.094 139.232 20.0865C139.217 20.0751 139.201 20.0676 139.187 20.0563C139.172 20.045 139.157 20.0337 139.138 20.0223C139.123 20.011 139.108 20.0035 139.093 19.9921C139.078 19.9809 139.059 19.9695 139.044 19.9582C139.03 19.9468 139.019 19.9393 139.003 19.928C138.988 19.9166 138.97 19.9054 138.955 19.894C138.939 19.8827 138.929 19.8752 138.914 19.8638C138.899 19.8525 138.884 19.8412 138.868 19.8336C138.854 19.8224 138.839 19.8147 138.828 19.8035C138.813 19.7922 138.794 19.7808 138.779 19.7695C138.765 19.7582 138.75 19.7506 138.738 19.7394C138.723 19.728 138.708 19.7167 138.689 19.7053C138.674 19.6978 138.663 19.6865 138.648 19.6789C138.633 19.6676 138.615 19.6563 138.599 19.645C138.584 19.6337 138.569 19.6223 138.551 19.611C138.547 19.611 138.543 19.6034 138.536 19.6034C137.189 18.6148 135.634 18.0903 134.036 18.0903C131.773 18.0903 129.637 19.1619 128.174 21.0299C128.036 21.2073 127.901 21.3922 127.774 21.5734L127.755 21.562L127.696 21.5281L127.647 21.5016L127.598 21.4752L127.542 21.445L127.486 21.4149L127.441 21.3885L127.373 21.3507L127.326 21.3205L127.295 21.3054H127.287L127.269 21.2903L127.231 21.2677L127.164 21.23L127.108 21.1997L127.082 21.1847L127.071 21.177L127.059 21.1695L127.008 21.1393L126.959 21.1129L126.906 21.0828L126.883 21.0676L126.824 21.0337L126.768 20.9998L126.704 20.962L126.675 20.9469L126.648 20.9318L126.611 20.9091L126.547 20.8714L126.513 20.8525L126.469 20.8261L126.453 20.8186H126.446L126.416 20.796L126.401 20.7884H126.394L126.364 20.7658L126.308 20.7356L126.259 20.7053L126.2 20.6714L126.158 20.6487L126.09 20.6111L126.056 20.5922H126.049L126.027 20.5733L126.009 20.562L125.956 20.5318L125.9 20.5016L125.882 20.4903H125.877L125.851 20.4715L125.796 20.4412L125.724 20.3997L125.694 20.3846L125.642 20.3544L125.589 20.3242L125.534 20.2941L125.463 20.2525L125.432 20.2336L125.383 20.2072L125.324 20.1733L125.275 20.1469L125.226 20.1204L125.17 20.0865L125.118 20.0563L125.066 20.0262L125.013 19.9959L124.961 19.9657L124.908 19.9355L124.856 19.9054L124.804 19.8752L124.744 19.8412L124.695 19.8147L124.646 19.7846L124.602 19.7582L124.546 19.7242L124.489 19.6903L124.445 19.6639L124.392 19.6337L124.333 19.5997L124.288 19.5733L124.239 19.5468L124.179 19.5129L124.127 19.4827L124.075 19.4526L124.019 19.4223L123.966 19.3921L123.917 19.3619L123.869 19.3355L123.816 19.3053L123.764 19.2752L123.711 19.245L123.659 19.2148L123.607 19.1846L123.551 19.1544L123.498 19.1242L123.449 19.0978C123.427 19.0865 123.409 19.0714 123.386 19.0601L123.345 19.0374L123.292 19.0073L123.236 18.977L123.184 18.9468L123.131 18.9166L123.079 18.8865L123.027 18.8563C123.027 18.8563 122.989 18.8336 122.971 18.8261C122.956 18.8185 122.937 18.8072 122.918 18.7958C122.903 18.7883 122.885 18.7771 122.866 18.7657C122.847 18.7544 122.829 18.743 122.807 18.7317C122.556 18.5921 122.316 18.4714 122.073 18.3619C121.505 18.1128 120.932 17.9129 120.357 17.7619C123.278 16.826 125.107 14.6638 125.407 11.758C125.694 8.9353 124.273 6.35034 121.691 5.01068C121.677 5.00313 121.665 4.99558 121.65 4.98803C121.635 4.9805 121.617 4.96917 121.601 4.96162C121.587 4.95407 121.572 4.94653 121.557 4.93521C121.542 4.92766 121.527 4.92012 121.512 4.90879C121.493 4.90124 121.478 4.88992 121.464 4.88238C121.449 4.87483 121.43 4.86351 121.415 4.85596C121.4 4.84841 121.385 4.83709 121.366 4.82955C121.351 4.822 121.332 4.81068 121.317 4.80313C121.302 4.79558 121.288 4.78803 121.273 4.77672C121.254 4.76917 121.239 4.75785 121.224 4.7503C121.209 4.74275 121.194 4.7352 121.179 4.72766C121.165 4.72011 121.145 4.70879 121.131 4.70124C121.116 4.69369 121.097 4.68238 121.082 4.67483C121.067 4.66728 121.048 4.65596 121.033 4.64841C121.018 4.64086 121.003 4.63331 120.989 4.622C120.974 4.61445 120.959 4.6069 120.943 4.59558C120.928 4.58803 120.91 4.57671 120.895 4.56916C120.88 4.56162 120.861 4.55029 120.846 4.54274C120.832 4.53519 120.817 4.52766 120.801 4.52011C120.786 4.51256 120.768 4.50124 120.753 4.49369C120.737 4.48614 120.722 4.4786 120.708 4.47105C120.693 4.4635 120.674 4.45218 120.659 4.44463C120.644 4.43708 120.629 4.42953 120.614 4.42199C120.599 4.41444 120.58 4.40312 120.566 4.39557C120.551 4.38802 120.532 4.37671 120.517 4.36916C120.502 4.36161 120.487 4.35029 120.468 4.34274C120.453 4.33519 120.438 4.32765 120.423 4.31633C120.409 4.30878 120.394 4.29746 120.375 4.28991C120.36 4.28236 120.345 4.27482 120.33 4.2635C120.311 4.25595 120.296 4.24463 120.281 4.23708C120.267 4.22953 120.247 4.21821 120.233 4.21067C120.218 4.20312 120.203 4.19557 120.188 4.18424C120.173 4.1767 120.158 4.16916 120.142 4.15783C120.128 4.15028 120.113 4.13896 120.095 4.13141C120.079 4.12386 120.064 4.11255 120.046 4.105C120.031 4.09745 120.012 4.08613 119.997 4.07858C119.978 4.07104 119.963 4.05972 119.948 4.05217C119.934 4.04462 119.919 4.03707 119.907 4.02952C119.892 4.02199 119.873 4.01066 119.858 4.00311C119.843 3.99556 119.825 3.98424 119.81 3.97669C119.795 3.96915 119.78 3.9616 119.765 3.95028C119.75 3.94273 119.735 3.93141 119.716 3.92386C119.701 3.91632 119.682 3.905 119.667 3.89745C119.653 3.8899 119.635 3.87858 119.62 3.87103C119.604 3.86349 119.586 3.85217 119.571 3.84462C119.556 3.83707 119.54 3.82952 119.53 3.82197C119.511 3.81066 119.496 3.80311 119.477 3.79556C119.462 3.78801 119.447 3.78046 119.432 3.77291C119.417 3.76537 119.402 3.75783 119.388 3.7465C119.368 3.73895 119.354 3.72763 119.339 3.72008C119.324 3.71254 119.309 3.70499 119.294 3.69745C119.278 3.6899 119.264 3.67857 119.246 3.67102C119.231 3.66349 119.215 3.65216 119.197 3.64461C119.182 3.63706 119.163 3.62574 119.148 3.61819C119.133 3.61065 119.118 3.6031 119.103 3.59556C119.084 3.58801 119.07 3.57668 119.05 3.56913C119.036 3.5616 119.021 3.55405 119.006 3.54272C118.991 3.53518 118.976 3.52763 118.957 3.5163C118.942 3.50876 118.927 3.49744 118.908 3.48989C118.894 3.48234 118.874 3.47102 118.86 3.46347C118.845 3.45593 118.83 3.44838 118.815 3.43706C118.796 3.42951 118.781 3.41819 118.763 3.41065C118.747 3.4031 118.732 3.39555 118.718 3.388C118.703 3.38045 118.684 3.36913 118.669 3.36158C118.654 3.35404 118.639 3.34649 118.62 3.33517C118.605 3.32762 118.59 3.3163 118.572 3.30876C118.557 3.30121 118.542 3.28989 118.523 3.28234C118.509 3.27479 118.494 3.26724 118.478 3.25593C118.463 3.24838 118.445 3.23706 118.43 3.22951C118.414 3.22196 118.399 3.21441 118.385 3.2031C118.37 3.19555 118.351 3.18423 118.336 3.17668C118.321 3.16913 118.306 3.16158 118.291 3.15027C118.276 3.14272 118.257 3.13139 118.243 3.12384C118.228 3.1163 118.213 3.10875 118.198 3.10121C118.183 3.09366 118.164 3.08234 118.149 3.07479C118.134 3.06724 118.115 3.05593 118.1 3.04838C118.086 3.04083 118.071 3.03328 118.056 3.02196C118.041 3.01441 118.026 3.00686 118.01 2.99554C117.995 2.988 117.981 2.98045 117.966 2.96912C117.951 2.96157 117.932 2.95026 117.917 2.94271C117.902 2.93516 117.887 2.92761 117.872 2.92007C117.858 2.91252 117.843 2.9012 117.824 2.89366C117.809 2.88611 117.79 2.87478 117.775 2.86723C117.76 2.85969 117.745 2.84837 117.726 2.84082C117.711 2.83327 117.697 2.82573 117.682 2.8144C117.667 2.80685 117.648 2.79554 117.633 2.78799C117.618 2.78044 117.603 2.76912 117.584 2.76157C117.569 2.75402 117.554 2.74271 117.535 2.73516C117.521 2.72761 117.506 2.71629 117.487 2.70874C117.472 2.70119 117.454 2.68988 117.439 2.68233C117.423 2.67478 117.408 2.66723 117.393 2.65591C117.378 2.64836 117.364 2.64082 117.349 2.6295C117.334 2.62195 117.319 2.6144 117.304 2.60308C117.288 2.59554 117.27 2.58421 117.255 2.57666C117.241 2.56912 117.222 2.55779 117.207 2.55024C117.192 2.5427 117.177 2.53516 117.162 2.52761C117.146 2.52006 117.128 2.50873 117.113 2.50119C117.099 2.49365 117.083 2.4861 117.068 2.47855C117.053 2.471 117.038 2.45968 117.019 2.45213C116.986 2.43327 116.955 2.41817 116.923 2.40307C116.571 2.22194 116.204 2.06722 115.826 1.94268C113.866 1.28607 111.547 0.610581 109.19 0.561523C108.962 0.584165 108.727 0.584165 108.487 0.584165C103.029 0.584165 97.7773 1.93137 92.8882 4.58803C91.0029 5.61069 89.4804 7.07865 88.1412 8.37302L88.0814 8.4334C86.5327 9.92777 86.1587 12.1957 87.1238 14.226C87.1238 14.2335 87.1312 14.2411 87.135 14.2486C87.1388 14.2599 87.1462 14.2713 87.15 14.2863C87.1574 14.3015 87.1612 14.3128 87.1687 14.3279C87.1762 14.3392 87.1799 14.3543 87.1874 14.3656C87.1911 14.377 87.1986 14.3882 87.2024 14.4034C87.2098 14.4147 87.2136 14.4298 87.221 14.4411C87.2286 14.4524 87.2323 14.4675 87.2398 14.4789C87.2435 14.4901 87.2509 14.5014 87.2548 14.5166C87.2622 14.5317 87.2659 14.543 87.2734 14.5581C87.2771 14.5694 87.2847 14.5808 87.2884 14.592C87.2959 14.6072 87.2996 14.6222 87.3071 14.6336C87.3108 14.6449 87.3183 14.6561 87.3221 14.6638C87.3295 14.6788 87.3333 14.6902 87.3407 14.7052C87.3444 14.7166 87.352 14.7279 87.3557 14.743C87.3595 14.7543 87.3669 14.7694 87.3745 14.7807C87.3819 14.7958 87.3857 14.8071 87.3931 14.8223C87.3968 14.8335 87.4044 14.8449 87.4081 14.8562C87.4118 14.8676 87.4193 14.8788 87.423 14.8901C87.4305 14.9053 87.4342 14.9204 87.4418 14.9317C87.4492 14.9429 87.453 14.9581 87.4604 14.9694C87.4641 14.9807 87.4717 14.992 87.4754 15.0072C87.4792 15.0184 87.4866 15.0336 87.4903 15.0448C87.4979 15.0562 87.5016 15.0713 87.5091 15.0826C87.5128 15.0939 87.5203 15.1053 87.5241 15.1166C87.5316 15.1317 87.5353 15.1467 87.5427 15.1581C87.5465 15.1694 87.5502 15.1769 87.5577 15.1883C87.5652 15.2071 87.5727 15.2222 87.5801 15.2411C87.5838 15.2524 87.5877 15.2599 87.5951 15.2713C87.5989 15.2826 87.6063 15.294 87.61 15.309C87.6176 15.3204 87.6213 15.3354 87.6288 15.3468C87.6325 15.3581 87.64 15.3694 87.6438 15.3807C87.6513 15.3959 87.6587 15.4109 87.6624 15.426C87.6662 15.4373 87.6737 15.4487 87.6774 15.46C87.6849 15.4751 87.6886 15.4864 87.6961 15.4978C87.6998 15.509 87.7074 15.5203 87.7111 15.5317C87.7186 15.5467 87.7223 15.5581 87.7297 15.5731C87.7373 15.5883 87.741 15.5996 87.7485 15.6147C87.7522 15.626 87.7598 15.6374 87.7635 15.6486C87.771 15.66 87.7747 15.675 87.7821 15.6864C87.7896 15.7015 87.7934 15.7128 87.8009 15.7241C87.8083 15.7392 87.8121 15.7505 87.8195 15.7657C87.8232 15.7769 87.8308 15.7883 87.8345 15.7996C87.842 15.8147 87.8457 15.826 87.8533 15.8412C87.857 15.8524 87.8645 15.8638 87.8682 15.8713C87.8756 15.8864 87.8832 15.9015 87.8869 15.9166C87.8944 15.9279 87.8981 15.9431 87.9056 15.9543C87.9093 15.9656 87.9168 15.977 87.9206 15.9883C87.928 16.0034 87.9318 16.0184 87.9392 16.0298C87.943 16.0411 87.9505 16.0525 87.9542 16.0637C87.9617 16.0789 87.9654 16.0902 87.973 16.1053C87.9804 16.1203 87.9842 16.1317 87.9916 16.1468C87.9953 16.1581 88.0029 16.1694 88.0066 16.1769C88.0141 16.1921 88.0215 16.2072 88.0253 16.2222C88.0328 16.2336 88.0366 16.2487 88.0403 16.26C88.0477 16.2713 88.0515 16.2864 88.0589 16.2977C88.0665 16.3091 88.0702 16.3241 88.0777 16.3355C88.0814 16.3468 88.0889 16.3581 88.0927 16.3694C88.1001 16.3845 88.1039 16.3996 88.1113 16.4109C88.1188 16.4223 88.1226 16.4373 88.1301 16.4487C88.1338 16.46 88.1412 16.4713 88.145 16.4826C88.1525 16.4978 88.16 16.5128 88.1637 16.5279C88.1674 16.5392 88.1749 16.5506 88.1786 16.5619C88.1862 16.577 88.1899 16.592 88.1974 16.6034C88.2011 16.6147 88.2085 16.6261 88.2124 16.6374C88.2161 16.6486 88.2236 16.66 88.2273 16.675C88.2386 16.6977 88.246 16.7166 88.2572 16.7355C88.2647 16.7544 88.2722 16.7732 88.2797 16.7883C88.2871 16.8034 88.2909 16.8147 88.2984 16.826C88.3022 16.8374 88.3096 16.8487 88.3133 16.8601C88.3245 16.8826 88.3321 16.9053 88.3433 16.9242C88.3507 16.9393 88.3583 16.9581 88.3657 16.9732C88.3732 16.9883 88.3769 17.0034 88.3844 17.0147C88.3882 17.0223 88.3957 17.0373 88.3994 17.0525C88.4031 17.06 88.4106 17.0751 88.4181 17.0902C88.4219 17.1015 88.4293 17.1128 88.433 17.128C88.4368 17.1392 88.4442 17.1506 88.448 17.1656C88.4555 17.1808 88.463 17.1958 88.4667 17.211C88.4704 17.2222 88.478 17.2336 88.4854 17.2487C88.4892 17.2563 88.4929 17.2675 88.5003 17.2827C88.5079 17.3015 88.5154 17.3166 88.5228 17.3355L88.5303 17.3506C88.5378 17.3694 88.549 17.3883 88.5565 17.4071C88.5602 17.4185 88.5676 17.4337 88.5752 17.4487L88.5901 17.4826L88.6051 17.5129L88.62 17.5431C88.62 17.5431 88.6351 17.577 88.6425 17.5921C88.65 17.6072 88.6574 17.6261 88.665 17.6411L88.6799 17.6752C88.6799 17.6752 88.6912 17.6978 88.6986 17.7166L88.7098 17.743L88.7286 17.7846C88.7286 17.7846 88.7435 17.8147 88.751 17.8336L88.7585 17.8487C88.7585 17.8487 88.7734 17.8788 88.781 17.894C88.7884 17.9091 88.7959 17.9242 88.8033 17.9393L88.8183 17.9695C88.8183 17.9695 88.8295 17.9959 88.8371 18.0148C88.8856 18.1204 88.9343 18.2223 88.9867 18.3241C88.6089 18.5695 88.2498 18.8563 87.9131 19.1846C86.8133 18.6714 85.7697 18.5242 84.9318 18.5242C83.8395 18.5242 82.7098 18.7733 81.5763 19.26C81.2733 19.3884 80.9815 19.5279 80.6936 19.6714C80.3456 19.0751 79.9304 18.5581 79.4516 18.128C78.3518 17.1392 76.9342 16.6185 75.3443 16.6185C74.5513 16.6185 73.7246 16.7393 72.8157 16.9921C72.6211 17.045 72.4304 17.1053 72.2433 17.1694C71.4278 15.8638 70.1747 14.9279 68.5437 14.4448C67.9153 14.2599 67.2831 14.1619 66.6584 14.1619C64.3168 14.1619 62.6484 15.4487 61.5935 16.4185C61.2568 16.728 60.9351 17.0637 60.6433 17.4185L60.6247 17.4374L60.6022 17.4676L60.591 17.4826L60.5797 17.4978L60.5386 17.5468L60.5124 17.577L60.4937 17.5959L60.4751 17.6186L60.46 17.6374L60.4489 17.6487L60.4377 17.6675L60.4078 17.7016L60.4002 17.7128L60.3591 17.7619L60.3403 17.7846L60.3067 17.826L60.2805 17.8563L60.2506 17.8902L60.2357 17.9091L60.2057 17.9468L60.1721 17.9884L60.1571 18.0072L60.1234 18.0487L60.1084 18.0676L60.0823 18.0978L60.071 18.1091L60.0636 18.1167L60.0374 18.1469L60.0299 18.1581L59.9888 18.2072L59.9588 18.2411L59.9401 18.2638L59.9065 18.3053L59.8952 18.3204L59.8578 18.3657L59.8316 18.3959L59.8091 18.4223L59.7755 18.4638L59.7569 18.4865L59.7232 18.5242L59.7082 18.5431L59.6745 18.5845L59.6595 18.6034L59.6221 18.6487L59.6035 18.6676L59.5773 18.6978L59.5474 18.7317L59.5324 18.7506L59.4987 18.7883L59.4725 18.8185L59.4463 18.8488L59.4277 18.8713L59.3902 18.9166L59.3641 18.9468L59.3379 18.977L59.3154 19.0034L59.2855 19.0374L59.263 19.0676L59.2257 19.1091L59.2069 19.1317L59.1807 19.1658L59.1733 19.1733L59.1621 19.1884L59.1396 19.2186L59.106 19.26L59.0872 19.2827L59.061 19.3166L59.0274 19.3544L59.0087 19.3771L58.9825 19.411L58.9563 19.4412L58.9264 19.479L58.9002 19.5092C58.9002 19.5092 58.8815 19.5318 58.8703 19.5468C58.8628 19.5545 58.8515 19.5695 58.8366 19.5884V19.5959H58.8329L58.7992 19.6337L58.7805 19.6601L58.7506 19.6978L58.7281 19.7242L58.7019 19.7544L58.6795 19.7846L58.6496 19.8186C58.6496 19.8186 58.6197 19.8525 58.6047 19.8714V19.879H58.601L58.5673 19.9204L58.5486 19.9431L58.5149 19.9809L58.4962 20.0035C58.4775 20.0223 58.4625 20.0412 58.4476 20.0639H58.4439V20.0676L58.4177 20.1016C58.4177 20.1016 58.3915 20.1356 58.3765 20.1506L58.3615 20.1658C58.3615 20.1658 58.3428 20.1884 58.3316 20.2035C58.3166 20.2186 58.3054 20.2336 58.2942 20.2525L58.2867 20.26C58.2867 20.26 58.2643 20.2865 58.2568 20.2978C58.1558 20.3469 58.0623 20.3884 57.9613 20.4374C56.6296 19.6375 55.0847 19.1846 53.4836 19.1846C53.3154 19.1846 53.1433 19.1884 52.9712 19.1997C50.9587 19.3205 48.935 19.9355 47.1133 20.9809C47.102 20.9846 47.0908 20.9921 47.0833 20.996C47.0683 21.0035 47.0534 21.011 47.0384 21.0186C47.0235 21.0262 47.0122 21.0337 46.9973 21.0412C46.9823 21.0488 46.9674 21.0563 46.9524 21.0639C46.9374 21.0714 46.9224 21.079 46.9075 21.0903C46.8925 21.0978 46.8776 21.1054 46.8664 21.1129C46.8514 21.1205 46.8402 21.1281 46.8252 21.1356C46.8103 21.1431 46.7953 21.1506 46.7804 21.162C46.7654 21.1695 46.7504 21.177 46.7392 21.1847C46.7242 21.1922 46.7092 21.1997 46.6943 21.2073C46.6793 21.2148 46.6681 21.2224 46.6531 21.23C46.6382 21.2375 46.6232 21.245 46.6083 21.2525C46.5933 21.2601 46.5783 21.2677 46.5633 21.2752C46.5484 21.2828 46.5334 21.2903 46.5222 21.2978C46.5073 21.3054 46.4923 21.313 46.4774 21.3205C46.4624 21.328 46.4512 21.3356 46.4362 21.3431C46.4213 21.3507 46.4062 21.3582 46.3913 21.3696C46.3763 21.3771 46.3614 21.3846 46.3501 21.3922C46.3352 21.3997 46.3202 21.4073 46.3053 21.4149C46.2903 21.4224 46.2754 21.4299 46.2603 21.4374C46.2454 21.445 46.2342 21.4526 46.2192 21.4601C46.2042 21.4677 46.1893 21.4752 46.178 21.4827C46.1631 21.4903 46.1444 21.5016 46.1295 21.5092C46.1183 21.5167 46.1033 21.5243 46.0921 21.5318C46.0771 21.5393 46.0622 21.5469 46.0471 21.5582C46.0322 21.5657 46.0209 21.5734 46.006 21.5809C45.991 21.5884 45.9761 21.5959 45.9611 21.6073C45.9462 21.6148 45.9349 21.6223 45.92 21.63C45.905 21.6375 45.8901 21.645 45.875 21.6526C45.8601 21.6601 45.8451 21.6676 45.8302 21.6753C45.8152 21.6828 45.804 21.6903 45.789 21.6978C45.7741 21.7054 45.7591 21.713 45.7442 21.7242C45.7291 21.7319 45.7142 21.7394 45.7031 21.7469C45.688 21.7545 45.6731 21.762 45.6581 21.7695C45.6432 21.7771 45.6282 21.7847 45.617 21.7922C45.602 21.7997 45.5871 21.8073 45.5721 21.8149C45.5572 21.8224 45.5459 21.8299 45.531 21.8375C45.5159 21.845 45.501 21.8525 45.486 21.8602C45.4711 21.8677 45.4561 21.8752 45.4449 21.8827C45.4299 21.8903 45.415 21.8979 45.4 21.9091C45.3851 21.9168 45.3739 21.9243 45.3589 21.9318C45.3439 21.9394 45.3289 21.9469 45.3178 21.9544C45.3027 21.962 45.2878 21.9696 45.2728 21.9771C45.2579 21.9846 45.2466 21.9922 45.2317 21.9998C45.2167 22.0073 45.2018 22.0148 45.1868 22.0262C45.1719 22.0337 45.1606 22.0412 45.1457 22.0488C45.1306 22.0563 45.1157 22.0639 45.1007 22.0752C45.0858 22.0828 45.0708 22.0903 45.0559 22.0979C45.0409 22.1054 45.0297 22.1129 45.0148 22.1206C44.9998 22.1281 44.9847 22.1356 44.9698 22.147C44.9548 22.1545 44.9436 22.162 44.9287 22.1695C44.9137 22.1771 44.8988 22.1847 44.8875 22.1922C44.8726 22.1998 44.8576 22.2073 44.8427 22.2148C44.8277 22.2224 44.8127 22.23 44.7977 22.2375C44.7828 22.245 44.7715 22.2526 44.7566 22.2601C44.7416 22.2677 44.7267 22.2752 44.7117 22.2828C44.6968 22.2903 44.6855 22.2978 44.6706 22.3055C44.6557 22.313 44.6407 22.3205 44.6256 22.3319C44.6107 22.3394 44.5957 22.3469 44.5845 22.3544C44.5696 22.362 44.5546 22.3696 44.5434 22.3771C44.5284 22.3847 44.5135 22.3922 44.4985 22.3997C44.4836 22.4073 44.4723 22.4149 44.4611 22.4224C44.4461 22.4299 44.4274 22.4413 44.4124 22.4488C44.3975 22.4563 44.3825 22.4639 44.3713 22.4715C44.3563 22.479 44.3414 22.4865 44.3302 22.4941C44.3152 22.5016 44.3003 22.5092 44.289 22.5168C44.2741 22.5243 44.2591 22.5318 44.2479 22.5393C44.2329 22.547 44.218 22.5545 44.203 22.562C44.188 22.5696 44.1768 22.5771 44.1619 22.5846C44.1468 22.5923 44.1319 22.5998 44.1169 22.6073C44.102 22.6148 44.087 22.6224 44.0721 22.63C44.0571 22.6375 44.0421 22.6451 44.0271 22.6526C44.0122 22.6601 43.9972 22.6676 43.9823 22.6753C43.9673 22.6828 43.9524 22.6903 43.9374 22.6979C43.9224 22.7054 43.9113 22.713 43.8963 22.7205C43.8812 22.7281 43.8663 22.7356 43.8513 22.7469C43.8364 22.7545 43.8252 22.762 43.8102 22.7695C43.7953 22.7772 43.7766 22.7884 43.7616 22.796C43.7504 22.8036 43.7354 22.8111 43.7242 22.8149C43.7092 22.8224 43.6942 22.83 43.6793 22.8413C43.6643 22.8488 43.6494 22.8564 43.6344 22.8639C43.6195 22.8714 43.6082 22.8791 43.5933 22.8866C43.5783 22.8941 43.5633 22.9016 43.5483 22.913C43.5334 22.9205 43.5184 22.928 43.5035 22.9357C43.4885 22.9432 43.4736 22.9507 43.4586 22.9582C43.4436 22.9658 43.4324 22.9733 43.4174 22.9809C43.4024 22.9885 43.3875 22.996 43.3725 23.0035C43.3576 23.011 43.3426 23.0187 43.3314 23.0262C43.3165 23.0337 43.3015 23.0413 43.2866 23.0488C43.2715 23.0564 43.2604 23.064 43.2454 23.0715C43.2304 23.079 43.2154 23.0865 43.2005 23.0979C43.1855 23.1054 43.1743 23.1129 43.1593 23.1206C43.1444 23.1281 43.1294 23.1356 43.1145 23.1432C43.0995 23.1507 43.0883 23.1583 43.0733 23.1658C43.0583 23.1734 43.0433 23.1809 43.0284 23.1922C43.0134 23.1998 43.0022 23.2073 42.9873 23.2148C42.9723 23.2225 42.9574 23.23 42.9424 23.2375C42.9275 23.245 42.9124 23.2526 42.9013 23.2602C42.8937 23.2602 42.8862 23.2677 42.8788 23.2714L42.8563 23.2828L42.8377 23.2941C42.8002 23.313 42.7628 23.3356 42.7254 23.3583C42.4225 23.5394 42.1232 23.7319 41.8314 23.9357C41.794 23.9319 41.7603 23.9243 41.7266 23.9168C41.1992 23.2375 40.5708 22.6035 39.8301 22.0187C42.0634 19.128 42.8526 16.0525 42.1831 12.8599C41.5022 9.61079 39.2765 5.2937 32.5545 3.18045C30.3138 2.47478 28.0581 2.11628 25.8511 2.11628C24.0294 2.11628 22.2189 2.36156 20.472 2.84082L20.4159 2.85591L20.3598 2.87101L20.2962 2.88611L20.2401 2.9012L20.1839 2.91629L20.1241 2.93139L20.0642 2.94649L20.0118 2.96157L19.952 2.97667L19.8921 2.99177L19.836 3.00686L19.7762 3.02196L19.7239 3.03705L19.664 3.05215L19.6042 3.06724L19.5443 3.08234L19.4882 3.09743L19.4358 3.11252L19.3722 3.12762L19.3124 3.14272L19.26 3.1578L19.2001 3.1729L19.1403 3.188L19.0842 3.2031L19.0243 3.21818L18.9719 3.23328L18.9083 3.24838L18.8522 3.26347L18.7924 3.27857L18.7363 3.29366L18.6951 3.30499L18.6353 3.32007L18.5605 3.33895L18.5193 3.35027L18.4445 3.36913L18.3884 3.38423L18.3323 3.39933L18.2724 3.41441L18.2313 3.42574L18.1565 3.44461L18.1116 3.45593L18.0518 3.47102L17.9957 3.48612L17.9395 3.50122L17.8797 3.5163L17.8048 3.53518L17.7637 3.5465L17.7076 3.5616L17.629 3.58423L17.5879 3.59556L17.5318 3.61065L17.4756 3.62574L17.4158 3.64084L17.3597 3.65594L17.2998 3.67102L17.2438 3.68612L17.1839 3.70122L17.1278 3.71632L17.068 3.7314L17.0081 3.7465L16.9258 3.76914L16.952 3.7616L16.8697 3.78424L16.8922 3.77669L16.8136 3.79933L16.8398 3.79179L16.7537 3.81443L16.7799 3.80688L16.7013 3.82952L16.7238 3.82197L16.634 3.84839L16.6677 3.84084L16.5892 3.86349H16.6078L16.5255 3.88235L16.5517 3.8748L16.4695 3.89745L16.4956 3.8899L16.4133 3.91255L16.4357 3.905L16.3535 3.92763L16.3834 3.9201L16.2899 3.94651L16.3236 3.93896L16.2375 3.9616L16.26 3.95406L16.2039 3.96915L16.1178 3.99179L16.144 3.98424L16.058 4.00689L16.0879 3.99934L15.9944 4.02575L16.028 4.01444L15.942 4.03707L15.9719 4.02952L15.9121 4.04462L15.856 4.05972L15.7699 4.08236L15.7998 4.07481L15.7063 4.10123L15.74 4.09368L15.6801 4.10878L15.5941 4.13141L15.624 4.12386L15.5642 4.13896L15.4707 4.16538L15.5043 4.15406L15.4145 4.1767L15.4445 4.16916L15.351 4.19557L15.3846 4.18424C15.3584 4.19179 15.3322 4.19934 15.3061 4.20689L15.235 4.22575L15.2649 4.21821L15.1751 4.24462L15.2088 4.2333L15.119 4.25595L15.1489 4.2484L15.0629 4.27105L15.0928 4.2635L15.0069 4.28613L15.0368 4.27858L14.947 4.30501L14.9807 4.29746L14.8909 4.3201L14.9208 4.31255L14.8273 4.33897L14.861 4.32764L14.7712 4.35406L14.8048 4.34651C14.7749 4.35406 14.7524 4.36161 14.7262 4.36916L14.6552 4.38802C12.6689 4.94653 10.7125 5.80692 8.8571 6.9428C2.50913 10.8674 0.915595 14.894 0.264713 17.5883C-0.625575 21.2978 0.765967 24.7092 3.65379 25.8828C4.45804 26.2112 5.26977 26.3356 5.95058 26.381C6.08151 29.4452 6.74361 32.3434 7.39074 35.1699C7.47304 35.5245 7.55159 35.8793 7.63389 36.2302C6.01417 37.434 4.95555 39.1813 4.61889 41.2115C4.05404 44.638 6.18625 47.7664 9.8035 48.8154C12.3098 49.5438 14.9058 49.9098 17.5169 49.9098C18.9458 49.9098 20.3822 49.7966 21.7924 49.5777C25.1292 49.0569 30.0707 48.0192 34.3948 45.0757C35.5395 44.2946 36.5233 43.4342 37.3313 42.4946C37.8289 43.1964 38.4236 43.8493 39.1157 44.453C41.3039 46.3664 43.9074 47.3362 46.8477 47.3362C47.7828 47.3362 48.7629 47.2343 49.7541 47.0343C52.9487 46.3889 55.2343 45.0191 56.7343 42.8455C56.7419 42.8342 56.753 42.8191 56.7605 42.8078C56.7755 42.7889 56.7867 42.77 56.8017 42.7511C56.8166 42.7323 56.8279 42.7134 56.8428 42.6945C56.8577 42.6757 56.869 42.6568 56.8839 42.6379C56.8952 42.619 56.9101 42.604 56.9214 42.5851C56.9363 42.5662 56.9476 42.5474 56.9625 42.5285C56.9775 42.5096 56.9887 42.4907 57.0036 42.4719C57.0186 42.453 57.0298 42.4341 57.0448 42.4191C57.0597 42.4002 57.071 42.3852 57.0822 42.3663C57.0972 42.3474 57.1084 42.3285 57.1233 42.3134C57.1383 42.2945 57.1495 42.2756 57.1645 42.2569C57.1794 42.238 57.1907 42.2191 57.2056 42.204C57.2207 42.1851 57.2318 42.1662 57.2469 42.1473C57.2618 42.1285 57.273 42.1134 57.2842 42.0945C57.2991 42.0757 57.3104 42.0568 57.3216 42.0417C57.3366 42.0229 57.3478 42.004 57.3627 41.9851C57.3777 41.9663 57.3889 41.9474 57.4002 41.9323C57.4151 41.9134 57.4264 41.8983 57.4376 41.8794C57.4525 41.8605 57.4638 41.8417 57.4787 41.8228C57.4937 41.8039 57.5049 41.7851 57.5199 41.7662C57.5348 41.7474 57.5461 41.7285 57.561 41.7134C57.576 41.6945 57.5872 41.6756 57.6021 41.6568C57.6171 41.6379 57.6283 41.619 57.6396 41.604C57.6471 41.5926 57.6545 41.5813 57.662 41.5737C58.081 42.4907 58.556 43.438 59.0948 44.4266C59.9251 45.9588 61.3018 46.9927 62.5362 47.8003C63.3666 48.3437 64.3242 48.6343 65.3043 48.6343C66.5313 48.6343 67.7545 48.174 68.742 47.34C69.5911 46.6229 70.1934 45.7059 70.4927 44.6833C70.4964 44.6645 70.5039 44.6493 70.5076 44.6304C70.515 44.6078 70.5226 44.589 70.5263 44.5663C70.5338 44.5474 70.5375 44.5285 70.545 44.5097C70.5525 44.4871 70.5563 44.4682 70.5637 44.4455C70.5712 44.4266 70.5749 44.4041 70.5825 44.3852C70.5899 44.3663 70.5936 44.3436 70.6011 44.3248C70.6085 44.3022 70.6124 44.2833 70.6198 44.2644C70.6273 44.2417 70.631 44.2229 70.6385 44.2003C70.646 44.1814 70.6498 44.1625 70.6572 44.1437C70.6647 44.1248 70.6684 44.1021 70.676 44.0832C70.6834 44.0644 70.6871 44.0418 70.6946 44.0229C70.7022 44.0002 70.7096 43.9813 70.7133 43.9588C70.7208 43.9399 70.7245 43.921 70.7282 43.9059C70.7358 43.8833 70.7433 43.8606 70.7507 43.838C70.7582 43.8191 70.762 43.8003 70.7657 43.7814C70.7732 43.7625 70.7769 43.7398 70.7844 43.7209C70.7919 43.7021 70.7957 43.6795 70.8031 43.6606C70.8106 43.6417 70.8143 43.6191 70.8219 43.6002C70.8293 43.5814 70.833 43.5587 70.8405 43.5399C70.8479 43.5172 70.8518 43.4983 70.8592 43.4757C70.8667 43.4568 70.8704 43.438 70.878 43.4153C70.8854 43.3965 70.8892 43.3738 70.8966 43.355C70.9041 43.3361 70.9079 43.3134 70.9154 43.2946C70.9228 43.2719 70.9265 43.2531 70.934 43.2304C70.9416 43.2115 70.9453 43.1926 70.9527 43.17C70.9602 43.1512 70.9639 43.1285 70.9715 43.1096C70.9789 43.0908 70.9827 43.0682 70.9901 43.0493C70.9977 43.0304 71.0014 43.0077 71.0089 42.989C71.0163 42.9701 71.02 42.9512 71.0275 42.9285C71.0351 42.9097 71.0388 42.8871 71.0462 42.8682C71.0537 42.8493 71.0574 42.8266 71.065 42.8078C71.0724 42.7889 71.0762 42.77 71.0836 42.7474C71.0912 42.7286 71.0949 42.7059 71.1024 42.6832C71.1098 42.6644 71.1136 42.6417 71.1211 42.6229C71.1286 42.6002 71.1323 42.5814 71.1397 42.5587C71.1473 42.5398 71.151 42.521 71.1585 42.5021C71.1659 42.4795 71.1697 42.4606 71.1771 42.438C71.1847 42.4191 71.1884 42.3964 71.1959 42.3775C71.2033 42.3587 71.2072 42.3361 71.2146 42.3172C71.2221 42.2983 71.2258 42.2756 71.2332 42.2569C71.2408 42.238 71.2445 42.2153 71.252 42.1964C71.2594 42.1737 71.2632 42.155 71.2707 42.1323C71.2782 42.1134 71.2819 42.0907 71.2894 42.072C71.2969 42.0531 71.3007 42.0304 71.3081 42.0115C71.3156 41.9926 71.3193 41.9738 71.3269 41.9549C71.3343 41.9323 71.338 41.9134 71.3455 41.8908C71.3531 41.8719 71.3568 41.8493 71.3642 41.8304C71.3717 41.8116 71.3754 41.7889 71.3829 41.77C71.3904 41.7511 71.3942 41.7323 71.4016 41.7097C71.4091 41.6908 71.4128 41.6681 71.4204 41.6492C71.4278 41.6304 71.4315 41.6078 71.439 41.5889C71.4466 41.5662 71.4503 41.5473 71.4577 41.5248C71.4652 41.5059 71.4689 41.4832 71.4765 41.4643C71.4839 41.4455 71.4877 41.4229 71.4951 41.404C71.5026 41.3851 71.5064 41.3624 71.5139 41.3436C71.5213 41.3247 71.525 41.3021 71.5325 41.2832C71.5401 41.2644 71.5438 41.2417 71.5512 41.2228C71.5587 41.2039 71.5624 41.1814 71.57 41.1625C71.5774 41.1436 71.5812 41.1247 71.5886 41.102C71.5962 41.0795 71.5999 41.0606 71.6074 41.0379C71.6148 41.019 71.6185 40.9964 71.6261 40.9776C71.6336 40.9549 71.6373 40.936 71.6448 40.9134C71.6522 40.8946 71.656 40.8757 71.6635 40.853C71.6709 40.8304 71.6747 40.8115 71.6821 40.7889C71.6897 40.77 71.6934 40.7511 71.7009 40.7322C71.7083 40.7134 71.7122 40.6908 71.7196 40.6719C71.7271 40.653 71.7308 40.6303 71.7383 40.6115C71.7458 40.5926 71.7495 40.57 71.757 40.5511C71.7645 40.5323 71.7682 40.5096 71.7757 40.4907C71.7832 40.4718 71.7869 40.4493 71.7944 40.4266C71.8018 40.4077 71.8057 40.3851 71.8131 40.3662C71.8206 40.3474 71.8243 40.3247 71.8318 40.3058C71.8393 40.2869 71.843 40.2644 71.8505 40.2455C71.858 40.2266 71.8617 40.2077 71.8692 40.1889C71.8767 40.1662 71.8804 40.1473 71.8879 40.1247C71.8954 40.1058 71.8992 40.0832 71.9066 40.0643C71.9141 40.0454 71.9178 40.0228 71.9254 40.0001C71.9328 39.9813 71.9365 39.9624 71.944 39.9398C71.9516 39.9171 71.9553 39.8982 71.9627 39.8757C71.9702 39.8568 71.9739 39.8379 71.9815 39.8152C71.9889 39.7964 71.9927 39.7738 72.0001 39.7549C72.0076 39.736 72.0113 39.7133 72.0189 39.6945C72.0263 39.6719 72.03 39.653 72.0375 39.6303C72.0451 39.6115 72.0488 39.5926 72.0563 39.57C72.0637 39.5511 72.0674 39.5284 72.075 39.5096C72.0824 39.4907 72.0862 39.4681 72.0936 39.4492C72.1012 39.4265 72.1049 39.4077 72.1124 39.3851C72.1198 39.3662 72.1236 39.3435 72.1311 39.3247C72.1386 39.3058 72.1423 39.2832 72.1498 39.2643C72.1572 39.2455 72.1609 39.2228 72.1685 39.2039C72.1759 39.185 72.1797 39.1624 72.1871 39.1436C72.1947 39.1247 72.1984 39.102 72.2059 39.0794C72.2133 39.0606 72.2171 39.0379 72.2246 39.019C72.2321 39.0001 72.2358 38.9812 72.2433 38.9624C72.2507 38.9398 72.2583 38.9209 72.262 38.8982C72.2694 38.8794 72.2732 38.8568 72.2806 38.8379C72.2882 38.819 72.2919 38.7963 72.2994 38.7775C72.3068 38.7586 72.3107 38.736 72.3181 38.7171C72.3256 38.6945 72.3293 38.6756 72.3368 38.653C72.3406 38.6341 72.348 38.6153 72.3518 38.6001C72.449 38.2944 72.5126 37.9812 72.5462 37.668C73.1635 37.6567 73.8107 37.5511 74.4765 37.3548C74.4952 37.351 74.5101 37.3435 74.5289 37.3397C74.5289 37.351 74.5289 37.3624 74.5326 37.3774C74.5326 37.4001 74.54 37.4227 74.5438 37.4416C74.5438 37.4604 74.5476 37.4793 74.5513 37.4945C74.5513 37.5133 74.5551 37.5322 74.5588 37.5511C74.5588 37.57 74.5662 37.5888 74.5662 37.6076C74.5662 37.6265 74.5737 37.6453 74.5737 37.6642C74.5737 37.6831 74.5813 37.702 74.5813 37.7208C74.5813 37.7397 74.5887 37.7586 74.5887 37.7774C74.5887 37.7963 74.5962 37.819 74.5962 37.8379C74.5962 37.8568 74.5999 37.8756 74.6036 37.8945C74.6036 37.9133 74.6075 37.9284 74.6112 37.9473C74.6112 37.9699 74.6186 37.9888 74.6186 38.0076C74.6186 38.0265 74.6261 38.0454 74.6261 38.0642C74.6298 38.0983 74.6374 38.1284 74.6411 38.1586C75.4716 43.1927 79.8332 46.8419 85.0178 46.8419C85.5489 46.8419 86.0876 46.8041 86.6188 46.7286C87.9767 46.5399 89.2186 46.0682 90.3633 45.3059C90.4007 45.3512 90.4418 45.3927 90.483 45.438C91.635 46.6682 92.892 47.7324 94.2162 48.6004C94.9942 49.1098 95.8883 49.3778 96.8048 49.3778C98.1514 49.3778 99.4494 48.8117 100.467 47.7776C100.897 47.34 101.241 46.8569 101.492 46.3361C101.974 47.0569 102.543 47.7815 103.19 48.4985C104.271 49.6985 105.91 50.3853 107.687 50.3853C108.789 50.3853 109.837 50.1211 110.716 49.6193C111.547 49.1476 112.699 48.2418 113.26 46.6682C115.037 47.9361 117.162 48.6418 119.365 48.6418C121.359 48.6418 123.345 48.0569 125.107 46.9513C126.536 46.0532 127.819 45.0041 128.922 43.8305C128.93 43.8417 128.937 43.8569 128.949 43.8682C128.959 43.8871 128.974 43.9097 128.986 43.9285C128.998 43.9474 129.008 43.9663 129.02 43.9813C129.03 44.0002 129.042 44.0191 129.054 44.0343C129.064 44.0531 129.076 44.072 129.087 44.0909C129.098 44.1096 129.113 44.1285 129.125 44.1474C129.135 44.1662 129.147 44.1851 129.158 44.2003C129.169 44.2192 129.18 44.238 129.192 44.2569C129.203 44.2758 129.214 44.2946 129.226 44.3097C129.236 44.3286 129.252 44.3474 129.263 44.3663C129.274 44.3852 129.285 44.4041 129.3 44.4229C129.311 44.4418 129.323 44.4607 129.334 44.4757C129.345 44.4946 129.356 44.5135 129.368 44.5324C129.378 44.5512 129.39 44.5701 129.402 44.5852C129.42 44.6154 129.434 44.6418 129.454 44.6682C130.235 45.8683 131.44 46.7362 132.843 47.1135C133.449 47.2758 134.002 47.355 134.533 47.355C137.23 47.355 138.618 45.3172 139.078 44.6456C139.729 43.6908 140.302 42.755 140.795 41.8341C140.802 41.8417 140.807 41.8455 140.814 41.853C140.829 41.8719 140.848 41.8908 140.863 41.9096C140.878 41.9285 140.897 41.9474 140.912 41.9624C140.926 41.9813 140.945 42.0002 140.96 42.0191C140.975 42.0379 140.993 42.0568 141.009 42.072C141.024 42.0907 141.042 42.1096 141.057 42.1285C141.073 42.1473 141.091 42.1662 141.106 42.1851C141.12 42.204 141.139 42.2228 141.154 42.238C141.173 42.2569 141.188 42.2756 141.207 42.2945C141.222 42.3134 141.237 42.3285 141.255 42.3474C141.274 42.3663 141.289 42.3852 141.308 42.404C141.323 42.4229 141.342 42.4418 141.357 42.4606C141.372 42.4795 141.387 42.4946 141.406 42.5134C141.424 42.5323 141.438 42.5512 141.458 42.5701C141.472 42.5889 141.491 42.6078 141.506 42.6267C141.521 42.6455 141.54 42.6644 141.555 42.6795C141.57 42.6983 141.588 42.7172 141.604 42.7323C141.622 42.7511 141.637 42.77 141.656 42.7889C141.671 42.8078 141.686 42.8228 141.705 42.8417C141.719 42.8606 141.739 42.8794 141.753 42.8946C141.771 42.9135 141.786 42.9323 141.805 42.9512C141.82 42.9701 141.839 42.989 141.854 43.004C141.873 43.0229 141.888 43.0418 141.906 43.0606C141.921 43.0795 141.937 43.0946 141.955 43.1134C141.97 43.1323 141.989 43.1512 142.008 43.17C142.023 43.1889 142.041 43.2078 142.06 43.2267C142.075 43.2455 142.094 43.2644 142.109 43.2795C142.127 43.2983 142.142 43.3172 142.16 43.3361C142.175 43.355 142.19 43.37 142.209 43.3889C142.224 43.4078 142.243 43.4266 142.258 43.4455C142.273 43.4644 142.292 43.4795 142.307 43.4983C142.325 43.5172 142.341 43.536 142.359 43.5549C142.374 43.5738 142.393 43.5927 142.408 43.6115C142.422 43.6304 142.441 43.6493 142.456 43.6644C142.471 43.6833 142.49 43.7021 142.505 43.7209C142.52 43.7398 142.539 43.7587 142.554 43.7739C142.569 43.7927 142.587 43.8116 142.603 43.8267C142.621 43.8455 142.635 43.8644 142.655 43.8833C142.669 43.9021 142.684 43.9172 142.699 43.9361C142.718 43.9549 142.733 43.9738 142.752 43.9965C142.767 44.0154 142.785 44.0343 142.801 44.0531C142.816 44.072 142.831 44.0871 142.849 44.1059C142.865 44.1248 142.883 44.1437 142.897 44.1625C142.912 44.1814 142.931 44.2003 142.946 44.2192C142.961 44.238 142.98 44.2569 142.999 44.2758C143.014 44.2946 143.029 44.3097 143.047 44.3286C143.066 44.3474 143.081 44.3663 143.1 44.3852C143.115 44.4041 143.134 44.4191 143.149 44.438C143.163 44.4569 143.182 44.4757 143.197 44.4908C143.212 44.5097 143.23 44.5285 143.249 44.5474C143.268 44.5663 143.283 44.5852 143.301 44.604C143.316 44.6191 143.332 44.638 143.347 44.6531C144.417 45.8606 145.913 46.5249 147.566 46.5249C148.057 46.5249 148.561 46.4682 149.073 46.355C151.393 45.8418 153.263 44.4871 154.341 42.5437C154.385 42.4643 154.431 42.3813 154.471 42.3021L154.502 42.3399C154.502 42.3399 154.524 42.37 154.535 42.3813C154.946 42.9172 155.406 43.404 155.908 43.8305C158.189 45.7701 160.842 46.755 163.782 46.755C164.698 46.755 165.649 46.6569 166.614 46.4644C170.673 45.6531 173.373 43.5814 174.645 40.3096C175.214 38.8416 174.971 36.9284 174.092 35.6529C175.535 33.8906 175.85 31.7962 175.973 30.9773L176.007 30.7546V30.0452L175.969 29.8037L175.962 29.8453Z" fill="#684D44"/>
<path d="M10.6335 45.9133C8.40398 45.268 7.26681 43.5775 7.57355 41.7057C7.80172 40.3207 8.56109 39.1699 9.74315 38.4339C10.6933 37.8377 10.9252 37.2263 10.6746 36.098C9.79552 32.1282 8.69949 28.1771 8.96508 24.0373C9.01372 23.2751 8.59849 23.3204 7.9738 23.3468C6.90395 23.3921 5.72563 23.4713 4.7755 23.0826C3.2231 22.4524 2.67696 20.3769 3.17448 18.3014C4.15828 14.2032 7.02366 11.6409 10.394 9.58799C15.6235 6.39924 21.2981 5.86338 27.0252 7.73134C31.1849 9.08987 34.5702 11.6748 35.5166 16.3504C36.216 19.8146 34.847 22.7166 32.5876 25.2488C32.0901 25.8035 31.4617 26.2412 30.7098 26.8902C31.3756 27.2601 31.7684 27.4715 32.1574 27.694C35.251 29.4639 37.3234 31.9244 37.0877 35.7018C36.8969 38.7358 35.1313 40.9434 32.7298 42.5775C29.3033 44.9096 25.2932 45.9813 21.3393 46.5964C17.7819 47.1511 14.1235 46.9285 10.6335 45.9133ZM17.1984 26.4412C18.747 26.1356 19.8991 26.0337 20.9652 25.6714C23.3631 24.86 25.1436 23.3091 25.9142 20.8109C26.5651 18.7127 25.514 16.8862 23.5052 16.641C22.7832 16.5542 21.9903 16.607 21.2981 16.8259C20.8193 16.9769 20.3106 17.441 20.0825 17.9014C19.5288 19.0297 19.0762 20.2185 18.6835 21.4146C18.171 22.9657 17.7519 24.5506 17.1984 26.4412ZM21.8069 36.2112C21.8069 36.2112 21.8069 36.2112 21.8069 36.2074C22.4765 36.2074 23.1461 36.2415 23.8157 36.1999C25.4129 36.098 26.9729 35.8037 28.0764 34.5093C28.4504 34.0716 28.9255 33.2187 28.7459 32.913C28.4467 32.4036 27.6835 31.947 27.0738 31.8866C24.2683 31.6035 21.5113 32.0829 18.8069 32.8073C18.5225 32.8828 18.1523 33.4716 18.1822 33.7848C18.4028 35.9622 18.7134 36.2074 20.8605 36.2112C21.1747 36.2112 21.489 36.2112 21.8069 36.2112Z" fill="#FFDB96"/>
<path d="M173.007 30.5696C172.764 32.1847 172.24 33.7244 170.822 34.615C169.513 35.4376 168.091 36.2905 166.614 36.5736C165.144 36.8565 163.543 36.4528 162.051 36.3546C162.32 37.3358 163.839 38.1131 165.317 37.7774C166.771 37.4452 168.186 36.8868 169.655 36.6566C170.265 36.5622 171.163 36.8829 171.571 37.3396C171.937 37.7509 172.068 38.7056 171.858 39.2453C170.837 41.8718 168.612 43.0265 166.03 43.5435C163.019 44.1473 160.248 43.6114 157.834 41.5623C155.066 39.2113 154.662 34.6489 156.14 31.2187C158.018 26.8676 161.396 24.377 166.113 23.8675C169.326 23.5204 172.382 26.045 172.842 29.279C172.891 29.6299 172.955 29.9772 173.011 30.3281V30.5658L173.007 30.5696ZM167.246 30.0149C167.217 29.2828 166.712 28.7771 165.777 28.7507C164.571 28.7168 163.173 30.0224 163.128 31.1847C163.094 32.0639 163.763 32.8187 164.617 32.8565C165.777 32.9093 167.227 31.464 167.25 30.0111L167.246 30.0149Z" fill="#FFDB96"/>
<path d="M100.901 15.3846C99.9055 15.9657 99.1836 16.4788 98.3943 16.8298C97.1487 17.3846 95.8881 17.9771 94.5751 18.2864C93.5276 18.5318 92.454 18.2412 91.7882 17.177C91.1111 16.0978 91.085 14.9128 91.9266 14.0751C93.3593 12.6448 94.8444 11.1429 96.5801 10.1655C101.705 7.27866 107.297 5.81448 113.173 5.94656C115.336 5.99562 117.547 6.65601 119.615 7.37301C121.681 8.09001 122.631 9.69382 122.45 11.441C122.245 13.4562 120.857 14.5317 119.099 14.9845C117.704 15.343 116.2 15.4751 114.759 15.411C113.469 15.3505 111.072 16.3808 109.268 26.5659C107.858 34.5321 110.144 41.6757 110.514 43.7851C110.746 45.1097 110.536 46.2834 109.242 47.0192C108.169 47.6305 106.328 47.5211 105.401 46.4947C104.462 45.4531 103.583 44.2606 103.029 42.9814C101.406 39.2454 101.017 35.8264 100.695 31.8038C100.358 27.5433 100.429 23.2488 100.399 18.9695C100.392 17.9166 100.684 16.86 100.901 15.3807V15.3846Z" fill="#FFDB96"/>
<path d="M90.9193 40.638C89.6475 42.3361 88.2185 43.4871 86.1985 43.7701C81.115 44.4834 76.9291 40.5625 77.5351 35.4303C78.0438 31.1283 80.3892 28.0188 84.3394 26.2527C86.7634 25.1659 88.9629 25.5886 90.7435 27.8377C91.2223 27.1206 91.6076 26.4415 92.0901 25.8489C93.2161 24.4678 94.7086 23.9772 96.4294 24.3207C97.7012 24.5734 98.6513 25.4074 98.8159 26.6603C98.9656 27.7924 98.8458 29.0263 98.5615 30.1396C98.2061 31.5472 97.5591 32.8831 97.0428 34.2492C96.3957 35.9661 96.4818 37.6379 97.2561 39.3134C97.8358 40.5663 98.3259 41.8606 98.8234 43.1512C99.1788 44.0795 99.0366 44.9588 98.3297 45.6758C97.6115 46.4041 96.6351 46.6154 95.8346 46.0909C94.675 45.3324 93.5976 44.4003 92.6475 43.389C91.9667 42.6606 91.5553 41.6757 90.9156 40.6342L90.9193 40.638ZM84.822 37.2945C85.2147 38.6379 86.0677 38.6228 87.2385 38.0756C88.6262 37.4266 89.1312 36.2416 89.4455 34.9208C89.7596 33.6001 89.6886 33.0113 88.7758 32.3359C87.8295 31.6302 86.6998 32.4491 85.9891 33.0454C84.7397 34.0907 84.4255 35.9511 84.8182 37.2945H84.822Z" fill="#FFDB96"/>
<path d="M130.475 33.2944C130.277 37.4757 127.961 41.6305 123.513 44.4231C118.52 47.5589 112.374 44.4154 111.599 38.404C110.911 33.0567 112.681 28.6415 116.972 25.3698C119.724 23.2679 122.822 22.5924 126.076 24.0753C128.788 25.3093 130.479 28.6038 130.475 33.2944ZM118.306 35.6266C118.397 36.5888 118.984 37.2493 119.589 37.687C120.39 38.2644 121.767 37.8267 122.534 37.2681C124.068 36.1473 124.599 34.9247 124.583 33.0454C124.576 32.3322 124.49 31.4001 123.973 30.8643C123.353 30.2264 121.823 30.3699 121.143 30.8566C119.518 32.0115 118.101 33.4077 118.306 35.6266Z" fill="#FFDB96"/>
<path d="M144.525 38.8377C144.757 37.8264 145.198 35.9886 145.599 34.1395C145.763 33.3697 145.917 32.5847 145.946 31.8036C145.998 30.396 145.108 29.7167 143.739 30.0488C142.108 30.445 140.429 32.0564 140.294 33.6979C140.013 37.1358 138.532 40.1585 136.613 42.9774C135.722 44.2869 134.967 44.6001 133.613 44.2378C132.415 43.9171 131.499 42.8793 131.526 41.5359C131.548 40.3283 131.656 39.0603 132.042 37.9283C132.767 35.7848 133.081 33.6678 132.819 31.3998C132.599 29.4941 133.205 27.6903 134.365 26.1506C136.426 23.4185 139.983 23.3619 142.329 26.0714C143.085 26.9431 143.675 27.162 144.82 26.7167C148.913 25.1204 153.405 27.2186 153.772 32.2451C154.007 35.4753 153.248 38.366 151.726 41.1133C151.026 42.3774 149.836 43.1359 148.429 43.4491C146.069 43.9737 144.51 42.4604 144.529 38.8377H144.525Z" fill="#FFDB96"/>
<path d="M68.7715 24.6188C69.9872 24.1055 71.0757 23.5168 72.2353 23.181C75.3027 22.3017 77.1319 23.279 77.9399 26.3923C78.7367 29.4603 76.5072 33.6227 73.6119 34.4793C71.5956 35.0756 70.3201 34.268 70.1967 32.1547C70.1518 31.3623 70.2042 30.5661 70.1854 29.7735C70.1555 28.6754 69.8189 28.4151 68.7977 28.7169C66.9572 29.2641 65.6816 30.3623 65.3 32.3435C64.9559 34.1284 64.9709 35.868 65.6966 37.5813C66.3736 39.1776 67.0245 40.7926 67.5745 42.4342C67.8961 43.4003 67.6156 44.3437 66.8188 45.0192C66.0145 45.6985 64.9933 45.8079 64.1629 45.2645C63.2352 44.6569 62.2252 43.9097 61.7165 42.97C59.4048 38.7209 57.7176 34.2491 58.1067 29.2716C58.3274 26.4678 58.8998 23.7696 61.0506 21.713C62.3337 20.4866 63.7439 19.6148 65.618 20.1922C67.4697 20.7658 68.3263 22.1168 68.5208 23.981C68.5358 24.1357 68.5882 24.2904 68.6405 24.4414C68.6629 24.5093 68.7303 24.5658 68.7677 24.6111L68.7715 24.6188Z" fill="#FFDB96"/>
<path d="M45.0481 36.7662C45.6877 38.0116 47.0792 38.6343 48.5605 38.2832C49.9745 37.9474 51.3548 37.4078 52.7838 37.1927C53.3973 37.0983 54.2913 37.4153 54.699 37.872C55.0657 38.2832 55.2003 39.238 54.9908 39.7776C53.9733 42.4004 51.7551 43.5589 49.1703 44.0797C46.2077 44.6797 43.4171 44.223 41.0753 42.1777C38.21 39.6719 38.0192 36.3889 38.8422 33.0115C39.9831 28.3358 44.5393 24.6943 49.3274 24.3924C52.088 24.2188 54.7514 26.0037 55.6679 28.6415C56.648 31.4605 55.8062 33.9436 53.315 35.7021C51.1117 37.2568 48.7513 37.7587 46.1516 36.9097C45.856 36.8115 45.5455 36.7587 45.2425 36.6946C45.2126 36.687 45.1715 36.721 45.0443 36.77L45.0481 36.7662ZM47.8236 33.3925C49.0132 33.385 50.4197 31.9133 50.3748 30.6982C50.3411 29.7208 49.7576 29.2792 48.8374 29.2869C47.6066 29.2981 46.2637 30.6303 46.2637 31.7964C46.2637 32.6718 46.9782 33.4002 47.8274 33.3925H47.8236Z" fill="#FFDB96"/>
</g>
</svg>
