<svg width="133" height="66" viewBox="0 0 133 66" fill="none" xmlns="http://www.w3.org/2000/svg">
<path d="M52.8509 28.214C52.7606 27.9267 52.6949 27.6353 52.6456 27.3397C52.6209 27.2043 52.5963 27.0647 52.5676 26.9293C52.5018 26.6338 52.432 26.3423 52.354 26.0509C53.6476 24.0972 59.8243 13.8976 52.7934 7.35093C44.9904 0.0860038 35.8732 9.60839 35.8732 9.60839L35.902 9.64944C31.8034 8.40578 27.3598 8.25802 23.0394 9.60839C22.986 9.55093 13.9017 0.106526 6.11919 7.35093C-1.66327 14.5953 6.73932 26.3177 6.7845 26.3793C6.69415 26.6543 6.62433 26.9375 6.57505 27.2207C5.73315 32.2405 0 33.7879 0 42.5263C0 51.2647 5.99599 58.4517 18.2344 58.4517H23.257C23.2776 58.4845 25.3474 61.411 29.5939 61.411C33.5365 61.4069 36.1361 58.4804 36.1607 58.4517H40.9534C53.1918 58.4517 59.1878 51.433 59.1878 42.5263C59.1878 34.3912 54.2144 32.4867 52.8509 28.214Z" fill="black"/>
<path d="M132.376 15.4778C132.376 15.4778 133.411 5.90204 125.542 3.8457V0.00390625H119.451V3.74719C111.152 5.58189 112.223 15.4778 112.223 15.4778V17.1196C112.223 17.1196 111.152 27.0155 119.456 28.8502V37.0714C110.708 38.664 111.813 48.8841 111.813 48.8841V50.5259C111.813 50.5259 110.741 60.4218 119.041 62.2565V65.9998H125.135V62.158C133.004 60.1017 131.969 50.5259 131.969 50.5259C132.314 50.5259 132.593 50.2468 132.593 49.902V49.5039C132.593 49.1591 132.314 48.88 131.969 48.88C131.969 48.88 132.996 39.3864 125.238 37.2726V28.8502H125.148C133.448 27.0155 132.38 17.1196 132.38 17.1196C132.725 17.1196 133.004 16.8405 133.004 16.4957V16.0976C133 15.7569 132.721 15.4778 132.376 15.4778ZM127.411 48.88H126.852C126.507 48.88 126.228 49.1591 126.228 49.5039V49.902C126.228 50.2468 126.507 50.5259 126.852 50.5259H127.411C127.411 56.4651 125.435 57.4666 124.774 57.6349C124.663 57.6636 124.56 57.5815 124.56 57.4707V55.5785C124.56 54.5319 123.895 53.9573 123.226 53.6453C122.384 53.2513 121.398 53.2513 120.556 53.6453C119.891 53.9573 119.221 54.5319 119.221 55.5785V57.4707C119.221 57.5815 119.119 57.6636 119.012 57.639C118.351 57.4748 116.371 56.4815 116.371 50.53V48.8882C116.371 42.9491 118.347 41.9476 119.008 41.7793C119.119 41.7505 119.221 41.8326 119.221 41.9435V43.8356C119.221 44.8823 119.887 45.4569 120.556 45.7688C121.398 46.1629 122.384 46.1629 123.226 45.7688C123.891 45.4569 124.56 44.8823 124.56 43.8356V41.9435C124.56 41.8326 124.663 41.7505 124.77 41.7752C125.431 41.9394 127.411 42.9326 127.411 48.88ZM127.267 17.1196H127.825C127.825 23.0711 125.846 24.0644 125.185 24.2285C125.078 24.2573 124.975 24.1711 124.975 24.0602V22.1681C124.975 21.1214 124.31 20.5468 123.64 20.2349C122.799 19.8408 121.813 19.8408 120.971 20.2349C120.306 20.5468 119.636 21.1214 119.636 22.1681V24.0602C119.636 24.1711 119.529 24.2532 119.423 24.2244C118.757 24.0561 116.786 23.0547 116.786 17.1155V15.4737C116.786 9.52219 118.766 8.52891 119.427 8.36473C119.534 8.336 119.636 8.42219 119.636 8.53301V10.4293C119.636 11.4759 120.302 12.0505 120.971 12.3625C121.813 12.7565 122.799 12.7565 123.64 12.3625C124.306 12.0505 124.975 11.4759 124.975 10.4293V8.53712C124.975 8.42629 125.082 8.3442 125.189 8.37294C125.854 8.54122 127.825 9.53861 127.825 15.4819H127.267C126.922 15.4819 126.643 15.761 126.643 16.1058V16.5039C126.643 16.8405 126.922 17.1196 127.267 17.1196Z" fill="black"/>
<path d="M102.273 32.3884C102.273 32.3884 103.349 22.4351 94.9715 20.6455V11.7019C103.128 9.79328 102.068 0.00410448 102.068 0.00410448C102.068 0.00410448 97.4972 0.00410448 97.5136 0.00410448C97.5136 5.9556 95.5341 6.94888 94.8729 7.11306C94.7662 7.14179 94.6635 7.0556 94.6635 6.94478V5.05261C94.6635 4.00597 93.9982 3.43134 93.3288 3.1194C92.4869 2.72537 91.5012 2.72537 90.6593 3.1194C89.994 3.43134 89.3246 4.00597 89.3246 5.05261V6.94478C89.3246 7.0556 89.2178 7.13769 89.111 7.10896C88.4457 6.94067 86.4745 5.94328 86.4745 0C86.495 0 81.92 0 81.92 0C81.92 0 80.8234 10.1586 89.4848 11.7963V20.625C81.0411 22.3899 82.1212 32.3884 82.1212 32.3884V34.0302C82.1212 34.0302 81.0411 44.0287 89.4807 45.7854V54.2037C80.8193 55.8414 81.9159 66 81.9159 66C81.9159 66 86.4868 66 86.4703 66C86.4703 60.0485 88.4498 59.0552 89.111 58.891C89.2178 58.8623 89.3205 58.9485 89.3205 59.0593V60.9515C89.3205 61.9981 89.9858 62.5728 90.6552 62.8847C91.4971 63.2787 92.4827 63.2787 93.3247 62.8847C93.99 62.5728 94.6594 61.9981 94.6594 60.9515V59.0593C94.6594 58.9485 94.7662 58.8664 94.8729 58.8951C95.5382 59.0634 97.5095 60.0608 97.5095 66.0041C97.489 66.0041 102.064 66.0041 102.064 66.0041C102.064 66.0041 103.124 56.2149 94.9674 54.3063V45.7772C103.345 43.9836 102.269 34.0343 102.269 34.0343C102.614 34.0343 102.894 33.7552 102.894 33.4104V33.0123C102.898 32.6675 102.618 32.3884 102.273 32.3884ZM97.1645 34.0302H97.7231C97.7231 39.9817 95.7436 40.975 95.0824 41.1392C94.9756 41.1679 94.8729 41.0817 94.8729 40.9709V39.0787C94.8729 38.0321 94.2076 37.4575 93.5382 37.1455C92.6963 36.7515 91.7107 36.7515 90.8688 37.1455C90.2035 37.4575 89.534 38.0321 89.534 39.0787V40.9709C89.534 41.0817 89.4273 41.1638 89.3205 41.1351C88.6552 40.9668 86.6839 39.9653 86.6839 34.0261V32.3843C86.6839 26.4328 88.6634 25.4396 89.3246 25.2754C89.4314 25.2466 89.534 25.3328 89.534 25.4437V27.3399C89.534 28.3866 90.1994 28.9612 90.8688 29.2731C91.7107 29.6672 92.6963 29.6672 93.5382 29.2731C94.2035 28.9612 94.8729 28.3866 94.8729 27.3399V25.4478C94.8729 25.3369 94.9797 25.2549 95.0865 25.2836C95.7518 25.4519 97.7231 26.4534 97.7231 32.3925H97.1645C96.8196 32.3925 96.5403 32.6716 96.5403 33.0164V33.4146C96.5403 33.7511 96.8196 34.0302 97.1645 34.0302Z" fill="black"/>
</svg>
