<svg xmlns="http://www.w3.org/2000/svg" fill="none" viewBox="57.18 28.97 147.73 58.08">
<path d="M131.329 67.4811V48.1172H150.693V51.9894H135.201V63.6089H146.818V59.7368H139.074V55.8646H150.69V67.4842H131.326L131.329 67.4811Z" fill="#282828"/>
<path d="M158.437 67.4811V48.1172H177.801V51.9894H162.309V63.6089H173.925V59.7368H166.181V55.8646H177.798V67.4842H158.434L158.437 67.4811Z" fill="#282828"/>
<path d="M185.545 67.4819V63.6098H201.037V59.7376H185.545V55.8654H201.037V51.9933H185.545V48.1211H204.909V67.485H185.545V67.4819Z" fill="#282828"/>
<path d="M106.785 49.811V55.9069C106.785 57.9698 105.591 59.844 103.72 60.7131L86.2302 68.8471V54.6883L68.8859 62.745L64.7941 69.3358L81.9838 61.3502V70.8265L61.4292 80.3863V60.1316C61.4292 58.0688 62.6261 56.1945 64.4972 55.3254L75.1673 50.3646L70.9828 57.0976L78.0158 53.8285L82.2003 47.0956L99.9591 38.8347L95.756 45.577L102.798 42.3017L111.099 28.9688L62.6941 51.478C59.3292 53.043 57.1797 56.4172 57.1797 60.1255V87.0481L105.514 64.5667C108.879 63.0017 111.028 59.6275 111.028 55.9193V43.1584L93.6436 51.2337L89.5364 57.8306L106.782 49.8172L106.785 49.811Z" fill="#282828"/>
</svg>