<svg xmlns="http://www.w3.org/2000/svg" fill="none" viewBox="17.55 45.46 219.71 31.07">
<path d="M33.1147 45.464H33.1146C24.5168 45.464 17.5469 52.4197 17.5469 61V61.0001C17.5469 69.5803 24.5168 76.536 33.1146 76.536H33.1147C41.7125 76.536 48.6824 69.5803 48.6824 61.0001V61C48.6824 52.4197 41.7125 45.464 33.1147 45.464Z" fill="#FFCD4D"/>
<path fill-rule="evenodd" clip-rule="evenodd" d="M28.8435 54.9263C28.8435 53.3962 30.0864 52.1558 31.6196 52.1558H34.6095C36.1427 52.1558 37.3857 53.3962 37.3857 54.9263H28.8435ZM25.8542 58.3356C25.8542 56.8055 27.0971 55.5652 28.6304 55.5652H37.5997C39.133 55.5652 40.3759 56.8055 40.3759 58.3356H25.8542ZM26.2814 58.9751C25.2199 58.9751 24.3594 59.8339 24.3594 60.8933C24.3594 61.9525 25.2199 62.8113 26.2814 62.8113H39.9489C41.0103 62.8113 41.8709 61.9525 41.8709 60.8933C41.8709 59.8339 41.0103 58.9751 39.9489 58.9751H26.2814ZM26.0675 63.6644C26.0675 65.1946 27.3105 66.435 28.8437 66.435H37.813C39.3464 66.435 40.5893 65.1946 40.5893 63.6644H26.0675ZM31.6196 69.8444C30.0864 69.8444 28.8435 68.6039 28.8435 67.0738H37.5992C37.5992 68.6039 36.3563 69.8444 34.823 69.8444H31.6196Z" fill="black"/>
<path d="M54.3516 49.8194H57.8299V58.8131H61.5612V49.8194H65.0395V71.9091H61.5612V61.9688H57.8299V71.9091H54.3516V49.8194ZM72.6578 72.2247C70.9502 72.2247 69.6432 71.7408 68.7367 70.7731C67.8303 69.8053 67.3771 68.4379 67.3771 66.6707V55.0578C67.3771 53.2906 67.8303 51.9231 68.7367 50.9554C69.6432 49.9877 70.9502 49.5038 72.6578 49.5038C74.3654 49.5038 75.6723 49.9877 76.5789 50.9554C77.4853 51.9231 77.9385 53.2906 77.9385 55.0578V66.6707C77.9385 68.4379 77.4853 69.8053 76.5789 70.7731C75.6723 71.7408 74.3654 72.2247 72.6578 72.2247ZM72.6578 69.0691C73.8594 69.0691 74.4601 68.3432 74.4601 66.8916V54.8368C74.4601 53.3853 73.8594 52.6595 72.6578 52.6595C71.4562 52.6595 70.8554 53.3853 70.8554 54.8368V66.8916C70.8554 68.3432 71.4562 69.0691 72.6578 69.0691ZM80.2908 49.8194H84.6546L88.0381 63.0417H88.1013V49.8194H91.2002V71.9091H87.627L83.453 55.7836H83.3898V71.9091H80.2908V49.8194ZM93.7855 49.8194H103.272V52.975H97.2639V58.8131H102.039V61.9688H97.2639V68.7535H103.272V71.9091H93.7855V49.8194ZM108.467 62.5052L104.261 49.8194H107.961L110.332 57.9295H110.396L112.767 49.8194H116.151L111.945 62.5052V71.9091H108.467V62.5052ZM117.718 49.8194H122.84C124.569 49.8194 125.865 50.2822 126.73 51.2079C127.594 52.1335 128.026 53.4905 128.026 55.2787V57.4561C128.026 59.2443 127.594 60.6013 126.73 61.527C125.865 62.4526 124.569 62.9155 122.84 62.9155H121.196V71.9091H117.718V49.8194ZM122.84 59.7598C123.409 59.7598 123.831 59.6019 124.105 59.2864C124.4 58.9708 124.548 58.4343 124.548 57.677V55.0578C124.548 54.3004 124.4 53.764 124.105 53.4484C123.831 53.1328 123.409 52.975 122.84 52.975H121.196V59.7598H122.84ZM134.943 72.2247C133.236 72.2247 131.929 71.7408 131.022 70.7731C130.115 69.8053 129.662 68.4379 129.662 66.6707V55.0578C129.662 53.2906 130.115 51.9231 131.022 50.9554C131.929 49.9877 133.236 49.5038 134.943 49.5038C136.651 49.5038 137.957 49.9877 138.865 50.9554C139.771 51.9231 140.223 53.2906 140.223 55.0578V66.6707C140.223 68.4379 139.771 69.8053 138.865 70.7731C137.957 71.7408 136.651 72.2247 134.943 72.2247ZM134.943 69.0691C136.145 69.0691 136.746 68.3432 136.746 66.8916V54.8368C136.746 53.3853 136.145 52.6595 134.943 52.6595C133.741 52.6595 133.141 53.3853 133.141 54.8368V66.8916C133.141 68.3432 133.741 69.0691 134.943 69.0691ZM145.172 52.975H141.536V49.8194H152.287V52.975H148.65V71.9091H145.172V52.975ZM159.035 49.8194H168.237V52.975H162.513V59.1286H167.004V62.2843H162.513V71.9091H159.035V49.8194ZM169.905 49.8194H173.384V71.9091H169.905V49.8194ZM175.989 49.8194H180.352L183.736 63.0417H183.799V49.8194H186.898V71.9091H183.325L179.151 55.7836H179.088V71.9091H175.989V49.8194ZM192.171 49.8194H196.883L200.487 71.9091H197.008L196.377 67.5227V67.5859H192.424L191.791 71.9091H188.566L192.171 49.8194ZM195.966 64.5879L194.416 53.6693H194.353L192.835 64.5879H195.966ZM202.175 49.8194H206.538L209.922 63.0417H209.985V49.8194H213.084V71.9091H209.511L205.337 55.7836H205.274V71.9091H202.175V49.8194ZM220.571 72.2247C218.905 72.2247 217.631 71.7514 216.745 70.8047C215.88 69.8579 215.449 68.5221 215.449 66.7969V54.9315C215.449 53.2065 215.88 51.8706 216.745 50.9238C217.631 49.9771 218.905 49.5038 220.571 49.5038C222.236 49.5038 223.501 49.9771 224.365 50.9238C225.251 51.8706 225.694 53.2065 225.694 54.9315V57.2667H222.405V54.7106C222.405 53.3432 221.825 52.6595 220.666 52.6595C219.506 52.6595 218.927 53.3432 218.927 54.7106V67.0494C218.927 68.3959 219.506 69.0691 220.666 69.0691C221.825 69.0691 222.405 68.3959 222.405 67.0494V63.6728H225.694V66.7969C225.694 68.5221 225.251 69.8579 224.365 70.8047C223.501 71.7514 222.236 72.2247 220.571 72.2247ZM227.775 49.8194H237.261V52.975H231.253V58.8131H236.028V61.9688H231.253V68.7535H237.261V71.9091H227.775V49.8194Z" fill="black"/>
</svg>