<svg width="213" height="43" viewBox="0 0 213 43" fill="none" xmlns="http://www.w3.org/2000/svg">
<g clip-path="url(#clip0_410_3)">
<path d="M8.56089 18.6168C8.51229 18.6168 8.46567 18.5975 8.43131 18.5631C8.39695 18.5287 8.37765 18.4821 8.37765 18.4334C8.37709 17.6508 8.06602 16.9004 7.51281 16.3472C6.95959 15.794 6.20948 15.4833 5.42739 15.4833C5.37878 15.4833 5.33218 15.464 5.29782 15.4296C5.26344 15.3952 5.24414 15.3485 5.24414 15.2999C5.24414 15.2513 5.26344 15.2046 5.29782 15.1702C5.33218 15.1358 5.37878 15.1165 5.42739 15.1165C6.20866 15.1156 6.95769 14.8047 7.51014 14.2519C8.06258 13.699 8.37335 12.9495 8.37425 12.1677C8.37425 12.1191 8.39355 12.0725 8.42791 12.0381C8.46229 12.0037 8.50889 11.9844 8.5575 11.9844C8.6061 11.9844 8.6527 12.0037 8.68706 12.0381C8.72144 12.0725 8.74074 12.1191 8.74074 12.1677C8.74164 12.9495 9.05239 13.699 9.60485 14.2519C10.1573 14.8047 10.9063 15.1156 11.6876 15.1165C11.7117 15.1165 11.7355 15.1213 11.7577 15.1305C11.7799 15.1397 11.8002 15.1532 11.8172 15.1702C11.8342 15.1873 11.8477 15.2075 11.8569 15.2297C11.8661 15.252 11.8708 15.2758 11.8708 15.2999C11.8708 15.324 11.8661 15.3478 11.8569 15.3701C11.8477 15.3923 11.8342 15.4125 11.8172 15.4296C11.8002 15.4466 11.7799 15.4601 11.7577 15.4693C11.7355 15.4785 11.7117 15.4833 11.6876 15.4833C10.9063 15.4842 10.1573 15.7951 9.60485 16.3479C9.05239 16.9008 8.74164 17.6503 8.74074 18.4321C8.74111 18.4803 8.72243 18.5268 8.68876 18.5614C8.65509 18.596 8.60913 18.6159 8.56089 18.6168Z" fill="#3083DC"/>
<path d="M8.57275 12.1709C8.57275 13.0016 8.90253 13.7983 9.48955 14.3857C10.0766 14.9731 10.8727 15.3031 11.7029 15.3031C10.8727 15.3031 10.0766 15.6331 9.48955 16.2205C8.90253 16.8079 8.57275 17.6046 8.57275 18.4353C8.57275 17.6046 8.24299 16.8079 7.65597 16.2205C7.06897 15.6331 6.2728 15.3031 5.44266 15.3031C6.2728 15.3031 7.06897 14.9731 7.65597 14.3857C8.24299 13.7983 8.57275 13.0016 8.57275 12.1709ZM8.57275 11.8042C8.47557 11.8042 8.38234 11.8429 8.3136 11.9116C8.24488 11.9804 8.20626 12.0737 8.20626 12.1709C8.20538 12.9041 7.91391 13.607 7.39583 14.1254C6.87774 14.6438 6.17534 14.9355 5.44266 14.9364C5.34546 14.9364 5.25223 14.975 5.18351 15.0438C5.11477 15.1126 5.07617 15.2058 5.07617 15.3031C5.07617 15.4004 5.11477 15.4936 5.18351 15.5624C5.25223 15.6312 5.34546 15.6698 5.44266 15.6698C6.17534 15.6707 6.87774 15.9624 7.39583 16.4808C7.91391 16.9992 8.20538 17.7021 8.20626 18.4353C8.20626 18.5325 8.24488 18.6258 8.3136 18.6946C8.38234 18.7634 8.47557 18.802 8.57275 18.802C8.66996 18.802 8.76318 18.7634 8.8319 18.6946C8.90064 18.6258 8.93926 18.5325 8.93926 18.4353C8.93997 17.7021 9.23137 16.9991 9.74948 16.4806C10.2676 15.9621 10.9701 15.6706 11.7029 15.6698C11.8001 15.6698 11.8933 15.6312 11.962 15.5624C12.0308 15.4936 12.0693 15.4004 12.0693 15.3031C12.0693 15.2058 12.0308 15.1126 11.962 15.0438C11.8933 14.975 11.8001 14.9364 11.7029 14.9364C10.9701 14.9357 10.2676 14.6441 9.74948 14.1256C9.23137 13.6071 8.93997 12.9042 8.93926 12.1709C8.93926 12.0737 8.90064 11.9804 8.8319 11.9116C8.76318 11.8429 8.66996 11.8042 8.57275 11.8042Z" fill="#3083DC"/>
<path d="M37.0985 6.81632C37.0499 6.81632 37.0034 6.79699 36.969 6.76261C36.9345 6.72821 36.9154 6.68158 36.9154 6.63294C36.9143 5.85116 36.6036 5.10163 36.0511 4.54882C35.4988 3.99601 34.7497 3.68503 33.9685 3.68415C33.9198 3.68415 33.8732 3.66482 33.8389 3.63045C33.8045 3.59605 33.7852 3.54941 33.7852 3.50078C33.7852 3.45215 33.8045 3.40551 33.8389 3.37111C33.8732 3.33673 33.9198 3.31741 33.9685 3.31741C34.7499 3.31652 35.4991 3.00546 36.0513 2.4525C36.6039 1.89954 36.9145 1.14985 36.9154 0.367936C36.9154 0.343856 36.9201 0.320013 36.9292 0.297765C36.9384 0.275519 36.952 0.255304 36.969 0.238278C36.986 0.22125 37.0062 0.207743 37.0284 0.198528C37.0507 0.189313 37.0744 0.18457 37.0985 0.18457C37.1226 0.18457 37.1465 0.189313 37.1686 0.198528C37.191 0.207743 37.211 0.22125 37.2282 0.238278C37.2452 0.255304 37.2586 0.275519 37.2678 0.297765C37.2771 0.320013 37.2818 0.343856 37.2818 0.367936C37.2824 1.14985 37.5931 1.89954 38.1456 2.4525C38.6981 3.00546 39.4473 3.31652 40.2287 3.31741C40.2774 3.31741 40.3238 3.33673 40.3582 3.37111C40.3927 3.40551 40.4118 3.45215 40.4118 3.50078C40.4118 3.54941 40.3927 3.59605 40.3582 3.63045C40.3238 3.66482 40.2774 3.68415 40.2287 3.68415C39.4473 3.68503 38.6984 3.99601 38.1458 4.54882C37.5936 5.10163 37.2827 5.85116 37.2818 6.63294C37.2818 6.68158 37.2624 6.72821 37.2282 6.76261C37.1938 6.79699 37.1471 6.81632 37.0985 6.81632Z" fill="#3083DC"/>
<path d="M37.0982 0.366732C37.098 0.778111 37.1789 1.18548 37.3362 1.56557C37.4934 1.94566 37.7241 2.29102 38.0148 2.58193C38.3054 2.87287 38.6505 3.10363 39.0303 3.26108C39.41 3.41854 39.8171 3.49958 40.2282 3.49958C39.3982 3.49958 38.6019 3.82956 38.015 4.41696C37.4278 5.00436 37.0982 5.80104 37.0982 6.63174C37.0982 6.2204 37.0173 5.81306 36.86 5.43301C36.7028 5.05295 36.4721 4.70764 36.1814 4.41677C35.8908 4.12589 35.5457 3.8952 35.1659 3.73782C34.7862 3.58044 34.3791 3.49949 33.968 3.49958C34.3791 3.49958 34.7862 3.41854 35.1659 3.26108C35.5459 3.10363 35.891 2.87287 36.1817 2.58193C36.4723 2.29102 36.7028 1.94566 36.86 1.56557C37.0173 1.18548 37.0982 0.778111 37.0982 0.366732ZM37.0982 0C37.001 0 36.9078 0.0386374 36.8389 0.107413C36.7703 0.176189 36.7316 0.269468 36.7316 0.366732C36.7309 1.10001 36.4396 1.80306 35.9215 2.32163C35.4032 2.84021 34.7008 3.13195 33.968 3.13285C33.8709 3.13285 33.7776 3.17149 33.7089 3.24027C33.6401 3.30902 33.6016 3.40231 33.6016 3.49958C33.6016 3.59684 33.6401 3.69011 33.7089 3.75889C33.7776 3.82767 33.8709 3.8663 33.968 3.8663C34.7014 3.86613 35.4047 4.15733 35.9237 4.67588C36.4424 5.19444 36.7344 5.89792 36.735 6.63174C36.735 6.72901 36.7735 6.82227 36.8424 6.89105C36.911 6.95983 37.0044 6.99847 37.1014 6.99847C37.1987 6.99847 37.2918 6.95983 37.3607 6.89105C37.4293 6.82227 37.4681 6.72901 37.4681 6.63174C37.4696 5.89971 37.7609 5.1981 38.2783 4.68046C38.7955 4.16283 39.4967 3.87131 40.2282 3.8697C40.3255 3.8697 40.4186 3.83106 40.4875 3.76229C40.5561 3.69351 40.5946 3.60024 40.5946 3.50297C40.5946 3.40571 40.5561 3.31242 40.4875 3.24364C40.4186 3.17488 40.3255 3.13625 40.2282 3.13625C39.4954 3.13534 38.793 2.84359 38.2749 2.32503C37.7568 1.80646 37.4653 1.10341 37.4646 0.370127C37.4646 0.272865 37.4261 0.179585 37.3572 0.110809C37.2886 0.0420334 37.1952 0.00339588 37.0982 0.00339588V0Z" fill="#3083DC"/>
<path d="M68.311 42.9615L45.9217 10.852L39.4676 15.7133L47.3505 25.6028L25.5998 4.05664L1.07617 42.9615H68.311Z" fill="#3083DC"/>
<path d="M25.0273 29.8525C25.0273 29.8525 26.5504 33.964 25.5166 42.9598H29.9044C29.9044 42.9598 32.3735 34.7694 31.6222 33.2012C30.8709 31.6332 25.0273 29.8525 25.0273 29.8525Z" fill="url(#paint0_linear_410_3)"/>
<path d="M48.7598 35.2362C46.4964 27.7882 39.7021 26.4924 36.8828 26.4924C35.5839 26.4924 30.7863 24.428 29.0326 23.5308C28.786 23.405 28.4501 22.6751 28.5519 22.4184L29.0493 21.6102C29.1851 21.0499 29.2884 20.4352 28.8181 20.1018L27.9962 19.6943C27.8759 19.6337 27.7404 19.611 27.6072 19.6291C27.4738 19.6471 27.3492 19.7052 27.2496 19.7955L26.4677 20.5011C26.4677 20.5011 22.5421 19.6332 21.8613 19.7357C21.4631 19.7962 21.0911 20.4583 20.8509 20.9982C20.7849 21.138 20.6703 21.2488 20.5284 21.3098C20.3865 21.3709 20.2273 21.3779 20.0806 21.3297C18.6818 20.8393 18.1124 20.9989 18.1124 20.9989C18.1124 20.9989 16.8839 22.597 18.1124 23.8262C27.6242 33.6057 30.8487 31.6545 32.0546 42.9988H36.3983L38.4222 38.7203L41.8638 38.7508L43.5054 42.9995H49.9225L48.7598 35.2362ZM22.2605 21.8275C22.1748 21.8275 22.0909 21.802 22.0195 21.7542C21.9483 21.7067 21.8928 21.6388 21.8598 21.5596C21.8269 21.4803 21.8185 21.393 21.8351 21.3088C21.8519 21.2247 21.8932 21.1473 21.9539 21.0866C22.0145 21.026 22.0918 20.9846 22.1759 20.9679C22.26 20.9511 22.3472 20.9597 22.4266 20.9926C22.5057 21.0254 22.5735 21.081 22.621 21.1524C22.6688 21.2238 22.6942 21.3077 22.6942 21.3935C22.6942 21.5087 22.6486 21.619 22.5673 21.7003C22.4859 21.7817 22.3756 21.8275 22.2605 21.8275Z" fill="white"/>
<path d="M97.7263 42.5584L83.4351 26.4334L97.4176 11.6338H103.901L88.4634 27.7146V24.9314L104.342 42.5584H97.7263ZM79.0684 42.5584V11.6338H84.1408V42.5584H79.0684Z" fill="#3083DC"/>
<path d="M115.634 43.0002C113.575 43.0002 111.708 42.5143 110.032 41.5423C108.356 40.541 107.018 39.2009 106.018 37.5222C105.048 35.8433 104.562 33.9732 104.562 31.9115C104.562 29.8499 105.048 27.9942 106.018 26.345C107.018 24.6957 108.356 23.3851 110.032 22.4133C111.708 21.4118 113.575 20.9111 115.634 20.9111C117.722 20.9111 119.604 21.3971 121.28 22.369C122.956 23.341 124.279 24.6663 125.249 26.345C126.249 27.9942 126.749 29.8499 126.749 31.9115C126.749 33.9732 126.249 35.8433 125.249 37.5222C124.279 39.2009 122.956 40.541 121.28 41.5423C119.604 42.5143 117.722 43.0002 115.634 43.0002ZM115.634 38.3173C116.839 38.3173 117.898 38.0522 118.81 37.5222C119.75 36.9625 120.471 36.1967 120.971 35.2249C121.5 34.2529 121.765 33.1484 121.765 31.9115C121.765 30.6744 121.5 29.5848 120.971 28.6423C120.442 27.6999 119.721 26.9635 118.81 26.4333C117.898 25.8737 116.839 25.594 115.634 25.594C114.458 25.594 113.399 25.8737 112.458 26.4333C111.546 26.9635 110.826 27.6999 110.297 28.6423C109.797 29.5848 109.547 30.6744 109.547 31.9115C109.547 33.1484 109.797 34.2529 110.297 35.2249C110.826 36.1967 111.546 36.9625 112.458 37.5222C113.399 38.0522 114.458 38.3173 115.634 38.3173Z" fill="#3083DC"/>
<path d="M139.652 43C137.741 43 136.006 42.5141 134.447 41.5421C132.918 40.5703 131.698 39.2596 130.786 37.6104C129.904 35.9314 129.463 34.0614 129.463 31.9997C129.463 29.9087 129.904 28.0384 130.786 26.3891C131.698 24.7104 132.918 23.3849 134.447 22.4131C136.006 21.4116 137.741 20.911 139.652 20.911C141.269 20.911 142.696 21.2644 143.931 21.9713C145.195 22.6485 146.195 23.5911 146.93 24.7985C147.665 26.0062 148.033 27.3757 148.033 28.9072V35.0037C148.033 36.5354 147.665 37.9047 146.93 39.1124C146.224 40.3198 145.239 41.277 143.975 41.9839C142.71 42.6614 141.269 43 139.652 43ZM140.446 38.4055C141.652 38.4055 142.696 38.1404 143.578 37.6104C144.489 37.0507 145.195 36.2849 145.695 35.3131C146.195 34.3411 146.445 33.222 146.445 31.9555C146.445 30.6891 146.195 29.5698 145.695 28.598C145.195 27.626 144.489 26.875 143.578 26.3448C142.696 25.7854 141.652 25.5055 140.446 25.5055C139.27 25.5055 138.226 25.7854 137.314 26.3448C136.432 26.875 135.726 27.626 135.197 28.598C134.697 29.5698 134.447 30.6891 134.447 31.9555C134.447 33.222 134.697 34.3411 135.197 35.3131C135.726 36.2849 136.432 37.0507 137.314 37.6104C138.226 38.1404 139.27 38.4055 140.446 38.4055ZM150.988 42.5582H146.136V36.8592L146.974 31.6904L146.136 26.5658V10.75H150.988V42.5582Z" fill="#3083DC"/>
<path d="M156.416 42.5584V21.353H161.268V42.5584H156.416ZM158.842 17.4653C158.018 17.4653 157.327 17.1855 156.769 16.6259C156.239 16.0663 155.975 15.3742 155.975 14.5495C155.975 13.7249 156.239 13.0328 156.769 12.4732C157.327 11.9136 158.018 11.6338 158.842 11.6338C159.694 11.6338 160.385 11.9136 160.915 12.4732C161.444 13.0328 161.709 13.7249 161.709 14.5495C161.709 15.3742 161.444 16.0663 160.915 16.6259C160.385 17.1855 159.694 17.4653 158.842 17.4653Z" fill="#3083DC"/>
<path d="M175.576 43.0002C173.664 43.0002 171.929 42.5143 170.371 41.5423C168.842 40.5705 167.622 39.2598 166.71 37.6105C165.828 35.9316 165.387 34.0615 165.387 31.9999C165.387 29.9088 165.828 28.0385 166.71 26.3893C167.622 24.7105 168.842 23.3851 170.371 22.4133C171.929 21.4118 173.664 20.9111 175.576 20.9111C177.193 20.9111 178.619 21.2645 179.854 21.9714C181.119 22.6487 182.119 23.5913 182.854 24.7987C183.589 26.0064 183.956 27.3759 183.956 28.9073V35.0039C183.956 36.5355 183.589 37.9049 182.854 39.1125C182.148 40.32 181.163 41.2772 179.898 41.9841C178.634 42.6615 177.193 43.0002 175.576 43.0002ZM176.37 38.4056C178.164 38.4056 179.604 37.8019 180.692 36.5942C181.81 35.3868 182.369 33.8405 182.369 31.9556C182.369 30.6893 182.119 29.57 181.619 28.5982C181.119 27.6262 180.413 26.8752 179.502 26.345C178.619 25.7855 177.575 25.5056 176.37 25.5056C175.194 25.5056 174.15 25.7855 173.238 26.345C172.356 26.8752 171.65 27.6262 171.121 28.5982C170.621 29.57 170.371 30.6893 170.371 31.9556C170.371 33.2222 170.621 34.3413 171.121 35.3133C171.65 36.2851 172.356 37.0509 173.238 37.6105C174.15 38.1405 175.194 38.4056 176.37 38.4056ZM182.06 42.5583V36.8593L182.898 31.6905L182.06 26.566V21.3529H186.912V42.5583H182.06Z" fill="#3083DC"/>
<path d="M205.75 42.5582L196.796 31.7346L205.706 21.3527H211.484L201.251 33.0158L201.471 30.2324L211.925 42.5582H205.75ZM192.297 42.5582V10.75H197.149V42.5582H192.297Z" fill="#3083DC"/>
</g>
<defs>
<linearGradient id="paint0_linear_410_3" x1="26.4187" y1="37.53" x2="31.0227" y2="32.5972" gradientUnits="userSpaceOnUse">
<stop stop-color="white"/>
<stop offset="0.14" stop-color="#F8F8F8"/>
<stop offset="0.35" stop-color="#E3E3E3"/>
<stop offset="0.6" stop-color="#C2C2C2"/>
<stop offset="0.89" stop-color="#949494"/>
<stop offset="1" stop-color="#808080"/>
</linearGradient>
<clipPath id="clip0_410_3">
<rect width="213" height="43" fill="white"/>
</clipPath>
</defs>
</svg>
