<svg width="109" height="66" viewBox="0 0 109 66" fill="none" xmlns="http://www.w3.org/2000/svg">
<path d="M76.9018 16.8033L83.259 24.3658C83.9866 25.2153 84.632 25.914 84.8927 26.3113C86.7941 28.2243 87.8599 30.8097 87.8586 33.5038C87.6798 36.6823 85.6342 38.8469 83.7393 41.1623L79.2909 46.4504L76.9707 49.1906C76.8872 49.2851 76.8338 49.4018 76.8163 49.5264C76.7988 49.651 76.8183 49.778 76.8721 49.8915C76.9263 50.0053 77.0126 50.1006 77.1202 50.1662C77.2282 50.2314 77.3524 50.2635 77.4787 50.259H100.669C104.211 50.259 108.673 53.2731 108.412 57.849C108.405 59.9288 107.574 61.9212 106.1 63.3922C104.626 64.8627 102.629 65.6919 100.545 65.6993H64.229C61.84 65.6993 55.4143 65.9596 53.6156 60.411C53.2331 59.2515 53.1809 58.0091 53.4649 56.8215C53.9876 55.0659 54.8146 53.415 55.9085 51.9445C57.7349 49.2042 59.7121 46.4644 61.6615 43.8063C64.174 40.3265 66.7553 36.9563 69.2955 33.408C69.3856 33.2925 69.4345 33.1502 69.4345 33.0038C69.4345 32.8574 69.3856 32.7151 69.2955 32.5996L60.069 21.6395C60.0087 21.5601 59.9309 21.4956 59.8416 21.4512C59.7524 21.4069 59.6538 21.3838 59.554 21.3838C59.4542 21.3838 59.3556 21.4069 59.2664 21.4512C59.1772 21.4956 59.0993 21.5601 59.039 21.6395C56.5677 24.9686 45.7486 39.71 43.4419 42.6966C41.1351 45.6831 35.4509 45.8477 32.3068 42.6966L17.8765 28.243C17.7843 28.1507 17.6667 28.0878 17.5387 28.0623C17.4106 28.0368 17.2779 28.0498 17.1573 28.0997C17.0366 28.1496 16.9336 28.2341 16.8612 28.3426C16.7888 28.451 16.7503 28.5785 16.7506 28.7088V56.5063C16.7846 58.4789 16.1992 60.4127 15.0764 62.0367C13.9537 63.6607 12.3499 64.8937 10.4897 65.5623C9.30115 65.9753 8.0309 66.0982 6.78488 65.9216C5.53887 65.7451 4.35323 65.274 3.32677 64.5476C2.30032 63.8208 1.46283 62.8601 0.884131 61.7447C0.305435 60.6297 0.00229883 59.3926 0 58.1369V8.15851C0.0827245 6.35741 0.732205 4.62817 1.85616 3.21643C2.98011 1.8047 4.52137 0.782335 6.26088 0.294601C7.75305 -0.102064 9.32376 -0.0980954 10.8139 0.306103C12.304 0.7103 13.6605 1.50037 14.7461 2.59623L36.9338 24.7631C37.0002 24.8305 37.0806 24.8824 37.1694 24.9152C37.2581 24.9481 37.353 24.9611 37.4474 24.9532C37.5417 24.9454 37.6332 24.9169 37.7153 24.8699C37.7973 24.8228 37.868 24.7583 37.9223 24.6809L53.6845 2.91134C54.4129 2.02758 55.3259 1.31338 56.3599 0.818775C57.3939 0.324167 58.5241 0.0611012 59.6705 0.0479994H100.669C101.791 0.0498449 102.899 0.290716 103.92 0.754508C104.942 1.2183 105.852 1.89432 106.59 2.73735C107.328 3.58038 107.878 4.57099 108.201 5.64292C108.525 6.71488 108.616 7.84344 108.467 8.95311C108.178 10.8781 107.199 12.6332 105.712 13.8929C104.225 15.1526 102.331 15.8313 100.38 15.8032H77.4237C77.3084 15.806 77.196 15.8396 77.0978 15.9006C77 15.9615 76.9202 16.0475 76.8668 16.1496C76.8138 16.2518 76.789 16.3663 76.7951 16.4812C76.8012 16.5962 76.8379 16.7074 76.9018 16.8033Z" fill="#E42575"/>
</svg>
