<svg width="90" height="84" viewBox="0 0 90 84" fill="none" xmlns="http://www.w3.org/2000/svg">
<path fill-rule="evenodd" clip-rule="evenodd" d="M41.2935 0.00178904C41.5925 -0.00794649 41.7372 0.0212607 41.7372 0.108881C41.7372 0.177029 41.4864 0.274383 41.1006 0.342533C40.7533 0.400945 40.3192 0.430152 40.136 0.39121C39.9528 0.352268 39.7887 0.264649 39.7695 0.206236C39.7502 0.118616 39.9045 0.0699377 40.2903 0.0504667C40.599 0.0309956 41.0523 0.0115245 41.2935 0.00178904ZM39.0364 0.293855C39.1039 0.284119 39.1617 0.323061 39.1617 0.371739C39.1617 0.430152 39.1714 0.498301 39.1811 0.527508C39.2003 0.556715 38.1876 0.839046 36.9432 1.16032C35.699 1.47186 34.5897 1.73472 34.4836 1.73472C34.3775 1.73472 34.0592 1.63736 33.7794 1.5108C33.4998 1.39397 33.2778 1.27714 33.2778 1.24794C33.2778 1.21873 33.7891 1.05323 34.4064 0.877985C35.0334 0.712484 35.9787 0.517773 36.5092 0.469095C37.0397 0.410682 37.8018 0.362004 38.1973 0.342533C38.5927 0.323061 38.9785 0.30359 39.0364 0.293855ZM45.8559 0.381476C46.5697 0.413928 47.2321 0.517773 47.843 0.693012C48.3446 0.829309 49.1066 1.0727 49.531 1.22847C49.9554 1.38424 50.7463 1.71524 51.2865 1.96836C51.8363 2.21175 52.4922 2.53303 52.7623 2.6888C53.0228 2.83482 53.2542 2.99059 53.2832 3.04901C53.3025 3.10742 52.9167 3.17557 52.2897 3.21451C51.7302 3.25345 50.7849 3.35081 50.2062 3.42869C49.6274 3.51632 48.9715 3.60394 48.7593 3.62341C48.5471 3.65261 48.1806 3.70129 47.9394 3.7305C47.5247 3.78891 47.4668 3.75971 46.7337 3.23398C46.3093 2.92244 45.7016 2.52329 45.3833 2.33832C45.065 2.15334 44.3898 1.79312 43.8882 1.54001C43.3867 1.28688 42.8079 1.03375 42.6053 0.975341C42.4124 0.907192 42.2387 0.800103 42.2292 0.722219C42.2195 0.624863 42.4992 0.556714 43.3673 0.469095C43.9943 0.410682 44.5731 0.352268 44.6502 0.342533C44.7177 0.332797 45.2676 0.352269 45.8559 0.381476ZM50.4087 0.809838C50.7752 0.877985 51.2673 0.985076 51.5083 1.05323C51.7495 1.12137 52.0099 1.17979 52.0871 1.19926C52.1642 1.21873 52.6176 1.34529 53.0999 1.49133C53.5822 1.62763 54.3828 1.88075 54.8844 2.04625C55.386 2.21175 55.9743 2.4162 56.1866 2.51356C56.3987 2.61091 56.9486 2.84456 57.4116 3.03927C57.8842 3.23398 58.2604 3.42869 58.2604 3.48711C58.2604 3.54552 58.1157 3.56499 57.9421 3.54552C57.7781 3.51632 57.045 3.44817 56.3313 3.38975C55.6174 3.3216 54.9615 3.24372 54.8844 3.20478C54.8072 3.16583 54.4986 2.99059 54.2092 2.83482C53.9198 2.66933 53.3314 2.35779 52.907 2.1436C52.4826 1.92942 51.8556 1.6471 51.5083 1.5108C51.1611 1.3745 50.6306 1.17979 50.3316 1.08243C50.0229 0.985076 49.7722 0.858514 49.7625 0.800102C49.7528 0.712482 49.9264 0.722219 50.4087 0.809838ZM40.435 0.965605C40.5315 0.95587 40.8402 1.04349 41.1102 1.15058C41.39 1.24794 41.9687 1.5108 42.3931 1.71524C42.8175 1.92942 43.4252 2.26043 43.7435 2.46488C44.0618 2.66933 44.6598 3.07821 45.0747 3.38002C45.4894 3.68182 45.827 3.96415 45.827 4.02256C45.827 4.08097 45.6534 4.1686 45.4605 4.23674C45.2579 4.29516 44.8142 4.40225 44.4669 4.4704C44.1197 4.53855 43.3384 4.71379 42.7308 4.85982C42.123 5.00585 41.1392 5.26871 40.5604 5.43421C39.9817 5.59972 39.3643 5.77496 39.21 5.82364C39.046 5.87231 38.8338 5.94046 38.7277 5.96967C38.5734 6.01835 38.448 5.92099 38.1007 5.41474C37.8596 5.08373 37.1362 4.25621 36.4899 3.58446C35.834 2.91271 35.3035 2.33832 35.3035 2.29937C35.3035 2.2507 35.4482 2.18255 35.6122 2.13387C35.7857 2.07545 36.2777 1.93916 36.7021 1.83207C37.1265 1.71525 37.5606 1.59842 37.6667 1.57895C37.7728 1.55948 38.1393 1.48159 38.4866 1.39397C38.8338 1.30635 39.374 1.17979 39.6923 1.11164C40.0106 1.03375 40.3482 0.975341 40.435 0.965605ZM32.0914 1.6471C32.2651 1.63736 32.5641 1.71524 32.7473 1.81259C32.9402 1.90021 33.085 2.03651 33.085 2.10466C33.085 2.16308 32.9885 2.26043 32.8631 2.30911C32.7473 2.35779 32.13 2.58171 31.4934 2.80562C30.8567 3.02954 30.0272 3.33134 29.6607 3.46764C29.2845 3.60394 28.9469 3.74997 28.8891 3.79865C28.8408 3.83759 28.7154 3.87653 28.5997 3.87653C28.4261 3.87653 28.4164 3.83758 28.4743 3.46764C28.5128 3.23398 28.6286 2.97113 28.7154 2.87377C28.8119 2.77642 29.4099 2.51356 30.0466 2.28964C30.6832 2.05598 31.3294 1.82233 31.4934 1.76392C31.6477 1.7055 31.9275 1.65683 32.0914 1.6471ZM33.9048 2.63038L34.6572 3.42869C35.072 3.85706 35.7568 4.69431 36.1716 5.28818C36.596 5.88205 36.9336 6.38829 36.9432 6.43697C36.9432 6.47591 36.5863 6.62195 36.1427 6.75825C35.7086 6.90428 34.609 7.2937 33.7119 7.62471C32.8052 7.96545 31.5223 8.46199 30.8375 8.73457C30.1623 9.00715 29.5836 9.2311 29.5353 9.2311C29.4968 9.2311 29.3713 8.8027 29.2459 8.28673C29.1206 7.761 28.918 6.82639 28.7829 6.21306C28.6576 5.59972 28.5514 4.99611 28.5514 4.87929C28.5514 4.71379 28.6576 4.60669 28.9566 4.4704C29.1881 4.37304 30.1912 3.98362 31.204 3.61367C32.2168 3.23398 33.2297 2.86403 33.4707 2.78615L33.9048 2.63038ZM27.4518 3.48711C27.529 3.47737 27.5483 3.62341 27.5193 3.896C27.4904 4.11992 27.4229 4.3633 27.3554 4.43145C27.2975 4.4996 27.2011 4.55802 27.1528 4.55802C27.1046 4.54828 26.2654 4.94744 25.2912 5.42448C24.3266 5.91126 23.5163 6.30067 23.4874 6.30067C23.4585 6.30067 23.4392 6.252 23.4392 6.18385C23.4488 6.1157 23.5839 5.90152 23.7575 5.70681C23.9312 5.50236 24.3266 5.18109 24.6449 4.97664C24.9632 4.7722 25.7059 4.35357 26.2847 4.04204C26.8634 3.74023 27.3939 3.48711 27.4518 3.48711ZM54.1128 4.26595C55.2798 4.25621 55.3281 4.26595 55.7236 4.52881C55.9357 4.67484 56.4373 5.03506 56.8328 5.33686C57.2187 5.62892 58.0772 6.38829 58.7427 7.00164C59.4083 7.62471 60.2378 8.43276 60.585 8.8027C60.9323 9.16289 61.3953 9.68864 61.6268 9.95148C61.8486 10.2241 62.0319 10.4577 62.0222 10.487C62.0222 10.5161 61.1445 10.5941 60.0738 10.6622C58.9935 10.7303 57.6623 10.8569 57.1029 10.9348C56.5434 11.0127 55.9357 11.0905 55.7525 11.11C55.5692 11.1295 55.1738 11.1782 54.3538 11.2756L53.5822 10.2241C53.1674 9.64967 52.2993 8.56909 51.6531 7.81942C51.0164 7.07952 50.1193 6.09623 49.6467 5.65813C49.1838 5.21029 48.8365 4.82088 48.8751 4.80141C48.9233 4.78194 49.232 4.73326 49.5792 4.70405C49.9264 4.66511 50.8138 4.55802 51.5566 4.46066C52.2993 4.35357 53.4472 4.27568 54.1128 4.26595ZM57.8167 4.29516C58.2507 4.32436 59.0321 4.43145 59.5626 4.52881C60.0931 4.62617 60.7683 4.82088 61.0577 4.96691C61.347 5.10321 61.9354 5.45368 62.3598 5.73602C62.7843 6.02808 63.5848 6.60248 64.1443 7.03084C64.7037 7.44946 65.1764 7.81942 65.2053 7.85836C65.2342 7.88757 65.5526 8.1699 65.9287 8.49114C66.3049 8.81244 66.9802 9.42581 67.4528 9.85412C67.9158 10.2825 68.3884 10.7596 68.7261 11.2074L68.2438 11.1392C67.9737 11.11 67.4624 11.0127 67.0863 10.9348C66.7101 10.8569 65.8034 10.7693 63.7103 10.6817L63.1412 10.0197C62.8228 9.65941 62.0608 8.86116 61.4532 8.23805C60.8358 7.62471 59.8327 6.69983 59.225 6.19358C58.6172 5.68734 57.8457 5.08374 57.508 4.85982C57.1415 4.60669 56.9389 4.41198 56.9775 4.34383C57.0257 4.26595 57.2862 4.24648 57.8167 4.29516ZM47.1195 5.14214C47.1677 5.13241 47.6115 5.5413 48.0938 6.03782C48.5857 6.53433 49.4345 7.47867 49.9747 8.15043C50.5245 8.82218 51.3154 9.85412 51.7303 10.4383C52.145 11.0321 52.4826 11.5579 52.4922 11.6065C52.4922 11.6649 52.3572 11.7331 52.1739 11.7623C51.9907 11.7915 51.3058 11.9376 50.6402 12.0738C49.9747 12.2199 48.6725 12.5314 47.7465 12.7651C46.8205 13.0085 45.7306 13.2908 45.3351 13.3979C44.9396 13.5147 44.3223 13.6899 43.3095 13.9917L42.9526 13.3395C42.7597 12.9793 42.3738 12.2588 42.0844 11.7526C41.8047 11.2463 41.5732 10.8179 41.5732 10.8082C41.5732 10.7888 41.3707 10.4383 41.1199 10.0293C40.8787 9.61078 40.5701 9.09476 40.435 8.88056C40.3 8.66645 39.9913 8.19911 39.7502 7.82915C39.4608 7.41053 39.3451 7.13793 39.4029 7.07952C39.4512 7.04058 39.7598 6.93349 40.0782 6.84587C40.3964 6.76798 41.0909 6.583 41.6214 6.43697C42.152 6.29094 43.5892 5.9502 44.8046 5.66787C46.0199 5.3758 47.0713 5.14214 47.1195 5.14214ZM27.2686 5.2395C27.3522 5.23302 27.4068 5.46667 27.4326 5.94046C27.4615 6.32989 27.5676 7.14767 27.6737 7.761C27.7798 8.37435 27.8859 9.124 27.992 9.95148L27.0853 10.3409C26.5933 10.5551 25.0886 11.2852 23.7575 11.9667C22.0888 12.8234 21.2978 13.174 21.2689 13.0961C21.24 13.0279 21.3075 12.3561 21.4136 11.6065C21.5197 10.8569 21.6837 10.0002 21.7705 9.70813C21.8573 9.41606 22.0502 8.82218 22.4746 7.61497L23.6128 6.9919C24.2302 6.65115 25.2815 6.1157 25.9471 5.80416C26.6127 5.50236 27.2107 5.2395 27.2686 5.2395ZM22.2142 6.59274C22.2527 6.59274 22.2817 6.65115 22.2817 6.7193C22.2817 6.78745 22.1852 6.93349 22.0695 7.04058C21.9441 7.1574 21.6162 7.38132 21.3461 7.55656C21.0663 7.72206 20.8156 7.82915 20.7866 7.79021C20.7673 7.75127 21.0567 7.45921 21.4425 7.1574C21.8188 6.84586 22.1659 6.60248 22.2142 6.59274ZM37.4737 7.67338C37.5992 7.66365 37.7535 7.80968 37.9175 8.08228C38.0622 8.3062 38.5155 9.10451 38.9302 9.85412C39.3354 10.6037 40.0396 11.9376 40.4832 12.8234C40.927 13.7094 41.2935 14.4785 41.2838 14.5272C41.2838 14.5856 41.0234 14.7024 40.7051 14.7998C40.3868 14.8874 39.9334 14.9653 39.6923 14.9653C39.4512 14.9653 38.9882 15.0335 38.6602 15.1113C38.3226 15.1892 37.8789 15.3255 37.6667 15.4132C37.4545 15.5008 37.1555 15.6663 36.9915 15.7734C36.7021 15.9681 36.7021 15.9681 36.461 15.7734C36.3259 15.6663 36.0655 15.5008 35.8822 15.4034C35.699 15.3061 35.3035 15.1697 35.0141 15.1016C34.6862 15.0237 33.847 14.975 31.1558 14.9653L30.8567 13.9723C30.7024 13.4173 30.4806 12.7067 30.3745 12.3854C30.2684 12.0641 30.1044 11.5384 30.008 11.2171C29.8729 10.779 29.8537 10.6037 29.9404 10.5259C29.9983 10.4772 30.4131 10.2728 30.8664 10.0781C31.3197 9.88336 32.1686 9.54257 32.7473 9.30896C33.3261 9.08502 34.5897 8.62747 35.5447 8.28673C36.4996 7.95572 37.3677 7.67338 37.4737 7.67338ZM21.1821 8.45225C21.1917 8.4425 21.1821 8.53986 21.1628 8.66645C21.1435 8.78321 21.0857 8.96818 21.0374 9.07528C20.9892 9.18238 20.8348 9.60103 20.7094 10.0002C20.5841 10.3994 20.3815 11.149 20.2657 11.6553C20.15 12.1614 20.0246 12.9111 19.9185 14.0307L17.9893 15.199L17.4588 15.0821C17.1694 15.0237 16.5907 14.9653 16.1856 14.9653C15.6454 14.9653 15.4332 14.9361 15.4332 14.8485C15.4332 14.7803 15.5297 14.5272 15.6357 14.2838C15.7419 14.0404 15.9155 13.6899 16.012 13.5049C16.1084 13.32 16.3207 12.9014 16.4942 12.5801C16.6678 12.2588 16.9765 11.7331 17.1887 11.4118C17.4299 11.0614 17.8061 10.6622 18.1726 10.3994C18.4909 10.1559 19.1951 9.65941 19.7256 9.29922C20.2657 8.92928 20.8059 8.5885 20.9313 8.53986C21.0663 8.49114 21.1821 8.45225 21.1821 8.45225ZM67.6264 9.05587C67.7132 9.124 68.2148 9.53291 68.7357 9.97097C69.2662 10.4091 69.9318 11.0029 70.2212 11.295C70.5684 11.6455 70.7131 11.85 70.6359 11.8889C70.5684 11.9181 70.3948 11.8986 70.2501 11.8305C70.115 11.7623 69.3916 11.1003 68.6585 10.3701C67.9254 9.63026 67.3563 9.00715 67.3949 8.97792C67.4238 8.94877 67.53 8.98766 67.6264 9.05587ZM28.2524 11.2074C28.2813 11.2269 28.3489 11.4118 28.3875 11.6163C28.4357 11.8305 28.619 12.5411 28.7926 13.2129C28.9663 13.8846 29.1398 14.5661 29.1687 14.7219C29.2363 15.014 29.2267 15.014 28.6286 15.1892C28.291 15.2866 27.8473 15.4618 27.2493 15.822L26.8152 15.5397C26.5741 15.3839 26.0917 15.1892 25.7349 15.1113C25.2719 15.014 24.5099 14.9653 23.1498 14.9653C21.9248 14.9653 21.2207 14.9361 21.2207 14.8679C21.2207 14.8193 21.3653 14.6829 21.539 14.5758C21.703 14.4687 22.5228 14.0209 23.3427 13.5829C24.1627 13.1447 25.5709 12.4438 26.4776 12.0252C27.3843 11.6065 28.1367 11.2463 28.156 11.2171C28.1753 11.1976 28.2138 11.1879 28.2524 11.2074ZM65.8998 12.2004C66.3918 12.2296 67.0959 12.2978 67.4721 12.3464C67.8483 12.3951 68.6007 12.5315 69.1601 12.6482C70.1054 12.8429 70.2018 12.8819 70.5491 13.2518C70.7613 13.4758 71.2243 14.0502 71.5716 14.5272C71.9284 15.014 72.5361 15.9097 72.9413 16.523C73.3368 17.1363 73.9347 18.1294 74.2723 18.7134C74.61 19.3073 75.1597 20.3296 75.4877 21.0013C75.8253 21.6731 76.0665 22.2572 76.0279 22.2961C75.9893 22.3448 75.372 22.267 74.6582 22.1306C73.9444 22.0041 73.1824 21.8678 72.9702 21.8386C72.758 21.8093 72.4107 21.7802 72.1985 21.7704C71.9863 21.7704 71.4751 21.751 70.3176 21.6828L70.1054 21.1766C69.9897 20.8942 69.6424 20.1544 69.3434 19.541C69.0443 18.9276 68.4753 17.8567 68.0798 17.1558C67.6843 16.4646 67.0187 15.3644 66.604 14.7219C66.1892 14.0793 65.6587 13.2908 65.4272 12.9695C65.1957 12.6482 65.0028 12.3367 65.0028 12.2685C65.0028 12.1907 65.2439 12.1712 65.8998 12.2004ZM16.0602 12.327C16.1277 12.3951 16.012 12.6677 15.7129 13.1837C15.4622 13.6023 15.1535 14.1767 14.758 14.9653H14.2757C14.0152 14.9653 13.7934 14.9264 13.7934 14.8679C13.7934 14.8193 13.9285 14.5661 14.1021 14.313C14.2758 14.0599 14.758 13.4855 15.1824 13.0376C15.7033 12.5022 15.983 12.2685 16.0602 12.327ZM62.1669 12.2588C63.2472 12.249 63.4402 12.2685 63.5366 12.4146C63.6042 12.5022 63.826 12.8234 64.0189 13.1155C64.2118 13.4076 64.4047 13.6705 64.4433 13.6996C64.4819 13.7289 64.7327 14.0988 64.9932 14.5272C65.2632 14.9555 65.7455 15.7441 66.0542 16.2796C66.3725 16.815 66.8837 17.7107 67.1827 18.2754C67.4818 18.84 67.9544 19.8038 68.2438 20.4172C68.5717 21.1376 68.7164 21.5757 68.6585 21.6341C68.6103 21.6926 67.7615 21.7607 66.768 21.7996C65.7744 21.8386 64.3179 21.9554 63.5173 22.0625C62.7264 22.1794 61.7425 22.3156 61.347 22.3741C60.9516 22.4325 60.5657 22.5006 60.5078 22.5201C60.4403 22.5493 60.3053 22.3741 60.1992 22.1501C60.1027 21.9164 59.8616 21.3615 59.659 20.904C59.4565 20.4464 58.9549 19.3949 58.5401 18.5674C58.1253 17.74 57.5852 16.6884 57.3344 16.2309C57.0933 15.7734 56.6688 15.0335 56.4084 14.5758C56.1383 14.1183 55.8103 13.6023 55.6657 13.4271C55.4535 13.1447 55.4342 13.0864 55.5596 13.0182C55.6367 12.9695 56.0515 12.8819 56.4759 12.8234C56.9003 12.7651 57.4212 12.6872 57.6334 12.6677C57.8456 12.6482 58.6752 12.5411 59.4661 12.4438C60.2667 12.3464 61.4821 12.2588 62.1669 12.2588ZM53.4857 13.32C53.6304 13.3102 53.8137 13.5244 54.2188 14.2059C54.5178 14.7024 55.1159 15.7734 55.5402 16.5717C55.9647 17.3797 56.6013 18.6258 56.9389 19.3463C57.2862 20.0667 57.7685 21.1182 58.0192 21.6828C58.2604 22.2475 58.4533 22.7538 58.4243 22.8024C58.4051 22.8608 57.9132 22.9971 57.3344 23.1139C56.7557 23.2308 55.8683 23.4158 55.3667 23.5326C54.8651 23.6396 53.9584 23.8538 52.28 24.2627L51.9618 23.7857C51.7977 23.5326 51.5952 23.2892 51.5277 23.2502C51.4216 23.2016 51.4312 23.1237 51.5469 22.8024C51.6241 22.5882 51.7302 22.189 51.7881 21.9067C51.8942 21.3908 51.8942 21.3908 52.4054 21.2544C52.6755 21.1766 53.0806 20.9819 53.2928 20.8261C53.505 20.6703 53.7944 20.3685 53.9391 20.164C54.0837 19.9597 54.2863 19.5896 54.3924 19.3463C54.4889 19.1029 54.6239 18.6453 54.6915 18.324C54.7782 17.8665 54.7783 17.6134 54.6818 17.1071C54.5983 16.6853 54.4567 16.3445 54.2574 16.0849C54.0934 15.8707 53.7848 15.5884 53.5726 15.4618C53.37 15.3255 52.9842 15.1697 52.7141 15.0919C52.3765 15.0042 51.4697 14.9653 49.7817 14.9653C47.8526 14.9653 47.3317 14.9361 47.3703 14.8485C47.3992 14.7803 47.9008 14.6051 48.4796 14.4591C49.0583 14.313 50.1387 14.0599 50.8814 13.8944C51.6241 13.7289 52.4729 13.5342 52.7623 13.466C53.0517 13.3882 53.3797 13.3297 53.4857 13.32ZM72.131 13.7386C72.2757 13.8165 72.6423 14.0891 72.9413 14.3422C73.2402 14.6051 73.7418 15.1308 74.0505 15.5008C74.3688 15.8805 75.1212 16.9026 75.7385 17.7886C76.3462 18.6745 77.1275 19.8331 77.4748 20.3685C77.822 20.904 78.2947 21.712 78.5454 22.1696C78.7866 22.6272 79.0952 23.221 79.2207 23.4839C79.3557 23.7565 79.4522 24.0096 79.4232 24.0485C79.4039 24.0875 79.1338 23.9512 78.8348 23.7467C78.5262 23.5423 78.0342 23.2599 77.7448 23.1237C77.2432 22.8997 77.195 22.8414 76.8767 22.1599C76.6934 21.7704 76.2208 20.8261 75.8253 20.0764C75.4298 19.3268 74.7353 18.1196 74.2723 17.3992C73.819 16.6788 73.0667 15.5689 72.6037 14.9459C72.1407 14.313 71.7837 13.7581 71.8223 13.6996C71.8512 13.6413 71.967 13.651 72.131 13.7386ZM10.292 17.331C17.0922 17.3505 17.1598 17.3505 17.4299 17.5549C17.5746 17.6718 17.7386 17.9054 17.7868 18.0904C17.8639 18.363 17.8253 18.5869 17.5842 19.2976C17.4202 19.7844 17.0633 20.7871 16.7932 21.5368C16.5232 22.2864 16.1856 23.075 16.0312 23.2892C15.8866 23.5034 15.5779 23.8149 14.9317 24.2627L11.4303 24.3211L10.6683 26.4338C10.2438 27.602 9.73258 29.0039 9.51075 29.5686C9.20208 30.3961 9.03808 30.6785 8.68117 31.0289C8.40142 31.3113 8.08315 31.5157 7.81307 31.5936C7.49476 31.6909 6.71345 31.7104 2.23782 31.6617L1.98702 31.4184C1.78447 31.2236 1.73623 31.0873 1.73623 30.7369C1.73623 30.4253 2.01597 29.52 2.69117 27.6702C3.21204 26.2293 3.69432 24.9247 3.7522 24.7787C3.81007 24.6327 3.85831 24.4672 3.85831 24.4087C3.85831 24.3503 3.21203 24.3017 0.462995 24.2627L0.231498 23.9999C0.0771655 23.8247 0 23.6105 0 23.3865C0 23.2016 0.154332 22.6174 0.327955 22.1014C0.511225 21.5757 0.858475 20.6022 1.09962 19.9304C1.34076 19.2587 1.67836 18.5382 1.83269 18.3338C1.99667 18.1196 2.26675 17.8567 2.44038 17.7496C2.60436 17.6426 2.90337 17.4965 3.08664 17.4284C3.34707 17.3408 5.00615 17.3116 10.292 17.331ZM22.6965 17.3116C24.4809 17.3018 25.1562 17.3408 25.3972 17.4381C25.5612 17.5063 25.7735 17.6426 25.8507 17.74C25.9374 17.847 25.9857 18.0904 25.9857 18.363C25.976 18.6551 25.6867 19.5799 25.1465 21.05C24.6932 22.2864 24.2977 23.367 24.2687 23.4644C24.2205 23.6202 24.2977 23.63 25.9953 23.63L26.1979 23.0263C26.3137 22.6855 26.6513 21.7315 26.9503 20.904C27.2493 20.0764 27.6158 19.1418 27.7605 18.8205C27.9148 18.4896 28.1752 18.1196 28.4067 17.9249C28.619 17.74 28.9855 17.5258 29.2267 17.4479C29.5642 17.331 30.1816 17.3018 32.0047 17.3018C33.8662 17.3018 34.4064 17.331 34.6765 17.4479C34.8597 17.5258 35.0912 17.7205 35.1781 17.8665C35.2842 18.0417 35.3228 18.2461 35.2842 18.4701C35.2552 18.6551 34.8116 19.9986 34.2907 21.4394C33.7794 22.89 33.1332 24.6619 32.8727 25.3823C32.6123 26.1027 32.159 27.3586 31.8696 28.157C31.5802 28.965 31.2716 29.812 31.1847 30.0554C31.0882 30.3279 30.8375 30.6881 30.5192 31.0094C30.1912 31.321 29.8632 31.5546 29.6414 31.6131C29.4388 31.6714 28.156 31.7104 26.7959 31.7104C24.8668 31.7104 24.2494 31.6812 24.0469 31.5741C23.8926 31.506 23.7189 31.3307 23.6611 31.1847C23.5935 31.0484 23.5357 30.8342 23.5357 30.7174C23.5357 30.5908 23.7092 30.0164 23.9118 29.4226C24.1144 28.8385 24.5002 27.7286 24.78 26.9692C25.0501 26.2001 25.2719 25.5576 25.2719 25.5284C25.2719 25.4991 24.8861 25.4796 23.5357 25.4796L23.1498 26.5798C22.9473 27.1834 22.5807 28.1959 22.3492 28.8385C22.1177 29.481 21.8477 30.182 21.7416 30.3864C21.6451 30.6005 21.3653 30.9413 21.1243 31.1458C20.8831 31.3599 20.5165 31.5741 20.3043 31.6228C20.0728 31.6909 18.8864 31.7104 14.7388 31.6617L14.5073 31.3989C14.3529 31.2139 14.2757 31.0094 14.2757 30.7661C14.2757 30.5519 14.5651 29.5881 14.9606 28.4977C15.3271 27.456 15.848 26.0054 16.1084 25.2849C16.3688 24.5645 16.8897 23.1139 17.2659 22.0723C17.6421 21.0305 18.0665 19.8428 18.2112 19.4436C18.3462 19.0445 18.597 18.548 18.761 18.3338C18.9153 18.1294 19.1565 17.8762 19.2915 17.7691C19.4266 17.6718 19.7062 17.5258 19.9185 17.4479C20.2175 17.3408 20.8734 17.3116 22.6965 17.3116ZM45.7209 17.3116C50.8524 17.3018 52.2607 17.331 52.3572 17.4284C52.4247 17.4868 52.4729 17.6329 52.4729 17.74C52.4729 17.847 52.3668 18.1585 52.2511 18.4214C52.0775 18.8011 51.9521 18.9374 51.6917 19.0347C51.4505 19.1223 50.5052 19.1516 44.8046 19.1516L44.5345 19.8526C44.3802 20.242 44.2451 20.6412 44.2162 20.7384C44.1776 20.8942 44.3416 20.904 46.6855 20.904C48.1612 20.904 49.2706 20.9429 49.3863 21.0013C49.4924 21.0597 49.5792 21.1863 49.5792 21.2934C49.5792 21.4005 49.5021 21.6731 49.3959 21.9067C49.2995 22.1306 49.1258 22.4032 49.0005 22.5103C48.7979 22.6953 48.6339 22.705 43.4542 22.7634L43.1358 23.6591C42.9718 24.1556 42.8272 24.5938 42.8272 24.6327C42.8272 24.6716 44.3608 24.7105 49.6564 24.7495L49.9072 24.9929C50.0518 25.1292 50.1869 25.3725 50.2158 25.5284C50.2641 25.7426 50.1001 26.3267 49.5985 27.7675C49.2223 28.8385 48.8462 29.8899 48.7593 30.1041C48.6628 30.3182 48.4699 30.6492 48.3252 30.8342C48.1902 31.0192 47.8333 31.3015 47.0231 31.7104H40.4929C35.1298 31.7104 33.9048 31.6909 33.6927 31.5741C33.5383 31.506 33.3647 31.3307 33.3068 31.1847C33.2393 31.0484 33.1814 30.8537 33.1814 30.7661C33.1814 30.6687 33.2875 30.2598 33.4129 29.8607C33.5479 29.4615 33.9627 28.2737 34.3389 27.232C34.7248 26.1904 35.236 24.7398 35.4964 24.0193C35.7568 23.2989 36.2777 21.8483 36.6539 20.8066C37.0301 19.7649 37.4448 18.7232 37.5703 18.4993C37.7052 18.2656 37.9561 17.9736 38.1297 17.847C38.2937 17.7107 38.612 17.5452 38.8242 17.4576C39.1522 17.3408 40.2228 17.3116 45.7209 17.3116ZM69.6906 23.7272L69.8063 24.0972C69.8643 24.292 70.1729 25.2071 70.4912 26.1125C70.8095 27.0276 71.2436 28.4003 71.4558 29.1792C71.668 29.958 71.9574 31.0094 72.0924 31.5157C72.2178 32.022 72.3528 32.6255 72.3818 32.8592C72.43 33.2097 72.4107 33.2779 72.2467 33.3167C72.1407 33.346 71.9092 33.2875 71.7452 33.1805C71.5716 33.0831 71.1953 32.9468 70.9252 32.8884C70.607 32.8202 69.1794 32.7813 63.9032 32.7911L63.7006 32.0804C63.5848 31.6909 63.3341 30.8634 63.1508 30.2501C62.9579 29.6367 62.5913 28.4977 62.3309 27.7188C62.0705 26.94 61.7136 25.947 61.5496 25.5089C61.3277 24.915 61.2795 24.6911 61.376 24.6522C61.4338 24.6327 62.0608 24.5158 62.7457 24.4087C63.4402 24.3017 64.2408 24.1849 64.5302 24.1654C64.8195 24.1459 65.4562 24.0778 65.9287 24.0193C66.4111 23.9609 67.2117 23.8733 67.7132 23.8343C68.2148 23.7954 68.8708 23.7467 69.6906 23.7272ZM72.0056 23.7759C72.43 23.8052 73.2596 23.9025 73.8383 23.9804C74.4267 24.068 75.0343 24.1556 75.1887 24.1751C75.3527 24.2043 75.7385 24.292 76.0568 24.3796C76.3752 24.4672 76.7417 24.5548 76.8767 24.5743C77.06 24.6132 77.1564 24.7203 77.2722 25.0805C77.359 25.3239 77.6677 26.278 77.957 27.1834C78.2561 28.0985 78.5648 29.1013 78.6419 29.4226C78.7287 29.7438 78.9023 30.4448 79.0373 30.9802C79.1628 31.5157 79.3074 32.168 79.4328 32.8884L79.0952 32.8397C78.912 32.8105 77.6387 32.7813 73.7901 32.7813L73.5007 31.5449C73.3463 30.8634 73.1052 29.8801 72.9605 29.3739C72.8255 28.8676 72.4107 27.5339 72.0346 26.4046C71.668 25.2849 71.3015 24.253 71.2243 24.1167C71.1567 23.9804 71.1278 23.8343 71.1664 23.7954C71.205 23.7467 71.5812 23.737 72.0056 23.7759ZM59.2539 25.0221C59.3022 25.0318 59.4468 25.3239 59.5818 25.6743C59.7072 26.0249 60.151 27.3197 60.5658 28.5464C60.9805 29.7828 61.4338 31.1555 61.5785 31.6131C61.7136 32.0706 61.8293 32.5184 61.8293 32.6158C61.8293 32.7716 61.6557 32.7813 59.6398 32.7911C58.1253 32.7911 57.2765 32.83 56.91 32.9176C56.6206 32.9954 56.2541 33.1026 56.0901 33.1708C55.9357 33.2291 55.5982 33.4336 55.3473 33.6186C55.0869 33.8035 54.8554 33.9496 54.8168 33.9496C54.7687 33.9496 54.5467 33.823 54.3057 33.6673C54.0645 33.5115 53.5918 33.2973 53.2446 33.1902C52.8973 33.0734 52.2704 32.9273 51.0743 32.7229L50.891 32.1972C50.7367 31.7591 50.7174 31.6033 50.8042 31.321C50.8621 31.136 51.0743 30.5421 51.2672 30.0067C51.4697 29.4712 51.8074 28.4879 52.444 26.5993L54.2671 26.1417C55.2702 25.8885 56.4181 25.6062 56.8135 25.5186C57.209 25.4407 57.9035 25.2849 58.3568 25.1876C58.8102 25.0902 59.2153 25.0123 59.2539 25.0221ZM78.1982 25.0902C78.2175 25.0902 78.4104 25.1876 78.6419 25.3044C78.8637 25.4115 79.2882 25.6743 79.5775 25.8691C79.8669 26.0638 80.301 26.4435 80.5421 26.7161C80.899 27.1055 81.063 27.4365 81.4392 28.4588C81.6899 29.1499 81.8925 29.7828 81.8925 29.8607C81.8925 29.9385 81.9311 30.0554 81.9697 30.1041C82.0179 30.1625 82.1722 30.6395 82.3169 31.1749C82.4616 31.7104 82.6256 32.2556 82.6834 32.3919C82.7413 32.5282 82.751 32.7131 82.722 32.8105C82.6931 32.8982 82.587 32.976 82.5002 32.976C82.4037 32.976 82.1529 33.0442 81.9408 33.1318C81.7285 33.2194 81.4392 33.3752 81.2945 33.4726C81.0244 33.6575 81.0244 33.6575 80.7639 33.4628C80.5325 33.307 80.4552 33.1026 80.2237 32.1291C80.0694 31.4962 79.8187 30.5032 79.6547 29.9093C79.5003 29.3252 79.1049 28.0011 78.7673 26.9692C78.4393 25.9373 78.1885 25.0902 78.1982 25.0902ZM4.91934 35.147C7.35972 35.1665 7.49476 35.1763 7.81307 35.3807C7.99633 35.4976 8.23748 35.7409 8.34358 35.9161C8.51717 36.2179 8.5365 36.4321 8.58475 41.4459H10.321V38.9439C10.321 36.4905 10.321 36.4224 10.5428 35.994C10.6682 35.7506 10.919 35.4683 11.1022 35.3612C11.4012 35.186 11.6327 35.1665 13.9863 35.1373C16.4846 35.1081 16.5522 35.1178 16.9765 35.332C17.2948 35.4976 17.4685 35.6728 17.8447 36.4321L17.8253 42.4876C17.7964 48.4847 17.7964 48.5431 17.5938 48.8158C17.4781 48.9618 17.2659 49.1759 17.1308 49.2831C16.8801 49.468 16.7161 49.4778 14.0828 49.4778C11.4303 49.4778 11.2855 49.468 11.0251 49.2831C10.8804 49.1662 10.6586 48.8839 10.5332 48.6502C10.3306 48.2316 10.321 48.1148 10.321 43.2957H8.58475L8.56542 45.8561C8.5365 48.2121 8.51717 48.4361 8.34358 48.7378C8.23748 48.9229 8.02527 49.1662 7.88059 49.2733C7.62015 49.468 7.5044 49.4778 4.82288 49.4778C2.18959 49.4778 2.02561 49.468 1.77482 49.2831C1.63978 49.1759 1.42757 48.9618 1.31183 48.8158C1.10927 48.5431 1.10927 48.5042 1.10927 36.1401L1.33112 35.8188C1.45651 35.6338 1.74588 35.4002 1.95809 35.3028C2.32463 35.1373 2.58507 35.1179 4.91934 35.147ZM27.7122 35.1275C30.8182 35.1179 31.6863 35.147 32.294 35.2736C32.6992 35.3515 33.3068 35.5559 33.6444 35.7117C33.9723 35.8675 34.445 36.1887 34.7054 36.4224C34.9562 36.6561 35.3228 37.1429 35.5157 37.5128C35.7183 37.8827 35.9401 38.4961 36.0173 38.866C36.133 39.3917 36.1716 40.2095 36.1716 42.3221C36.1716 44.3958 36.133 45.272 36.0269 45.7782C35.9497 46.1579 35.7568 46.7226 35.6025 47.0439C35.4482 47.3652 35.1106 47.8519 34.8502 48.1148C34.5897 48.3874 34.1557 48.7184 33.8952 48.8644C33.6347 49.0105 33.0753 49.2246 32.6509 49.3317C31.9275 49.5167 31.6092 49.5264 27.7798 49.5264C25.378 49.5264 23.4971 49.4778 23.2463 49.429C23.0052 49.3707 22.5132 49.2052 22.1467 49.0591C21.7126 48.8936 21.2978 48.621 20.9409 48.2997C20.6419 48.0272 20.2657 47.5599 20.0921 47.2288C19.9282 46.9173 19.7062 46.3916 19.6098 46.0703C19.4555 45.5543 19.4362 45.126 19.4362 39.1581L19.6967 38.3793C19.8413 37.9509 20.1211 37.3667 20.3236 37.0747C20.5262 36.7826 20.912 36.3738 21.1724 36.1693C21.4425 35.9649 21.8959 35.7117 22.1852 35.5949C22.4746 35.4878 22.9762 35.332 23.2945 35.2639C23.7189 35.1665 24.9053 35.1373 27.7122 35.1275ZM26.902 42.3221C26.9117 46.5376 26.931 47.2678 27.0563 47.4625C27.1335 47.5793 27.3168 47.7059 27.4712 47.7351C27.6158 47.7643 27.8763 47.7643 28.0498 47.7351C28.2138 47.7059 28.4261 47.6085 28.5032 47.5306C28.6286 47.4041 28.6479 46.6934 28.6479 42.3514C28.6576 37.6393 28.6382 37.2986 28.4839 37.1429C28.3585 37.026 28.1463 36.9773 27.7605 36.9676C27.3072 36.9676 27.1818 37.0065 27.0563 37.1818C26.9117 37.3765 26.8924 37.9022 26.902 42.3221ZM46.0585 35.1275C50.3894 35.1275 51.6627 35.147 52.0389 35.2541C52.309 35.3223 52.6755 35.4488 52.8587 35.5267C53.042 35.6143 53.37 35.848 53.5726 36.0525C53.7848 36.2667 54.0645 36.6755 54.4503 37.5031V43.0231C54.4503 48.4945 54.4503 48.5431 54.2477 48.8158C54.132 48.9618 53.9198 49.1759 53.7848 49.2831C53.534 49.468 53.37 49.4778 50.7367 49.4778C48.0552 49.4778 47.9394 49.468 47.679 49.2733C47.5343 49.1662 47.3221 48.9229 47.216 48.7378C47.0327 48.4166 47.0231 48.2121 46.9942 42.8576C46.9748 37.7659 46.9556 37.2986 46.8012 37.1331C46.6855 37.0163 46.4926 36.9578 46.1067 36.9578C45.7306 36.9578 45.5377 37.0065 45.4315 37.1234C45.3062 37.2694 45.2772 38.1067 45.2386 42.916C45.1904 48.4555 45.1904 48.5431 44.9878 48.8158C44.8721 48.9618 44.6598 49.1759 44.5248 49.2831C44.274 49.468 44.1101 49.4778 41.4767 49.4778C38.8242 49.4778 38.6795 49.468 38.4191 49.2831C38.2744 49.1662 38.0525 48.8839 37.7052 48.2121L37.7342 42.9549C37.7632 37.9801 37.7728 37.6685 37.9561 37.172C38.0622 36.8897 38.3226 36.4516 38.5444 36.1985C38.7567 35.9551 39.1039 35.6728 39.3161 35.5657C39.5187 35.4586 39.8853 35.3223 40.1263 35.2541C40.4447 35.1665 41.988 35.1373 46.0585 35.1275ZM63.9996 35.1275C70.3562 35.1179 70.4622 35.1179 70.6842 35.3126C70.8481 35.4683 70.8963 35.6143 70.8963 36.0232C70.8963 36.3056 70.8577 36.5781 70.8192 36.6366C70.7806 36.695 70.6552 36.7923 70.5394 36.8605C70.3851 36.9384 69.3047 36.9676 63.662 36.9676V38.72H66.2471C68.3788 38.72 68.8611 38.7492 69.0443 38.866C69.218 38.9925 69.2566 39.0996 69.2566 39.5767C69.2566 39.9077 69.2083 40.2095 69.1215 40.3264C68.9865 40.5113 68.8611 40.5211 63.662 40.5697V42.5168L70.5684 42.5655L70.9252 42.8089C71.1182 42.9452 71.3401 43.2081 71.4268 43.3931C71.5522 43.6851 71.5716 44.1134 71.5522 46.1677C71.5233 48.4555 71.5137 48.621 71.3207 48.8936C71.205 49.0591 70.9638 49.2636 70.7613 49.3609C70.443 49.5167 69.9317 49.5264 63.7681 49.5069C57.1801 49.4778 57.1126 49.4778 56.8425 49.2733C56.6977 49.1662 56.4856 48.9229 56.3795 48.7378C56.1962 48.4166 56.1866 48.2121 56.1576 42.6628C56.1383 39.012 56.1672 36.734 56.2347 36.4127C56.3023 36.072 56.4181 35.809 56.6013 35.6338C56.746 35.4878 57.0257 35.3125 57.209 35.2541C57.4405 35.1763 59.4179 35.1373 63.9996 35.1275ZM76.4427 35.1275C78.7577 35.1179 78.8734 35.1275 79.2882 35.3417C79.5486 35.4683 79.7994 35.6923 79.9152 35.8966C80.0984 36.2179 80.1081 36.4321 80.137 39.6935C80.1467 41.5919 80.1756 43.2372 80.1948 43.3443C80.2238 43.4514 80.3781 43.6073 80.5614 43.6754C80.7639 43.763 81.0244 43.7922 81.2655 43.7532C81.4777 43.724 81.6996 43.6461 81.7478 43.5878C81.8057 43.5196 81.8636 42.069 81.8925 39.859C81.9408 36.3543 81.9504 36.2277 82.1529 35.8966C82.2687 35.7117 82.5098 35.4683 82.6834 35.3612C82.9728 35.186 83.2043 35.1665 85.5575 35.1373C88.0558 35.1081 88.1233 35.1178 88.5483 35.332C88.8667 35.4976 89.04 35.6728 89.2042 35.994C89.4067 36.4127 89.4158 36.5392 89.4158 38.7005C89.4158 40.2971 89.3775 41.1831 89.2717 41.7185C89.1942 42.1274 88.9917 42.7505 88.8183 43.101C88.6442 43.4612 88.3067 43.948 88.0175 44.2205C87.7475 44.4931 87.2942 44.8242 87.005 44.9702C86.715 45.1162 86.2142 45.3012 85.8958 45.3888C85.5775 45.4667 85.1525 45.5349 84.5933 45.5349L84.5742 47.0341C84.545 48.3679 84.5258 48.5723 84.3525 48.806C84.2458 48.952 84.0342 49.1565 83.8892 49.2733C83.6283 49.468 83.5133 49.4778 81.0244 49.4778C78.584 49.4778 78.42 49.468 78.1693 49.2831C78.0342 49.1759 77.822 48.9618 77.7062 48.8158C77.523 48.5626 77.5037 48.3971 77.4554 45.5349H77.0986C76.896 45.5349 76.4812 45.4764 76.1823 45.3888C75.8736 45.3109 75.3527 45.1065 75.0247 44.941C74.6872 44.7658 74.2145 44.4055 73.9541 44.1329C73.6936 43.8603 73.3657 43.3736 73.2113 43.0523C73.057 42.7311 72.8641 42.1274 72.7773 41.7185C72.6712 41.1636 72.6326 40.3555 72.6326 38.7005C72.6326 36.7145 72.6615 36.3834 72.8158 36.0427C72.9123 35.8285 73.0667 35.5852 73.1631 35.5073C73.2692 35.4294 73.5007 35.3126 73.6936 35.2444C73.9155 35.1665 74.8222 35.1275 76.4427 35.1275ZM36.0076 50.2274L36.596 50.7628C36.9143 51.0646 37.2905 51.3664 37.4256 51.4345C37.5606 51.5028 37.9561 51.6293 38.3226 51.7072C38.8049 51.824 39.4801 51.8629 41.0428 51.8629C42.8947 51.8629 43.1358 51.8824 43.2709 52.0382C43.3577 52.1258 43.4059 52.2719 43.377 52.3497C43.3481 52.4276 43.1455 52.9825 42.9333 53.5666C42.7114 54.1605 42.3835 55.0562 42.1906 55.5625C42.0072 56.0687 41.8337 56.5068 41.8047 56.536C41.7758 56.5652 41.5347 56.5263 41.2549 56.4484C40.898 56.3413 39.9817 56.2829 35.3613 56.1952L34.8791 55.4164C34.6187 54.9881 34.0688 54.0437 33.6541 53.3233C33.2393 52.6028 32.8824 51.9408 32.8438 51.8629C32.8053 51.7558 32.9307 51.678 33.4226 51.5514C33.7698 51.454 34.3196 51.2496 34.6572 51.0938C34.9852 50.9478 35.4193 50.6849 35.6314 50.5194L36.0076 50.2274ZM20.5937 50.9867C20.6227 50.9867 20.8927 51.0938 21.2014 51.2204C21.5004 51.3469 22.0792 51.5222 22.4746 51.6196C22.8701 51.7169 23.6128 51.8143 24.1144 51.8532C24.6353 51.8922 25.0307 51.9603 25.0211 52.009C25.0211 52.0674 24.3845 52.5639 23.6225 53.1091C22.2817 54.0729 22.2335 54.1021 22.0887 53.9172C22.0117 53.8101 21.8573 53.5569 21.7512 53.3525C21.6451 53.1481 21.3364 52.5931 21.0567 52.1064C20.777 51.6293 20.5455 51.1814 20.5455 51.1133C20.5455 51.0452 20.5648 50.9867 20.5937 50.9867ZM18.6646 51.1036C18.7224 51.0938 19.0214 51.5806 19.3398 52.1842C19.6581 52.7781 20.15 53.664 20.4297 54.1508C20.7094 54.6375 20.9409 55.0757 20.9313 55.1243C20.9313 55.1828 20.4876 55.6014 19.9571 56.0493C19.4266 56.5068 18.5681 57.3245 18.0568 57.86C17.5457 58.3955 16.9283 59.0867 16.6872 59.3885C16.446 59.6903 16.2242 59.9434 16.1856 59.9434C16.147 59.9434 15.9058 59.6319 15.6648 59.2425C15.4139 58.8531 15.1438 58.4247 15.057 58.2884C14.9606 58.1618 14.5651 57.4804 14.16 56.7794C13.7645 56.0881 13.369 55.3872 13.2918 55.2217C13.2147 55.0659 13.0314 54.7155 12.8964 54.4428C12.7613 54.18 12.4527 53.5472 12.2115 53.0312C11.9704 52.5249 11.7678 52.0577 11.7678 51.9895C11.7678 51.8922 12.3177 51.8629 14.1792 51.8629C15.9541 51.8629 16.7643 51.8337 17.2466 51.7266C17.6035 51.639 18.0472 51.4735 18.2305 51.3372C18.4137 51.2107 18.6163 51.1036 18.6646 51.1036ZM9.60717 51.1815C9.63608 51.1815 9.81942 51.2886 10.0219 51.4054C10.3306 51.5806 10.4657 51.7558 10.7261 52.3497C10.8997 52.7586 11.3531 53.7225 11.7292 54.4916C12.1054 55.2704 12.7035 56.4094 13.0411 57.0228C13.3787 57.6458 14.0635 58.7751 15.4332 60.917L15.2499 61.2383C15.1438 61.4135 14.8641 61.949 14.623 62.426C14.3915 62.9128 14.1214 63.5943 14.0249 63.935C13.9381 64.2854 13.8223 64.6165 13.7838 64.6651C13.7259 64.7333 13.6488 64.6944 13.5523 64.5678C13.4752 64.4608 13.0893 63.896 12.7035 63.3022C12.308 62.7181 11.6424 61.618 11.218 60.8683C10.7936 60.1187 10.292 59.2035 10.1087 58.8239C9.91583 58.4539 9.55892 57.6653 9.30817 57.0714C9.05733 56.4873 8.75833 55.8058 8.65225 55.5625C8.5365 55.319 8.44 54.8907 8.43042 54.5889C8.42075 54.2676 8.49792 53.7808 8.63292 53.3233C8.75833 52.9241 8.97058 52.3302 9.11525 52.009C9.25992 51.6877 9.41425 51.3762 9.47217 51.308C9.53 51.2399 9.58792 51.1815 9.60717 51.1815ZM30.143 51.9019C30.7121 51.9116 30.8278 51.9506 30.9147 52.116C30.9725 52.2231 31.3294 52.8657 31.7153 53.5277C32.1107 54.1897 32.4772 54.8225 32.5352 54.9296C32.6027 55.0367 32.8149 55.3775 33.0174 55.689C33.2103 55.9908 33.3743 56.2829 33.3743 56.3218C33.3743 56.3607 33.4418 56.4581 33.519 56.536C33.6058 56.6236 33.6733 56.7307 33.6637 56.7794C33.6637 56.8378 33.4418 57.0326 33.1814 57.2175C32.9113 57.4122 32.5352 57.7822 32.3326 58.045C32.1204 58.3176 31.8503 58.7557 31.7153 59.0186C31.5898 59.2911 31.233 60.2063 30.9339 61.063C30.6349 61.9198 30.3263 62.9322 30.2491 63.3022C30.1719 63.6819 30.0947 64.1102 30.0755 64.2563C30.0658 64.412 30.008 64.5386 29.9597 64.5484C29.9018 64.5581 29.3521 63.9545 28.7154 63.2049C28.0884 62.4552 26.9599 61.0143 26.1979 59.9921C25.4455 58.9796 24.6932 57.9477 24.5388 57.7043C24.3748 57.4706 24.0565 56.9936 23.825 56.6625C23.5549 56.2731 23.4296 56.02 23.4874 55.9713C23.5453 55.9227 23.9504 55.6111 24.4037 55.2704C24.8572 54.9394 26.0243 54.1314 27.0082 53.479C27.992 52.8268 28.9469 52.2037 29.1302 52.0869C29.4002 51.9213 29.6028 51.8824 30.143 51.9019ZM49.6082 52.1648C51.1032 52.1648 52.2897 52.2037 52.4247 52.2524C52.5597 52.3107 52.7333 52.4861 52.8105 52.6418C52.8877 52.8073 52.9552 53.0507 52.9552 53.1772C52.9552 53.3135 52.8106 53.8295 52.6369 54.3261C52.4537 54.8225 51.846 56.5165 51.2768 58.0936C50.7077 59.6806 50.0904 61.3843 49.9072 61.8905C49.7239 62.4065 49.4635 63.0783 49.3284 63.3996C49.203 63.7208 48.8847 64.2757 48.6339 64.6165C48.3349 65.0351 47.9587 65.4051 47.5536 65.6777C47.2063 65.9016 46.6276 66.1937 46.2514 66.3104C45.5955 66.5149 45.4701 66.5149 34.0013 66.5149L33.4322 66.2228C32.9692 65.9892 32.8052 65.8431 32.622 65.4927C32.4291 65.113 32.4001 64.9669 32.4387 64.3244C32.4772 63.7598 32.6123 63.2535 33.0657 61.9879C33.384 61.1117 33.7313 60.2063 33.8373 59.9921C33.9434 59.7779 34.1557 59.4859 34.31 59.3301C34.4547 59.1743 34.7537 58.9602 34.9659 58.8433C35.3227 58.6486 35.5253 58.6291 37.6667 58.5999C38.9399 58.5804 40.1553 58.5902 40.3675 58.6194C40.6087 58.6584 40.8691 58.7849 41.0428 58.9504C41.3032 59.2035 41.3224 59.2523 41.2646 59.7974C41.2356 60.1187 41.1199 60.6054 41.0137 60.8683C40.898 61.1409 40.5893 61.9684 40.3192 62.7181C40.0202 63.5358 39.837 64.2076 39.8562 64.3731C39.8853 64.6651 39.9045 64.6749 40.464 64.7041C40.9656 64.7333 41.0717 64.7041 41.2742 64.5094C41.39 64.3828 41.5829 64.0616 41.689 63.7889C41.7854 63.5261 42.0652 62.757 42.3063 62.0852C42.5474 61.4232 42.7982 60.7223 42.8754 60.5275C42.9429 60.3426 43.4638 58.9017 44.0329 57.3149C44.5923 55.7377 45.1518 54.2092 45.2676 53.9074C45.3833 53.6153 45.6534 53.187 45.8656 52.9436C46.0778 52.7099 46.4251 52.4373 46.6372 52.34C46.9845 52.1842 47.3124 52.1648 49.6082 52.1648ZM64.0478 52.194C68.3402 52.2134 68.456 52.2134 68.9672 52.4276C69.2566 52.5444 69.6713 52.7878 69.8739 52.9631C70.0861 53.1383 70.3658 53.4985 70.5008 53.7613C70.7227 54.1897 70.7517 54.365 70.742 55.173C70.742 55.7669 70.6745 56.3121 70.5684 56.682C70.4719 57.0033 69.9607 58.4734 69.4302 59.9434C68.9093 61.4232 68.3209 63.0393 68.1377 63.5456C67.9544 64.0616 67.6843 64.7333 67.5396 65.0448C67.4046 65.3564 67.1248 65.7555 66.9416 65.9308C66.7583 66.0963 66.3917 66.3104 66.1217 66.4078C65.7069 66.5539 65.3018 66.5734 63.1604 66.5441C60.8165 66.5246 60.6718 66.5051 60.4114 66.3104C60.2667 66.2033 60.1027 65.96 60.0545 65.775C59.987 65.5219 60.0159 65.298 60.1896 64.7625C60.3053 64.3925 60.6622 63.3996 60.9708 62.5525C61.2892 61.7056 61.5399 60.9754 61.5399 60.917C61.5399 60.8683 61.1927 60.8196 60.6718 60.8196C60.1992 60.8196 59.8038 60.8391 59.8038 60.8488C59.8038 60.8586 59.4757 61.7932 59.0802 62.9128C58.6752 64.0421 58.2411 65.1519 58.1157 65.3759C57.9807 65.5998 57.7395 65.8919 57.5659 66.0184C57.3923 66.1547 57.045 66.3299 56.7942 66.4078C56.4181 66.5344 55.8875 66.5636 54.0163 66.5636C52.3283 66.5636 51.6145 66.5344 51.3926 66.437C51.219 66.3689 50.9972 66.2034 50.9103 66.0768C50.8138 65.9405 50.7367 65.7069 50.7367 65.5413C50.7367 65.3856 51.0647 64.3342 51.4697 63.2049C51.8652 62.0852 52.4343 60.5081 52.7141 59.7001C53.0034 58.9017 53.3507 57.9477 53.4857 57.5875C53.6207 57.2272 53.8716 56.6334 54.0548 56.2731C54.2381 55.9129 54.595 55.3385 54.8554 54.9881C55.1062 54.6473 55.5113 54.1897 55.7525 53.9853C55.9937 53.7711 56.4277 53.4401 56.7171 53.2552C57.0064 53.0604 57.5273 52.8073 57.8746 52.671C58.2218 52.5444 58.762 52.3692 59.0802 52.3011C59.5337 52.2037 60.6622 52.1745 64.0478 52.194ZM62.1766 54.4721C62.0994 54.6181 61.7136 55.6501 61.3084 56.7599C60.9033 57.8698 60.5754 58.8239 60.5754 58.8725C60.5754 58.931 60.9226 58.9796 61.4242 58.9796H62.2634C62.736 57.6556 63.1026 56.6528 63.3727 55.9032C63.6427 55.1536 63.8646 54.4428 63.8549 54.3261C63.8549 54.18 63.7682 54.0729 63.6138 54.0048C63.4787 53.9561 63.2762 53.9172 63.1604 53.9172C63.0351 53.9172 62.8036 53.9853 62.6299 54.0632C62.4563 54.141 62.2537 54.3261 62.1766 54.4721ZM81.7961 52.1648C85.5292 52.1648 88.2783 52.2037 88.5 52.2621C88.7117 52.3107 89.03 52.4471 89.2042 52.5737C89.3967 52.7099 89.58 52.9631 89.6767 53.2259C89.7925 53.557 89.8217 53.8393 89.7825 54.2968C89.7542 54.6473 89.59 55.3483 89.4158 55.8545C89.2425 56.3705 88.915 57.1591 88.6833 57.6069C88.4517 58.0645 88.0367 58.6973 87.7575 59.0088C87.41 59.3982 87.0533 59.6806 86.6283 59.885C86.0108 60.1868 85.9825 60.1868 84.3133 60.2257C83.2043 60.2452 82.5773 60.2939 82.4905 60.3718C82.423 60.4302 82.3266 60.6346 82.2783 60.8196C82.2301 61.0338 82.2301 61.2285 82.288 61.3356C82.3652 61.4914 82.5581 61.5011 84.1883 61.5011C85.7125 61.5011 86.05 61.5303 86.3292 61.6763C86.5125 61.7737 86.725 61.9587 86.7925 62.0852C86.86 62.2216 86.8983 62.4844 86.8792 62.6694C86.86 62.8641 86.6767 63.4872 86.465 64.0713C86.2525 64.6651 85.9433 65.3175 85.7508 65.5706C85.5575 65.8334 85.22 66.1255 84.9308 66.2715C84.4775 66.5149 84.3908 66.5149 82.7124 66.5149C81.0919 66.5149 80.9472 66.5051 80.4938 66.291C80.2334 66.1644 79.9344 65.9697 79.8379 65.8529C79.7415 65.736 79.6065 65.5024 79.5293 65.3272C79.4522 65.1519 79.3846 64.7917 79.3846 64.5191C79.3846 64.2563 79.4617 63.7889 79.5486 63.4775C79.6354 63.1659 79.8862 62.4163 80.1081 61.7932C80.3395 61.1799 80.5518 60.5763 80.5807 60.4594C80.6386 60.2452 80.6192 60.2355 79.8476 60.2355C79.3074 60.2355 79.0181 60.2744 78.9506 60.3621C78.8927 60.4302 78.7577 60.7223 78.6419 61.0143C78.5262 61.3161 78.1885 62.2507 77.8798 63.1075C77.5808 63.9642 77.2626 64.8404 77.1564 65.0546C77.06 65.2688 76.8285 65.6095 76.6452 65.814C76.433 66.0379 76.0954 66.2521 75.7674 66.3689C75.2948 66.5441 74.9958 66.5636 72.9219 66.5636C70.9349 66.5636 70.5491 66.5441 70.2115 66.3981C69.9897 66.3008 69.7774 66.1547 69.7292 66.0574C69.681 65.96 69.6424 65.7263 69.6424 65.5219C69.6424 65.3175 69.9221 64.3731 70.2693 63.3996C70.6166 62.4358 71.1761 60.8586 71.5233 59.8948C71.8706 58.931 72.3914 57.4901 72.6808 56.682C72.9702 55.8837 73.3271 54.9005 73.4814 54.4916C73.6261 54.0924 73.8479 53.5764 73.9637 53.3525C74.0794 53.1286 74.3206 52.8268 74.4942 52.7002C74.6678 52.5737 74.9572 52.3984 75.1405 52.3107C75.4298 52.1842 76.3558 52.1648 81.7961 52.1648ZM81.0051 54.5694C80.9183 54.7641 80.6192 55.543 80.3492 56.2926C80.0695 57.0422 79.8283 57.7919 79.7994 57.9476C79.7512 58.191 79.7897 58.269 79.973 58.376C80.1273 58.4637 80.3492 58.4928 80.6386 58.4539C80.9087 58.4247 81.1594 58.3176 81.2945 58.1716C81.4102 58.0547 81.6321 57.5972 81.7961 57.1688C81.9504 56.7404 82.2301 55.9519 82.423 55.4164C82.6159 54.881 82.7606 54.3552 82.7317 54.2481C82.7028 54.141 82.5773 54.0243 82.452 53.9853C82.3362 53.9463 82.124 53.9172 81.989 53.9172C81.8539 53.9172 81.6224 53.9755 81.4584 54.0534C81.2945 54.141 81.1016 54.3455 81.0051 54.5694ZM22.2046 57.1202C22.2431 57.1202 22.4457 57.3733 22.6483 57.6848C22.8412 57.9964 23.3717 58.746 23.8154 59.3593C24.2687 59.9824 25.0211 60.9852 25.5034 61.5985C25.9857 62.2216 26.8538 63.273 27.4326 63.935C28.0113 64.6068 28.6962 65.3759 29.4099 66.1255L28.3778 67.0601C27.8087 67.5663 26.9213 68.4718 26.3908 69.0559C25.8699 69.64 25.4069 70.1366 25.3587 70.1463C25.3105 70.156 24.5485 69.5037 23.6707 68.686C22.7832 67.8681 21.6258 66.7194 21.0952 66.1255C20.5648 65.5413 19.9571 64.8696 19.7353 64.6262C19.523 64.3925 18.9442 63.6916 18.4523 63.0685C17.9604 62.4552 17.5552 61.871 17.5552 61.7737C17.5552 61.6763 18.2594 60.8781 19.1276 59.9824C19.986 59.0867 21.0181 58.084 21.4039 57.7432C21.7994 57.4025 22.1563 57.1202 22.2046 57.1202ZM16.8222 62.7667C16.8704 62.7667 17.1694 63.1562 17.4974 63.6137C17.8253 64.081 18.7417 65.1909 19.5519 66.0768C20.3526 66.9628 21.7222 68.3452 22.5903 69.1435C23.4585 69.9516 24.2977 70.7109 24.452 70.8278C24.7414 71.0517 24.7414 71.0614 24.5677 71.3146C24.4713 71.4606 24.2013 71.9766 23.9697 72.4536C23.7286 72.9404 23.4971 73.5634 23.4392 73.8457C23.3813 74.1378 23.2945 74.352 23.227 74.352C23.1595 74.352 22.3878 73.7776 21.5101 73.0669C20.613 72.3465 19.224 71.0809 18.3173 70.1754C17.4395 69.2895 16.3882 68.1602 15.983 67.6637C15.549 67.138 15.2403 66.6707 15.2403 66.5441C15.2403 66.4273 15.3271 65.9697 15.4428 65.5413C15.549 65.113 15.7708 64.4996 15.9348 64.1784C16.1084 63.8571 16.3496 63.4092 16.4846 63.1854C16.6197 62.9614 16.774 62.7667 16.8222 62.7667ZM48.9812 67.5469C48.9908 67.5469 49.1355 67.6734 49.2898 67.8292C49.4538 67.9947 49.5792 68.1699 49.5792 68.2187C49.5792 68.277 48.7014 68.7638 45.6727 70.2923L45.1228 69.6693C44.8238 69.3285 44.5923 69.0169 44.6213 68.978C44.6406 68.939 44.8142 68.9002 44.9975 68.9002C45.1808 68.9002 45.6341 68.8417 45.991 68.7638C46.3479 68.686 46.917 68.5301 47.2642 68.423C47.6115 68.316 48.1323 68.0726 48.4217 67.8876C48.7111 67.7124 48.9619 67.5566 48.9812 67.5469ZM30.8857 67.7416L31.4837 68.277C31.8117 68.5691 32.6606 69.3285 33.3647 69.9516C34.0785 70.5844 35.072 71.4216 35.5833 71.8305C36.0944 72.2297 36.9626 72.8917 37.522 73.2908C38.0815 73.69 38.6987 74.1281 38.9013 74.2644C39.0942 74.391 39.2583 74.5565 39.2583 74.6246C39.2583 74.6928 39.2293 74.7414 39.1908 74.7414C39.1522 74.7414 38.6987 75.1309 38.1973 75.5982C37.6957 76.0752 37.1072 76.6983 36.895 76.9709C36.6828 77.2435 36.461 77.4771 36.3934 77.4771C36.3259 77.4771 35.9594 77.3116 35.5736 77.1169C35.1878 76.9222 34.2232 76.3965 33.4226 75.9389C32.6316 75.4813 31.2619 74.6246 30.3842 74.0405C29.5064 73.4466 28.4164 72.6775 27.9438 72.327C27.4808 71.9668 27.1046 71.6358 27.1046 71.5774C27.1046 71.5287 27.3361 71.2269 27.6158 70.9057C27.8955 70.5844 28.4261 70.0197 28.7926 69.64C29.1688 69.2701 29.7861 68.6957 30.1816 68.3549L30.8857 67.7416ZM68.1666 67.9363C68.1859 67.9363 68.3981 68.0726 68.6489 68.2381C68.8997 68.4134 69.1215 68.5594 69.1312 68.5789C69.1505 68.5984 68.8708 69.1727 68.5235 69.8542C68.1666 70.5357 67.6072 71.5579 67.2792 72.1226C66.9416 72.6775 66.5847 73.213 66.4882 73.3006C66.3532 73.4174 66.0349 73.4758 65.2247 73.5245C64.5302 73.5537 64.1443 73.5439 64.1443 73.4855C64.1443 73.4272 64.1829 73.3103 64.2311 73.213C64.2793 73.1156 64.4819 72.5217 64.6748 71.8792C64.8678 71.2366 65.1378 70.3118 65.2633 69.8347C65.3886 69.348 65.5043 68.9488 65.514 68.9488C65.5333 68.939 65.9287 68.8417 66.4111 68.7249C66.9127 68.5983 67.4624 68.3939 67.7132 68.2284C67.9447 68.0726 68.1569 67.946 68.1666 67.9363ZM15.4042 68.0337C15.4428 68.0337 16.3496 68.939 17.4202 70.0489C18.4813 71.1588 19.7642 72.4049 20.2657 72.8138C20.7577 73.2227 21.4039 73.7581 21.703 73.9918C21.9923 74.2254 22.465 74.5954 22.764 74.8096C23.2077 75.1406 23.3042 75.2574 23.362 75.6079C23.4006 75.8318 23.4971 76.1434 23.5839 76.3089C23.6707 76.4841 23.69 76.6204 23.6321 76.6496C23.5742 76.6691 23.4488 76.6398 23.3524 76.5717C23.2462 76.5036 22.6097 75.9973 21.9248 75.4327C21.24 74.868 19.7545 73.4661 18.597 72.2686C17.4492 71.0906 16.3399 69.9029 16.1278 69.64C15.9252 69.3674 15.6551 68.939 15.5393 68.686C15.4236 68.4328 15.3368 68.1797 15.3368 68.1311C15.3368 68.0726 15.3657 68.0337 15.4042 68.0337ZM58.6463 68.2187C58.6752 68.2478 58.8295 68.9975 58.9742 69.8834C59.1285 70.7596 59.2636 71.6845 59.2828 71.9279C59.3022 72.1615 59.3889 72.8625 59.4661 73.4855C59.5529 74.0989 59.6012 74.6441 59.5818 74.7025C59.5626 74.7512 59.4179 74.829 59.2636 74.8778C59.1092 74.9167 58.4919 75.1503 57.8938 75.3839C57.2958 75.6274 56.7557 75.8221 56.6882 75.8221C56.6206 75.8221 56.4373 75.5495 56.283 75.2087C56.119 74.868 55.3474 73.359 54.5661 71.85C53.7847 70.341 53.1482 69.0559 53.1482 69.0072C53.1482 68.939 53.7462 68.9098 54.759 68.9098C55.8875 68.9098 56.582 68.8612 57.0547 68.7541C57.4212 68.6665 57.9228 68.501 58.1543 68.3841C58.3954 68.2673 58.6173 68.1894 58.6463 68.2187ZM60.1799 68.7638C60.3149 68.8028 61.347 68.8514 64.5302 68.9098L64.4819 69.2701C64.4626 69.4745 64.3179 70.1657 64.1539 70.8083C63.9996 71.4508 63.7585 72.366 63.6138 72.8528C63.4691 73.3298 63.3341 73.7581 63.3147 73.7971C63.2955 73.836 63.0929 73.8945 62.8614 73.9333C62.6396 73.9626 61.9933 74.1087 61.4435 74.2644C60.8841 74.4104 60.3921 74.5175 60.3535 74.4981C60.3149 74.4689 60.2763 74.1768 60.2763 73.8457C60.2763 73.5148 60.2378 72.5801 60.1896 71.7819C60.1413 70.9738 60.0545 69.9905 60.0062 69.5913C59.9484 69.1825 59.9098 68.8222 59.9098 68.7736C59.9195 68.7248 60.0352 68.7249 60.1799 68.7638ZM69.7485 68.832L70.9735 68.8807C71.6391 68.9002 72.2467 68.939 72.3142 68.9585C72.4011 68.9878 72.3722 69.0949 72.2178 69.3187C72.1021 69.4843 71.6583 70.0878 71.2339 70.6525C70.8192 71.2172 70.0861 72.1323 69.6231 72.6775C68.9286 73.4953 68.7357 73.6705 68.5524 73.6316C68.4367 73.6121 68.0894 73.5634 67.7807 73.5343C67.4818 73.505 67.2117 73.4466 67.1827 73.4077C67.1634 73.3687 67.4432 72.8625 67.8097 72.288C68.1762 71.7137 68.4753 71.2075 68.4753 71.1685C68.4753 71.1295 68.5524 70.9835 68.6585 70.8569C68.755 70.7207 69.0443 70.2047 69.2952 69.7179L69.7485 68.832ZM42.6825 68.9293L43.5699 69.9418C44.0618 70.4967 44.4477 70.9835 44.4283 71.0225C44.4091 71.0711 43.9847 71.3437 43.4831 71.6455C42.9912 71.9571 42.0555 72.5801 41.3996 73.0377C40.7533 73.4953 40.1649 73.8555 40.0974 73.836C40.0299 73.8166 39.4126 73.3687 38.7277 72.8528C38.0332 72.327 37.2133 71.6748 36.895 71.4022C36.5767 71.1295 35.8823 70.5357 35.3613 70.0781C34.8405 69.6205 34.3678 69.1727 34.3196 69.0754C34.2328 68.9196 34.4547 68.9098 42.6825 68.9293ZM73.1245 68.9098H74.0794C74.6196 68.9098 75.0633 68.9488 75.0922 69.0072C75.1115 69.0559 74.9573 69.309 74.7353 69.5622C74.5038 69.825 73.8865 70.526 73.356 71.1393C72.8255 71.7526 71.8417 72.7457 69.98 74.4396L69.6231 74.1865C69.4205 74.0405 69.2566 73.875 69.2566 73.8263C69.2566 73.7679 69.4495 73.5343 69.681 73.2908C69.9125 73.0475 70.5684 72.2589 71.1472 71.5384C71.7259 70.818 72.4011 69.9321 72.6615 69.5622L73.1245 68.9098ZM51.8846 69.309C51.9038 69.309 52.2511 69.9029 52.6466 70.6427C53.0517 71.3827 53.7076 72.5315 54.1128 73.1935C54.5178 73.8652 55.0966 74.7998 55.3956 75.2672C55.6946 75.7345 55.9357 76.1337 55.9165 76.1531C55.9068 76.1725 55.3088 76.4841 53.2928 77.4965L52.8105 77.1461C52.5404 76.9514 52.0871 76.5912 51.7977 76.3381C51.5083 76.0849 50.7752 75.4327 50.1579 74.8875C49.5502 74.3423 48.5664 73.4272 47.9877 72.8624C46.9652 71.8792 46.9362 71.8305 47.1195 71.6845C47.2257 71.6066 47.9202 71.2269 48.6628 70.8374C49.4056 70.4578 50.428 69.9613 50.9296 69.7276C51.4312 69.5037 51.8652 69.309 51.8846 69.309ZM46.0103 72.327C46.0392 72.327 46.3189 72.5801 46.6372 72.8819C46.9652 73.1935 47.5922 73.7776 48.0359 74.1768C48.4893 74.5857 49.3573 75.3061 49.965 75.7929C50.5728 76.2699 51.4119 76.893 51.817 77.1753C52.2318 77.4479 52.5694 77.74 52.5694 77.8178C52.5694 77.9055 52.5404 77.9639 52.4922 77.9639C52.4537 77.9639 52.0003 78.2462 50.5438 79.2296L49.8397 78.9861C49.4635 78.8401 48.6628 78.5286 48.0841 78.2851C47.4958 78.0515 46.4829 77.5745 45.8173 77.2435C45.1518 76.9124 44.0715 76.3186 43.4059 75.9292C42.7403 75.5398 42.1423 75.1796 42.0748 75.1114C41.9783 75.0238 42.0748 74.9167 42.5088 74.5954C42.8175 74.3715 43.7146 73.7679 44.5152 73.2519C45.3062 72.7457 45.9813 72.327 46.0103 72.327ZM26.4197 72.5217C26.4487 72.5217 26.8442 72.7846 27.2975 73.1156C27.7508 73.4466 28.6576 74.0697 29.3231 74.5077C29.9887 74.9459 31.1751 75.6663 31.9757 76.1239C32.7667 76.5717 34.0013 77.2142 34.6958 77.5453C35.3999 77.886 35.969 78.1975 35.9497 78.2365C35.9401 78.2754 35.7665 78.6259 35.5639 79.0154C35.371 79.4048 35.1781 79.9207 35.1298 80.1641C35.072 80.5146 35.0238 80.6022 34.8694 80.6022C34.7633 80.6022 34.6283 80.5633 34.5801 80.5146C34.5222 80.4757 34.1363 80.3101 33.7119 80.1641C33.2875 80.0181 32.6992 79.7845 32.4097 79.6481C32.1204 79.5216 31.6574 79.3172 31.3969 79.2198C31.1268 79.1127 30.2395 78.6843 29.4196 78.2657C28.5997 77.8568 27.5098 77.2629 27.0082 76.9514C26.5066 76.6398 25.9374 76.2991 25.7542 76.192C25.5709 76.0947 25.3394 75.9292 25.2526 75.8416C25.0886 75.6858 25.0886 75.6469 25.2815 74.9459C25.3877 74.5467 25.6867 73.836 25.9278 73.3687C26.1689 72.9014 26.3908 72.5217 26.4197 72.5217ZM64.7423 75.0627C65.1667 75.053 65.2825 75.0821 65.2342 75.1698C65.1957 75.238 64.7712 75.7734 64.2793 76.3575C63.7971 76.9514 63.0832 77.74 62.7071 78.1099C62.3309 78.4896 62.0222 78.8304 62.0222 78.8693C62.0222 78.9082 62.0801 78.9375 62.1572 78.9375C62.2344 78.9375 62.8036 78.4215 63.4305 77.779C64.0672 77.1461 64.8581 76.2699 65.8323 75.0432L66.4593 75.0919C66.8065 75.1211 67.1056 75.1698 67.1345 75.1892C67.1634 75.2185 66.9222 75.4716 66.604 75.7636C66.2857 76.0557 65.8034 76.4938 65.5429 76.7372C65.2728 76.9806 65.0318 77.1851 64.9835 77.1851C64.9449 77.1851 64.916 77.2435 64.916 77.3116C64.9063 77.3798 64.752 77.5063 64.5494 77.6037C64.3565 77.6913 64.0768 77.8763 63.9224 78.0126C63.7777 78.1489 63.6331 78.2657 63.5848 78.2657C63.5463 78.2657 63.3727 78.402 63.199 78.5577C63.0351 78.7135 62.8422 78.8401 62.7939 78.8401C62.736 78.8401 62.6974 78.8888 62.6974 78.9375C62.6974 78.9959 62.7553 79.0348 62.8132 79.0348C62.8807 79.0348 63.199 78.8401 63.5173 78.6162C63.8357 78.3825 64.1925 78.1586 64.3083 78.1294C64.4337 78.0904 64.5494 78.0028 64.5783 77.9152C64.6073 77.8373 64.6941 77.7692 64.7712 77.7692C64.8484 77.7692 64.916 77.7302 64.916 77.6719C64.916 77.6231 65.1475 77.4089 65.4176 77.1948C65.6973 76.9806 66.0156 76.7372 66.1217 76.6398C66.2278 76.5425 66.604 76.2115 66.9608 75.9C67.5107 75.4327 67.6457 75.3548 67.829 75.4229C67.9544 75.4716 68.1087 75.5787 68.1666 75.6663C68.2727 75.8026 68.2341 75.8707 67.9254 76.1044C67.7325 76.2602 67.1537 76.6593 66.6522 77.0001C66.1507 77.3506 65.6491 77.6719 65.5429 77.74C65.4368 77.7984 65.0703 78.0223 64.7231 78.2365C64.3758 78.4507 63.8163 78.7719 63.4691 78.9569C63.1218 79.1516 62.7746 79.2782 62.6974 79.2587C62.6202 79.2296 62.5238 79.2782 62.4756 79.3658C62.437 79.4534 62.2634 79.5897 62.0897 79.6579C61.9257 79.7357 61.6653 79.8428 61.511 79.9013C61.3663 79.9597 61.1348 80.0181 60.9805 80.0181C60.8358 80.0181 60.6912 79.9889 60.6429 79.9402C60.6043 79.9013 60.6332 79.8137 60.6912 79.7455C60.7587 79.6774 60.7876 79.5897 60.749 79.5508C60.7104 79.5119 60.6043 79.541 60.5272 79.6189C60.4403 79.7066 60.3728 79.8331 60.3825 79.911C60.3825 79.9987 60.3246 80.1154 60.2378 80.1836C60.1606 80.2518 60.0642 80.2907 60.0159 80.2615C59.9773 80.242 60.0062 79.9013 60.0738 79.5119C60.1317 79.1127 60.2088 78.441 60.2282 78.0126C60.2571 77.5842 60.2763 76.9611 60.2763 76.6301C60.286 76.1531 60.3246 75.9973 60.45 75.9292C60.5464 75.8805 61.077 75.7247 61.6364 75.5884C62.1958 75.4522 62.6685 75.3548 62.6974 75.3839C62.7264 75.4132 62.6878 75.5787 62.6107 75.754C62.5335 75.9292 62.2248 76.5717 61.9257 77.1851C61.6267 77.8081 61.2602 78.4993 61.1252 78.7233C60.9805 78.9471 60.8647 79.1808 60.8647 79.2296C60.8647 79.2879 60.9033 79.3172 60.9613 79.3074C61.0094 79.2977 61.3374 78.8401 61.6942 78.3046C62.0415 77.7692 62.5624 76.854 63.3822 75.1892L63.7874 75.1406C64.0092 75.1016 64.4433 75.0725 64.7423 75.0627ZM41.1874 75.7247C41.2453 75.7247 41.5732 75.9 41.9301 76.1044C42.2967 76.3186 43.3191 76.854 44.2258 77.3018C45.1228 77.7497 46.0392 78.1878 46.2514 78.2851C46.4637 78.3728 46.8495 78.5383 47.1195 78.6551C47.38 78.7622 48.1227 79.0348 48.7593 79.249C49.3959 79.4632 49.9361 79.6579 49.965 79.6871C49.994 79.7066 49.7046 80.0278 49.3381 80.4075C48.7786 80.9721 48.605 81.089 48.3446 81.089C48.1806 81.089 47.7176 81.0209 47.3317 80.943C46.9556 80.8748 46.4637 80.7775 46.2514 80.7385C46.0392 80.6996 45.8173 80.6509 45.7692 80.6412C45.7113 80.6314 45.2579 80.5243 44.7563 80.4075C44.2547 80.3004 43.5988 80.1349 43.3095 80.0473C43.0201 79.9694 42.2967 79.7455 41.7179 79.5508C41.1295 79.3658 40.2035 79.0348 39.6441 78.8206C39.0846 78.6162 38.5927 78.4117 38.5541 78.3728C38.5155 78.3436 38.7567 78.0028 39.0846 77.6329C39.4222 77.2629 40.0106 76.6886 40.3964 76.3478C40.7822 76.0071 41.1392 75.7247 41.1874 75.7247ZM59.659 76.1628C59.7169 76.1725 59.7555 76.9514 59.7555 78.2365C59.7555 79.4729 59.7169 80.3394 59.659 80.3977C59.5915 80.4757 59.4275 80.3199 59.1285 79.8916C58.8873 79.5605 58.4051 78.7914 58.0386 78.1878C57.6817 77.5843 57.4212 77.0585 57.4502 77.0195C57.4791 76.9806 57.971 76.7664 58.5305 76.5425C59.0996 76.3186 59.6012 76.1531 59.659 76.1628ZM25.3972 76.5717C25.4648 76.6107 25.7253 76.7859 25.9953 76.9514C26.2558 77.1266 26.7188 77.3992 27.0082 77.5745C27.2975 77.74 28.3585 78.2851 29.3713 78.7914C30.3745 79.2879 31.7924 79.9305 32.5062 80.2128C33.22 80.4854 34.0785 80.7969 34.4064 80.904C34.8983 81.0501 35.0334 81.1377 35.1202 81.3519C35.1781 81.4979 35.3228 81.8289 35.4578 82.082C35.5928 82.3546 35.6507 82.5688 35.5928 82.5883C35.535 82.6174 35.3132 82.598 35.0817 82.5493C34.8597 82.5007 34.1363 82.2572 33.4707 82.0236C32.8053 81.79 31.9275 81.4589 31.5127 81.2934C31.1076 81.128 30.6928 80.943 30.5963 80.8943C30.5096 80.8456 29.8922 80.5341 29.2267 80.203C28.5611 79.8721 27.8859 79.5313 27.7316 79.4437C27.5676 79.3658 27.1625 79.1127 26.8152 78.8985C26.468 78.6746 26.0436 78.3144 25.8699 78.1099C25.6963 77.8957 25.4744 77.4966 25.3683 77.2142C25.2622 76.9319 25.2043 76.6593 25.2333 76.6009C25.2623 76.5522 25.3394 76.5327 25.3972 76.5717ZM56.7171 77.2922C56.746 77.2922 56.8811 77.4771 57.0257 77.701C57.1607 77.9249 57.6913 78.6357 58.2025 79.2782C59.0321 80.3394 59.1093 80.466 58.9549 80.5731C58.8681 80.6412 58.762 80.6996 58.7137 80.6996C58.6752 80.6996 58.6655 80.6314 58.6944 80.5438C58.733 80.4367 58.5594 80.3394 58.0386 80.1447C57.6623 79.9987 56.9775 79.6968 56.5242 79.4632C56.0708 79.2296 55.4824 78.9083 55.222 78.7524C54.9519 78.5967 54.7301 78.4215 54.7108 78.363C54.7011 78.3046 55.1352 78.0418 55.6753 77.7692C56.2155 77.5063 56.6882 77.2922 56.7171 77.2922ZM54.1031 78.6746C54.1417 78.6843 54.6143 78.9277 55.1738 79.2101C55.7332 79.4924 56.5917 79.8818 57.0933 80.0863C57.5948 80.2907 58.0289 80.5146 58.0578 80.5828C58.1061 80.6996 58 80.719 57.537 80.6996C57.2187 80.6801 56.9292 80.6801 56.8811 80.6801C56.8425 80.6898 56.8907 80.7678 56.9775 80.8554C57.1222 80.9916 57.2573 81.0111 57.7492 80.9527C58.2025 80.904 58.3568 80.9235 58.3568 81.0111C58.3568 81.0792 58.1253 81.2642 57.8457 81.42C57.5756 81.5855 57.3055 81.7316 57.2476 81.751C57.1897 81.7705 57.0161 81.8483 56.8617 81.9165C56.6978 81.9847 56.0033 82.2184 55.3184 82.4325C54.6239 82.6467 53.7173 82.9193 53.2928 83.0264C52.8684 83.1335 52.0389 83.3087 50.3991 83.63L50.2255 83.406C50.129 83.2795 50.0518 83.1432 50.0518 83.1042C50.0615 83.0653 50.1193 83.0166 50.1772 82.9971C50.2447 82.968 50.9103 82.8804 51.6531 82.7927C52.3957 82.7051 53.2157 82.5883 53.4857 82.5396C53.7462 82.4909 54.4021 82.3643 54.9326 82.2475C55.4631 82.1404 55.9261 82.0139 55.9647 81.9749C56.0033 81.9457 55.9068 81.8971 55.7428 81.8873C55.5885 81.8776 55.357 81.9068 55.222 81.9554C55.0869 82.0139 54.5372 82.121 53.9873 82.2086C53.4472 82.2865 52.6947 82.3936 52.3282 82.4422C51.9521 82.4909 51.2962 82.5591 50.0615 82.6369L50.1193 82.3741C50.1483 82.228 50.2351 82.0042 50.3122 81.8873C50.4473 81.6731 50.4762 81.6731 52.3476 81.6731C53.3989 81.6731 54.595 81.644 55.0002 81.605C55.4149 81.5563 55.7525 81.4979 55.7525 81.4687C55.7525 81.4493 54.6915 81.42 53.3892 81.42C51.9521 81.42 50.9972 81.3908 50.9296 81.3227C50.8621 81.2642 50.9972 81.0598 51.8942 80.1544L52.2511 80.2712C52.4537 80.3394 53.1771 80.4757 53.8716 80.5828C54.5564 80.6898 55.4149 80.8067 55.7718 80.8359C56.2058 80.8748 56.447 80.8554 56.4952 80.7775C56.5434 80.719 56.5048 80.6314 56.4277 80.5828C56.3505 80.5438 56.2155 80.5243 56.1383 80.5536C56.0612 80.5827 55.4921 80.5146 54.8844 80.3977C54.2767 80.2907 53.4857 80.1349 53.1192 80.057C52.743 79.9694 52.4729 79.8623 52.4729 79.7942C52.4729 79.726 52.8298 79.4437 53.2639 79.1613C53.6979 78.879 54.0742 78.6552 54.1031 78.6746ZM38.0622 79.0348C38.0815 79.0348 38.4577 79.1711 38.8918 79.3366C39.3354 79.5021 40.0588 79.7455 40.5122 79.8916C40.9656 80.0278 41.6986 80.242 42.152 80.3686C42.6053 80.4951 43.5796 80.7288 44.3222 80.8943C45.065 81.0501 46.2803 81.2739 47.0231 81.3908C47.7658 81.4979 48.3927 81.605 48.4217 81.6245C48.4507 81.6536 48.4024 81.7413 48.3156 81.8387C48.2288 81.936 48.1034 82.1696 48.0455 82.3741C47.9877 82.5786 47.8622 82.7733 47.7658 82.8024C47.679 82.8414 46.9267 82.8219 46.1067 82.7538C45.2868 82.6954 44.1776 82.598 43.6471 82.5493C43.1166 82.4909 42.1616 82.3643 41.525 82.2475C40.8884 82.1404 39.8659 81.936 39.2583 81.7997C38.6506 81.6731 37.9175 81.4979 37.6377 81.42C37.223 81.3032 37.1362 81.2448 37.1362 81.0598C37.1362 80.943 37.2037 80.6412 37.2808 80.3977C37.3677 80.1641 37.5703 79.7552 37.7246 79.5021C37.8886 79.249 38.0332 79.0348 38.0622 79.0348ZM37.2327 81.7607C37.2808 81.7607 37.6474 81.8581 38.0236 81.9652C38.4094 82.0723 39.2293 82.2475 39.837 82.3546C40.4447 82.4617 41.4672 82.6174 42.1038 82.6954C42.7403 82.7733 43.6471 82.8804 44.1293 82.9387C44.602 82.9875 45.6437 83.0264 47.8912 83.0361L48.1034 83.4255C48.2674 83.7176 48.2963 83.8247 48.1998 83.8733C48.142 83.9123 47.1099 83.961 45.9138 83.9902C44.602 84.0193 43.1262 83.9804 42.2002 83.9123C41.3514 83.8442 40.0685 83.6786 39.3547 83.5521C38.2454 83.3476 38.0139 83.2698 37.7728 83.0458C37.6281 82.9095 37.4159 82.6272 37.3194 82.4228C37.2133 82.2184 37.1362 81.9944 37.1362 81.9068C37.1362 81.8289 37.1747 81.7607 37.2327 81.7607Z" fill="#EF8F09"/>
</svg>
