<svg width="80" height="80" viewBox="0 0 80 80" fill="none" xmlns="http://www.w3.org/2000/svg">
<path d="M40 0C17.9064 0 0 17.9064 0 40C0 62.0936 17.9064 80 40 80C62.0936 80 80 62.0936 80 40C80 17.9064 62.0936 0 40 0ZM43.284 8.97672H47.043V12.7594H43.284V8.97672ZM35.9492 16.5561V12.844H39.586V16.542H39.5954V20.1882H35.9444V16.5561H35.9492ZM61.8208 57.2524H58.2028L58.184 60.8656H54.5566V57.2478H58.2028V49.8142H35.8128V53.5356H32.11V57.2572H24.6718V60.9598H21.0444V64.5778H21.035V64.606H17.403V60.9644H21.0444V53.6156H28.4592V42.376H24.7518V35.0506H28.3886V38.7626H43.3216V35.0458H47.0384V23.839H39.6048V20.1928H43.3216V20.1834H47.0478V12.7688H50.6658V16.4008H50.6516V23.8908H54.3872L54.4202 23.9002H61.8114V27.537H58.0946V31.2256H54.3824V46.1962H61.8208V57.2572V57.2524Z" fill="#BD3D36"/>
</svg>
