<svg width="44" height="22" viewBox="0 0 44 22" fill="none" xmlns="http://www.w3.org/2000/svg">
<path d="M17.3672 9.83488C17.3381 9.74239 17.3169 9.64857 17.3011 9.55344C17.2931 9.50984 17.2852 9.46491 17.276 9.42131C17.2548 9.32617 17.2323 9.23236 17.2072 9.13855C17.6237 8.50961 19.6121 5.22616 17.3487 3.11868C14.8367 0.779968 11.9018 3.8454 11.9018 3.8454L11.911 3.85861C10.5916 3.45825 9.16112 3.41069 7.77031 3.8454C7.75312 3.8269 4.82871 0.786574 2.32339 3.11868C-0.181921 5.45078 2.52303 9.22443 2.53757 9.24425C2.50848 9.33278 2.48601 9.42395 2.47014 9.51512C2.19912 11.1311 0.353516 11.6292 0.353516 14.4423C0.353516 17.2553 2.28373 19.5689 6.22349 19.5689H7.84038C7.84699 19.5795 8.51331 20.5216 9.88032 20.5216C11.1495 20.5203 11.9864 19.5782 11.9943 19.5689H13.5372C17.4769 19.5689 19.4071 17.3095 19.4071 14.4423C19.4071 11.8234 17.8061 11.2104 17.3672 9.83488Z" fill="#EEEEEF"/>
<path d="M42.9681 5.73474C42.9681 5.73474 43.3013 2.65213 40.7682 1.99016V0.753418H38.8076V1.95845C36.1357 2.54907 36.4807 5.73474 36.4807 5.73474V6.26326C36.4807 6.26326 36.1357 9.44893 38.8089 10.0396V12.6861C35.9929 13.1988 36.3485 16.4888 36.3485 16.4888V17.0174C36.3485 17.0174 36.0035 20.203 38.6754 20.7937V21.9987H40.6373V20.7619C43.1704 20.1 42.8372 17.0174 42.8372 17.0174C42.9483 17.0174 43.0382 16.9275 43.0382 16.8165V16.6884C43.0382 16.5774 42.9483 16.4875 42.8372 16.4875C42.8372 16.4875 43.1677 13.4313 40.6704 12.7509V10.0396H40.6413C43.3132 9.44893 42.9694 6.26326 42.9694 6.26326C43.0805 6.26326 43.1704 6.17341 43.1704 6.06242V5.93426C43.1691 5.82459 43.0792 5.73474 42.9681 5.73474ZM41.3697 16.4875H41.1899C41.0789 16.4875 40.989 16.5774 40.989 16.6884V16.8165C40.989 16.9275 41.0789 17.0174 41.1899 17.0174H41.3697C41.3697 18.9293 40.7338 19.2517 40.521 19.3059C40.4853 19.3151 40.4522 19.2887 40.4522 19.253V18.6439C40.4522 18.307 40.238 18.122 40.0225 18.0216C39.7515 17.8947 39.4342 17.8947 39.1632 18.0216C38.949 18.122 38.7335 18.307 38.7335 18.6439V19.253C38.7335 19.2887 38.7005 19.3151 38.6661 19.3072C38.4533 19.2543 37.816 18.9346 37.816 17.0187V16.4902C37.816 14.5782 38.4519 14.2558 38.6648 14.2017C38.7005 14.1924 38.7335 14.2188 38.7335 14.2545V14.8636C38.7335 15.2006 38.9477 15.3856 39.1632 15.486C39.4342 15.6128 39.7515 15.6128 40.0225 15.486C40.2367 15.3856 40.4522 15.2006 40.4522 14.8636V14.2545C40.4522 14.2188 40.4853 14.1924 40.5196 14.2003C40.7325 14.2532 41.3697 14.573 41.3697 16.4875ZM41.3235 6.26326H41.5033C41.5033 8.17916 40.866 8.49891 40.6532 8.55176C40.6188 8.56101 40.5857 8.53327 40.5857 8.49759V7.88847C40.5857 7.55154 40.3716 7.36655 40.1561 7.26613C39.8851 7.13929 39.5678 7.13929 39.2967 7.26613C39.0826 7.36655 38.8671 7.55154 38.8671 7.88847V8.49759C38.8671 8.53327 38.8327 8.55969 38.7983 8.55044C38.5841 8.49627 37.9495 8.17387 37.9495 6.26194V5.73342C37.9495 3.81753 38.5868 3.49777 38.7996 3.44492C38.834 3.43567 38.8671 3.46342 38.8671 3.49909V4.10953C38.8671 4.44647 39.0812 4.63145 39.2967 4.73187C39.5678 4.85871 39.8851 4.85871 40.1561 4.73187C40.3702 4.63145 40.5857 4.44647 40.5857 4.10953V3.50041C40.5857 3.46474 40.6201 3.43831 40.6545 3.44756C40.8687 3.50173 41.5033 3.82281 41.5033 5.73606H41.3235C41.2124 5.73606 41.1225 5.82591 41.1225 5.9369V6.06507C41.1225 6.17341 41.2124 6.26326 41.3235 6.26326Z" fill="#EEEEEF"/>
<path d="M33.2779 11.1786C33.2779 11.1786 33.6242 7.97446 30.9272 7.39837V4.51924C33.5528 3.90483 33.2118 0.753519 33.2118 0.753519C33.2118 0.753519 31.7403 0.753519 31.7456 0.753519C31.7456 2.66941 31.1083 2.98917 30.8955 3.04202C30.8611 3.05127 30.8281 3.02352 30.8281 2.98785V2.37872C30.8281 2.04179 30.6139 1.85681 30.3984 1.75639C30.1274 1.62954 29.8101 1.62954 29.539 1.75639C29.3249 1.85681 29.1094 2.04179 29.1094 2.37872V2.98785C29.1094 3.02352 29.075 3.04995 29.0406 3.0407C28.8265 2.98653 28.1919 2.66545 28.1919 0.752197C28.1985 0.752197 26.7257 0.752197 26.7257 0.752197C26.7257 0.752197 26.3727 4.02243 29.1609 4.54963V7.39176C26.4428 7.95992 26.7905 11.1786 26.7905 11.1786V11.7071C26.7905 11.7071 26.4428 14.9258 29.1596 15.4914V18.2014C26.3714 18.7286 26.7244 21.9988 26.7244 21.9988C26.7244 21.9988 28.1958 21.9988 28.1905 21.9988C28.1905 20.0829 28.8278 19.7631 29.0406 19.7103C29.075 19.701 29.1081 19.7288 29.1081 19.7645V20.3736C29.1081 20.7105 29.3222 20.8955 29.5377 20.9959C29.8087 21.1228 30.126 21.1228 30.3971 20.9959C30.6112 20.8955 30.8267 20.7105 30.8267 20.3736V19.7645C30.8267 19.7288 30.8611 19.7024 30.8955 19.7116C31.1097 19.7658 31.7443 20.0869 31.7443 22.0001C31.7376 22.0001 33.2104 22.0001 33.2104 22.0001C33.2104 22.0001 33.5515 18.8488 30.9259 18.2344V15.4887C33.6229 14.9113 33.2765 11.7085 33.2765 11.7085C33.3876 11.7085 33.4775 11.6186 33.4775 11.5076V11.3795C33.4788 11.2685 33.3889 11.1786 33.2779 11.1786ZM31.6332 11.7071H31.813C31.813 13.623 31.1758 13.9428 30.9629 13.9956C30.9285 14.0049 30.8955 13.9771 30.8955 13.9415V13.3324C30.8955 12.9954 30.6813 12.8104 30.4658 12.71C30.1948 12.5832 29.8775 12.5832 29.6065 12.71C29.3923 12.8104 29.1768 12.9954 29.1768 13.3324V13.9415C29.1768 13.9771 29.1424 14.0036 29.1081 13.9943C28.8939 13.9402 28.2593 13.6178 28.2593 11.7058V11.1773C28.2593 9.26141 28.8965 8.94165 29.1094 8.8888C29.1438 8.87955 29.1768 8.9073 29.1768 8.94297V9.55342C29.1768 9.89035 29.391 10.0753 29.6065 10.1757C29.8775 10.3026 30.1948 10.3026 30.4658 10.1757C30.68 10.0753 30.8955 9.89035 30.8955 9.55342V8.94429C30.8955 8.90862 30.9299 8.88219 30.9642 8.89144C31.1784 8.94561 31.813 9.26801 31.813 11.1799H31.6332C31.5221 11.1799 31.4322 11.2698 31.4322 11.3808V11.5089C31.4322 11.6173 31.5221 11.7071 31.6332 11.7071Z" fill="#EEEEEF"/>
</svg>
