<svg xmlns="http://www.w3.org/2000/svg" id="svg2" viewBox="38 213.29 433.65 92">
  <desc>Source: openclipart.org/detail/209545</desc>
  <defs>
    <linearGradient id="linear-gradient" x1="600.41" y1="729.04" x2="600.41" y2="707.55" gradientUnits="userSpaceOnUse">
      <stop offset="0" stop-color="#240f0c"/>
      <stop offset="1" stop-color="#6e2f25"/>
    </linearGradient>
    <linearGradient id="linear-gradient1" x1="422.19" y1="653.31" x2="422.19" y2="693.99" gradientUnits="userSpaceOnUse">
      <stop offset="0" stop-color="#ff9b1e"/>
      <stop offset="1" stop-color="#f8d950"/>
    </linearGradient>
    <linearGradient id="linear-gradient2" x1="462.36" y1="653.31" x2="462.36" y2="693.99" href="#linear-gradient1"/>
    <linearGradient id="linear-gradient3" x1="500.46" y1="653.31" x2="500.46" y2="693.99" href="#linear-gradient1"/>
    <linearGradient id="linear-gradient4" x1="536.13" y1="653.31" x2="536.13" y2="693.99" href="#linear-gradient1"/>
    <linearGradient id="linear-gradient5" x1="577.11" y1="653.31" x2="577.11" y2="693.99" href="#linear-gradient1"/>
    <linearGradient id="linear-gradient6" x1="622.29" y1="653.31" x2="622.29" y2="693.99" href="#linear-gradient1"/>
    <linearGradient id="linear-gradient7" x1="667.98" y1="653.31" x2="667.98" y2="693.99" href="#linear-gradient1"/>
    <linearGradient id="linear-gradient8" x1="707.19" y1="653.31" x2="707.19" y2="693.99" href="#linear-gradient1"/>
    <linearGradient id="linear-gradient9" x1="747.84" y1="653.31" x2="747.84" y2="693.99" href="#linear-gradient1"/>
    <linearGradient id="linear-gradient10" x1="786.74" y1="653.31" x2="786.74" y2="693.99" href="#linear-gradient1"/>
    <linearGradient id="linear-gradient11" x1="422.34" y1="688.15" x2="422.34" y2="665.18" href="#linear-gradient1"/>
    <linearGradient id="linear-gradient12" x1="462.37" y1="688.15" x2="462.37" y2="665.18" href="#linear-gradient1"/>
    <linearGradient id="linear-gradient13" x1="500.64" y1="688.15" x2="500.64" y2="665.18" href="#linear-gradient1"/>
    <linearGradient id="linear-gradient14" x1="536.3" y1="688.15" x2="536.3" y2="665.18" href="#linear-gradient1"/>
    <linearGradient id="linear-gradient15" x1="577.11" y1="688.15" x2="577.11" y2="665.18" href="#linear-gradient1"/>
    <linearGradient id="linear-gradient16" x1="622.29" y1="688.15" x2="622.29" y2="665.18" href="#linear-gradient1"/>
    <linearGradient id="linear-gradient17" x1="668.16" y1="688.15" x2="668.16" y2="665.18" href="#linear-gradient1"/>
    <linearGradient id="linear-gradient18" x1="707.19" y1="688.15" x2="707.19" y2="665.18" href="#linear-gradient1"/>
    <linearGradient id="linear-gradient19" x1="747.85" y1="688.15" x2="747.85" y2="665.18" href="#linear-gradient1"/>
    <linearGradient id="linear-gradient20" x1="786.74" y1="688.15" x2="786.74" y2="665.18" href="#linear-gradient1"/>
  </defs>
  <g id="Layer_1">
    <g transform="matrix(1, 0, 0, 1, -344.736237, -423.432922)">
      <path d="M521.32,718.66l-7.1,1.18h0s-.07.03-.07.03v.03s-.07.02-.07.02v.05s-.07.02-.07.02v.05s-.06.02-.06.02v.05s-.07.02-.07.02v.05s-.07.02-.07.02v.05s-.07.02-.07.02v.05s-.07.02-.07.02v.05s-.07.02-.07.02v.05s-.07.02-.07.02v.05s-.06.02-.06.02v.05s-.07.02-.07.02v.05s-.07.02-.07.02v.05s-.07.02-.07.02v.08s-.07.02-.07.02v.05s-.07.02-.07.02v.05s-.07.02-.07.02v.05s-.06.02-.06.02v.05s-.07.02-.07.02v.05s-.06.02-.06.02v.03s-.07.02-.07.02v.06s-4.43,1.07-4.43,1.07l-24.26,5.54-1.11-8.31-22.6,5.02,1.25-5-37.59,4.37,1.04-4.34c-8.47,3.79-18.17,4.61-25.88,5.26-2.33.2-4.53.38-6.39.62l-10.08,1.31,18.05-75.22.09-.02v-.06s.07-.02.07-.02v-.05s.1-.02.1-.02v-.03s.06-.02.06-.02v-.05s.07-.02.07-.02v-.06s.07-.02.07-.02v-.05s.07-.02.07-.02l.02-.08h.05s.01-.07.01-.07l.06-.02v-.05s.07-.02.07-.02v-.05s.07-.02.07-.02v-.05s.07-.02.07-.02v-.05s.07-.02.07-.02v-.05s.07-.02.07-.02v-.05s.04,0,.04,0v-.06s.07-.01.07-.01v-.05s.07-.02.07-.02v-.05s.08-.02.08-.02v-.02s.09-.02.09-.02v-.06s.05,0,.05,0v-.05s.07-.02.07-.02v-.05s.1-.02.1-.02l.02-.08h.05s.01-.06.01-.06l.06-.02v-.06s.07-.02.07-.02v-.05s.07-.02.07-.02v-.05s.07-.02.07-.02v-.05s.07-.02.07-.02v-.05s.07-.02.07-.02v-.05s.07-.02.07-.02v-.05s.07-.02.07-.02v-.05s.07-.02.07-.02v-.05s.07-.02.07-.02v-.05s.07-.02.07-.02l.02-.07h.03s.01-.05.01-.05l.08-.02v-.05s.08-.02.08-.02v-.03s.06-.02.06-.02v-.05s.07-.02.07-.02v-.05s.07-.02.07-.02v-.05s.07-.02.07-.02l.02-.08h.05s.01-.07.01-.07l.05-.02v-.05s.07-.02.07-.02v-.05s.07-.02.07-.02v-.05s.07-.02.07-.02v-.05s.07-.02.07-.02v-.05s.07-.02.07-.02v-.05s.04,0,.04,0v-.06s.07-.02.07-.02v-.05s.07-.02.07-.02v-.05s.07-.02.07-.02v-.02s.09-.02.09-.02v-.06s.04,0,.04,0v-.05s.09-.02.09-.02v-.05s.07-.02.07-.02l.02-.08h.05s.01-.07.01-.07l.06-.02v-.05s.07-.02.07-.02v-.05s.07-.02.07-.02v-.05s.07-.02.07-.02v-.05s.07-.02.07-.02v-.05s.07-.02.07-.02v-.05s.07-.02.07-.02v-.05s.07-.02.07-.02v-.05s.07-.02.07-.02v-.05s.07-.02.07-.02v-.05s.04,0,.04,0v-.06s.07-.02.07-.02v-.05s.09-.02.09-.02v-.05s.08-.02.08-.02v-.03s.06-.02.06-.02v-.05s.07-.02.07-.02v-.06s.07-.02.07-.02v-.05s.07-.02.07-.02l.02-.08h.05s.01-.07.01-.07l.06-.02v-.05s.07-.02.07-.02v-.05s.07-.02.07-.02v-.05s.07-.02.07-.02v-.05s.07-.02.07-.02v-.05s.07-.02.07-.02v-.05s.04,0,.04,0v-.06s.07-.01.07-.01v-.05s.08-.02.08-.02v-.02s.06-.02.06-.02v-.06s.07-.02.07-.02v-.05s.07-.02.07-.02v-.04s.09-.02.09-.02l.02-.08h.05s.01-.07.01-.07l.06-.02v-.05s.07-.02.07-.02v-.05s.07-.02.07-.02v-.05s.07-.02.07-.02v-.05s.07-.02.07-.02v-.05s.07-.02.07-.02v-.05s.07-.02.07-.02v-.05s.07-.02.07-.02v-.05s.07-.02.07-.02v-.05s.07-.02.07-.02v-.05s2.91-.81,2.91-.81l1.16-.3c5.3-1.39,10.76-2.1,16.24-2.1.79,0,1.56.02,2.31.06.19,0,.72.04.72.04.51.03,1.02.07,1.51.12.28.03.55.06.81.09.48.06.95.13,1.42.21l.16.02c.2.03.39.06.58.1.64.12,1.28.26,1.89.41.22.06.44.12.66.18l.18.05c.38.11.71.21,1.03.31.34.11.67.23.99.35.26.1.52.2.78.31.35.14.7.29,1.04.45.15.07.28.14.41.2l.09.05c1.32.67,2.54,1.46,3.61,2.35l.09.08v-.04s.06,0,.06,0l.02-.06h.06s.02-.07.02-.07h.05s.02-.07.02-.07h.05s.01-.07.01-.07h.05s.01-.07.01-.07h.08s.02-.08.02-.08h.05s.01-.06.01-.06h.06s.02-.07.02-.07h.05s.02-.07.02-.07h.05s.01-.07.01-.07h.05s.02-.07.02-.07h.06s.02-.07.02-.07h.05s.02-.07.02-.07h.05s.01-.06.01-.06h.03s.02-.11.02-.11h.04s.02-.07.02-.07h.06s0-.03,0-.03h.05s.02-.07.02-.07h.06s.02-.07.02-.07h.05s.01-.07.01-.07h.05s.02-.07.02-.07h.06s.02-.07.02-.07h.05s.01-.07.01-.07h.05s.01-.07.01-.07h.08s.02-.08.02-.08h.05s.02-.07.02-.07h.05s.01-.06.01-.06h.06s.02-.07.02-.07h.02s.02-.07.02-.07h.05s.02-.07.02-.07l3.53-.44,41.54-4.46-.85,3.79c4.64-.92,9.41-1.38,14.2-1.38.73,0,1.42.02,2.1.04l.51.02c.68.03,1.34.07,1.97.13h.14c.6.07,1.17.14,1.73.22l.45.06c.6.09,1.19.19,1.74.3l.1.02c.54.11,1.05.23,1.56.36l.41.11c.5.14,1,.29,1.47.45l.12.04c.48.17.94.34,1.38.53l.34.14c.45.19.88.4,1.29.61l.17.09c.4.21.77.43,1.14.66l.27.17c.41.26.79.53,1.15.81,0,0,.31.24.42.33v-.02s.06-.01.06-.01l.02-.06h.05s.02-.07.02-.07h.05s.02-.07.02-.07h.05s.02-.07.02-.07h.05s.02-.07.02-.07h.06s0-.04,0-.04h.05s.02-.07.02-.07h.05s.02-.07.02-.07h.05s.02-.07.02-.07h.05s.03-.09.03-.09h.04s0-.04,0-.04h.06s.03-.09.03-.09l.09-.02.04-.12.09-.02.02-.06h.05s.02-.07.02-.07h.05s.02-.07.02-.07h.05s.02-.07.02-.07h.05s.02-.07.02-.07h.06s0-.04,0-.04h.05s.02-.07.02-.07h.05s.02-.06.02-.06h.05s.02-.07.02-.07h.05s.02-.07.02-.07h.04s.02-.07.02-.07h.05s.04-.14.04-.14h.05s.02-.07.02-.07h.05s.03-.09.03-.09h.04s0-.04,0-.04h.06s.03-.1.03-.1h.04s.02-.07.02-.07h.05s.02-.07.02-.07h.05s.02-.07.02-.07h.05s.01-.05.01-.05l2.83-.65,35.48-7.52-1.13,10.88,13.2-2.17h0s.05-.02.05-.02v-.06s.06,0,.06,0l.02-.06h.05s.02-.07.02-.07h.05s.01-.07.01-.07h.05s.02-.07.02-.07h.05s.02-.07.02-.07h.05s.02-.07.02-.07h.06s0-.04,0-.04h.05s.02-.07.02-.07h.05s.02-.06.02-.06h.06s.02-.07.02-.07h.05s.02-.07.02-.07h.05s.02-.07.02-.07h.05s.05-.17.05-.17h.05s0-.04,0-.04h.06s.02-.1.02-.1h.05s.02-.07.02-.07h.05s.02-.07.02-.07h.05s.01-.07.01-.07h.05s.02-.07.02-.07h.06s.02-.07.02-.07h.05s.02-.07.02-.07h.05s.01-.07.01-.07h.06s.01-.06.01-.06l.1-.02.02-.06h.06s0-.04,0-.04h.05s.02-.07.02-.07h.05s.02-.07.02-.07h.06s.02-.07.02-.07h.05s.02-.07.02-.07h.05s.02-.07.02-.07h.05s.02-.06.02-.06h.05s.02-.1.02-.1h.05s0-.04,0-.04h.06s.03-.1.03-.1h.05s.01-.06.01-.06h.05s.02-.07.02-.07h.05s.02-.07.02-.07h.05s.01-.06.01-.06l3.16-.59,27.27-4.63-1.99,8.43c.21-.15.98-.68.98-.68.62-.41,1.23-.78,1.84-1.14l.46-.26c.75-.41,1.37-.73,1.96-1.02l.17-.08c.59-.27,1.21-.53,1.89-.8l.48-.18c.69-.25,1.38-.48,2.05-.67l.32-.09c.7-.19,1.34-.34,1.99-.47l.37-.08c.68-.13,1.42-.23,2.16-.31l.43-.04c.9-.08,1.62-.11,2.32-.11.65,0,1.32.03,2.1.09.16.01.33.03.49.04.72.07,1.38.16,2.01.28l.27.06c.53.1,1.13.24,1.77.41l.44.12c.65.19,1.29.4,1.9.63.07.03.16.06.26.1.58.23,1.14.47,1.7.74l.32.15c.59.29,1.19.62,1.77.97l.21.13c.6.37,1.14.73,1.65,1.1.04.03.11.08.18.13.5.36,1.05.81,1.6,1.28l.23.2c1.03.9,2.03,1.94,2.95,3.04l.13.16c.3.36.58.72.86,1.1h0s.05-.03.05-.03v-.05s.07-.01.07-.01v-.05s.07-.01.07-.01v-.05s.07-.02.07-.02v-.06s.07-.01.07-.01v-.06s.07-.02.07-.02l.02-.08h.05s0-.04,0-.04l.06-.02.02-.07.1-.03.03-.11.11-.03v-.05s.08-.02.08-.02v-.03s.06-.01.06-.01l.02-.06h.05s.01-.07.01-.07h.06s.01-.07.01-.07h.05s.02-.07.02-.07h.05s.01-.07.01-.07h.06s.01-.07.01-.07h0s.02-.07.02-.07h.06s.01-.07.01-.07h.05s.01-.07.01-.07l.06-.02v-.05s.07-.02.07-.02v-.06s.07-.01.07-.01v-.06s.07-.02.07-.02v-.05s.07-.02.07-.02l.02-.08h.04s.01-.07.01-.07h.06s.01-.07.01-.07l.06-.02v-.06s.07-.01.07-.01v-.06s.07-.02.07-.02v-.03s.06-.01.06-.01v-.05s.07-.02.07-.02v-.06s.07-.01.07-.01v-.06s.07-.02.07-.02v-.05s.07-.02.07-.02v-.06s.07-.01.07-.01v-.05s.07-.01.07-.01v-.05s.07-.01.07-.01v-.05s.07-.02.07-.02v-.06s.07-.01.07-.01l.02-.08h.05s.01-.07.01-.07l.06-.02v-.04s.12-.03.12-.03v-.05s.08-.02.08-.02v-.03s.06-.01.06-.01v-.05s.07-.01.07-.01v-.05s.07-.01.07-.01v-.06s.07-.01.07-.01l.02-.06h.05s.01-.07.01-.07h.06s.01-.07.01-.07h0s.02-.07.02-.07h.05s.01-.07.01-.07l.06-.02v-.05s.07-.02.07-.02v-.05s.07-.01.07-.01v-.06s.07-.01.07-.01v-.06s.07-.02.07-.02v-.05s.07-.02.07-.02v-.06s.07-.01.07-.01l.02-.08h.05s.01-.06.01-.06h.06s.01-.07.01-.07h.05s.01-.07.01-.07l.06-.02v-.02s.06-.02.06-.02v-.06s.07-.01.07-.01v-.05s.07-.01.07-.01v-.05s.07-.01.07-.01v-.05s.07-.02.07-.02v-.06s.07-.01.07-.01v-.06s.07-.02.07-.02v-.05s.07-.02.07-.02v-.06s.07-.01.07-.01l.02-.08h.05s0-.04,0-.04l.06-.02.02-.08h.05s.01-.05.01-.05l.11-.03v-.04s2.92-.76,2.92-.76l1.17-.29c5.62-1.37,11.45-2.07,17.32-2.07.88,0,1.71.02,2.51.06h.34c.76.05,1.5.11,2.21.19l.39.04c.71.08,1.4.17,2.05.28l.27.05c.74.13,1.4.26,2.03.42l.2.05c.57.14,1.18.31,1.77.5l.18.06c.55.18,1.1.39,1.68.63l.28.12c.52.22,1.03.47,1.52.73l.22.12c.53.29,1,.58,1.44.87l.17.12c.39.27.8.57,1.18.88l.13.1c.4.34.79.7,1.19,1.11l.12.13c.16.17.31.34.47.52l.13-.13c.37-.39.77-.78,1.17-1.15l.35-.33c.38-.35.77-.69,1.16-1.02.06-.05.13-.12.21-.18.42-.34.88-.7,1.35-1.03l.35-.25c.41-.29.81-.55,1.22-.81l.32-.2c.48-.29.98-.57,1.48-.84l.35-.18c.44-.23.87-.43,1.3-.62l.39-.17c.53-.23,1.06-.43,1.61-.62l.27-.09c.52-.17.98-.31,1.45-.44l.42-.11c.58-.15,1.15-.27,1.72-.37.08-.01.18-.03.28-.04.46-.08.97-.14,1.49-.19l.47-.04c.68-.05,1.25-.08,1.79-.08.58,0,1.16.02,1.74.05.14,0,.3.02.45.03h.13c.39.04.78.07,1.17.11.19.02.7.09.7.09.36.05.71.1,1.07.16.26.04.5.09.75.13.35.07.7.14,1.04.22.25.06.5.12.76.18.35.09.69.19,1.03.29.3.09.52.16.74.23.37.12.72.25,1.07.39l.13.05c.18.07.36.14.54.21.52.22,1.02.45,1.51.69.19.09.37.19.55.29l.11.06c.38.21.77.42,1.14.66.2.13.39.26.58.39l.12.08c.29.2.59.41.88.63.22.17.42.34.63.52.34.29.59.52.85.76.08.08.16.15.23.23h.04s.02-.07.02-.07h.05s.02-.07.02-.07h.06s.01-.07.01-.07h.05s.01-.07.01-.07h.05s.02-.07.02-.07h.05s.01-.06.01-.06h.06s.01-.07.01-.07h.05s.02-.07.02-.07h.05s.01-.06.01-.06h.06s.01-.07.01-.07h.05s.01-.07.01-.07h.05s.02-.07.02-.07h.06s.01-.07.01-.07h.05s.02-.1.02-.1h.05s.02-.07.02-.07h.06s0-.03,0-.03h.06s.02-.07.02-.07h.05s.02-.07.02-.07h.05s.01-.06.01-.06h.06s.03-.14.03-.14h.05s.01-.07.01-.07h.06s.01-.07.01-.07h.05s.02-.07.02-.07h.05s.01-.07.01-.07h.06s.01-.06.01-.06h.05s.01-.07.01-.07h.06s.01-.07.01-.07h.06s.01-.07.01-.07l3.55-.44,41.54-4.46-1.43,6.37c1.46-1.16,2.99-2.16,4.6-3l.22-.12c.26-.14.58-.29.9-.44l.12-.06c.35-.16.71-.32,1.07-.46l.12-.05c.36-.15.72-.28,1.08-.4,0,0,.09-.04.18-.07.3-.1.64-.21.98-.31l.21-.06c.35-.1.66-.18.98-.25l.31-.08c.32-.07.63-.13.94-.19.14-.03.26-.05.38-.07.3-.05.62-.1.94-.14.12-.02.23-.04.35-.05.35-.04.7-.07,1.04-.09.08,0,.18-.02.29-.02.44-.03.88-.04,1.33-.04,11.43,0,22.96,5.9,22.96,19.06,0,2.21-.61,8.76-3.4,12.55l-1.24,1.68c2.25,2.29,4.22,5.95,4.22,11.76,0,.65-.03,1.29-.07,1.93-.01.18-.03.35-.04.53-.05.53-.11,1.08-.19,1.62l-.04.28c-.1.62-.21,1.22-.34,1.83l-.11.47c-.12.49-.24.97-.37,1.45l-.1.37c-.18.61-.37,1.17-.57,1.73l-.17.44c-.16.43-.33.85-.5,1.28l-.21.5c-.22.5-.46,1.02-.71,1.52l-.2.38c-.21.41-.42.79-.62,1.17l-.29.51c-.25.43-.51.86-.78,1.28l-.21.32c-.3.45-.54.81-.8,1.16-.11.15-.23.32-.35.48-.24.33-.48.64-.73.94l-.28.36c-.78.95-1.61,1.86-2.47,2.69h0s-1.39,1.39-1.39,1.39l.07-.07-.48.48-.54.54.11-.11-.3.3.03-.03-.62.62.07-.07-.3.3.03-.03-.7.7-.28.28-.42.42.08-.07-.35.35-.08.08-2.67-2.79-.81-.8,1.2,1.31,2.26,2.3-1.66,1.66c-.47.46-.93.87-1.39,1.26-.9.78-1.85,1.48-2.78,2.06-6.53,4.05-14.46,6.36-21.78,6.36-5.32,0-12.39-1.77-17.38-6.46l-.2.03-46.17,5.37.6-2.49c-5.26,2.29-11,3.55-16.4,3.55-4.09,0-9.24-1.03-13.69-3.68l-4.16,1-24.26,5.54-1.11-8.31-22.6,5.01.97-3.89c-5.59,4.13-11.82,6.35-18.02,6.35-8.82,0-16.65-4.46-21.77-12.04h-.05s-.01.07-.01.07h-.05s-.01.07-.01.07h-.06s-.02.1-.02.1h-.05s-.01.07-.01.07h-.05s-.02.07-.02.07h-.05s-.01.07-.01.07h-.06s-.01.06-.01.06h-.05s-.01.07-.01.07h-.06s0,.04,0,.04h-.05s-.01.06-.01.06h-.11s-.02.08-.02.08h-.05s-.02.07-.02.07h-.06s-.01.07-.01.07h-.05s-.02.07-.02.07h-.05s-.02.07-.02.07h-.06s-.02.07-.02.07h-.05s-.03.14-.03.14h-.11s-.03.14-.03.14h-.05s-.01.07-.01.07h-.05s-.02.1-.02.1h-.05s-.01.06-.01.06h-.06s0,.04,0,.04h-.06s-.01.07-.01.07h-.05s-.01.07-.01.07h-.05s-.02.07-.02.07l-3.52.46-14.13,1.62-.02.08h-.04s-.02.07-.02.07h-.05s-.01.07-.01.07h-.05s-.02.07-.02.07h-.06s0,.04,0,.04h-.05s-.01.07-.01.07h-.05s-.02.07-.02.07h-.05s-.02.07-.02.07h-.06s-.02.07-.02.07h-.05s-.01.07-.01.07h-.05s-.02.07-.02.07h-.06s-.02.1-.02.1h-.05s-.02.07-.02.07h-.05s-.02.07-.02.07h-.05s-.02.07-.02.07h-.06s-.02.07-.02.07h-.05s-.01.07-.01.07h-.05s-.02.07-.02.07h-.06s-.01.07-.01.07h-.05s-.02.07-.02.07h-.05s-.02.07-.02.07h-.05s-.02.07-.02.07h-.06s-.02.07-.02.07h-.06s0,.04,0,.04h-.05s-.02.07-.02.07h-.06s-.01.07-.01.07h-.05s-.02.07-.02.07h-.05s-.02.07-.02.07h-.06s-.01.07-.01.07h-.05s-.02.07-.02.07h-.05s-.02.1-.02.1h-.04s-.01.06-.01.06h-.05s-.02.08-.02.08h-.06s-.01.06-.01.06h-.05s-.02.08-.02.08h-.05s-.02.07-.02.07h-.05s-.01.07-.01.07h-.06s-.01.07-.01.07h-.06s0,.03,0,.03h-.05s-.02.07-.02.07h-.06s-.02.07-.02.07h-.05s-.01.07-.01.07h-.05s-.02.07-.02.07h-.05s-.02.07-.02.07h-.06s-.02.1-.02.1h-.05s0,.03,0,.03h-.06s-.02.11-.02.11h-.05s-.01.07-.01.07h-.05s-.02.07-.02.07h-.05s-.02.07-.02.07h-.05s-.02.07-.02.07h-.06s-.02.07-.02.07h-.05s-.01.07-.01.07h-.05s-.02.07-.02.07h-.06s-.01.07-.01.07h-.05s-.02.07-.02.07h-.05s-.02.07-.02.07h-.06s0,.03,0,.03h-.06s-.02.09-.02.09l-3.55.4-26.14,2.48.14-.55-16.45,3.32,1.79-10.06ZM801.25,713.3h0s0,0,0,0ZM618.31,681.52c-.02.23-.04.46-.06.69l-.03.44c-.02.37-.03.75-.03,1.14,0,1.2.08,2.17.2,2.94.1-.83.16-1.68.16-2.55,0-1.04-.09-1.96-.23-2.72,0,.02,0,.05,0,.07Z"/>
      <g>
        <path class="st44" d="M806.83,675.87c-.93-.59-1.88-1.12-2.84-1.64h0s.02-.01.02-.01l.05-.07h.02s.05-.07.05-.07h.02s.05-.07.05-.07h.02s.05-.07.05-.07h.02s.05-.07.05-.07h.02s.05-.07.05-.07h.02s.05-.07.05-.07h.02s.05-.07.05-.07h.02s.05-.07.05-.07h.02s.05-.07.05-.07h.02s.05-.07.05-.07h.02s.05-.07.05-.07h.02s.05-.07.05-.07h.02s.05-.07.05-.07h.02s.05-.07.05-.07h.02s.05-.07.05-.07h.02s.05-.07.05-.07h.02s.05-.07.05-.07h.02s.05-.07.05-.07h.02s.05-.07.05-.07h.02s.05-.07.05-.07h.02s.05-.07.05-.07h.02s.05-.07.05-.07h.02s.05-.07.05-.07h.02s.05-.07.05-.07h.02s.05-.07.05-.07h.02s.05-.07.05-.07h.02s.05-.07.05-.07h.02s.05-.07.05-.07h.02s.05-.07.05-.07h.02s.05-.07.05-.07h.02s.05-.07.05-.07h.02s.05-.07.05-.07h.02s.05-.07.05-.07h.02s.05-.07.05-.07h.02s.05-.07.05-.07h.02s.05-.07.05-.07h.02s.05-.07.05-.07h.02s.05-.07.05-.07h.02s.05-.07.05-.07h.02s.05-.07.05-.07h.02s.05-.07.05-.07h.02s.05-.07.05-.07h.02s.05-.07.05-.07h.02s.05-.07.05-.07h.02s.05-.07.05-.07h.02s.05-.07.05-.07h.02s.05-.07.05-.07h.02s.05-.07.05-.07h.02s.05-.07.05-.07h.02s.05-.07.05-.07h.02s.05-.07.05-.07h.02s.05-.07.05-.07h.02s.05-.07.05-.07h.02s.05-.07.05-.07h.02s.05-.07.05-.07h.02s.05-.07.05-.07h.02s.05-.07.05-.07h.02s.05-.07.05-.07h.02s.05-.07.05-.07h.02s.05-.07.05-.07h.02s.05-.07.05-.07h.02s.05-.07.05-.07h.02s.05-.07.05-.07h.02s.05-.07.05-.07h.02s.05-.07.05-.07h.02s.52-.71.52-.71c1.72-2.33,2.43-7.4,2.43-9.59,0-10.38-9.67-14.06-17.96-14.06-5.58,0-10.97,2.62-15.17,6.83-.02.02-.05.05-.07.07-.02.02-.05.05-.07.07-.02.02-.05.05-.07.07-.02.02-.05.05-.07.07-.02.02-.05.05-.07.07-.02.02-.05.05-.07.07-.02.02-.05.05-.07.07-.02.02-.05.05-.07.07-.02.02-.05.05-.07.07-.02.02-.05.05-.07.07-.02.02-.05.05-.07.07-.02.02-.05.05-.07.07-.02.02-.05.05-.07.07-.02.02-.05.05-.07.07-.02.02-.05.05-.07.07-.02.02-.05.05-.07.07-.02.02-.05.05-.07.07-.02.02-.05.05-.07.07-.02.02-.05.05-.07.07-.02.02-.05.05-.07.07-.02.02-.05.05-.07.07-.02.02-.05.05-.07.07-.02.02-.05.05-.07.07-.02.02-.05.05-.07.07-.02.02-.05.05-.07.07-.02.02-.05.05-.07.07-.02.02-.05.05-.07.07-.02.02-.05.05-.07.07-.02.02-.05.05-.07.07-.02.02-.05.05-.07.07-.02.02-.05.05-.07.07-.02.02-.05.05-.07.07-.02.02-.05.05-.07.07-.02.02-.05.05-.07.07-.02.02-.05.05-.07.07-.02.02-.05.05-.07.07-.02.02-.05.05-.07.07-.02.02-.05.05-.07.07-.02.02-.05.05-.07.07-.02.02-.05.05-.07.07-.02.02-.05.05-.07.07-.02.02-.05.05-.07.07-.02.02-.05.05-.07.07-.02.02-.05.05-.07.07-.02.02-.05.05-.07.07-.02.02-.05.05-.07.07-.02.02-.05.05-.07.07-.02.02-.05.05-.07.07-.02.02-.05.05-.07.07-.02.02-.05.05-.07.07-.02.02-.05.05-.07.07-.02.02-.05.05-.07.07-.02.02-.05.05-.07.07-.02.02-.05.05-.07.07-.02.02-.05.05-.07.07-.02.02-.05.05-.07.07-.02.02-.05.05-.07.07-.02.02-.05.05-.07.07-.02.02-.05.05-.07.07-.02.02-.05.05-.07.07-.02.02-.05.05-.07.07-.02.02-.05.05-.07.07-.02.02-.05.05-.07.07-.02.02-.05.05-.07.07-.02.02-.05.05-.07.07-.02.02-.05.05-.07.07-.02.02-.05.05-.07.07-.02.02-.05.05-.07.07-.02.02-.05.05-.07.07-.02.02-.05.05-.07.07-.02.02-.05.05-.07.07-.02.02-.05.05-.07.07-.02.02-.05.05-.07.07-.02.02-.05.05-.07.07-.02.02-.05.05-.07.07-.02.02-.05.05-.07.07-.02.02-.05.05-.07.07-.02.02-.05.05-.07.07-.02.02-.05.05-.07.07-.02.02-.05.05-.07.07-.02.02-.05.05-.07.07-.02.02-.05.05-.07.07-.02.02-.05.05-.07.07-.02.02-.05.05-.07.07-.02.02-.05.05-.07.07-.02.02-.05.05-.07.07-.02.02-.05.05-.07.07-.02.02-.05.05-.07.07-.02.02-.05.05-.07.07-.02.02-.05.05-.07.07-.02.02-.05.05-.07.07-.02.02-.05.05-.07.07-.02.02-.05.05-.07.07-.02.02-.05.05-.07.07-.02.02-.05.05-.07.07-.02.02-.05.05-.07.07-.02.02-.05.05-.07.07-.02.02-.05.05-.07.07-.02.02-.05.05-.07.07-.02.02-.05.05-.07.07-.94.94-1.82,1.97-2.64,3.06l3.72-16.57-34.6,3.72-.02.06h-.05s-.02.07-.02.07h-.05s-.02.07-.02.07h-.05s-.02.07-.02.07h-.05s-.02.07-.02.07h-.05s-.02.07-.02.07h-.05s-.02.07-.02.07h-.05s-.02.07-.02.07h-.05s-.02.07-.02.07h-.05s-.02.07-.02.07h-.05s-.02.07-.02.07h-.05s-.02.07-.02.07h-.05s-.02.07-.02.07h-.05s-.02.07-.02.07h-.05s-.02.07-.02.07h-.05s-.02.07-.02.07h-.05s-.02.07-.02.07h-.05s-.02.07-.02.07h-.05s-.02.07-.02.07h-.05s-.02.07-.02.07h-.05s-.02.07-.02.07h-.05s-.02.07-.02.07h-.05s-.02.07-.02.07h-.05s-.02.07-.02.07h-.05s-.02.07-.02.07h-.05s-.02.07-.02.07h-.05s-.02.07-.02.07h-.05s-.02.07-.02.07h-.05s-.02.07-.02.07h-.05s-.02.07-.02.07h-.05s-.02.07-.02.07h-.05s-.02.07-.02.07h-.05s-.02.07-.02.07h-.05s-.02.07-.02.07h-.05s-.02.07-.02.07h-.05s-.02.07-.02.07h-.05s-.02.07-.02.07h-.05s-.02.07-.02.07h-.05s-.02.07-.02.07h-.05s-.02.07-.02.07h-.05s-.02.07-.02.07h-.05s-.02.07-.02.07h-.05s-.02.07-.02.07h-.05s-.02.07-.02.07h-.05s-.02.07-.02.07h-.05s-.02.07-.02.07h-.05s-.02.07-.02.07h-.05s-.02.07-.02.07h-.05s-.02.07-.02.07h-.05s-.02.07-.02.07h-.05s-.02.07-.02.07h-.05s-.02.07-.02.07h-.05s-.02.07-.02.07h-.05s-.02.07-.02.07h-.05s-.02.07-.02.07h-.05s-.02.07-.02.07h-.05s-.02.07-.02.07h-.05s-.02.07-.02.07h-.05s-.02.07-.02.07h-.05s-.02.07-.02.07h-.05s-.02.07-.02.07h-.05s-.02.07-.02.07h-.05s-.02.07-.02.07h-.05s-.02.07-.02.07h-.05s-.02.07-.02.07h-.05s-.02.07-.02.07h-.05s-.02.07-.02.07h-.05s-.02.07-.02.07h-.05s-.02.07-.02.07h-.05s-.02.07-.02.07h-.05s-.02.07-.02.07h-.05s-.02.07-.02.07h-.05s-.02.07-.02.07h-.05s-.02.07-.02.07h-.05s-.02.07-.02.07h-.05s-.02.07-.02.07h-.05s-.02.07-.02.07h-.05s-.02.07-.02.07h-.05s-.02.07-.02.07h-.05s-.02.07-.02.07h-.05s-.02.07-.02.07h-.05s-.02.07-.02.07h-.05s-.02.07-.02.07h-.05s-.02.07-.02.07h-.05s-.02.07-.02.07h-.05s-.02.07-.02.07h-.05s-.02.07-.02.07h-.05s-.02.07-.02.07h-.05s-.02.07-.02.07h-.05s-.02.07-.02.07h-.05s-.02.07-.02.07h-.05s-.02.07-.02.07h-.05s-.02.07-.02.07h-.05c-1.99-7.61-10.28-10.42-17.51-10.42-5.79,0-11.37,2.82-15.63,7.31-.02.02-.05.05-.07.07-.02.02-.05.04-.07.07-.02.02-.05.05-.07.07-.02.02-.05.04-.07.07-.02.02-.05.05-.07.07-.02.02-.05.04-.07.07-.02.02-.05.05-.07.07-.02.02-.05.04-.07.07-.02.02-.05.05-.07.07-.02.02-.05.05-.07.07-.02.02-.05.05-.07.07-.02.02-.05.05-.07.07-.02.02-.05.05-.07.07-.02.02-.05.05-.07.07-.02.02-.05.05-.07.07-.02.02-.05.05-.07.07-.02.02-.05.05-.07.07-.02.02-.05.05-.07.07-.02.02-.05.05-.07.07-.02.02-.05.05-.07.07-.02.02-.05.05-.07.07-.02.02-.05.05-.07.07-.02.02-.05.04-.07.07-.02.02-.05.05-.07.07-.02.02-.05.04-.07.07-.02.02-.05.05-.07.07-.02.02-.05.04-.07.07-.02.02-.05.05-.07.07-.02.02-.05.04-.07.07-.02.02-.05.05-.07.07-.02.02-.05.05-.07.07-.02.02-.05.05-.07.07-.02.02-.05.05-.07.07-.02.02-.05.05-.07.07-.02.02-.05.05-.07.07-.02.02-.05.05-.07.07-.02.02-.05.05-.07.07-.02.02-.05.05-.07.07-.02.02-.05.05-.07.07-.02.02-.05.05-.07.07-.02.02-.05.05-.07.07-.02.02-.05.04-.07.07-.02.02-.05.05-.07.07-.02.02-.05.04-.07.07-.02.02-.05.05-.07.07-.02.02-.05.04-.07.07-.02.02-.05.05-.07.07-.02.02-.05.04-.07.07-.02.02-.05.05-.07.07-.02.02-.05.05-.07.07-.02.02-.05.05-.07.07-.02.02-.05.05-.07.07-.02.02-.05.05-.07.07-.02.02-.05.05-.07.07-.02.02-.05.05-.07.07-.02.02-.05.05-.07.07-.02.02-.05.05-.07.07-.02.02-.05.05-.07.07-.02.02-.05.05-.07.07-.02.02-.05.05-.07.07-.02.02-.05.05-.07.07-.02.02-.05.05-.07.07-.02.02-.05.04-.07.07-.02.02-.05.05-.07.07-.02.02-.05.04-.07.07-.02.02-.05.05-.07.07-.02.02-.05.04-.07.07-.02.02-.05.05-.07.07-.02.02-.05.04-.07.07-.02.02-.05.05-.07.07-.02.02-.05.05-.07.07-.02.02-.05.05-.07.07-.02.02-.04.04-.07.07-.87-5.18-5.15-10.42-18.97-10.42-5.47,0-10.9.65-16.13,1.92l-1.17.29v.06s-.07.01-.07.01v.06s-.07.01-.07.01v.06s-.07.01-.07.01v.06s-.07.01-.07.01v.06s-.07.01-.07.01v.06s-.07.01-.07.01v.06s-.07.01-.07.01v.06s-.07.01-.07.01v.06s-.07.01-.07.01v.06s-.07.01-.07.01v.06s-.07.01-.07.01v.06s-.07.01-.07.01v.06s-.07.01-.07.01v.06s-.07.01-.07.01v.06s-.07.01-.07.01v.06s-.07.01-.07.01v.06s-.07.01-.07.01v.06s-.07.01-.07.01v.06s-.07.01-.07.01v.06s-.07.01-.07.01v.06s-.07.01-.07.01v.06s-.07.01-.07.01v.06s-.07.01-.07.01v.06s-.07.01-.07.01v.06s-.07.01-.07.01v.06s-.07.01-.07.01v.06s-.07.01-.07.01v.06s-.07.01-.07.01v.06s-.07.01-.07.01v.06s-.07.01-.07.01v.06s-.07.01-.07.01v.06s-.07.01-.07.01v.06s-.07.01-.07.01v.06s-.07.01-.07.01v.06s-.07.01-.07.01v.06s-.07.01-.07.01v.06s-.07.01-.07.01v.06s-.07.01-.07.01v.06s-.07.01-.07.01v.06s-.07.01-.07.01v.06s-.07.01-.07.01v.06s-.07.01-.07.01v.06s-.07.01-.07.01v.06s-.07.01-.07.01v.06s-.07.01-.07.01v.06s-.07.01-.07.01v.06s-.07.01-.07.01v.06s-.07.01-.07.01v.06s-.07.01-.07.01v.06s-.07.01-.07.01v.06s-.07.01-.07.01v.06s-.07.01-.07.01v.06s-.07.01-.07.01v.06s-.07.01-.07.01v.06s-.07.01-.07.01v.06s-.07.01-.07.01v.06s-.07.01-.07.01v.06s-.07.01-.07.01v.06s-.07.01-.07.01v.06s-.07.01-.07.01v.06s-.07.01-.07.01v.06s-.07.01-.07.01v.06s-.07.01-.07.01v.06s-.07.01-.07.01v.06s-.07.01-.07.01v.06s-.07.01-.07.01v.06s-.07.01-.07.01v.06s-.07.01-.07.01v.06s-.07.01-.07.01v.06s-.07.01-.07.01v.06s-.07.01-.07.01v.06s-.07.01-.07.01v.06s-.07.01-.07.01v.06s-.07.01-.07.01v.06s-.07.01-.07.01v.06s-.07.01-.07.01v.06s-.07.01-.07.01v.06s-.07.01-.07.01v.06s-.07.01-.07.01v.06s-.07.01-.07.01v.06s-.07.01-.07.01v.06s-.07.01-.07.01v.06s-.07.01-.07.01v.06s-.07.01-.07.01v.06s-.07.01-.07.01v.06s-.07.01-.07.01v.06s-.07.01-.07.01v.06s-.07.01-.07.01v.06s-.07.01-.07.01v.06s-.07.01-.07.01v.06s-.07.01-.07.01v.06s-.07.01-.07.01v.06s-.07.01-.07.01v.06s-.07.01-.07.01v.06s-.07.01-.07.01v.06s-.07.01-.07.01v.06s-.07.01-.07.01v.06s-.07.01-.07.01v.06s-.07.01-.07.01v.06s-.07.01-.07.01v.06s-.07.01-.07.01l-1.76,7.05c-3.15-11.17-11.27-18.52-21.57-18.52-6.9,0-13.55,3.33-18.97,8.75-.02.02-.05.05-.07.07-.02.02-.05.05-.07.07-.02.02-.05.05-.07.07-.02.02-.05.05-.07.07-.02.02-.05.05-.07.07-.02.02-.05.05-.07.07-.02.02-.05.05-.07.07-.02.02-.05.05-.07.07-.02.02-.05.05-.07.07-.02.02-.05.05-.07.07-.02.02-.05.05-.07.07-.02.02-.05.05-.07.07-.02.02-.05.05-.07.07-.02.02-.05.05-.07.07-.02.02-.05.05-.07.07-.02.02-.05.05-.07.07-.02.02-.05.05-.07.07-.02.02-.05.05-.07.07-.02.02-.05.05-.07.07-.02.02-.05.05-.07.07-.02.02-.05.05-.07.07-.02.02-.05.05-.07.07-.02.02-.05.05-.07.07-.02.02-.05.05-.07.07-.02.02-.05.05-.07.07-.02.02-.05.05-.07.07-.02.02-.05.05-.07.07-.02.02-.05.05-.07.07-.02.02-.05.05-.07.07-.02.02-.05.05-.07.07-.02.02-.05.05-.07.07-.02.02-.05.05-.07.07-.02.02-.05.05-.07.07-.02.02-.05.05-.07.07-.02.02-.05.05-.07.07-.02.02-.05.05-.07.07-.02.02-.05.05-.07.07-.02.02-.05.05-.07.07-.02.02-.05.05-.07.07-.02.02-.05.05-.07.07-.02.02-.05.05-.07.07-.02.02-.05.05-.07.07-.02.02-.05.05-.07.07-.02.02-.05.05-.07.07-.02.02-.05.05-.07.07-.02.02-.05.05-.07.07-.02.02-.05.05-.07.07-.02.02-.05.05-.07.07-.02.02-.05.05-.07.07-.02.02-.05.05-.07.07-.02.02-.05.05-.07.07-.02.02-.05.05-.07.07-.02.02-.05.05-.07.07-.02.02-.05.05-.07.07-.02.02-.05.05-.07.07-.02.02-.05.05-.07.07-.02.02-.05.05-.07.07-.02.02-.05.05-.07.07-.02.02-.05.05-.07.07-.02.02-.05.05-.07.07-.02.02-.05.05-.07.07-.02.02-.05.05-.07.07-.02.02-.05.05-.07.07-.02.02-.05.05-.07.07-.02.02-.05.05-.07.07-.02.02-.05.05-.07.07-.02.02-.05.05-.07.07-.02.02-.05.05-.07.07-.02.02-.05.05-.07.07-.02.02-.05.05-.07.07-.02.02-.05.05-.07.07-.02.02-.05.05-.07.07-.02.02-.05.05-.07.07-.02.02-.05.05-.07.07-.02.02-.05.05-.07.07-.02.02-.05.05-.07.07-.02.02-.05.05-.07.07-.02.02-.05.05-.07.07-.02.02-.05.05-.07.07-.02.02-.05.05-.07.07-.02.02-.05.05-.07.07-.02.02-.05.05-.07.07-.02.02-.05.05-.07.07-.02.02-.05.05-.07.07-.02.02-.05.05-.07.07-.02.02-.05.05-.07.07-.02.02-.05.05-.07.07-.02.02-.05.05-.07.07-.02.02-.05.05-.07.07-.02.02-.05.05-.07.07-.02.02-.05.05-.07.07-.02.02-.05.05-.07.07-.02.02-.05.05-.07.07-.02.02-.05.05-.07.07-.02.02-.05.05-.07.07-.02.02-.05.05-.07.07-.02.02-.05.05-.07.07-.02.02-.05.05-.07.07-.02.02-.05.05-.07.07-.02.02-.05.05-.07.07-.06.06-.12.13-.19.19l4.06-17.21-19.84,3.37-.02.06h-.05s-.02.07-.02.07h-.05s-.02.07-.02.07h-.05s-.02.07-.02.07h-.05s-.02.07-.02.07h-.05s-.02.07-.02.07h-.05s-.02.07-.02.07h-.05s-.02.07-.02.07h-.05s-.02.07-.02.07h-.05s-.02.07-.02.07h-.05s-.02.07-.02.07h-.05s-.02.07-.02.07h-.05s-.02.07-.02.07h-.05s-.02.07-.02.07h-.05s-.02.07-.02.07h-.05s-.02.07-.02.07h-.05s-.02.07-.02.07h-.05s-.02.07-.02.07h-.05s-.02.07-.02.07h-.05s-.02.07-.02.07h-.05s-.02.07-.02.07h-.05s-.02.07-.02.07h-.05s-.02.07-.02.07h-.05s-.02.07-.02.07h-.05s-.02.07-.02.07h-.05s-.02.07-.02.07h-.05s-.02.07-.02.07h-.05s-.02.07-.02.07h-.05s-.02.07-.02.07h-.05s-.02.07-.02.07h-.05s-.02.07-.02.07h-.05s-.02.07-.02.07h-.05s-.02.07-.02.07h-.05s-.02.07-.02.07h-.05s-.02.07-.02.07h-.05s-.02.07-.02.07h-.05s-.02.07-.02.07h-.05s-.02.07-.02.07h-.05s-.02.07-.02.07h-.05s-.02.07-.02.07h-.05s-.02.07-.02.07h-.05s0,.03,0,.03l-16.66,2.74-.02.06h-.05s-.02.07-.02.07h-.05s-.02.07-.02.07h-.05s-.02.07-.02.07h-.05s-.02.07-.02.07h-.05s-.02.07-.02.07h-.05s-.02.07-.02.07h-.05s-.02.07-.02.07h-.05s-.02.07-.02.07h-.05s-.02.07-.02.07h-.05s-.02.07-.02.07h-.05s-.02.07-.02.07h-.05s-.02.07-.02.07h-.05s-.02.07-.02.07h-.05s-.02.07-.02.07h-.05s-.02.07-.02.07h-.05s-.02.07-.02.07h-.05s-.02.07-.02.07h-.05s-.02.07-.02.07h-.05s-.02.07-.02.07h-.05s-.02.07-.02.07h-.05s-.02.07-.02.07h-.05s-.02.07-.02.07h-.05s-.02.07-.02.07h-.05s-.02.07-.02.07h-.05s-.02.07-.02.07h-.05s-.02.07-.02.07h-.05s-.02.07-.02.07h-.05s-.02.07-.02.07h-.05s-.02.07-.02.07h-.05s-.02.07-.02.07h-.05s-.02.07-.02.07h-.05s-.02.07-.02.07h-.05s-.02.07-.02.07h-.05s-.02.07-.02.07h-.05s-.02.07-.02.07h-.05s-.02.07-.02.07h-.05s-.02.07-.02.07h-.05s-.02.07-.02.07h-.05s-.02.07-.02.07h-.05s-.02.07-.02.07h-.05s-.02.07-.02.07h-.05s-.02.07-.02.07h-.05s-.02.07-.02.07h-.05s-.02.07-.02.07h-.05s-.02.07-.02.07h-.05s-.02.07-.02.07h-.05s-.02.07-.02.07h-.05s-.02.07-.02.07h-.05s-.02.07-.02.07h-.05s-.02.07-.02.07h-.05s-.02.07-.02.07h-.05s-.02.07-.02.07h-.05s-.02.07-.02.07h-.05s-.02.07-.02.07h-.05s-.02.07-.02.07h-.05s-.02.07-.02.07h-.05s-.02.07-.02.07h-.05s-.02.07-.02.07h-.05s-.02.07-.02.07h-.05s-.02.07-.02.07h-.05s-.02.07-.02.07h-.05s-.02.07-.02.07h-.05s-.02.07-.02.07h-.05s-.02.07-.02.07h-.05s-.02.07-.02.07h-.05s-.02.07-.02.07h-.05s-.02.07-.02.07h-.05s-.02.07-.02.07h-.05s-.02.07-.02.07h-.05s-.02.07-.02.07h-.05s-.02.07-.02.07h-.05s-.02.07-.02.07h-.05s-.02.07-.02.07h-.05s-.02.07-.02.07h-.05s-.02.07-.02.07h-.05s-.02.07-.02.07h-.05s-.02.07-.02.07h-.05s-.02.07-.02.07h-.05s-.02.07-.02.07h-.05s-.02.07-.02.07h-.05s-.02.07-.02.07h-.05s-.02.07-.02.07h-.05s-.02.07-.02.07h-.05s-.02.07-.02.07h-.05s-.02.07-.02.07h-.05s-.02.07-.02.07h-.05s-.02.07-.02.07h-.05s-.02.07-.02.07h-.05s-.02.07-.02.07h-.05s-.02.07-.02.07h-.05s-.02.07-.02.07h-.05s-.02.07-.02.07h-.05s-.02.07-.02.07h-.05s-.02.07-.02.07h-.05s-.02.07-.02.07h-.05s-.02.07-.02.07h-.03s1.69-16.27,1.69-16.27l-28.76,6.1-.02.06h-.05s-.02.07-.02.07h-.05s-.02.07-.02.07h-.05s-.02.07-.02.07h-.05s-.02.07-.02.07h-.05s-.02.07-.02.07h-.05s-.02.07-.02.07h-.05s-.02.07-.02.07h-.05s-.02.07-.02.07h-.05s-.02.07-.02.07h-.05s-.02.07-.02.07h-.05s-.02.07-.02.07h-.05s-.02.07-.02.07h-.05s-.02.07-.02.07h-.05s-.02.07-.02.07h-.05s-.02.07-.02.07h-.05s-.02.07-.02.07h-.05s-.02.07-.02.07h-.05s-.02.07-.02.07h-.05s-.02.07-.02.07h-.05s-.02.07-.02.07h-.05s-.02.07-.02.07h-.05s-.02.07-.02.07h-.05s-.02.07-.02.07h-.05s-.02.07-.02.07h-.05s-.02.07-.02.07h-.05s-.02.07-.02.07h-.05s-.02.07-.02.07h-.05s-.02.07-.02.07h-.05s-.02.07-.02.07h-.05s-.02.07-.02.07h-.05s-.02.07-.02.07h-.05s-.02.07-.02.07h-.05s-.02.07-.02.07h-.05s-.02.07-.02.07h-.05s-.02.07-.02.07h-.05s-.02.07-.02.07h-.05s-.02.07-.02.07h-.05s-.02.07-.02.07h-.05s-.02.07-.02.07h-.05s-.02.07-.02.07h-.05s-.02.07-.02.07h-.05s-.02.07-.02.07h-.05s-.02.07-.02.07h-.05s-.02.07-.02.07h-.05s-.02.07-.02.07h-.05s-.02.07-.02.07h-.05s-.02.07-.02.07h-.05s-.02.07-.02.07h-.05s-.02.07-.02.07h-.05s-.02.07-.02.07h-.05s-.02.07-.02.07h-.05s-.02.07-.02.07h-.05s-.02.07-.02.07h-.05s-.02.07-.02.07h-.05s-.02.07-.02.07h-.05s-.02.07-.02.07h-.05s-.02.07-.02.07h-.05s-.02.07-.02.07h-.05s-.02.07-.02.07h-.05s-.02.07-.02.07h-.05s-.02.07-.02.07h-.05s-.02.07-.02.07h-.05s-.02.07-.02.07h-.05s-.02.07-.02.07h-.05s-.02.07-.02.07h-.05s-.02.07-.02.07h-.05s-.02.07-.02.07h-.05s-.02.07-.02.07h-.05s-.02.07-.02.07h-.05s-.02.07-.02.07h-.05s-.02.07-.02.07h-.05s-.02.07-.02.07h-.05s-.02.07-.02.07h-.05s-.02.07-.02.07h-.05s-.02.07-.02.07h-.05s-.02.07-.02.07h-.05s-.02.07-.02.07h-.05s-.02.07-.02.07h-.05s-.02.07-.02.07h-.05s-.02.07-.02.07h-.05s-.02.07-.02.07h-.05s-.02.07-.02.07h-.05s-.02.07-.02.07h-.05s-.02.07-.02.07h-.05s-.02.07-.02.07h-.05s-.02.07-.02.07h-.05s-.02.07-.02.07h-.05s-.02.07-.02.07h-.05s-.02.07-.02.07h-.05s-.02.07-.02.07h-.05s-.02.07-.02.07h-.02c-1.66-4.38-6.5-8.28-18.41-8.28-5.47,0-10.9.65-16.13,1.92l-1.17.29v.06s-.07.01-.07.01v.06s-.07.01-.07.01v.06s-.07.01-.07.01v.06s-.07.01-.07.01v.06s-.07.01-.07.01v.06s-.07.01-.07.01v.06s-.07.01-.07.01v.06s-.07.01-.07.01v.06s-.07.01-.07.01v.06s-.07.01-.07.01v.06s-.07.01-.07.01v.06s-.07.01-.07.01v.06s-.07.01-.07.01v.06s-.07.01-.07.01v.06s-.07.01-.07.01v.06s-.07.01-.07.01v.06s-.07.01-.07.01v.06s-.07.01-.07.01v.06s-.07.01-.07.01v.06s-.07.01-.07.01v.06s-.07.01-.07.01v.06s-.07.01-.07.01v.06s-.07.01-.07.01v.06s-.07.01-.07.01v.06s-.07.01-.07.01v.06s-.07.01-.07.01v.06s-.07.01-.07.01v.06s-.07.01-.07.01v.06s-.07.01-.07.01v.06s-.07.01-.07.01v.06s-.07.01-.07.01v.06s-.07.01-.07.01v.06s-.07.01-.07.01v.06s-.07.01-.07.01v.06s-.07.01-.07.01v.06s-.07.01-.07.01v.06s-.07.01-.07.01v.06s-.07.01-.07.01v.06s-.07.01-.07.01v.06s-.07.01-.07.01v.06s-.07.01-.07.01v.06s-.07.01-.07.01v.06s-.07.01-.07.01v.06s-.07.01-.07.01v.06s-.07.01-.07.01v.06s-.07.01-.07.01v.06s-.07.01-.07.01v.06s-.07.01-.07.01v.06s-.07.01-.07.01v.06s-.07.01-.07.01v.06s-.07.01-.07.01v.06s-.07.01-.07.01v.06s-.07.01-.07.01v.06s-.07.01-.07.01v.06s-.07.01-.07.01v.06s-.07.01-.07.01v.06s-.07.01-.07.01v.06s-.07.01-.07.01v.06s-.07.01-.07.01v.06s-.07.01-.07.01v.06s-.07.01-.07.01v.06s-.06.01-.06.01l1.84-8.2-34.6,3.72-.02.06h-.05s-.02.07-.02.07h-.05s-.02.07-.02.07h-.05s-.02.07-.02.07h-.05s-.02.07-.02.07h-.05s-.02.07-.02.07h-.05s-.02.07-.02.07h-.05s-.02.07-.02.07h-.05s-.02.07-.02.07h-.05s-.02.07-.02.07h-.05s-.02.07-.02.07h-.05s-.02.07-.02.07h-.05s-.02.07-.02.07h-.05s-.02.07-.02.07h-.05s-.02.07-.02.07h-.05s-.02.07-.02.07h-.05s-.02.07-.02.07h-.05s-.02.07-.02.07h-.05s-.02.07-.02.07h-.05s-.02.07-.02.07h-.05s-.02.07-.02.07h-.05s-.02.07-.02.07h-.05s-.02.07-.02.07h-.05s-.02.07-.02.07h-.05s-.02.07-.02.07h-.05s-.02.07-.02.07h-.05s-.02.07-.02.07h-.05s-.02.07-.02.07h-.05s-.02.07-.02.07h-.05s-.02.07-.02.07h-.05s-.02.07-.02.07h-.05s-.02.07-.02.07h-.05s-.02.07-.02.07h-.05s-.02.07-.02.07h-.05s-.02.07-.02.07h-.05s-.02.07-.02.07h-.05s-.02.07-.02.07h-.05s-.02.07-.02.07h-.05s-.02.07-.02.07h-.05s-.02.07-.02.07h-.05s-.02.07-.02.07h-.05s-.02.07-.02.07h-.05s-.02.07-.02.07h-.05s-.02.07-.02.07h-.05s-.02.07-.02.07h-.05s-.02.07-.02.07h-.05s-.02.07-.02.07h-.05s-.02.07-.02.07h-.05s-.02.07-.02.07h-.05s-.02.07-.02.07h-.05s-.02.07-.02.07h-.05s-.02.07-.02.07h-.05s-.02.07-.02.07h-.05s-.02.07-.02.07h-.05s-.02.07-.02.07h-.05s-.02.07-.02.07h-.05s-.02.07-.02.07h-.05s-.02.07-.02.07h-.05s-.02.07-.02.07h-.05s-.02.07-.02.07h-.05s-.02.07-.02.07h-.05s-.02.07-.02.07h-.05s-.02.07-.02.07h-.05s-.02.07-.02.07h-.05s-.02.07-.02.07h-.05s-.02.07-.02.07h-.05s-.02.07-.02.07h-.05s-.02.07-.02.07h-.05s-.02.07-.02.07h-.05s-.02.07-.02.07h-.05s-.02.07-.02.07h-.05s-.02.07-.02.07h-.05s-.02.07-.02.07h-.05s-.02.07-.02.07h-.05s-.02.07-.02.07h-.05s-.02.07-.02.07h-.05s-.02.07-.02.07h-.05s-.02.07-.02.07h-.05s-.02.07-.02.07h-.05s-.02.07-.02.07h-.05s-.02.07-.02.07h-.05s-.02.07-.02.07h-.05s-.02.07-.02.07h-.05s-.02.07-.02.07h-.05s-.02.07-.02.07h-.05s-.02.07-.02.07h-.05s-.02.07-.02.07h-.04c-2.3-5.73-8.63-8.83-18.41-8.83-5.05,0-10.08.65-14.97,1.93l-1.16.3v.05s-.07.01-.07.01v.05s-.07.01-.07.01v.05s-.07.01-.07.01v.05s-.07.01-.07.01v.05s-.07.01-.07.01v.05s-.07.01-.07.01v.05s-.07.01-.07.01v.05s-.07.01-.07.01v.05s-.07.01-.07.01v.05s-.07.01-.07.01v.05s-.07.01-.07.01v.05s-.07.01-.07.01v.05s-.07.01-.07.01v.05s-.07.01-.07.01v.05s-.07.01-.07.01v.05s-.07.01-.07.01v.05s-.07.01-.07.01v.05s-.07.01-.07.01v.05s-.07.01-.07.01v.05s-.07.01-.07.01v.05s-.07.01-.07.01v.05s-.07.01-.07.01v.05s-.07.01-.07.01v.05s-.07.01-.07.01v.05s-.07.01-.07.01v.05s-.07.01-.07.01v.05s-.07.01-.07.01v.05s-.07.01-.07.01v.05s-.07.01-.07.01v.05s-.07.01-.07.01v.05s-.07.01-.07.01v.05s-.07.01-.07.01v.05s-.07.01-.07.01v.05s-.07.01-.07.01v.05s-.07.01-.07.01v.05s-.07.01-.07.01v.05s-.07.01-.07.01v.05s-.07.01-.07.01v.05s-.07.01-.07.01v.05s-.07.01-.07.01v.05s-.07.01-.07.01v.05s-.07.01-.07.01v.05s-.07.01-.07.01v.05s-.07.01-.07.01v.05s-.07.01-.07.01v.05s-.07.01-.07.01v.05s-.07.01-.07.01v.05s-.07.01-.07.01v.05s-.07.01-.07.01v.05s-.07.01-.07.01v.05s-.07.01-.07.01v.05s-.07.01-.07.01v.05s-.07.01-.07.01v.05s-.07.01-.07.01v.05s-.07.01-.07.01v.05s-.07.01-.07.01v.05s-.07.01-.07.01v.05s-.07.01-.07.01v.05s-.07.01-.07.01v.05s-.07.01-.07.01v.05s-.07.01-.07.01v.05s-.07.01-.07.01v.05s-.07.01-.07.01v.05s-.07.01-.07.01v.05s-.07.01-.07.01v.05s-.07.01-.07.01v.05s-.07.01-.07.01v.05s-.07.01-.07.01v.05s-.07.01-.07.01v.05s-.07.01-.07.01v.05s-.07.01-.07.01v.05s-.07.01-.07.01v.05s-.07.01-.07.01v.05s-.07.01-.07.01v.05s-.07.01-.07.01v.05s-.07.01-.07.01v.05s-.07.01-.07.01v.05s-.07.01-.07.01v.05s-.07.01-.07.01v.05s-.07.01-.07.01v.05s-.07.01-.07.01v.05s-.07.01-.07.01v.05s-.07.01-.07.01v.05s-.07.01-.07.01v.05s-.07.01-.07.01v.05s-.07.01-.07.01v.05s-.07.01-.07.01v.05s-.07.01-.07.01v.05s-.07.01-.07.01v.05s-.07.01-.07.01v.05s-.07.01-.07.01v.05s-.07.01-.07.01v.05s-.07.01-.07.01v.05s-.07.01-.07.01v.05s-.07.01-.07.01v.05s-.07.01-.07.01v.05s-.07.01-.07.01v.05s-.07.01-.07.01v.05s-.07.01-.07.01v.05s-.07.01-.07.01v.05s-.07.01-.07.01l-15.66,65.25,2.88-.38c1.97-.26,4.22-.45,6.61-.65,10.24-.87,24.33-2.06,32.77-10.6.02-.02.05-.05.07-.07.02-.02.05-.05.07-.07.02-.02.05-.05.07-.07.02-.02.05-.05.07-.07.02-.02.05-.05.07-.07.02-.02.05-.05.07-.07.02-.02.05-.05.07-.07.02-.02.05-.05.07-.07.02-.02.05-.05.07-.07.02-.02.05-.05.07-.07.02-.02.05-.05.07-.07.02-.02.05-.05.07-.07.02-.02.05-.05.07-.07.02-.02.05-.05.07-.07.02-.02.05-.05.07-.07.02-.02.05-.05.07-.07.02-.02.05-.05.07-.07.02-.02.05-.05.07-.07.02-.02.05-.05.07-.07.02-.02.05-.05.07-.07.02-.02.05-.05.07-.07.02-.02.04-.04.07-.07l-2.5,10.38,37.65-4.38-1.04,4.17,18.12-4.02v-.06s.07-.01.07-.01v-.06s.07-.01.07-.01v-.06s.07-.01.07-.01v-.06s.07-.01.07-.01v-.06s.07-.01.07-.01v-.06s.07-.01.07-.01v-.06s.07-.01.07-.01v-.06s.07-.01.07-.01v-.06s.07-.01.07-.01v-.06s.07-.01.07-.01v-.06s.07-.01.07-.01v-.06s.07-.01.07-.01v-.06s.07-.01.07-.01v-.06s.07-.01.07-.01v-.06s.07-.01.07-.01v-.06s.07-.01.07-.01v-.06s.07-.01.07-.01v-.06s.07-.01.07-.01v-.06s.07-.01.07-.01v-.06s.07-.01.07-.01v-.06s.07-.01.07-.01v-.06s.07-.01.07-.01v-.06s.07-.01.07-.01v-.06s.07-.01.07-.01v-.06s.07-.01.07-.01h0s1.28,9.59,1.28,9.59l18.91-4.32v-.05s.07-.02.07-.02v-.05s.07-.02.07-.02v-.05s.07-.02.07-.02v-.05s.07-.02.07-.02v-.05s.07-.02.07-.02v-.05s.07-.02.07-.02v-.05s.07-.02.07-.02v-.05s.07-.02.07-.02v-.05s.07-.02.07-.02v-.05s.07-.02.07-.02v-.05s.07-.02.07-.02v-.05s.07-.02.07-.02v-.05s.07-.02.07-.02v-.05s.07-.02.07-.02v-.05s.07-.02.07-.02v-.05s.07-.02.07-.02v-.05s.07-.02.07-.02v-.05s.07-.02.07-.02v-.05s.07-.02.07-.02v-.05s.07-.02.07-.02v-.05s.07-.02.07-.02v-.05s.07-.02.07-.02v-.05s.07-.02.07-.02v-.05s.07-.02.07-.02v-.05s.07-.02.07-.02v-.05s.07-.02.07-.02v-.05s13.77-2.28,13.77-2.28l.02-.06h.05s.02-.07.02-.07h.05s.02-.07.02-.07h.05s.02-.07.02-.07h.05s.02-.07.02-.07h.05s.02-.07.02-.07h.05s.02-.07.02-.07h.05s.02-.07.02-.07h.05s.02-.07.02-.07h.05s.02-.07.02-.07h.05s.02-.07.02-.07h.05s.02-.07.02-.07h.05s.02-.07.02-.07h.05s.02-.07.02-.07h.05s.02-.07.02-.07h.05s.02-.07.02-.07h.05s.02-.07.02-.07h.05s.02-.07.02-.07h.05s.02-.07.02-.07h.05s.02-.07.02-.07h.05s.02-.07.02-.07h.05s.02-.07.02-.07h.05s.02-.07.02-.07h.05s.02-.07.02-.07h.05s.02-.07.02-.07h.05s.02-.07.02-.07h.05s.02-.07.02-.07h.05s.02-.07.02-.07h.05s.02-.07.02-.07h.05s.02-.07.02-.07h.05s.02-.07.02-.07h.05s.02-.07.02-.07h.05s.02-.07.02-.07h.05s.02-.07.02-.07h.05s.02-.07.02-.07h.05s.02-.07.02-.07h.05s.02-.07.02-.07h.05s.02-.07.02-.07h.05s.02-.07.02-.07h.05s.02-.07.02-.07h.05s.02-.07.02-.07h.05s.02-.07.02-.07h.05s.02-.07.02-.07h.05s.02-.07.02-.07h.05s.02-.07.02-.07h.05s.02-.07.02-.07h.05s.02-.07.02-.07h.05s.02-.07.02-.07h.05s.02-.07.02-.07h.05s.02-.07.02-.07h.05s.02-.07.02-.07h.05s.02-.07.02-.07h.05s.02-.07.02-.07h.05s.02-.07.02-.07h.05s.02-.07.02-.07h.05s.02-.07.02-.07h.05s.02-.07.02-.07h.05s.02-.07.02-.07h.05s.02-.07.02-.07h.05s.02-.07.02-.07h.05s.02-.07.02-.07h.05s.02-.07.02-.07h.05s.02-.07.02-.07h.05s.02-.07.02-.07h.05s.02-.07.02-.07h.05s.02-.07.02-.07h.05s.02-.07.02-.07h.05s.02-.07.02-.07h.05s.02-.07.02-.07h.05s.02-.07.02-.07h.05s.02-.07.02-.07h.05s.02-.07.02-.07h.05s.02-.07.02-.07h.05s.02-.07.02-.07h.05s.02-.07.02-.07h.05s.02-.07.02-.07h.05s.02-.07.02-.07h.05s.02-.07.02-.07h.05s.02-.07.02-.07h.05s.02-.07.02-.07h.04s-2.59,14.55-2.59,14.55l17.11-3.45-.36,1.38,19.02-1.81.02-.06h.05s.02-.07.02-.07h.05s.02-.07.02-.07h.05s.02-.07.02-.07h.05s.02-.07.02-.07h.05s.02-.07.02-.07h.05s.02-.07.02-.07h.05s.02-.07.02-.07h.05s.02-.07.02-.07h.05s.02-.07.02-.07h.05s.02-.07.02-.07h.05s.02-.07.02-.07h.05s.02-.07.02-.07h.05s.02-.07.02-.07h.05s.02-.07.02-.07h.05s.02-.07.02-.07h.05s.02-.07.02-.07h.05s.02-.07.02-.07h.05s.02-.07.02-.07h.05s.02-.07.02-.07h.05s.02-.07.02-.07h.05s.02-.07.02-.07h.05s.02-.07.02-.07h.05s.02-.07.02-.07h.05s.02-.07.02-.07h.05s.02-.07.02-.07h.05s.02-.07.02-.07h.05s.02-.07.02-.07h.05s.02-.07.02-.07h.05s.02-.07.02-.07h.05s.02-.07.02-.07h.05s.02-.07.02-.07h.05s.02-.07.02-.07h.05s.02-.07.02-.07h.05s.02-.07.02-.07h.05s.02-.07.02-.07h.05s.02-.07.02-.07h.05s.02-.07.02-.07h.05s.02-.07.02-.07h.05s.02-.07.02-.07h.05s.02-.07.02-.07h.05s.02-.07.02-.07h.05s.02-.07.02-.07h.05s.02-.07.02-.07h.05s.02-.07.02-.07h.05s.02-.07.02-.07h.05s.02-.07.02-.07h.05s.02-.07.02-.07h.05s.02-.07.02-.07h.05s.02-.07.02-.07h.05s.02-.07.02-.07h.05s.02-.07.02-.07h.05s.02-.07.02-.07h.05s.02-.07.02-.07h.05s.02-.07.02-.07h.05s.02-.07.02-.07h.05s.02-.07.02-.07h.05s.02-.07.02-.07h.05s.02-.07.02-.07h.05s0,0,0,0h0s17.53-2.01,17.53-2.01v-.06s.07,0,.07,0v-.06s.07,0,.07,0v-.06s.07,0,.07,0v-.06s.07,0,.07,0v-.06s.07,0,.07,0v-.06s.07,0,.07,0v-.06s.07,0,.07,0v-.06s.07,0,.07,0v-.06s.07,0,.07,0v-.06s.07,0,.07,0v-.06s.07,0,.07,0v-.06s.07,0,.07,0v-.06s.07,0,.07,0v-.06s.07,0,.07,0v-.06s.07,0,.07,0v-.06s.07,0,.07,0v-.06s.07,0,.07,0v-.06s.07,0,.07,0v-.06s.07,0,.07,0v-.06s.07,0,.07,0v-.06s.07,0,.07,0v-.06s.07,0,.07,0v-.06s.07,0,.07,0v-.06s.07,0,.07,0v-.06s.07,0,.07,0v-.06s.07,0,.07,0v-.06s.07,0,.07,0v-.06s.07,0,.07,0v-.06s.07,0,.07,0v-.06s.07,0,.07,0v-.06s.07,0,.07,0v-.06s.07,0,.07,0v-.06s.07,0,.07,0v-.06s.07,0,.07,0v-.06s.07,0,.07,0v-.06s.07,0,.07,0v-.06s.07,0,.07,0v-.06s.07,0,.07,0v-.06s.07,0,.07,0v-.06s.07,0,.07,0v-.06s.07,0,.07,0v-.06s.07,0,.07,0v-.06s.07,0,.07,0v-.06s.07,0,.07,0v-.06s.07,0,.07,0v-.06s.07,0,.07,0v-.06s.07,0,.07,0v-.06s.07,0,.07,0v-.06s.07,0,.07,0v-.06s.07,0,.07,0v-.06s.07,0,.07,0v-.06s.07,0,.07,0v-.06s.07,0,.07,0v-.06s.07,0,.07,0v-.06s.07,0,.07,0v-.06s.07,0,.07,0v-.06s.07,0,.07,0v-.06s.07,0,.07,0v-.06s.07,0,.07,0v-.06s.07,0,.07,0v-.06s.07,0,.07,0v-.06s.07,0,.07,0v-.06s.07,0,.07,0v-.06s.07,0,.07,0v-.06s.07,0,.07,0v-.06s.07,0,.07,0v-.06s.07,0,.07,0v-.06s.07,0,.07,0v-.06s.07,0,.07,0v-.06s.07,0,.07,0v-.06s.07,0,.07,0v-.06s.07,0,.07,0v-.06s.07,0,.07,0v-.06s.07,0,.07,0v-.06s.07,0,.07,0v-.06s.07,0,.07,0v-.06s.07,0,.07,0v-.06s.07,0,.07,0v-.06s.07,0,.07,0v-.06s.07,0,.07,0v-.06s.07,0,.07,0v-.06s.07,0,.07,0v-.06s.07,0,.07,0v-.06s.07,0,.07,0v-.06s.07,0,.07,0v-.06s.07,0,.07,0v-.06s.07,0,.07,0v-.06s.07,0,.07,0v-.06s.07,0,.07,0v-.06s.07,0,.07,0v-.06s.07,0,.07,0v-.06s.07,0,.07,0v-.06s.07,0,.07,0v-.06s.07,0,.07,0v-.06s.07,0,.07,0v-.06s.07,0,.07,0v-.06s.07,0,.07,0v-.06s.07,0,.07,0h0c3.53,10,11.26,16.46,20.92,16.46,6.97,0,13.68-3.4,19.13-8.92.02-.02.05-.05.07-.07.02-.02.05-.05.07-.07.02-.02.05-.05.07-.07.02-.02.05-.05.07-.07.02-.02.05-.05.07-.07.02-.02.05-.05.07-.07.02-.02.05-.05.07-.07.02-.02.05-.05.07-.07.02-.02.05-.05.07-.07.02-.02.05-.05.07-.07.02-.02.05-.05.07-.07.02-.02.05-.04.07-.07.02-.02.05-.05.07-.07.02-.02.05-.04.07-.07.02-.02.05-.05.07-.07.02-.02.05-.04.07-.07.02-.02.05-.05.07-.07.02-.02.05-.04.07-.07.02-.02.05-.05.07-.07.02-.02.05-.04.07-.07.02-.02.05-.05.07-.07.02-.02.05-.05.07-.07.02-.02.05-.05.07-.07.02-.02.05-.05.07-.07.02-.02.05-.05.07-.07.02-.02.05-.05.07-.07.02-.02.05-.05.07-.07.02-.02.05-.05.07-.07.02-.02.05-.05.07-.07.02-.02.05-.05.07-.07.02-.02.05-.04.07-.07.02-.02.05-.05.07-.07.02-.02.05-.04.07-.07.02-.02.05-.05.07-.07.02-.02.05-.04.07-.07.02-.02.05-.05.07-.07.02-.02.05-.04.07-.07.02-.02.05-.05.07-.07.02-.02.05-.04.07-.07.02-.02.05-.05.07-.07.02-.02.05-.05.07-.07.02-.02.05-.05.07-.07.02-.02.05-.05.07-.07.02-.02.05-.05.07-.07.02-.02.05-.05.07-.07.02-.02.05-.05.07-.07.02-.02.05-.05.07-.07.02-.02.05-.05.07-.07.02-.02.05-.05.07-.07.02-.02.05-.05.07-.07.02-.02.05-.05.07-.07.02-.02.05-.04.07-.07.02-.02.05-.05.07-.07.02-.02.05-.04.07-.07.02-.02.05-.05.07-.07.02-.02.05-.04.07-.07.02-.02.05-.05.07-.07.02-.02.05-.04.07-.07.02-.02.05-.05.07-.07.02-.02.05-.04.07-.07.02-.02.05-.05.07-.07.02-.02.05-.05.07-.07.02-.02.05-.05.07-.07.02-.02.05-.05.07-.07.02-.02.05-.05.07-.07.02-.02.05-.05.07-.07.02-.02.05-.05.07-.07.02-.02.05-.05.07-.07.02-.02.05-.05.07-.07.02-.02.05-.05.07-.07.02-.02.05-.04.07-.07.02-.02.05-.05.07-.07.02-.02.05-.04.07-.07.02-.02.05-.05.07-.07.02-.02.05-.04.07-.07.02-.02.05-.05.07-.07.02-.02.05-.04.07-.07.02-.02.05-.05.07-.07.02-.02.05-.04.07-.07.02-.02.05-.05.07-.07.02-.02.05-.05.07-.07.02-.02.05-.05.07-.07.02-.02.05-.05.07-.07.02-.02.05-.05.07-.07.02-.02.05-.05.07-.07.02-.02.05-.05.07-.07.02-.02.05-.05.07-.07.02-.02.05-.05.07-.07.02-.02.05-.05.07-.07.02-.02.05-.05.07-.07.02-.02.05-.05.07-.07.02-.02.05-.04.07-.07.02-.02.05-.05.07-.07.02-.02.05-.04.07-.07.02-.02.05-.05.07-.07.02-.02.05-.04.07-.07.02-.02.05-.05.07-.07.02-.02.05-.04.07-.07.02-.02.05-.05.07-.07.02-.02.05-.04.07-.07.34-.34.67-.68.99-1.04l-3.19,12.79,18.12-4.02v-.06s.07-.01.07-.01v-.06s.07-.01.07-.01v-.06s.07-.01.07-.01v-.06s.07-.01.07-.01v-.06s.07-.01.07-.01v-.06s.07-.01.07-.01v-.06s.07-.01.07-.01v-.06s.07-.01.07-.01v-.06s.07-.01.07-.01v-.06s.07-.01.07-.01v-.06s.07-.01.07-.01v-.06s.07-.01.07-.01v-.06s.07-.01.07-.01v-.06s.07-.01.07-.01v-.06s.07-.01.07-.01v-.06s.07-.01.07-.01v-.06s.07-.01.07-.01v-.06s.07-.01.07-.01v-.06s.07-.01.07-.01v-.06s.07-.01.07-.01v-.06s.07-.01.07-.01v-.06s.07-.01.07-.01v-.06s.07-.01.07-.01v-.06s.07-.01.07-.01v-.06s.07-.01.07-.01l1.28,9.59,18.91-4.32v-.05s.07-.02.07-.02v-.05s.07-.02.07-.02v-.05s.07-.02.07-.02v-.05s.07-.02.07-.02v-.05s.07-.02.07-.02v-.05s.07-.02.07-.02v-.05s.07-.02.07-.02v-.05s.07-.02.07-.02v-.05s.07-.02.07-.02v-.05s.07-.02.07-.02v-.05s.07-.02.07-.02v-.05s.07-.02.07-.02v-.05s.07-.02.07-.02v-.05s.07-.02.07-.02v-.05s.07-.02.07-.02v-.05s.07-.02.07-.02v-.05s.07-.02.07-.02v-.05s.07-.02.07-.02v-.05s.07-.02.07-.02v-.05s.07-.02.07-.02v-.05s.07-.02.07-.02v-.05s.07-.02.07-.02v-.05s.07-.02.07-.02v-.05s.07-.02.07-.02v-.05s.07-.02.07-.02v-.05s.07-.02.07-.02v-.05s.07-.02.07-.02v-.05s.07-.02.07-.02v-.05s.07-.02.07-.02v-.05s.07-.02.07-.02v-.05s.07-.02.07-.02v-.05s.07-.02.07-.02v-.05s.07-.02.07-.02v-.05s.07-.02.07-.02v-.05s.07-.02.07-.02v-.05s.07-.02.07-.02v-.05s.07-.02.07-.02v-.05s.07-.02.07-.02v-.05s.07-.02.07-.02v-.05s.07-.02.07-.02v-.05s.07-.02.07-.02v-.05s.07-.02.07-.02v-.05s.07-.02.07-.02v-.05s.07-.02.07-.02v-.05s.07-.02.07-.02v-.05s.07-.02.07-.02v-.05s.07-.02.07-.02v-.05s.07-.02.07-.02v-.05s.07-.02.07-.02v-.05s.07-.02.07-.02v-.05s.07-.02.07-.02v-.05s.07-.02.07-.02v-.05s.07-.02.07-.02v-.05s.07-.02.07-.02v-.05s.06-.01.06-.01c3.8,4.55,10.27,6.37,15.16,6.37,6.41,0,13.38-2.04,19.12-5.6.92-.57,1.84-1.29,2.75-2.13.45-.41.9-.85,1.34-1.32.02-.02.05-.04.07-.07.02-.02.05-.04.07-.07.02-.02.05-.04.07-.07.02-.02.05-.04.07-.07.02-.02.05-.04.07-.07.02-.02.05-.04.07-.07.02-.02.05-.04.07-.07.02-.02.05-.04.07-.07.02-.02.05-.04.07-.07.02-.02.05-.05.07-.07.02-.02.05-.04.07-.07.02-.02.05-.05.07-.07.02-.02.05-.04.07-.07.02-.02.05-.05.07-.07.02-.02.05-.04.07-.07.02-.02.05-.05.07-.07.01-.01.02-.02.03-.03l-2.01,8.33,39.05-4.54v-.06s.07,0,.07,0v-.06s.07,0,.07,0v-.06s.07,0,.07,0v-.06s.07,0,.07,0v-.06s.07,0,.07,0v-.06s.07,0,.07,0v-.06s.07,0,.07,0v-.06s.07,0,.07,0v-.06s.07,0,.07,0v-.06s.07,0,.07,0v-.06s.07,0,.07,0v-.06s.07,0,.07,0v-.06s.07,0,.07,0v-.06s.07,0,.07,0v-.06s.07,0,.07,0v-.06s.07,0,.07,0v-.06s.07,0,.07,0v-.06s.07,0,.07,0v-.06s.07,0,.07,0v-.06s.07,0,.07,0v-.06s.07,0,.07,0v-.06s.07,0,.07,0v-.06s.07,0,.07,0v-.06s.07,0,.07,0v-.06s.07,0,.07,0v-.04c3.46,5.87,10.93,8.18,16.43,8.18,6.41,0,13.38-2.04,19.12-5.6.73-.46,1.47-1.01,2.2-1.64.38-.32.75-.66,1.12-1.02.02-.02.05-.05.07-.07.02-.02.05-.05.07-.07.02-.02.05-.05.07-.07.02-.02.05-.05.07-.07.02-.02.05-.05.07-.07.02-.02.05-.05.07-.07.02-.02.05-.05.07-.07.02-.02.05-.05.07-.07.02-.02.05-.05.07-.07.02-.02.05-.05.07-.07.02-.02.05-.05.07-.07.02-.02.05-.05.07-.07.02-.02.05-.05.07-.07.02-.02.05-.05.07-.07.02-.02.05-.05.07-.07.02-.02.05-.05.07-.07.02-.02.05-.05.07-.07.02-.02.05-.05.07-.07.02-.02.05-.05.07-.07.02-.02.05-.05.07-.07.02-.02.05-.05.07-.07.02-.02.05-.05.07-.07.02-.02.05-.05.07-.07.02-.02.05-.05.07-.07.02-.02.05-.05.07-.07.02-.02.05-.05.07-.07.02-.02.05-.05.07-.07.02-.02.05-.05.07-.07.02-.02.05-.05.07-.07.02-.02.05-.05.07-.07.02-.02.05-.05.07-.07.02-.02.05-.05.07-.07.02-.02.05-.05.07-.07.02-.02.05-.05.07-.07.02-.02.05-.05.07-.07.02-.02.05-.05.07-.07.02-.02.05-.05.07-.07.02-.02.05-.05.07-.07.02-.02.05-.05.07-.07.02-.02.05-.05.07-.07.02-.02.05-.05.07-.07.02-.02.05-.05.07-.07.02-.02.05-.05.07-.07.02-.02.05-.05.07-.07.02-.02.05-.05.07-.07.02-.02.05-.05.07-.07.02-.02.05-.05.07-.07.02-.02.05-.05.07-.07.02-.02.05-.05.07-.07.02-.02.05-.05.07-.07.02-.02.05-.05.07-.07.02-.02.05-.05.07-.07.02-.02.05-.05.07-.07.02-.02.05-.05.07-.07.02-.02.05-.05.07-.07.02-.02.05-.05.07-.07.02-.02.05-.05.07-.07.02-.02.05-.05.07-.07.02-.02.05-.05.07-.07.02-.02.05-.05.07-.07.02-.02.05-.05.07-.07.02-.02.05-.05.07-.07.02-.02.05-.05.07-.07.02-.02.05-.05.07-.07.02-.02.05-.05.07-.07.02-.02.05-.05.07-.07.02-.02.05-.05.07-.07.02-.02.05-.05.07-.07.02-.02.05-.05.07-.07.02-.02.05-.05.07-.07.02-.02.05-.05.07-.07.02-.02.05-.05.07-.07.02-.02.05-.05.07-.07.02-.02.05-.05.07-.07.02-.02.05-.05.07-.07.02-.02.05-.05.07-.07.02-.02.05-.05.07-.07.02-.02.05-.05.07-.07.02-.02.05-.05.07-.07.02-.02.05-.05.07-.07.02-.02.05-.05.07-.07.02-.02.05-.05.07-.07.02-.02.05-.05.07-.07.02-.02.05-.05.07-.07.02-.02.05-.05.07-.07.02-.02.05-.05.07-.07.02-.02.05-.05.07-.07.02-.02.05-.05.07-.07.02-.02.05-.05.07-.07.02-.02.05-.05.07-.07.02-.02.05-.05.07-.07.02-.02.05-.05.07-.07.02-.02.05-.05.07-.07.02-.02.05-.05.07-.07.02-.02.05-.05.07-.07.02-.02.05-.05.07-.07.02-.02.05-.05.07-.07.02-.02.05-.05.07-.07.71-.69,1.41-1.44,2.08-2.26,3.66-4.45,6.55-10.76,6.55-17.37,0-4.48-1.44-7.67-4.29-9.47ZM619.11,694.17c-1.78,0-5.92-1.01-5.92-10.38,0-3.36.65-6.79,1.9-9.7.67-.18,1.37-.3,2.12-.3,5.88,0,6.34,7.94,6.34,10.38,0,3.73-.76,6.94-1.97,9.55-.82.28-1.65.44-2.47.44ZM679.38,691.88l-.02.06h-.05s-.01.04-.01.04l-.76-5.72s.04-.04.05-.05c.02-.02.05-.05.07-.07.02-.02.05-.05.07-.07.02-.02.05-.04.07-.07.02-.02.05-.05.07-.07.02-.02.05-.04.07-.07.02-.02.05-.05.07-.07.02-.02.05-.04.07-.07.02-.02.05-.05.07-.07.02-.02.05-.04.07-.07.02-.02.05-.05.07-.07.02-.02.05-.04.07-.07.02-.02.05-.05.07-.07.02-.02.05-.05.07-.07.02-.02.05-.05.07-.07.02-.02.05-.05.07-.07.02-.02.05-.05.07-.07.02-.02.05-.05.07-.07.02-.02.05-.05.07-.07.02-.02.05-.05.07-.07.02-.02.05-.05.07-.07.02-.02.05-.05.07-.07.02-.02.05-.05.07-.07.02-.02.05-.05.07-.07.02-.02.05-.04.07-.07.02-.02.05-.05.07-.07.02-.02.05-.04.07-.07.02-.02.05-.05.07-.07.02-.02.05-.04.07-.07.02-.02.05-.05.07-.07.02-.02.05-.04.07-.07.02-.02.05-.05.07-.07.02-.02.05-.04.07-.07.02-.02.05-.05.07-.07.02-.02.05-.05.07-.07.02-.02.05-.05.07-.07.02-.02.05-.05.07-.07.02-.02.05-.05.07-.07.02-.02.05-.05.07-.07.02-.02.05-.05.07-.07.02-.02.05-.05.07-.07.02-.02.05-.05.07-.07.02-.02.05-.05.07-.07.02-.02.05-.04.07-.07.02-.02.05-.05.07-.07.02-.02.05-.04.07-.07.02-.02.05-.05.07-.07.02-.02.05-.04.07-.07.02-.02.05-.05.07-.07.02-.02.05-.04.07-.07.02-.02.05-.05.07-.07.02-.02.05-.04.07-.07.02-.02.05-.05.07-.07.02-.02.05-.05.07-.07.02-.02.05-.05.07-.07.02-.02.05-.05.07-.07.02-.02.05-.05.07-.07.02-.02.05-.05.07-.07.02-.02.05-.05.07-.07.02-.02.05-.05.07-.07.02-.02.05-.05.07-.07.02-.02.05-.05.07-.07.02-.02.05-.05.07-.07.02-.02.05-.05.07-.07.02-.02.05-.04.07-.07.02-.02.05-.05.07-.07.02-.02.05-.04.07-.07.02-.02.05-.05.07-.07.02-.02.05-.04.07-.07.02-.02.05-.05.07-.07.02-.02.05-.04.07-.07.02-.02.05-.05.07-.07.02-.02.05-.04.07-.07.14-.15.28-.3.42-.46.43,2.18,1.37,3.91,2.76,5.05-.22.05-.45.11-.65.15l-1.05.23-.02.06h-.05s-.02.07-.02.07h-.05s-.02.07-.02.07h-.05s-.02.07-.02.07h-.05s-.02.07-.02.07h-.05s-.02.07-.02.07h-.05s-.02.07-.02.07h-.05s-.02.07-.02.07h-.05s-.02.07-.02.07h-.05s-.02.07-.02.07h-.05s-.02.07-.02.07h-.05s-.02.07-.02.07h-.05s-.02.07-.02.07h-.05s-.02.07-.02.07h-.05s-.02.07-.02.07h-.05s-.02.07-.02.07h-.05s-.02.07-.02.07h-.05s-.02.07-.02.07h-.05s-.02.07-.02.07h-.05s-.02.07-.02.07h-.05s-.02.07-.02.07h-.05s-.02.07-.02.07h-.05s-.02.07-.02.07h-.05s-.02.07-.02.07h-.05s-.02.07-.02.07h-.05s-.02.07-.02.07h-.05s-.02.07-.02.07h-.05s-.02.07-.02.07h-.05s-.02.07-.02.07h-.05s-.02.07-.02.07h-.05s-.02.07-.02.07h-.05s-.02.07-.02.07h-.05s-.02.07-.02.07h-.05s-.02.07-.02.07h-.05s-.02.07-.02.07h-.05s-.02.07-.02.07h-.05s-.02.07-.02.07h-.05s-.02.07-.02.07h-.05s-.02.07-.02.07h-.05s-.02.07-.02.07h-.05s-.02.07-.02.07h-.05s-.02.07-.02.07h-.05s-.02.07-.02.07h-.05s-.02.07-.02.07h-.05s-.02.07-.02.07h-.05s-.02.07-.02.07h-.05s-.02.07-.02.07h-.05s-.02.07-.02.07h-.05s-.02.07-.02.07h-.05s-.02.07-.02.07h-.05s-.02.07-.02.07h-.05s-.02.07-.02.07h-.05s-.02.07-.02.07h-.05s-.02.07-.02.07h-.05s-.02.07-.02.07h-.05s-.02.07-.02.07h-.05s-.02.07-.02.07h-.05s-.02.07-.02.07h-.05s-.02.07-.02.07h-.05s-.02.07-.02.07h-.05s-.02.07-.02.07h-.05s-.02.07-.02.07h-.05s-.02.07-.02.07h-.05s-.02.07-.02.07h-.05s-.02.07-.02.07h-.05s-.02.07-.02.07h-.05s-.02.07-.02.07h-.05s-.02.07-.02.07h-.05s-.02.07-.02.07h-.05s-.02.07-.02.07h-.05s-.02.07-.02.07h-.05s-.02.07-.02.07h-.05s-.02.07-.02.07h-.05s-.02.07-.02.07h-.05s-.02.07-.02.07h-.05s-.02.07-.02.07h-.05s-.02.07-.02.07h-.05s-.02.07-.02.07h-.05s-.02.07-.02.07h-.05s-.02.07-.02.07h-.05s-.02.07-.02.07h-.05s-.02.07-.02.07h-.05ZM763.43,675.43c-.15.87-.15,1.7-.15,2.44,0,2.16.41,4.02,1.16,5.52l-5.61.94v-.02s.06,0,.06,0v-.06s.07,0,.07,0v-.06s.07,0,.07,0v-.06s.07,0,.07,0v-.06s.07,0,.07,0v-.06s.07,0,.07,0v-.06s.07,0,.07,0v-.06s.07,0,.07,0v-.06s.07,0,.07,0v-.06s.07,0,.07,0v-.06s.07,0,.07,0v-.06s.07,0,.07,0v-.06s.07,0,.07,0l2.87-12.77h.03s.01-.07.01-.07h.06s.01-.07.01-.07h.06s.01-.07.01-.07h.06s.01-.07.01-.07h.06s.01-.07.01-.07h.06s.01-.07.01-.07h.06s.01-.07.01-.07h.06s.01-.07.01-.07h.06s.01-.07.01-.07h.06s.01-.07.01-.07h.06s.01-.07.01-.07h.06s.01-.07.01-.07h.06s.01-.07.01-.07h.06s.01-.07.01-.07h.06s.01-.07.01-.07h.06s.01-.07.01-.07h.06s.01-.07.01-.07h.06s.01-.07.01-.07h.06s.01-.07.01-.07h.06s.01-.07.01-.07h.06s.01-.07.01-.07h.06s.01-.07.01-.07h.06s.01-.07.01-.07h.06s.01-.07.01-.07h.06s.01-.07.01-.07h.06s.01-.07.01-.07h.06s.01-.07.01-.07h.06s.01-.07.01-.07h.06s.01-.07.01-.07h.06s.01-.07.01-.07h.06s.01-.07.01-.07h.06s.01-.07.01-.07h.06s.01-.07.01-.07h.06s.01-.07.01-.07h.06s.01-.07.01-.07h.06s.01-.07.01-.07h.06s.01-.07.01-.07h.06s.01-.07.01-.07h.06s.01-.07.01-.07h.06s.01-.07.01-.07h.06s.01-.07.01-.07h.06s.01-.07.01-.07h.06s.01-.07.01-.07h.04c-1.06,2.41-1.81,5.01-2.15,7.71ZM440.87,672.5s.05-.05.07-.07c.02-.02.04-.05.07-.07.02-.02.05-.05.07-.07.02-.02.04-.05.07-.07.02-.02.05-.05.07-.07.02-.02.04-.05.07-.07.02-.02.05-.05.07-.07.02-.02.05-.05.07-.07.02-.02.05-.05.07-.07.02-.02.05-.05.07-.07.02-.02.05-.05.07-.07.02-.02.05-.05.07-.07.02-.02.05-.05.07-.07.01-.01.02-.02.03-.03l-1.15,4.77c-.7-.58-1.42-1.07-2.13-1.49.02-.02.04-.04.06-.06.02-.02.05-.05.07-.07.02-.02.05-.05.07-.07.02-.02.05-.05.07-.07.02-.02.05-.05.07-.07.02-.02.05-.05.07-.07.02-.02.05-.05.07-.07.02-.02.05-.05.07-.07.02-.02.05-.05.07-.07.02-.02.05-.05.07-.07.02-.02.05-.05.07-.07.02-.02.05-.05.07-.07.02-.02.04-.05.07-.07.02-.02.05-.05.07-.07.02-.02.04-.05.07-.07.02-.02.05-.05.07-.07.02-.02.04-.05.07-.07.02-.02.05-.05.07-.07.02-.02.04-.05.07-.07.02-.02.05-.05.07-.07.02-.02.04-.05.07-.07.02-.02.05-.05.07-.07.02-.02.05-.05.07-.07.02-.02.05-.05.07-.07.02-.02.05-.05.07-.07.02-.02.05-.05.07-.07.02-.02.05-.05.07-.07.02-.02.05-.05.07-.07.02-.02.05-.05.07-.07.02-.02.05-.05.07-.07.02-.02.05-.05.07-.07.02-.02.04-.05.07-.07.02-.02.05-.05.07-.07.02-.02.04-.05.07-.07ZM475.68,683.93l-2.33.39v-.02s.06,0,.06,0v-.06s.07,0,.07,0v-.06s.07,0,.07,0v-.06s.07,0,.07,0v-.06s.07,0,.07,0v-.06s.07,0,.07,0v-.06s.07,0,.07,0v-.06s.07,0,.07,0v-.06s.07,0,.07,0v-.06s.07,0,.07,0v-.06s.07,0,.07,0v-.06s.07,0,.07,0v-.06s.07,0,.07,0l2.87-12.77h.03s.01-.07.01-.07h.06s.01-.07.01-.07h.06s.01-.07.01-.07h.06s.01-.07.01-.07h.06s.01-.07.01-.07h.06s.01-.07.01-.07h.06s.01-.07.01-.07h.06s.01-.07.01-.07h.06s.01-.07.01-.07h.06s.01-.07.01-.07h.06s.01-.07.01-.07h.06s.01-.07.01-.07h.06s.01-.07.01-.07h.06s.01-.07.01-.07h.06s.01-.07.01-.07h.06s.01-.07.01-.07h.06s.01-.07.01-.07h.06s.01-.07.01-.07h.06s.01-.07.01-.07h.06s.01-.07.01-.07h.06s.01-.07.01-.07h.06s.01-.07.01-.07h.06s.01-.07.01-.07h.06s.01-.07.01-.07h.06s.01-.07.01-.07h.06s.01-.07.01-.07h.06s.01-.07.01-.07h.06s.01-.07.01-.07h.06s.01-.07.01-.07h.06s.01-.07.01-.07h.06s.01-.07.01-.07h.06s.01-.07.01-.07h.06s.01-.07.01-.07h.06s.01-.07.01-.07h.06s.01-.07.01-.07h.06s.01-.07.01-.07h.02s-3.93,15.73-3.93,15.73ZM513.23,684.07s.05-.05.07-.07c.02-.02.05-.05.07-.07.02-.02.05-.05.07-.07.02-.02.05-.05.07-.07.02-.02.05-.05.07-.07.02-.02.05-.05.07-.07.02-.02.05-.05.07-.07.02-.02.05-.05.07-.07.02-.02.05-.05.07-.07.02-.02.05-.05.07-.07.02-.02.05-.05.07-.07.02-.02.05-.05.07-.07.02-.02.05-.05.07-.07.02-.02.05-.05.07-.07.02-.02.05-.05.07-.07.02-.02.05-.05.07-.07.02-.02.05-.05.07-.07.02-.02.05-.05.07-.07.02-.02.05-.05.07-.07.02-.02.05-.05.07-.07.02-.02.05-.05.07-.07.02-.02.05-.05.07-.07.02-.02.05-.05.07-.07.02-.02.05-.05.07-.07.02-.02.05-.05.07-.07.02-.02.05-.05.07-.07.02-.02.05-.05.07-.07.35-.34.7-.7,1.04-1.06l-4.17,12.32-.95-7.18s.04-.04.05-.05c.02-.02.05-.05.07-.07.02-.02.05-.05.07-.07.02-.02.05-.05.07-.07.02-.02.05-.05.07-.07.02-.02.05-.05.07-.07.02-.02.05-.05.07-.07.02-.02.05-.05.07-.07.02-.02.05-.05.07-.07.02-.02.05-.05.07-.07.02-.02.05-.05.07-.07.02-.02.05-.05.07-.07.02-.02.05-.05.07-.07.02-.02.05-.05.07-.07.02-.02.05-.05.07-.07.02-.02.05-.05.07-.07.02-.02.05-.05.07-.07.02-.02.05-.05.07-.07.02-.02.05-.05.07-.07.02-.02.05-.05.07-.07.02-.02.05-.05.07-.07.02-.02.05-.05.07-.07.02-.02.05-.05.07-.07.02-.02.05-.05.07-.07.02-.02.05-.05.07-.07.02-.02.05-.05.07-.07.02-.02.05-.05.07-.07.02-.02.05-.05.07-.07.02-.02.05-.05.07-.07.02-.02.05-.05.07-.07.02-.02.05-.05.07-.07.02-.02.05-.05.07-.07ZM727.3,671.38l.04-.05-.97,4.01c-.64-.38-1.28-.76-1.94-1.11h0s.02-.01.02-.01l.05-.07h.02s.05-.07.05-.07h.02s.05-.07.05-.07h.02s.05-.07.05-.07h.02s.05-.07.05-.07h.02s.05-.07.05-.07h.02s.05-.07.05-.07h.02s.05-.07.05-.07h.02s.05-.07.05-.07h.02s.05-.07.05-.07h.02s.05-.07.05-.07h.02s.05-.07.05-.07h.02s.05-.07.05-.07h.02s.05-.07.05-.07h.02s.05-.07.05-.07h.02s.05-.07.05-.07h.02s.05-.07.05-.07h.02s.05-.07.05-.07h.02s.05-.07.05-.07h.02s.05-.07.05-.07h.02s.05-.07.05-.07h.02s.05-.07.05-.07h.02s.05-.07.05-.07h.02s.05-.07.05-.07h.02s.05-.07.05-.07h.02s.05-.07.05-.07h.02s.05-.07.05-.07h.02s.05-.07.05-.07h.02s.05-.07.05-.07h.02s.05-.07.05-.07h.02s.05-.07.05-.07h.02s.05-.07.05-.07h.02s.05-.07.05-.07h.02s.05-.07.05-.07h.02s.05-.07.05-.07h.02s.05-.07.05-.07h.02s.05-.07.05-.07h.02s.05-.07.05-.07h.02s.05-.07.05-.07h.02s.05-.07.05-.07h.02s.05-.07.05-.07h.02Z" style="fill: url(&quot;#linear-gradient&quot;);"/>
        <path class="st69" d="M806.83,675.87c-3.27-2.06-6.8-3.65-10.2-4.94l11.96-1.28.52-.71c1.72-2.33,2.43-7.4,2.43-9.59,0-10.38-9.67-14.06-17.96-14.06-11.13,0-21.52,10.42-23.15,23.14-.15.87-.15,1.7-.15,2.44,0,3.98,1.34,6.99,3.77,8.47,2.51,1.55,4.76,2.79,6.81,3.77h-.24c-3.01,0-8.05,1.21-12.11,2.18-.6.14-1.17.28-1.7.4l.63-2.81-20.95,3.49.23-.97,12.98-1.95,3.98-17.73-13.05,1.62.07-.25,17.44-1.95,4.41-19.61-34.6,3.72-7.38,30.62c-.72-1.71-1.82-3.06-3.32-4.01-3.27-2.06-6.8-3.65-10.2-4.94l11.96-1.28.52-.71c1.72-2.33,2.43-7.4,2.43-9.59,0-10.38-9.67-14.06-17.96-14.06s-16.4,5.96-20.51,14.37c-.09-5.73-3.54-12.42-19.15-12.42-5.47,0-10.9.65-16.13,1.92l-1.17.29-7.81,31.29c.31-2.14.48-4.31.48-6.51,0-16.94-9.67-29.24-23-29.24-11.02,0-21.38,8.49-27.16,20.42l5.13-21.75-19.84,3.37-5.36,19.87-1.25.09,4.15-17.16-17.04,2.8-9.96,38.08,4.96-47.64-28.76,6.1-18.32,54.15-2.32-17.51c7.45-5.71,15.04-15.28,15.04-25.89,0-5.78-3.32-12.66-19.16-12.66-5.47,0-10.9.65-16.13,1.92l-1.17.29-8.38,33.58-20.14,3.36.23-.97,12.98-1.95,3.98-17.73-13.05,1.62.07-.25,17.44-1.95,4.4-19.61-34.6,3.72-7.84,32.53c-1.37-3.7-4.3-5.97-6.77-7.33,4.17-2.93,9.58-6.93,9.58-13.79,0-9.17-6.89-14.22-19.4-14.22-5.05,0-10.08.65-14.97,1.93l-1.16.3-15.66,65.25,2.88-.38c1.97-.26,4.22-.45,6.61-.65,10.91-.92,26.19-2.22,34.35-12.37l-2.56,10.63,37.65-4.38-1.04,4.17,18.12-4.02,1.16-6.01,1.85,13.86,18.91-4.32-.2-1.52,15.77-2.61,2.92-9.08,3.41-.92-3.38,19.02,17.11-3.45-.36,1.38,19.02-1.81,5.11-21,.84-.12-4.18,17.29,19.84-2.28,4.73-20.03c0,.15-.01.3-.01.46,0,16.94,9.67,29.24,23,29.24,12.37,0,23.92-10.71,29.07-24.96l-5.21,20.87,18.12-4.02,1.16-6.01,1.85,13.86,18.91-4.32-3.26-24.69c4.66-3.58,9.38-8.66,12.26-14.57.08,3.81,1.4,6.69,3.76,8.13,2.51,1.55,4.76,2.79,6.81,3.77h-.24c-3.01,0-8.05,1.21-12.11,2.18-1.06.25-2.03.49-2.85.67l-1.05.23-.38,1c-1.11,2.88-2.29,7.11-2.29,10.37,0,11.35,10.96,15.47,18.32,15.47,6.41,0,13.38-2.04,19.12-5.6,1.79-1.13,3.62-2.79,5.29-4.84l-2.07,8.57,39.05-4.54.82-3.64c2.84,7.26,11.3,10.04,17.34,10.04,6.41,0,13.38-2.04,19.12-5.6,5.69-3.57,11.74-12.53,11.74-22.09,0-4.48-1.44-7.67-4.29-9.47ZM419.25,689.78l1.23-5.15s.06,0,.08,0c3.86,0,5.69.71,6.04,1.09-.06.82-1.46,2.16-7.35,4.06ZM424.02,667.4l1.05-4.13c.97-.14,1.94-.21,2.94-.21,1.96,0,2.47.39,2.5.41,0,.98-2.62,2.65-6.49,3.92ZM499.44,671.46l1.39-5.56c1.85-.56,3.88-1.05,5.77-1.05.5,0,.8.04.98.08-.29,2.66-4.44,5.13-8.15,6.53ZM539.65,675.12l-.23.04.53-1.94-.3,1.9ZM619.11,694.17c-1.78,0-5.92-1.01-5.92-10.38,0-8.24,3.86-16.99,11.02-16.99,5.88,0,6.34,7.94,6.34,10.38,0,10.5-5.94,16.99-11.44,16.99ZM666.96,671.46l1.39-5.56c1.85-.56,3.88-1.05,5.77-1.05.5,0,.8.04.98.08-.29,2.66-4.44,5.13-8.15,6.53ZM713,688.21c-1.32,3.42-4.36,4.09-9.17,4.09-1.76,0-1.84-.36-1.84-1.5,0-1.58.7-3.57,1.21-5.02l.56-1.59c1.09.43,2.13.79,3.12,1.06.18.05.41.11.67.18,5.35,1.41,5.5,2.45,5.5,2.57,0,.06-.02.14-.05.21ZM712.91,668.51l-.29.84c-.15-.05-.3-.1-.44-.15-2.67-.86-4.92-2.38-4.92-3.31,0-1.63,3.36-2.67,4.78-2.67,1.78,0,1.78.59,1.78,1.27,0,1.2-.44,2.64-.91,4.02ZM792.56,688.21c-1.32,3.42-4.36,4.09-9.17,4.09-1.76,0-1.84-.36-1.84-1.5,0-1.58.7-3.57,1.21-5.02l.56-1.59c1.09.43,2.13.79,3.12,1.06.18.05.41.11.67.18,5.35,1.41,5.5,2.45,5.5,2.57,0,.06-.02.14-.05.21ZM792.47,668.51l-.29.84c-.15-.05-.3-.1-.44-.15-2.67-.86-4.92-2.38-4.92-3.31,0-1.63,3.36-2.67,4.78-2.67,1.78,0,1.78.59,1.78,1.27,0,1.2-.44,2.64-.91,4.02Z" style="fill: rgb(153, 66, 51);"/>
        <g>
          <path class="st13" d="M433.95,674.84c4.26,1.71,9.48,4.67,9.48,11.44,0,1.09-.12,2.18-.36,3.27-4.68,21.72-30.42,20.24-44.16,22.03l14.7-61.26c4.74-1.25,9.66-1.87,14.46-1.87,6.18,0,17.4,1.32,17.4,12.22,0,7.32-7.44,10.98-11.52,14.17ZM420.57,682.62c-.54,0-1.14.08-1.68.08l-2.4,10.04c2.28-.86,12.12-2.96,12.12-7.08,0-2.96-6.54-3.04-8.04-3.04ZM428.01,661.06c-1.56,0-3.06.16-4.56.47l-2.22,8.72c2.4-.54,11.28-2.96,11.28-6.77,0-2.33-3.3-2.41-4.5-2.41Z" style="fill: url(&quot;#linear-gradient1&quot;);"/>
          <path class="st12" d="M484.53,647.83l-3.48,15.49-17.4,1.95-1.14,4.44,13.14-1.63-3.06,13.62-12.96,1.95-1.26,5.21,21-3.5-4.38,19.46-34.8,4.05,13.92-57.75,30.42-3.27Z" style="fill: url(&quot;#linear-gradient2&quot;);"/>
          <path class="st15" d="M508.83,684.88l3.18,24.05-15,3.42-3.18-23.82-3.24,16.73-13.68,3.04,14.28-57.21c5.1-1.25,10.44-1.87,15.66-1.87s17.16.7,17.16,10.66c0,10.74-8.52,20.16-15.18,24.99ZM506.61,662.85c-2.46,0-5.04.7-7.44,1.48l-2.52,10.04c3.36-.7,12.96-4.2,12.96-9.73,0-1.71-2.1-1.79-3-1.79Z" style="fill: url(&quot;#linear-gradient3&quot;);"/>
          <path class="st20" d="M558.09,645.57l-6.66,63.98-16.2,3.27,3.42-19.23-7.5,2.02-2.88,8.95-14.1,2.34,18.96-56.04,24.96-5.29ZM543.63,662.7l-3.18,1.17-3.78,13.78,4.74-.78,2.22-14.17Z" style="fill: url(&quot;#linear-gradient4&quot;);"/>
          <path class="st19" d="M602.06,646.12l-13.56,57.44-15.6,1.79,4.2-17.36-5.1.7-5.1,20.94-14.76,1.4,14.82-56.66,12.78-2.1-4.08,16.89,5.4-.39,5.4-20,15.6-2.65Z" style="fill: url(&quot;#linear-gradient5&quot;);"/>
          <path class="st16" d="M617.85,713.06c-12.12,0-21-11.52-21-27.24,0-20.24,14.28-38.84,29.88-38.84,12.12,0,21,11.52,21,27.24,0,20.24-14.28,38.84-29.88,38.84ZM624.21,664.8c-8.16,0-13.02,9.11-13.02,18.99,0,6.69,2.22,12.38,7.92,12.38,7.92,0,13.44-9.18,13.44-18.99,0-6.85-2.64-12.38-8.34-12.38Z" style="fill: url(&quot;#linear-gradient6&quot;);"/>
          <path class="st18" d="M676.35,684.88l3.18,24.05-15,3.42-3.18-23.82-3.24,16.73-13.68,3.04,14.28-57.21c5.1-1.25,10.44-1.87,15.66-1.87s17.16.7,17.16,10.66c0,10.74-8.52,20.16-15.18,24.99ZM674.13,662.85c-2.46,0-5.04.7-7.44,1.48l-2.52,10.04c3.36-.7,12.96-4.2,12.96-9.73,0-1.71-2.1-1.79-3-1.79Z" style="fill: url(&quot;#linear-gradient7&quot;);"/>
          <path class="st17" d="M727.95,667.76l-13.14,1.4c.48-1.4,1.02-3.11,1.02-4.67,0-2.72-2.04-3.27-3.78-3.27-1.92,0-6.78,1.32-6.78,4.67,0,2.8,4.62,4.67,6.3,5.21,4.92,1.63,10.08,3.58,14.64,6.46,2.46,1.56,3.36,4.36,3.36,7.78,0,8.33-5.22,16.89-10.8,20.39-5.4,3.35-12.06,5.29-18.06,5.29-6.3,0-16.32-3.27-16.32-13.47,0-2.96,1.14-7.01,2.16-9.65,3.84-.86,10.98-2.8,14.52-2.8h.24c-.6,1.71-1.32,3.81-1.32,5.68,0,3.04,1.92,3.5,3.84,3.5,3.84,0,9.06-.23,11.04-5.37.12-.31.18-.62.18-.93,0-2.96-6-4.2-7.62-4.67-3.96-1.09-8.22-3.42-11.88-5.68-2.04-1.25-2.82-3.97-2.82-6.77,0-.7,0-1.4.12-2.1,1.62-12.61,11.7-21.48,21.18-21.48,5.82,0,15.96,2.18,15.96,12.06,0,2.34-.78,6.69-2.04,8.41Z" style="fill: url(&quot;#linear-gradient8&quot;);"/>
          <path class="st14" d="M770.01,647.83l-3.48,15.49-17.4,1.95-1.14,4.44,13.14-1.63-3.06,13.62-12.96,1.95-1.26,5.21,21-3.5-4.38,19.46-34.8,4.05,13.92-57.75,30.42-3.27Z" style="fill: url(&quot;#linear-gradient9&quot;);"/>
          <path class="st32" d="M807.5,667.76l-13.14,1.4c.48-1.4,1.02-3.11,1.02-4.67,0-2.72-2.04-3.27-3.78-3.27-1.92,0-6.78,1.32-6.78,4.67,0,2.8,4.62,4.67,6.3,5.21,4.92,1.63,10.08,3.58,14.64,6.46,2.46,1.56,3.36,4.36,3.36,7.78,0,8.33-5.22,16.89-10.8,20.39-5.4,3.35-12.06,5.29-18.06,5.29-6.3,0-16.32-3.27-16.32-13.47,0-2.96,1.14-7.01,2.16-9.65,3.84-.86,10.98-2.8,14.52-2.8h.24c-.6,1.71-1.32,3.81-1.32,5.68,0,3.04,1.92,3.5,3.84,3.5,3.84,0,9.06-.23,11.04-5.37.12-.31.18-.62.18-.93,0-2.96-6-4.2-7.62-4.67-3.96-1.09-8.22-3.42-11.88-5.68-2.04-1.25-2.82-3.97-2.82-6.77,0-.7,0-1.4.12-2.1,1.62-12.61,11.7-21.48,21.18-21.48,5.82,0,15.96,2.18,15.96,12.06,0,2.34-.78,6.69-2.04,8.41Z" style="fill: url(&quot;#linear-gradient10&quot;);"/>
        </g>
        <g>
          <path class="st31" d="M414.44,651.14c4.45-1.12,9.04-1.69,13.63-1.69,7.48,0,16.4,1.95,16.4,11.22,0,5.51-4.82,8.89-8.69,11.61-.88.61-1.71,1.2-2.44,1.77l-1.37,1.07,1.61.65c4.12,1.66,8.85,4.35,8.85,10.51,0,1.01-.11,2.04-.34,3.05-3.84,17.82-22.75,19.42-36.56,20.59-1.87.16-3.66.31-5.31.49l14.22-59.27ZM415.08,694.34l1.76-.66c.37-.14.96-.31,1.67-.53,4.15-1.24,11.1-3.32,11.1-7.49,0-2.64-3.13-4.04-9.04-4.04-.29,0-.6.02-.91.04-.26.02-.52.04-.77.04h-.79l-3.02,12.64ZM428.01,660.06c-1.62,0-3.18.16-4.76.49l-.61.13-2.78,10.91,1.59-.36c2.83-.64,12.06-3.1,12.06-7.75,0-1.56-.95-3.41-5.5-3.41Z" style="fill: url(&quot;#linear-gradient11&quot;);"/>
          <polygon class="st28" points="454.91 652.02 483.24 648.97 480.23 662.4 462.85 664.35 461.17 670.88 474.36 669.24 471.76 680.8 458.81 682.74 457.04 690.08 478.06 686.58 474.17 703.89 441.5 707.69 454.91 652.02" style="fill: url(&quot;#linear-gradient12&quot;);"/>
          <path class="st27" d="M494.82,688.41l-1.97-.06-3.12,16.09-11.46,2.54,13.74-55.05c4.82-1.13,9.81-1.7,14.84-1.7,10.72,0,16.16,3.25,16.16,9.66,0,9.94-7.63,19-14.77,24.18l-.48.35,3.14,23.74-13.04,2.98-3.03-22.73ZM506.61,661.85c-2.68,0-5.42.77-7.75,1.53l-.53.17-3.04,12.13,1.56-.33c2.91-.61,13.75-4.2,13.75-10.71,0-1.04-.52-2.79-4-2.79Z" style="fill: url(&quot;#linear-gradient13&quot;);"/>
          <path class="st34" d="M539.91,692.22l-9.54,2.58-2.86,8.89-11.85,1.96,18.24-53.92,23.06-4.89-6.44,61.88-14.04,2.83,3.44-19.33ZM539.62,663.1l-4.33,15.78,6.99-1.15,2.59-16.56-5.26,1.93Z" style="fill: url(&quot;#linear-gradient14&quot;);"/>
          <polygon class="st29" points="567.77 655.25 578.42 653.5 574.37 670.25 581.85 669.71 587.26 649.64 600.74 647.36 587.69 702.65 574.21 704.19 578.42 686.8 571.2 687.8 566.1 708.7 553.48 709.9 567.77 655.25" style="fill: url(&quot;#linear-gradient15&quot;);"/>
          <path class="st30" d="M617.85,712.06c-11.59,0-20-11.04-20-26.24,0-19.8,13.76-37.84,28.88-37.84,11.59,0,20,11.04,20,26.24,0,19.8-13.76,37.84-28.88,37.84ZM624.2,663.8c-6.97,0-14.02,6.87-14.02,19.99,0,8.38,3.33,13.38,8.92,13.38,8.92,0,14.44-10.38,14.44-19.99,0-8.25-3.58-13.38-9.34-13.38Z" style="fill: url(&quot;#linear-gradient16&quot;);"/>
          <path class="st33" d="M662.34,688.41l-1.97-.06-3.11,16.09-11.46,2.54,13.74-55.05c4.82-1.13,9.81-1.7,14.84-1.7,10.72,0,16.16,3.25,16.16,9.66,0,9.94-7.63,19-14.77,24.18l-.48.35,3.14,23.74-13.04,2.98-3.03-22.73ZM674.12,661.85c-2.68,0-5.42.77-7.75,1.53l-.53.17-3.04,12.13,1.56-.33c2.91-.61,13.75-4.2,13.75-10.71,0-1.04-.52-2.79-4-2.79Z" style="fill: url(&quot;#linear-gradient17&quot;);"/>
          <path class="st26" d="M700.71,710.03c-5.3,0-15.32-2.61-15.32-12.47,0-2.67.99-6.29,1.91-8.8.71-.16,1.51-.35,2.37-.56,3.2-.77,7.43-1.78,10.23-2.04-.46,1.42-.9,3.07-.9,4.62,0,2.99,1.63,4.5,4.84,4.5,3.38,0,9.66,0,11.97-6.01.16-.43.25-.86.25-1.29,0-3.42-5.23-4.8-7.74-5.47-.24-.06-.45-.12-.61-.16-3.2-.88-6.9-2.65-11.63-5.57-1.49-.91-2.35-3.07-2.35-5.92,0-.68,0-1.32.11-1.93,1.64-12.77,11.76-20.65,20.19-20.65,2.5,0,14.96.53,14.96,11.06,0,2.22-.71,5.84-1.62,7.46l-11.14,1.19c.34-1.17.6-2.37.6-3.51,0-2.71-1.74-4.27-4.78-4.27-2.63,0-7.78,1.71-7.78,5.67,0,3.62,5.35,5.63,6.99,6.17,4.54,1.51,9.8,3.44,14.41,6.35,1.95,1.23,2.89,3.5,2.89,6.94,0,8.18-5.25,16.36-10.33,19.55-5.19,3.22-11.75,5.14-17.53,5.14Z" style="fill: url(&quot;#linear-gradient18&quot;);"/>
          <polygon class="st35" points="740.39 652.02 768.72 648.97 765.7 662.4 748.33 664.35 746.65 670.88 759.84 669.24 757.24 680.8 744.29 682.74 742.52 690.08 763.54 686.58 759.64 703.89 726.97 707.69 740.39 652.02" style="fill: url(&quot;#linear-gradient19&quot;);"/>
          <path class="st36" d="M780.26,710.03c-5.3,0-15.32-2.61-15.32-12.47,0-2.67.99-6.29,1.91-8.8.71-.16,1.51-.35,2.37-.56,3.2-.77,7.43-1.78,10.23-2.04-.46,1.42-.9,3.07-.9,4.62,0,2.99,1.63,4.5,4.84,4.5,3.38,0,9.66,0,11.97-6.01.16-.43.25-.86.25-1.29,0-3.42-5.23-4.8-7.74-5.47-.24-.06-.45-.12-.61-.16-3.2-.88-6.9-2.65-11.63-5.57-1.49-.91-2.35-3.07-2.35-5.92,0-.68,0-1.32.11-1.93,1.64-12.77,11.76-20.65,20.19-20.65,2.5,0,14.96.53,14.96,11.06,0,2.22-.71,5.84-1.62,7.46l-11.14,1.19c.34-1.17.6-2.37.6-3.51,0-2.71-1.74-4.27-4.78-4.27-2.63,0-7.78,1.71-7.78,5.67,0,3.62,5.35,5.63,6.99,6.17,4.54,1.51,9.81,3.44,14.41,6.35,1.95,1.23,2.89,3.5,2.89,6.94,0,8.18-5.25,16.36-10.33,19.55-5.19,3.22-11.75,5.14-17.53,5.14Z" style="fill: url(&quot;#linear-gradient20&quot;);"/>
        </g>
      </g>
    </g>
  </g>
</svg>