<svg width="1679" height="232" viewBox="0 0 1679 232" fill="none" xmlns="http://www.w3.org/2000/svg">
<path d="M1409.58 0.00076355C1402.38 -0.0664172 1394.6 4.30835 1390.51 9.64964C1388.38 12.419 1382.94 18.5828 1381.95 19.6482C1378.31 23.5738 1371.25 22.5121 1367.08 27.0003C1361.58 32.9127 1357.09 37.3732 1351.37 43.5273C1350.88 44.0465 1339.81 39.2354 1333.95 45.5347C1330.54 49.2125 1324.17 57.638 1316.99 69.1373C1309.24 81.5652 1304.67 115.176 1287.13 128.126C1279.92 133.448 1195.5 146 1172.49 147.362C1161 148.278 1135 147.362 1124.14 148.278C1118 148.278 1092 151.5 1083 154C1073.48 156.645 1073.3 159.477 1070 168.35V195H1680C1678.47 192.879 1681.65 186.77 1680 185C1674.92 179.53 1680.02 174.665 1675.24 168.5C1668.98 160.408 1669.88 157.233 1662.91 149.738C1655.11 141.342 1649.7 138.205 1641.35 130.713C1634.25 124.349 1630.62 116.075 1624.62 109.451C1615.98 99.908 1593.13 91.9342 1591.05 88.576C1578.41 68.1746 1588.15 74.8028 1571.87 57.2802C1570.21 55.5015 1555.51 51.056 1554 52.6835C1550.85 56.0685 1540.22 44.5568 1537.83 43.5273C1532.29 41.1425 1525.76 34.4402 1522.21 31.8923C1516.53 27.8208 1501.99 31.1539 1499.27 34.0841C1495.36 38.2946 1491.12 52.2541 1487.53 56.1238C1486.26 57.4887 1477.34 59.1011 1475.66 60.0084C1474.22 60.7786 1465.72 70.3703 1464.59 69.1646C1461.27 65.585 1460.99 56.1324 1456.94 51.7681C1453.63 48.2131 1450.95 42.342 1447.46 40.4626C1442.51 37.8016 1437.32 33.865 1434.16 30.456C1426.1 21.7894 1427.61 7.69531 1416.43 1.67779C1414.31 0.539586 1411.98 0.0231571 1409.58 0.00076355Z" fill="#366579"/>
<path fill-rule="evenodd" clip-rule="evenodd" d="M1151 152.563C1151 152.563 1149.7 149.123 1149.92 145.934C1150.14 142.744 1150.82 137.075 1150.2 135.134C1149.59 133.188 1148.6 131.165 1148.9 128.861C1149.19 126.557 1150.11 125.132 1150.18 123.978C1150.25 122.824 1150.33 122.383 1150.33 122.383C1150.33 122.383 1148.34 119.131 1148.42 116.563C1148.49 113.994 1149.1 114.695 1149.56 115.136C1150.01 115.571 1151.46 117.416 1151.46 117.416L1152.53 118.024C1152.53 118.024 1155.63 106.747 1157.07 104.517C1158.51 102.288 1166.55 87.5949 1169.52 84.6414C1172.48 81.688 1180.07 73.5487 1185.56 74.0157C1191.03 74.4884 1200.48 77.392 1205.05 76.4607C1209.61 75.5237 1224.22 70.5814 1230.15 71.5765C1236.1 72.5773 1242.19 75.5178 1242.19 75.5178C1242.19 75.5178 1246.68 75.1146 1248.36 77.7504C1250.04 80.3861 1250.74 86.7532 1251.36 90.9942C1251.97 95.2353 1253.06 105.493 1254.74 109.901C1256.43 114.31 1256.43 116.258 1257.5 118.546C1258.57 120.835 1258.8 121.54 1258.8 121.54L1256.39 117.006C1256.39 117.006 1258 121.502 1258.15 122.608C1258.31 123.713 1258.2 125.395 1258.2 125.395C1258.2 125.395 1257.89 122.524 1257.43 121.509C1256.97 120.499 1256.86 120.281 1256.86 120.281C1256.86 120.281 1257.74 125.713 1257.82 128.325C1257.9 130.932 1257.75 131.994 1257.75 131.994L1257.32 126.998C1257.32 126.998 1257.11 132.227 1257.19 134.527C1257.27 136.827 1257.04 137.803 1257.04 137.803L1256.5 132.588L1256.32 141.659L1255.62 132.551C1255.62 132.551 1255.56 139.9 1255.34 142.116L1255.11 144.332L1254.71 132.914L1254.15 140.756C1254.15 140.756 1253.84 132.837 1253.83 132.084L1253.83 131.33C1253.83 131.33 1253.27 134.217 1253.38 135.45C1253.5 136.689 1253.39 137.663 1253.39 137.663L1252.73 131.122L1252.28 136.082C1252.28 136.082 1251.74 131.753 1251.97 129.89C1252.19 128.027 1252.03 126.882 1252.03 126.882C1252.03 126.882 1251.2 127.418 1251.05 129.987C1250.9 132.556 1250.91 133.002 1250.91 133.002C1250.91 133.002 1250.29 128.935 1250.51 126.545C1250.73 124.149 1250.58 122.737 1250.58 122.117C1250.58 121.497 1249.6 127.436 1249.6 127.436C1249.6 127.436 1249.36 123.371 1249.59 121.595C1249.81 119.825 1249.51 118.055 1249.2 117.084C1248.89 116.114 1248.62 115.723 1248.62 115.723C1248.62 115.723 1248.82 117.709 1248.93 118.728C1249.05 119.746 1249.13 120.452 1249.13 120.452C1249.13 120.452 1248.36 117.227 1248.25 116.035C1248.13 114.842 1246.94 110.207 1246.93 107.64L1246.93 104.013L1246.02 107.471C1246.02 107.471 1246.62 103.396 1246.62 101.976L1246.61 99.5013C1246.61 99.5013 1244.42 104.394 1243.2 106.621C1241.99 108.848 1242 112.563 1242.84 114.234C1243.68 115.911 1245.51 119.252 1246.28 121.724C1247.04 124.19 1246.3 132.167 1246.45 135.173C1246.61 138.185 1247.91 142.505 1247.23 144.46C1246.55 146.415 1245.19 147.137 1244.96 147.759C1244.73 148.382 1245.11 149.618 1244.58 150.51C1244.05 151.403 1239.56 151.273 1238.88 151.193C1238.19 151.108 1238.8 149.641 1239.55 148.972C1240.32 148.297 1241.99 145.938 1242.29 144.694C1242.59 143.451 1242.19 135.886 1242.19 133.053C1242.18 130.219 1240.34 124.751 1239.43 122.994C1238.51 121.23 1235.91 117.191 1235.91 117.191C1235.91 117.191 1235.32 122.952 1235.32 124.1C1235.32 125.253 1236.24 126.483 1235.25 128.528C1234.27 130.573 1228.28 144.449 1228.28 144.449C1228.28 144.449 1227.75 147.022 1226.84 147.386C1225.93 147.749 1224.94 148.201 1224.71 148.916C1224.49 149.625 1224.41 150.64 1223.99 150.911C1223.58 151.183 1219.62 151.713 1219.01 151.013C1218.4 150.313 1219.69 148.259 1220.83 147.232C1221.97 146.199 1222.76 146.237 1223.41 145.163C1224.06 144.096 1229.17 133.15 1229.17 130.762C1229.16 128.375 1228.23 119.53 1228.53 117.226C1228.83 114.922 1227.6 109.047 1227.6 109.047C1227.6 109.047 1225.32 108.719 1224.9 108.191C1224.48 107.668 1224.03 108.426 1223.3 109.141C1222.58 109.856 1220.54 114.834 1212.54 116.162C1204.55 117.49 1196.33 113.953 1195.49 113.696C1194.65 113.439 1193.13 113.543 1193.13 113.543C1193.13 113.543 1193.6 120.532 1193.61 123.54C1193.61 126.548 1194.15 127.788 1194 129.644C1193.85 131.506 1193.78 134.253 1194.39 135.84C1195 137.421 1196.08 141.397 1196.08 142.724C1196.08 144.051 1196.39 145.375 1195.33 146.714C1194.26 148.052 1193.96 149.122 1193.81 150.097C1193.66 151.073 1192.75 151.703 1191.53 151.803C1190.31 151.904 1187.8 152.551 1187.8 151.578C1187.8 150.604 1188.94 149.177 1189.62 148.37C1190.3 147.569 1192.35 146.039 1192.04 142.235C1191.73 138.437 1190.81 134.46 1189.74 131.377C1188.67 128.289 1188.59 124.928 1187.89 122.989C1187.21 121.043 1184.3 117.007 1184.3 117.007C1184.3 117.007 1180.14 128.649 1179.84 130.687C1179.54 132.724 1178.95 139.726 1179.02 140.785C1179.1 141.851 1178.88 142.914 1178.12 143.009C1177.35 143.105 1176.59 143.472 1176.59 144.266C1176.59 145.066 1176.98 146.389 1176.6 146.92C1176.22 147.458 1170.89 147.87 1170.74 147.165C1170.59 146.459 1173.09 144.218 1173.63 143.059C1174.16 141.906 1175.89 135.952 1176.42 133.205C1176.95 130.452 1177.69 120.175 1177.38 116.464C1177.07 112.747 1176.15 111.696 1176.15 111.696C1176.15 111.696 1174.17 110.831 1173.71 109.863C1173.26 108.894 1172.72 108.193 1172.72 108.193C1172.72 108.193 1171.27 108.829 1169.3 111.771C1167.33 114.714 1162.4 123.624 1162.09 124.861C1161.79 126.105 1163.1 132.465 1162.57 134.598C1162.04 136.725 1160.6 138.867 1159.31 141.095C1158.02 143.318 1156.96 146.783 1157.04 147.756C1157.12 148.729 1156.81 149.972 1156.51 150.509C1156.21 151.039 1155.37 152.642 1154.69 152.829C1154.01 153.011 1153.24 153.066 1153.24 153.066C1153.24 153.066 1151.68 153.79 1151 152.563Z" fill="#366579"/>
<path d="M1680 193.014L0 80V231.5H1680V193.014Z" fill="#366579"/>
</svg>
