<svg width="608" height="280" viewBox="0 0 608 280" fill="none" xmlns="http://www.w3.org/2000/svg">
<path d="M0.00497246 279.997H607.5C601.417 274.023 571.556 253.462 561.5 251.5C549.825 249.222 535 241 535 241C524.531 238.722 510 245.5 510 245.5C510 245.5 488.5 263 461.702 244.191C451 244.191 440.662 233.621 439.901 233.811C439.139 234.001 424 224.191 424 224.191L419.622 221.116C392.378 221.116 396.5 217.5 388.592 205.5C387.42 204.014 382.719 163.559 382.571 161.296C382.177 162.374 380.166 143.642 379.493 142.921C379.36 143.898 379.228 144.875 379.095 145.852C378.587 144.904 377.459 145.336 377.017 146.353C376.576 147.37 376.617 148.668 376.673 149.872C374.754 149.29 372.634 150.652 371.623 153.117C370.971 152.533 370.319 151.948 369.667 151.365C369.93 152.245 369.296 153.223 368.648 153.349C367.999 153.475 367.364 153.077 366.724 152.872C364.36 152.111 362.011 153.98 359.925 155.781C358.236 154.767 358.703 150.687 360.276 149.327C361.848 147.968 363.81 148.357 365.634 148.421C367.458 148.485 369.583 147.9 370.434 145.53C369.345 145.745 368.256 145.96 367.166 146.176C368.208 144.118 368.811 141.587 368.869 139.025C367.6 138.323 366.395 140.092 365.4 141.444C364.405 142.796 362.543 143.67 361.911 141.909C360.744 145.359 357.854 147.337 355.304 146.431C353.712 145.865 352.254 142.697 353.584 141.292C354.054 140.797 354.676 140.805 355.254 140.77C358.704 140.562 362.054 137.992 364.141 133.953C363.084 133.749 362.027 133.546 360.971 133.342C362.294 130.474 364.452 128.467 366.784 127.936C362.102 129.13 357.337 129.627 352.587 129.416C353.376 127.071 354.295 124.821 355.334 122.696C355.083 121.421 354.833 120.147 354.583 118.873C356.643 118.276 358.519 116.411 359.662 113.823C360.352 114.424 361.183 114.673 361.979 114.515L362.13 111.154C364.131 109.832 365.812 107.49 366.815 104.625C366.489 103.206 365.292 102.581 364.285 102.822C363.279 103.065 362.405 103.939 361.525 104.696C358.633 107.185 355.313 108.591 351.962 108.743C351.09 108.783 349.941 108.378 349.894 107.098C349.871 106.463 350.16 105.903 350.446 105.425C352.351 102.246 354.818 99.8 357.538 98.3946C356.601 98.1976 355.664 98.0005 354.727 97.8035C355.01 95.6161 355.293 93.4282 355.576 91.2407C351.177 93.6177 351.608 104.46 347.309 107.205C346.141 107.055 346.207 104.402 346.915 103.029C347.622 101.657 348.673 100.177 348.309 98.5412C348.016 97.2242 346.856 96.4232 346.897 95.039C346.925 94.1138 347.493 93.451 348.01 92.9199C350.793 90.0609 353.576 87.2014 356.358 84.3424C353.849 85.2163 351.15 84.8788 348.777 83.3941C348.096 84.0235 347.415 84.6533 346.733 85.2827C345.339 83.2923 344.451 80.5585 344.265 77.7173C343.713 77.4588 343.161 77.2003 342.609 76.9417C343.16 76.7986 343.742 76.9262 344.241 77.2998C344.247 77.4395 344.256 77.5784 344.265 77.7173C344.979 78.0518 345.693 78.3863 346.408 78.7211C345.8 76.3947 344.785 74.2999 343.489 72.6925C345.571 71.4359 347.232 68.7549 347.886 65.591C347.229 65.4308 346.571 65.2706 345.913 65.1107C346.695 63.5535 347.102 61.6006 347.049 59.6683C345.816 60.9511 344.583 62.2339 343.349 63.5166C342.465 60.4704 341.992 57.1679 341.966 53.8568C340.998 54.5511 340.206 55.7629 339.774 57.2128C338.855 55.2398 336.783 54.6977 335.456 56.083C336.276 58.1983 337.189 60.2977 337.544 62.675C337.9 65.0523 337.567 67.8358 336.26 69.3323C334.952 70.8288 332.624 70.2035 332.158 67.8676C332.058 69.215 331.958 70.5623 331.858 71.9097C331.191 71.7855 330.49 72.1545 330.028 72.872C331.166 74.747 332.953 75.725 334.649 75.4008C335.557 75.2273 336.782 74.9453 337.117 76.1962C337.264 76.7474 337.136 77.3654 337.007 77.9265C336.541 79.958 336.074 81.9894 335.608 84.0208C330.78 79.1581 325.952 74.2949 321.124 69.4322C321.375 71.7639 321.625 74.0956 321.876 76.4269C322.62 76.4748 323.365 76.5226 324.11 76.5705C325.499 78.9166 327.508 80.4496 329.614 80.7696C328.672 83.5296 325.826 82.1318 324.093 80.3847C324.413 81.5202 324.733 82.6553 325.053 83.7907C323.093 84.9752 321.133 86.1601 319.173 87.3449C319.879 88.5313 321.044 89.0844 322.089 88.7302C321.937 89.8331 321.785 90.9359 321.633 92.0388C323.31 91.3243 324.986 90.6098 326.662 89.8953C326.075 90.8186 325.706 92.0357 325.633 93.2938C326.649 93.079 327.664 92.8637 328.68 92.6488C328.34 94.1879 327.997 95.8105 328.213 97.3966C328.429 98.9827 329.418 100.467 330.506 100.214C331.279 100.035 331.974 99.0457 332.734 99.3183C333.425 99.5662 333.742 100.699 334.169 101.535C334.754 102.682 335.662 103.385 336.295 104.474C336.929 105.563 337.179 107.432 336.404 108.302C332.269 107.547 328.244 105.527 324.658 102.409C322.504 100.536 320.288 98.1805 317.79 98.4375C318.507 99.6782 318.955 101.25 319.053 102.871C318.324 103.313 317.596 103.755 316.868 104.198C317.728 104.63 318.443 105.647 318.763 106.896C320.208 106.507 321.652 106.118 323.096 105.729C321.734 107.581 320.077 108.963 318.295 109.732C319.095 110.43 320.031 110.783 320.96 110.751C321.058 110.687 321.169 110.67 321.283 110.728C321.176 110.742 321.068 110.747 320.96 110.751C320.633 110.964 320.435 111.726 320.645 112.231C320.918 112.888 321.529 113.047 322.047 112.935C323.209 112.684 324.156 111.459 325.254 110.843C326.351 110.226 327.942 110.617 328.185 112.305C326.614 113.4 325.224 115.053 324.168 117.083C325.677 117.391 327.228 117.25 328.701 116.672C328.672 117.735 329.398 118.697 330.116 118.547C329.958 119.468 329.801 120.389 329.644 121.31C331.137 121.468 332.572 122.571 333.511 124.283C331.084 124.577 328.617 124.139 326.307 123.004C327.031 124.275 328.206 124.722 329.288 125.194C330.37 125.666 331.535 126.355 332.04 127.837C332.546 129.319 331.798 131.625 330.689 131.319C326.633 130.421 322.437 129.448 318.998 126.165C317.575 124.806 316.291 123.062 314.894 121.664C315.226 120.737 315.398 119.845 314.805 119.219C313.845 118.206 312.256 119.288 311.216 120.214C310.176 121.14 308.14 121.655 307.778 120.294C307.565 118.446 309.055 116.574 310.865 116.416C310.469 115.389 310.073 114.361 309.677 113.334C313.991 111.534 316.261 105.81 314.396 101.438C313.448 102.339 312.837 103.603 312.712 104.921C308.656 109.361 302.886 112.112 296.957 112.431C298.202 111.041 299.447 109.652 300.692 108.262C299.595 107.695 298.499 107.129 297.403 106.563C302.829 107.297 305.662 97.7584 311.073 98.6034C309.967 93.6864 308.861 88.7697 307.756 83.8527C306.552 83.8352 305.351 84.3705 304.542 85.2843C303.955 84.3162 303.367 83.3477 302.779 82.3797C302.851 86.274 298.629 89.5723 294.981 88.4721C297.396 86.1308 298.773 82.7084 298.672 79.3046C295.834 80.6219 293.07 82.1078 290.4 83.752C294.25 79.3372 297.718 74.5721 300.748 69.5309C299.833 70.9044 297.216 69.7146 297.597 68.0977C295.538 69.2325 293.479 70.3672 291.42 71.5023C292.301 70.002 292.773 67.4143 291.098 67.067C292.406 65.6441 292.746 63.375 291.913 61.6162C289.925 61.7335 287.973 60.164 287.612 58.1573C284.1 57.8065 280.588 57.4561 277.076 57.1053C280.427 55.6494 283.778 54.1935 287.129 52.7376C288.688 50.1739 290.248 47.6106 291.807 45.0469C290.957 43.9236 290.106 42.8006 289.256 41.6773C287.305 46.3089 281.928 49.1212 277.122 48.0241C278.769 45.2284 280.942 42.7596 283.487 40.7931C284.574 38.7841 285.66 36.7746 286.746 34.7656C283.46 36.6626 279.924 38.1049 276.264 39.0407C275.002 36.5366 276.761 33.5474 278.742 31.5911C280.722 29.6348 283.158 27.7427 283.599 24.9607C281.539 26.6133 278.639 27.0977 276.173 26.2018C276.973 24.799 276.129 22.7205 274.593 22.3139C275.401 21.4252 276.208 20.5364 277.016 19.6473L274.01 19.2677C274.39 18.396 274.969 17.617 275.689 17.0108C272.122 11.8075 269.324 6.05179 267.421 0C266.875 4.50667 266.329 9.0133 265.783 13.5203C264.183 12.851 262.288 12.9668 260.777 13.8263C261.374 14.496 261.972 15.1653 262.569 15.835C261.154 16.1858 261.248 18.7916 262.686 19.0335C262.155 20.7764 261.344 22.4293 260.297 23.9068C260.927 25.5161 261.557 27.1258 262.187 28.7351C260.077 27.1398 257.967 25.545 255.856 23.9497C255.562 27.2716 256.72 30.7005 258.956 33.126C257.728 33.0322 256.5 32.938 255.273 32.8439C255.704 34.2447 254.559 35.9037 253.125 35.9542C255.265 35.7162 255.259 39.2028 254.328 41.1902C253.256 43.4771 252.185 45.7637 251.114 48.0506C252.581 50.1716 254.049 52.2923 255.516 54.4133C252.892 53.9851 250.269 53.5572 247.645 53.129C248.285 53.9752 248.924 54.8214 249.564 55.6676C248.121 57.3756 250.485 59.6918 252.498 60.6155C254.51 61.5391 256.908 63.7904 255.516 65.5432C252.272 62.883 249.028 60.2229 245.783 57.5632C245.592 58.33 245.401 59.0965 245.21 59.8634C244.285 59.6766 243.443 59.0954 242.927 58.2879C242.771 59.2719 242.614 60.2559 242.458 61.2396C243.808 64.7823 246.465 67.7834 249.776 69.5046C248.501 69.9291 247.225 70.3535 245.95 70.7779C249.327 73.1074 252.23 76.1544 254.421 79.6691C249.455 78.5229 244.961 75.3659 242.128 71.0346C241.216 74.5777 242.327 78.5886 244.918 81.114C241.943 80.0271 239.589 77.3104 238.888 74.1548C237.557 74.8025 236.171 75.3324 234.751 75.7368C233.83 78.0191 236.472 79.9796 238.508 81.3026C242.397 83.8299 245.471 87.6501 247.149 92.0433C242.67 89.5191 238.191 86.9949 233.712 84.4707C234.957 89.9819 239.591 94.5261 245.021 95.5603C246.404 95.8237 247.918 95.9179 248.994 96.8472C250.07 97.7766 250.154 99.9549 248.81 100.381C243.209 96.9714 237.607 93.5622 232.006 90.1527C233.231 94.6977 234.455 99.2427 235.68 103.788C239.444 104.8 243.483 105.992 245.876 109.135C247.415 111.155 248.315 113.99 250.665 114.868C247.793 114.218 245.061 112.93 242.711 111.12C238.93 110.64 235.251 109.327 231.997 107.296C232.932 109.671 233.867 112.044 234.802 114.419C232.816 114.144 230.775 114.301 228.852 114.876C230.464 115.815 230.619 118.547 229.124 119.671C231.294 119.443 232.809 121.714 233.976 123.601C235.143 125.488 237.217 127.503 239.194 126.562C239.282 128.047 239.37 129.532 239.458 131.017C240.667 129.683 242.333 128.791 244.093 128.536C242.965 129.302 243.718 131.091 244.553 132.182C247.22 135.668 250.687 139.52 254.983 139.018C256.378 140.581 254.089 143.159 252.048 142.82C250.006 142.481 248.579 140.658 247.099 139.178C246.494 138.573 245.758 137.973 244.914 138.016C244.069 138.059 243.319 139.145 243.856 139.813C242.976 139.078 242.096 138.342 241.216 137.607C238.423 138.075 236.062 135.669 234.008 133.673C231.954 131.678 228.844 129.834 226.476 131.423C228.288 132.711 229.012 135.383 228.107 137.443C229.421 136.754 230.992 138.051 231.438 139.493C231.882 140.935 231.669 142.508 231.992 143.983C232.822 147.765 236.749 149.786 240.235 151.293C234.752 152.005 229.041 150.719 224.355 147.717C223.639 147.258 222.856 146.739 222.021 146.867C221.185 146.996 220.568 148.216 221.236 148.745C220.494 148.212 219.684 147.781 218.837 147.448C219.707 146.576 220.462 145.459 221.035 144.161C221.734 144.771 222.576 145.022 223.383 144.862C223.434 143.727 223.485 142.592 223.536 141.456C225.564 140.116 227.267 137.743 228.284 134.84C227.953 133.402 226.74 132.768 225.72 133.013C224.7 133.259 223.814 134.145 222.923 134.912C219.992 137.435 216.627 138.859 213.231 139.013C212.347 139.054 211.183 138.643 211.136 137.347C211.112 136.703 211.405 136.136 211.695 135.651C213.625 132.429 216.126 129.951 218.882 128.526C217.932 128.326 216.983 128.127 216.033 127.927C216.32 125.71 216.607 123.493 216.894 121.276C212.436 123.685 212.873 134.673 208.516 137.454C207.333 137.302 207.4 134.613 208.116 133.222C208.833 131.832 209.899 130.332 209.529 128.674C209.232 127.34 208.056 126.528 208.099 125.125C208.127 124.187 208.703 123.516 209.227 122.977C212.046 120.08 214.867 117.182 217.687 114.285C215.143 115.17 212.409 114.828 210.004 113.323C209.314 113.962 208.624 114.599 207.933 115.238C206.52 113.221 205.62 110.45 205.432 107.571C204.873 107.309 204.313 107.047 203.753 106.785C204.312 106.64 204.902 106.769 205.408 107.148C205.413 107.289 205.423 107.43 205.432 107.571C206.156 107.91 206.88 108.249 207.603 108.588C206.987 106.23 205.959 104.107 204.645 102.478C206.756 101.205 208.439 98.4876 209.102 95.2816C208.435 95.1195 207.769 94.957 207.102 94.7949C207.893 93.2168 208.307 91.2377 208.253 89.2795C207.003 90.5794 205.753 91.8797 204.503 93.1796C203.607 90.0924 203.128 86.7455 203.102 83.3899C202.12 84.0937 201.318 85.3218 200.88 86.791C199.949 84.7915 197.849 84.2422 196.505 85.6461C197.335 87.7899 198.261 89.9177 198.621 92.3265C198.981 94.7357 198.643 97.5564 197.319 99.073C195.994 100.589 193.634 99.9561 193.162 97.5891C193.061 98.9546 192.959 100.32 192.858 101.685C192.181 101.56 191.471 101.933 191.003 102.661C192.156 104.561 193.967 105.552 195.686 105.223C196.605 105.047 197.848 104.761 198.187 106.029C198.336 106.588 198.206 107.214 198.075 107.783C197.603 109.842 197.13 111.901 196.658 113.959C191.766 109.031 186.873 104.103 181.98 99.1748C182.234 101.538 182.488 103.901 182.742 106.263C183.496 106.312 184.251 106.361 185.005 106.409C186.413 108.786 188.449 110.34 190.584 110.665C189.628 113.461 186.745 112.045 184.988 110.274C185.312 111.425 185.637 112.575 185.961 113.726C183.975 114.926 181.989 116.127 180.003 117.328C180.718 118.53 181.898 119.091 182.957 118.731C182.803 119.849 182.649 120.967 182.495 122.084C184.194 121.36 185.893 120.636 187.591 119.912C186.997 120.848 186.623 122.081 186.549 123.357C187.578 123.139 188.607 122.921 189.636 122.703C189.292 124.262 188.945 125.907 189.163 127.514C189.382 129.122 190.384 130.626 191.487 130.37C192.27 130.188 192.974 129.185 193.745 129.461C194.445 129.713 194.766 130.86 195.199 131.708C195.791 132.869 196.711 133.582 197.353 134.686C197.995 135.79 198.249 137.684 197.464 138.566C193.274 137.8 189.194 135.753 185.56 132.593C183.377 130.695 181.131 128.309 178.6 128.569C179.327 129.826 179.78 131.419 179.879 133.062C179.141 133.51 178.404 133.958 177.665 134.406C178.537 134.844 179.261 135.875 179.586 137.14C181.05 136.746 182.513 136.352 183.977 135.957C182.597 137.835 180.917 139.235 179.112 140.015C179.923 140.721 180.871 141.079 181.813 141.047C181.913 140.982 182.024 140.965 182.14 141.023C182.031 141.038 181.922 141.043 181.813 141.047C181.481 141.264 181.281 142.035 181.493 142.547C181.77 143.213 182.389 143.374 182.914 143.261C184.092 143.006 185.051 141.765 186.164 141.14C187.276 140.515 188.888 140.911 189.135 142.622C187.542 143.732 186.134 145.407 185.064 147.464C186.593 147.776 188.165 147.634 189.657 147.048C189.628 148.125 190.364 149.1 191.09 148.948C190.931 149.882 190.772 150.815 190.612 151.748C192.125 151.908 193.58 153.026 194.531 154.761C192.071 155.059 189.571 154.615 187.23 153.465C187.964 154.753 189.155 155.206 190.252 155.684C191.349 156.162 192.529 156.861 193.041 158.363C193.553 159.865 192.796 162.201 191.671 161.891C187.561 160.982 183.309 159.995 179.824 156.668C177.5 154.45 175.542 151.216 172.883 150.072C173.607 151.308 172.902 153.613 171.792 153.64C173.101 156.229 174.411 158.818 175.72 161.407C176.226 162.408 176.775 163.458 177.57 163.896C178.365 164.334 179.459 163.831 179.635 162.612C179.692 163.489 179.748 164.366 179.805 165.243C181.603 165.484 183.437 165.141 185.137 164.248C184.323 167.265 184.36 170.757 185.24 173.735C178.887 171.747 174.656 160.372 168.178 161.077C169.928 162.471 171.379 164.662 172.279 167.27C171.6 166.736 170.733 167.66 170.559 168.761C170.385 169.861 170.678 170.993 170.966 172.041C172.025 171.829 173.044 171.201 173.889 170.24C176.009 172.193 177.995 174.46 179.808 176.994C178.42 177.436 177.095 178.3 175.942 179.516C176.503 180.528 177.064 181.54 177.626 182.551C173.836 182.029 170.045 181.506 166.255 180.983L170.099 183.392C169.737 185.574 171.293 187.514 172.802 187.889C174.311 188.264 175.868 187.704 177.383 188.016C178.899 188.327 180.512 190.096 180.278 192.316C177.929 192.549 175.579 192.781 173.23 193.014C173.586 193.899 173.943 194.784 174.3 195.67C173.024 196.156 171.749 196.642 170.474 197.127C173.973 200.482 178.281 203.96 182.096 201.454C183.428 204.057 184.761 206.66 186.093 209.264C181.639 207.736 177.358 205.123 173.479 201.563C174.344 206.277 176.976 210.203 180.174 211.545C181.684 212.179 183.596 212.631 184.083 214.825C181.237 217.546 177.543 214.151 175.168 210.588C173.608 208.248 171.851 205.603 169.884 204.336C171.214 202.452 171.654 199.869 170.738 197.724C170.039 198.389 169.588 199.322 169.496 200.295C166.501 203.573 162.24 205.604 157.863 205.84C158.782 204.814 159.702 203.788 160.621 202.762C159.811 202.343 159.002 201.925 158.192 201.507C162.198 202.049 164.29 195.007 168.285 195.631C167.469 192.001 166.652 188.37 165.836 184.74C164.947 184.727 164.06 185.122 163.463 185.797C163.029 185.082 162.595 184.367 162.161 183.652C162.214 186.528 159.097 188.963 156.404 188.151C158.186 186.422 159.204 183.895 159.129 181.382C157.033 182.355 154.993 183.452 153.021 184.666C155.864 181.406 158.424 177.888 160.662 174.166C159.986 175.181 158.054 174.302 158.335 173.108C156.815 173.946 155.295 174.784 153.775 175.622C154.425 174.514 154.774 172.604 153.537 172.347C154.503 171.296 154.753 169.621 154.139 168.323C152.671 168.409 151.23 167.251 150.963 165.769C148.37 165.51 145.777 165.251 143.185 164.992C145.659 163.917 148.133 162.843 150.607 161.767C151.758 159.875 152.91 157.982 154.061 156.09C153.433 155.26 152.805 154.431 152.177 153.602C150.737 157.021 146.768 159.097 143.219 158.288C144.435 156.224 146.04 154.401 147.918 152.949C148.721 151.466 149.523 149.982 150.325 148.499C147.899 149.9 145.287 150.964 142.585 151.655C141.653 149.806 142.952 147.599 144.414 146.155C145.877 144.71 147.675 143.314 148.001 141.26C146.479 142.48 144.339 142.838 142.517 142.176C143.109 141.141 142.485 139.606 141.351 139.306C141.948 138.649 142.544 137.993 143.14 137.337C142.401 137.244 141.66 137.15 140.921 137.056C141.201 136.413 141.629 135.838 142.161 135.39C139.527 131.549 137.461 127.299 136.056 122.831C135.653 126.158 135.25 129.485 134.847 132.813C133.666 132.319 132.267 132.404 131.151 133.039C131.592 133.533 132.033 134.027 132.474 134.522C131.429 134.781 131.499 136.705 132.56 136.883C132.168 138.17 131.57 139.39 130.797 140.481C131.262 141.669 131.727 142.858 132.192 144.046C130.634 142.868 129.076 141.691 127.518 140.513C127.301 142.966 128.156 145.497 129.806 147.288C128.9 147.218 127.994 147.149 127.087 147.08C127.406 148.114 126.56 149.339 125.502 149.376C127.082 149.2 127.077 151.774 126.39 153.242C125.599 154.93 124.808 156.619 124.017 158.307C125.1 159.873 126.184 161.439 127.267 163.005C125.33 162.688 123.393 162.373 121.456 162.056C121.928 162.681 122.401 163.306 122.873 163.931C121.808 165.192 123.553 166.902 125.039 167.583C126.525 168.265 128.295 169.928 127.268 171.221C124.873 169.258 122.477 167.294 120.082 165.33C119.94 165.896 119.799 166.462 119.658 167.028C118.975 166.89 118.354 166.461 117.973 165.865C117.858 166.591 117.742 167.318 117.626 168.044C118.623 170.66 120.585 172.876 123.03 174.147C122.088 174.46 121.146 174.773 120.204 175.087C122.698 176.806 124.841 179.056 126.459 181.651C123.299 180.922 120.399 179.088 118.319 176.548C119.184 175.376 119.885 174.047 120.207 172.376C117.909 172.59 115.822 175.184 115.243 178.442C115.141 178.161 115.056 177.873 114.991 177.58C114.793 177.676 114.592 177.767 114.39 177.856C113.639 176.482 113.158 174.788 113.043 173.033C112.644 174.126 111.545 174.494 110.862 173.764C110.727 174.754 110.593 175.744 110.459 176.734C109.944 175.773 108.801 176.21 108.353 177.241C107.906 178.273 107.948 179.587 108.005 180.807C106.061 180.217 103.911 181.599 102.887 184.096C102.227 183.504 101.566 182.912 100.905 182.32C101.171 183.212 100.529 184.203 99.872 184.331C99.2145 184.459 98.5708 184.056 97.9224 183.847C95.5267 183.077 93.1466 184.97 91.0322 186.795C89.3203 185.768 89.7942 181.633 91.3874 180.255C92.981 178.878 94.969 179.272 96.8176 179.337C98.6663 179.401 100.82 178.809 101.682 176.407C100.578 176.625 99.4741 176.843 98.3701 177.062C99.4265 174.976 100.038 172.412 100.096 169.814C98.8102 169.103 97.589 170.896 96.5801 172.266C95.5713 173.636 93.6853 174.521 93.0442 172.737C91.8617 176.234 88.9335 178.238 86.3489 177.32C84.7352 176.746 83.2581 173.536 84.6065 172.112C85.082 171.61 85.7132 171.618 86.2983 171.583C89.7942 171.372 93.1896 168.768 95.3044 164.675C94.2335 164.468 93.1626 164.262 92.0917 164.055C93.4329 161.148 95.62 159.114 97.9829 158.577C93.238 159.787 88.4092 160.29 83.5954 160.076C84.3948 157.7 85.3271 155.419 86.3797 153.265C86.1258 151.974 85.8719 150.683 85.618 149.392C87.7065 148.787 89.6077 146.896 90.7654 144.274C91.4655 144.884 92.3072 145.135 93.1135 144.975C93.1645 143.839 93.2155 142.704 93.2665 141.569C95.2945 140.229 96.9977 137.856 98.0145 134.952C97.6837 133.514 96.4708 132.88 95.4506 133.126C94.4303 133.371 93.5452 134.257 92.6532 135.025C89.7226 137.547 86.3573 138.971 82.9615 139.126C82.0775 139.166 80.9133 138.756 80.8661 137.459C80.8425 136.815 81.1361 136.249 81.4258 135.764C83.3555 132.542 85.8559 130.064 88.6121 128.639C87.6627 128.439 86.7128 128.24 85.7634 128.04C86.0504 125.823 86.3371 123.606 86.6241 121.389C82.1658 123.798 82.6029 134.786 78.2462 137.567C77.063 137.415 77.13 134.726 77.8464 133.335C78.5629 131.945 79.6289 130.445 79.2596 128.787C78.9623 127.452 77.7867 126.64 77.8286 125.238C77.8567 124.3 78.4331 123.628 78.9566 123.09C81.7764 120.193 84.5966 117.295 87.4164 114.397C84.873 115.283 82.1388 114.941 79.7344 113.436C79.0438 114.074 78.3536 114.712 77.663 115.35C76.2498 113.333 75.3502 110.563 75.1614 107.684C74.6022 107.422 74.0426 107.16 73.4829 106.898C74.0414 106.753 74.6315 106.882 75.1371 107.26C75.1428 107.402 75.1523 107.543 75.1614 107.684C75.8851 108.023 76.6092 108.362 77.3329 108.701C76.7165 106.343 75.6887 104.22 74.3745 102.591C76.4855 101.317 78.1681 98.6008 78.8313 95.3944C78.1647 95.2323 77.4981 95.0698 76.8316 94.9077C77.623 93.3295 78.036 91.3504 77.9827 89.3923C76.7329 90.6922 75.4831 91.9924 74.2333 93.2923C73.3371 90.2051 72.8582 86.8582 72.8316 83.5026C71.8501 84.2065 71.0476 85.4346 70.6098 86.9038C69.6787 84.9046 67.5787 84.3549 66.2345 85.7592C67.0648 87.903 67.9906 90.0305 68.3508 92.4397C68.7109 94.8488 68.3733 97.6695 67.0484 99.1862C65.7236 100.702 63.3637 100.069 62.892 97.7022C62.7907 99.0677 62.6891 100.433 62.5875 101.798C61.9113 101.673 61.2006 102.046 60.7327 102.774C61.8858 104.674 63.6968 105.665 65.4156 105.336C66.3354 105.161 67.5776 104.875 67.9164 106.143C68.0656 106.701 67.9354 107.328 67.8052 107.897C67.3328 109.955 66.8604 112.014 66.3883 114.072C61.4956 109.144 56.6029 104.216 51.7102 99.2883C51.9641 101.651 52.2177 104.014 52.4716 106.377C53.2262 106.426 53.9807 106.474 54.7352 106.523C56.1431 108.9 58.1794 110.454 60.3136 110.778C59.3588 113.575 56.4746 112.159 54.7177 110.388C55.0421 111.539 55.3668 112.689 55.6912 113.84C53.7051 115.04 51.719 116.241 49.7325 117.441C50.4478 118.644 51.628 119.204 52.6871 118.845C52.5333 119.963 52.3791 121.081 52.2253 122.198C53.924 121.474 55.6226 120.75 57.3213 120.026C56.7267 120.961 56.3532 122.195 56.2786 123.47C57.3076 123.252 58.337 123.034 59.366 122.816C59.0222 124.376 58.6747 126.02 58.8936 127.628C59.1125 129.235 60.1145 130.739 61.2173 130.483C62.0004 130.301 62.7047 129.299 63.4748 129.575C64.1757 129.826 64.4966 130.974 64.9291 131.822C65.5215 132.983 66.4416 133.696 67.0834 134.8C67.7253 135.903 67.9792 137.798 67.1942 138.679C63.0039 137.913 58.924 135.866 55.2907 132.707C53.1078 130.809 50.8613 128.422 48.3304 128.682C49.0571 129.94 49.5109 131.532 49.6095 133.175C48.8717 133.623 48.134 134.071 47.3958 134.52C48.2672 134.958 48.9913 135.989 49.3164 137.254C50.7802 136.859 52.2436 136.465 53.7073 136.071C52.3269 137.948 50.6477 139.349 48.8425 140.128C49.653 140.835 50.6009 141.193 51.5431 141.161C51.6429 141.096 51.754 141.079 51.8701 141.137C51.7613 141.151 51.6524 141.157 51.5431 141.161C51.2111 141.377 51.0113 142.149 51.2237 142.661C51.5001 143.326 52.1191 143.488 52.6441 143.374C53.8223 143.12 54.7817 141.879 55.8941 141.254C57.0065 140.629 58.6179 141.024 58.865 142.735C57.2725 143.845 55.8644 145.52 54.7942 147.577C56.3235 147.889 57.8954 147.747 59.3873 147.161C59.3588 148.238 60.0943 149.213 60.821 149.061L60.3429 151.862C61.8558 152.021 63.3104 153.139 64.2617 154.874C61.8021 155.172 59.3017 154.728 56.9611 153.578C57.6951 154.866 58.8863 155.319 59.9827 155.798C61.0795 156.276 62.2593 156.974 62.7717 158.476C63.2841 159.978 62.5265 162.314 61.402 162.005C57.2916 161.095 53.0396 160.108 49.5544 156.782C47.231 154.563 45.273 151.33 42.6135 150.185C43.3376 151.422 42.6329 153.727 41.5224 153.754C42.8317 156.343 44.1412 158.932 45.4505 161.521C45.9564 162.521 46.5061 163.572 47.301 164.01C48.0959 164.447 49.1893 163.945 49.3659 162.726C49.4226 163.603 49.479 164.48 49.5357 165.357C51.3341 165.597 53.1675 165.255 54.8677 164.361C54.0534 167.379 54.0911 170.87 54.9709 173.848C48.6174 171.86 44.3868 160.486 37.9085 161.19C39.6586 162.585 41.1094 164.776 42.0093 167.384C41.3309 166.85 40.4641 167.773 40.2897 168.874C40.1154 169.975 40.4085 171.106 40.6963 172.155C41.7554 171.943 42.7746 171.315 43.6197 170.354C45.7398 172.307 47.7259 174.573 49.5384 177.108C48.1507 177.55 46.8259 178.414 45.6728 179.63C46.2343 180.641 46.7954 181.653 47.3566 182.665C43.5664 182.142 39.7758 181.619 35.9852 181.096C37.2666 181.899 38.5481 182.702 39.8299 183.505C39.4674 185.688 41.0237 187.628 42.5328 188.002C44.0415 188.377 45.5989 187.817 47.1141 188.129C48.6296 188.44 50.243 190.209 50.0089 192.429C47.6592 192.662 45.31 192.894 42.9603 193.127C43.317 194.012 43.6738 194.898 44.0305 195.783C42.7551 196.269 41.4798 196.755 40.2045 197.24C43.7034 200.596 48.0118 204.074 51.8267 201.567C53.1592 204.17 54.492 206.773 55.8244 209.377C51.3699 207.849 47.0893 205.236 43.2104 201.676C44.075 206.39 46.7075 210.315 49.9046 211.658C51.4152 212.293 53.327 212.744 53.8136 214.938C50.9683 217.659 47.2736 214.264 44.8988 210.701C42.5241 207.137 39.6894 202.866 36.3579 203.832C37.3078 204.084 38.041 205.507 37.9477 206.917C37.8548 208.328 36.9492 209.517 35.9841 209.497C38.1803 210.491 40.1116 212.695 41.31 215.574C42.0002 217.234 42.4517 219.308 41.9617 221.114C35.8173 217.964 29.6729 214.814 23.5285 211.664C24.2457 215.497 25.5074 219.108 27.2091 222.199C29.4411 223.911 32.0245 224.62 34.5272 224.208C35.0297 226.328 32.2822 227.965 32.8281 230.062C33.0668 230.978 33.8179 231.309 34.4723 231.507C36.1257 232.007 37.7913 232.419 39.4644 232.746C39.0251 233.643 38.2302 234.449 36.8658 234.95C32.0439 236.722 22.6533 235.709 22.6533 235.709C22.6533 235.709 21.1305 237.987 26.4602 241.277C31.79 244.568 37.6272 247.858 37.6272 247.858L22.9072 246.845L16.5621 252.919C16.5621 252.919 34.8355 255.45 37.3736 256.969C39.9113 258.487 40.6727 263.549 40.6727 263.549L13.0091 267.092C13.0091 267.092 3.70683 278.135 0 280L0.00497246 279.997ZM384.364 155.544C383.378 154.603 382.473 153.432 381.524 152.405C381.982 151.419 379.843 152.352 380.447 151.649C381.927 149.927 383.706 148.421 384.891 146.364C388.675 157.288 397.748 168.321 384.364 155.544ZM379.676 160.967C380.175 160.581 380.689 160.235 381.222 159.944C380.894 159.432 380.682 158.857 380.559 158.247C380.739 158.603 380.919 158.959 381.099 159.315C381.501 160.111 381.939 160.947 382.571 161.296C383.204 161.644 384.074 161.244 384.214 160.274L384.349 162.368C385.78 162.559 387.239 162.286 388.592 161.576C387.944 163.977 387.974 166.755 388.675 169.124C385.262 168.056 382.618 163.588 379.676 160.967ZM352.96 184.366C352.914 181.261 355.406 178.725 357.369 179.88C358.061 177.662 358.752 175.445 359.444 173.228C360.07 174.687 360.696 176.147 361.322 177.607C363.325 175.166 365.328 172.726 367.332 170.285C367.688 171.793 368.326 173.156 369.157 174.186C370.572 172.206 371.988 170.226 373.403 168.246C374.806 166.284 376.242 164.295 377.819 162.656C378.018 163.08 378.202 163.521 378.361 163.98C377.821 163.555 377.131 164.29 376.993 165.166C376.854 166.042 377.087 166.943 377.316 167.777C378.159 167.608 378.969 167.109 379.642 166.344C381.329 167.898 379.005 161.964 380.447 163.98C379.343 164.332 379.279 173.924 378.361 174.891C378.807 175.696 377.914 182.744 378.361 183.549C375.345 183.133 376.583 175.308 373.567 174.891C374.587 175.53 375.606 176.169 376.626 176.808C376.444 177.904 376.87 178.921 377.511 179.599C376.093 179.977 374.664 180.259 373.229 180.429C372.418 180.525 371.339 180.296 371.211 179.118C366.276 184.872 358.505 179.967 352.96 184.366ZM309.819 139.083C309.643 139.174 309.464 139.261 309.291 139.357C309.463 139.112 309.639 138.87 309.812 138.626C309.807 138.778 309.81 138.93 309.819 139.083ZM310.426 155.91C309.73 156.138 309.029 156.353 308.321 156.539C305.233 156.789 302.146 157.038 299.059 157.288C300.38 155.472 302.888 154.673 304.981 155.401C306.476 154.713 307.936 153.946 309.357 153.109C309.341 154.201 309.786 155.195 310.426 155.91ZM312.137 140.599C312.564 140.361 312.939 140.036 313.249 139.654C315.301 141.559 317.226 143.76 318.984 146.219C317.966 146.542 316.984 147.097 316.079 147.853C314.245 147.643 312.351 147.997 310.718 148.878C313.121 147.021 313.778 143.184 312.137 140.599ZM315.322 148.982C315.825 149.889 316.328 150.796 316.831 151.702C315.385 151.503 313.939 151.303 312.492 151.104C313.46 150.432 314.404 149.723 315.322 148.982ZM311.326 136.502C311.366 136.447 311.405 136.39 311.445 136.335C311.48 136.432 311.52 136.525 311.554 136.624C311.48 136.565 311.403 136.527 311.326 136.502ZM313.924 128.81C313.499 129.329 313.156 129.915 312.925 130.553C311.655 130.665 310.947 128.834 311.537 127.676C311.807 127.145 312.226 126.743 312.711 126.411C313.115 127.211 313.52 128.011 313.924 128.81ZM324.345 143.003C320.296 141.736 317.121 136.61 313.658 133.322C314.163 132.644 314.675 131.971 315.187 131.298C315.624 132.132 316.113 132.929 316.776 133.294C317.56 133.726 318.639 133.23 318.814 132.028C318.87 132.893 318.925 133.759 318.981 134.624C320.755 134.861 322.565 134.523 324.243 133.642C323.439 136.619 323.477 140.065 324.345 143.003ZM315.297 180.61C315.973 180.116 316.579 179.525 317.09 178.858C317.794 179.485 318.552 179.98 319.345 180.313C320.836 180.939 322.722 181.384 323.202 183.549C320.73 185.914 317.608 183.598 315.297 180.61ZM302.745 185.151C302.842 185.077 302.941 185.007 303.046 184.945C305.485 185.839 307.815 187.04 309.97 188.512C310.195 186.901 310.42 185.289 310.645 183.678C310.721 183.842 310.794 184.008 310.864 184.177C311.545 185.814 311.991 187.861 311.508 189.643C308.587 188.146 305.665 186.648 302.745 185.151ZM307.094 179.998C307.298 179.861 307.49 179.708 307.677 179.548C307.808 179.665 307.938 179.786 308.065 179.911C307.741 179.943 307.418 179.977 307.094 179.998ZM292.173 178.319C292.961 177.055 293.154 175.42 292.681 174C293.717 174.591 294.753 175.182 295.788 175.774C298.252 174.622 300.294 172.551 301.442 170.04C304.116 169.823 306.79 169.607 309.464 169.391C308.741 170.78 309.138 172.678 310.355 173.641C309.9 172.429 311.174 170.954 312.405 171.268C312.67 170.538 312.987 169.828 313.346 169.141C315.936 171.001 318.7 172.025 321.241 170.355C322.556 172.923 323.871 175.492 325.186 178.061C320.791 176.554 316.566 173.975 312.739 170.462C313.283 173.43 314.54 176.078 316.196 177.952C315.467 178.239 314.729 178.502 313.98 178.731C311.725 175.366 309.068 171.694 305.977 172.59C306.914 172.838 307.638 174.243 307.546 175.634C307.52 176.026 307.429 176.4 307.292 176.736C306.468 177.063 305.678 177.482 304.945 177.987C303.279 177.661 301.612 177.335 299.946 177.009C298.993 176.823 297.971 176.643 297.082 177.041C296.122 177.47 295.533 178.477 294.651 179.056C293.77 179.635 292.199 179.392 292.173 178.319ZM216.247 151.096C216.128 150.489 216.008 149.882 215.889 149.276C216.003 149.243 216.115 149.204 216.228 149.164C216.334 149.802 216.343 150.457 216.247 151.096ZM221.658 180.139C223.252 178.761 225.24 179.156 227.089 179.221C228.347 179.264 229.745 179.003 230.782 178.074C231.34 178.054 231.897 178.033 232.454 178.013C232.098 179.551 233.236 181.119 234.66 181.74C234.054 182.313 233.531 183.071 233.158 183.98C232.497 183.388 231.836 182.796 231.176 182.204C231.442 183.096 230.8 184.087 230.142 184.215C229.485 184.343 228.841 183.94 228.193 183.731C225.797 182.961 223.417 184.855 221.303 186.679C219.591 185.652 220.065 181.517 221.658 180.139ZM214.877 171.996C215.353 171.494 215.984 171.502 216.569 171.467C220.065 171.256 223.46 168.651 225.575 164.558C224.504 164.352 223.433 164.145 222.363 163.939C222.885 162.806 223.538 161.808 224.278 160.977C224.217 161.412 224 161.794 223.583 161.996C224.812 162.254 226.166 161.709 226.895 160.663C227.24 161.798 227.585 162.933 227.929 164.067C229.008 163.778 230.086 163.49 231.164 163.201C231.636 164.648 232.108 166.096 232.58 167.543C235.296 165.547 239.037 165.545 242.188 166.687C245.34 167.83 248.04 169.967 250.679 172.069C245.12 172.029 239.567 171.203 234.227 169.622C235.194 170.833 235.756 172.376 235.8 173.94C233.881 173.391 232.004 172.692 230.186 171.857C230.287 171.146 230.351 170.424 230.367 169.697C229.512 169.225 228.686 169.86 227.932 170.741C227.101 170.294 226.285 169.817 225.486 169.311C224.403 169.853 223.32 170.395 222.238 170.938C223.419 171.602 224.519 172.413 225.523 173.333C224.648 173.808 223.726 173.764 223.315 172.62C222.133 176.117 219.205 178.121 216.62 177.203C215.006 176.629 213.529 173.42 214.877 171.996ZM213.866 159.96C214.666 157.584 215.598 155.303 216.651 153.15C216.556 152.667 216.461 152.186 216.366 151.704C217.935 152.015 219.386 152.918 220.365 154.212C219.054 154.746 217.743 155.28 216.432 155.814C217.749 156.507 218.805 157.707 219.341 159.121C220.569 158.624 221.98 158.197 223.172 158.777C223.443 158.909 223.671 159.119 223.851 159.368C220.537 159.904 217.199 160.108 213.866 159.96ZM168.22 206.801C168.189 207.276 168.064 207.724 167.877 208.111C167.671 207.575 167.464 207.039 167.258 206.503C167.586 206.367 167.893 206.193 168.187 205.999C168.225 206.261 168.238 206.532 168.22 206.801ZM170.907 220.318C171.394 219.673 171.883 219.029 172.378 218.39C172.485 219.272 172.461 220.164 172.235 220.999C171.792 220.772 171.35 220.545 170.907 220.318ZM168.63 217.095C169.065 216.24 170.011 215.82 170.886 215.465C170.285 215.103 170.428 214.434 170.705 213.693C171.028 214.247 171.323 214.836 171.582 215.459C171.741 215.84 171.886 216.244 172.011 216.661C170.947 217.17 170.064 218.088 169.655 219.219C168.717 219.301 168.195 217.949 168.63 217.095ZM166.603 209.551C167.392 209.959 168.143 210.525 168.833 211.222C168.677 211.34 168.529 211.463 168.394 211.583C167.627 212.267 166.124 212.647 165.856 211.642C165.768 210.875 166.077 210.101 166.603 209.551ZM119.446 182.715C117.881 182.143 116.552 180.959 115.728 179.484C116.219 178.966 116.716 178.45 117.195 177.915C117.374 179.718 118.162 181.464 119.446 182.715ZM121.093 190.784C118.094 189.094 115.094 187.403 112.094 185.713C112.407 184.418 112.956 183.155 113.614 182.085C113.978 182.365 114.358 182.624 114.713 182.854C117.585 184.72 119.854 187.541 121.093 190.784ZM122.32 196.94C119.08 194.968 115.84 192.996 112.6 191.024C112.606 191.021 112.612 191.017 112.617 191.014C111.924 189.93 111.721 188.579 111.848 187.182C113.269 190.319 116.19 192.746 119.522 193.381C120.543 193.576 121.661 193.645 122.456 194.331C123.25 195.017 123.312 196.626 122.32 196.94ZM83.9764 215.763C83.9288 212.617 86.4547 210.047 88.4442 211.217C89.1451 208.97 89.846 206.723 90.5469 204.476C91.1811 205.955 91.8153 207.435 92.4495 208.914C94.4798 206.441 96.51 203.967 98.5403 201.494C98.9016 203.023 99.5476 204.403 100.39 205.447C101.824 203.441 103.259 201.434 104.693 199.428C106.558 196.82 108.479 194.164 110.705 192.329C111.345 194.705 111.985 197.08 112.626 199.456C115.404 200.203 118.387 201.083 120.154 203.404C120.5 203.859 120.803 204.371 121.106 204.88C120.583 205.27 120.055 205.642 119.522 206.001C118.931 205.662 118.359 205.287 117.817 204.869C115.025 204.515 112.309 203.545 109.906 202.046C110.597 203.799 111.287 205.552 111.977 207.304C110.511 207.101 109.004 207.217 107.584 207.642C108.775 208.336 108.889 210.352 107.785 211.182C107.815 211.179 107.843 211.181 107.872 211.179C106.759 211.438 105.64 211.641 104.516 211.774C103.695 211.872 102.602 211.64 102.472 210.445C97.4705 216.276 89.5951 211.306 83.9764 215.763Z" fill="#798B3E"/>
<path fill-rule="evenodd" clip-rule="evenodd" d="M556.549 151.007C556.549 151.007 558.555 152.011 560.286 152.401C562.011 152.791 563.799 155.067 565.639 156.901C567.479 158.736 569.428 158.071 570.434 157.515C571.435 156.959 571.993 157.4 572.441 156.07C572.884 154.734 573.384 153.788 573.166 152.344C572.941 150.899 571.377 148.45 570.319 146.06C569.262 143.669 568.761 141.834 568.595 139.667C568.428 137.5 569.095 135.832 569.095 135.832C569.095 135.832 569.236 135.359 569.71 136.803C570.178 138.248 570.153 138.971 570.153 138.971C570.197 137.717 570.121 136.784 569.653 135.608C569.653 135.608 570.057 135.902 570.166 136.414L570.281 136.931C570.281 136.931 570.268 135.595 569.986 134.988C569.71 134.374 569.262 131.984 568.204 130.814C567.146 129.65 565.915 129.037 565.832 128.538C565.748 128.033 566.64 126.563 566.723 124.421C566.806 122.28 566.223 120.183 565.999 120.029C565.774 119.876 565.274 120.336 565.024 121.084C564.774 121.839 563.8 124.006 563.075 124.837C562.351 125.674 561.902 126.23 561.902 126.23C561.902 126.23 560.37 125.949 559.53 125.923C558.697 125.898 557.389 125.898 557.389 125.898C557.389 125.898 557.024 123.865 556.524 123.117C556.024 122.363 555.799 120.95 555.799 120.669C555.799 120.394 555.575 119.78 555.075 120.17C554.575 120.56 553.203 122.312 552.927 123.923C552.645 125.534 552.87 127.982 553.152 128.481C553.427 128.979 553.652 129.983 553.652 129.983C553.652 129.983 546.517 132.374 540.215 136.26C533.919 140.154 523.88 149.103 520.2 151.104C516.52 153.105 510.276 156.998 506.154 157.554C502.025 158.11 485.299 156.001 474.6 154.997C463.894 154 451.2 158.111 445.943 161.115C440.68 164.113 439.366 172.34 440.257 182.568C441.148 192.803 441.815 208.918 441.815 208.918V212.147L442.43 208.087L442.879 213.31C442.879 213.31 443.155 211.424 443.379 210.031C443.603 208.643 443.937 210.421 443.937 211.034C443.937 211.647 443.212 223.819 442.764 228.045C442.321 232.27 440.199 234.827 440.424 236.048C440.648 237.276 441.873 240.389 442.321 241.719C442.764 243.055 442.206 245.503 442.43 246.833C442.655 248.169 443.212 249.505 443.212 249.505C443.212 249.505 449.508 249.729 450.348 249C451.181 248.278 449.79 247.165 449.341 246.443C448.899 245.721 446.386 240.83 446.501 237.998C446.61 235.16 447.834 223.654 449.065 221.32C450.29 218.981 451.405 217.203 451.405 217.203C451.405 217.203 452.854 219.096 452.854 221.876C452.854 224.657 452.63 236.886 452.969 238.107C453.303 239.328 455.867 240.555 456.758 241.885C457.649 243.221 457.592 245.388 457.816 245.945C458.04 246.501 459.156 246.833 459.156 246.833C459.156 246.833 458.989 247.447 459.547 247.504C460.104 247.555 465.567 247.555 466.124 247.338C466.682 247.115 465.4 245.612 464.9 244.832C464.393 244.053 462.053 241.163 460.547 239.328C459.04 237.494 457.925 224.152 458.707 220.707C459.489 217.261 460.938 213.483 461.605 210.926C462.278 208.363 469.08 194.466 470.08 192.58C471.086 190.687 472.426 190.687 474.433 189.799C476.439 188.911 476.1 187.798 477.773 187.907C479.446 188.022 493.165 194.248 501.858 195.245C510.558 196.249 520.815 196.358 520.815 196.358C520.815 196.358 518.693 214.206 519.366 216.207C520.033 218.208 519.591 224.543 519.142 226.767C518.693 228.992 516.911 231.881 516.911 234.438C516.911 236.995 518.475 236.887 518.809 239.661C519.142 242.442 518.026 243.331 518.475 244.666C518.918 246.003 519.142 246.226 521.04 246.335C522.931 246.443 527.393 246.002 527.393 246.002C527.393 246.002 527.284 244.225 525.835 243.445C524.38 242.665 522.155 237.443 522.04 236.215C521.931 234.994 522.155 228.876 522.713 227.547C523.271 226.211 525.162 220.317 525.611 218.648C526.053 216.98 526.168 216.091 526.168 216.091C526.168 216.091 527.95 220.54 527.726 222.209C527.502 223.877 527.393 236.995 527.841 238.107C528.284 239.22 531.182 241.329 531.406 242.333C531.63 243.33 530.848 245.778 531.521 246.782C532.188 247.779 532.521 248.227 534.303 248.444C536.092 248.668 539.099 248.444 539.099 248.444C539.099 248.444 540.214 248.227 539.099 246.111C537.983 244.001 533.861 239.328 533.303 236.662C532.746 233.99 532.412 217.76 534.419 208.42C536.425 199.08 537.317 193.743 537.317 193.743C537.317 193.743 539.772 189.517 541.105 185.074C542.445 180.625 543.227 173.178 543.227 173.178C543.227 173.178 552.311 157.331 553.427 154.665C554.542 151.993 555.6 150.829 556.549 151.008L556.549 151.007Z" fill="#798B3E"/>
</svg>
