<svg width="1679" height="343" viewBox="0 0 1679 343" fill="none" xmlns="http://www.w3.org/2000/svg">
<path fill-rule="evenodd" clip-rule="evenodd" d="M1671.59 113.305C1669.87 113.278 1669.45 115.165 1667.22 114.385C1666.56 112.472 1665.45 111.232 1665.03 108.982C1662.08 111.09 1659.9 106.856 1656.28 106.82C1655.01 111.134 1653.18 107.927 1651.18 111.143C1650.22 110.762 1650.03 109.238 1648.99 108.982C1646.14 114.128 1640.64 115.333 1638.78 121.959C1636.26 121.171 1634.9 118.646 1632.22 120.879C1631.59 119.293 1631.13 117.45 1629.3 117.636C1625.79 123.244 1623.5 130.667 1617.64 132.784C1613.59 129.781 1611.45 123.952 1605.25 124.13C1603.81 119.762 1599.28 119.993 1596.5 117.636C1594.75 116.981 1591.21 118.992 1590.66 116.556C1588.37 116.042 1588.74 119.47 1587.02 119.798C1585.27 117.087 1585.09 118.779 1581.91 118.717C1579.07 121.357 1577.42 125.76 1575.35 129.542C1572.98 130.162 1571.96 128.807 1570.25 128.461C1569.32 131.048 1567.87 132.864 1565.14 132.784C1564.41 134.219 1564.46 136.806 1562.96 137.107C1559.09 138.587 1558.5 144.912 1554.21 145.771C1554.66 150.395 1551.84 150.182 1552.02 154.426C1550.58 154.443 1551.1 157.376 1549.11 156.587C1547.89 163.798 1543.34 166.066 1542.54 173.897C1539.96 176.545 1538.22 180.461 1535.25 182.551C1529.31 182.737 1528.11 189.984 1523.59 192.296C1521.76 189.231 1517.73 189.452 1515.56 186.892C1512.93 193.199 1507.48 189.098 1500.99 190.134C1497.23 195.387 1491.11 197.124 1486.4 200.951C1479.98 199.312 1476.23 193.695 1468.17 194.466C1463.28 187.663 1456.69 183.375 1446.3 184.722C1444.7 182.401 1441.99 181.754 1440.47 179.318C1436.34 180.762 1432.44 178.893 1427.35 180.399C1428.35 167.235 1425.34 154.523 1427.24 143.211C1426.41 149.022 1429.87 144.061 1429.54 147.95C1432.16 146.426 1433.47 142.963 1435.37 140.376C1436.66 142.396 1437.5 139.907 1439.02 139.295C1437.88 143.149 1441.49 139.951 1441.2 142.538C1442.65 142.555 1442.13 145.496 1444.12 144.699C1443.98 141.953 1440.29 138.941 1441.93 137.134C1442.66 138.569 1442.62 141.165 1444.12 141.457C1444.43 139.198 1443.62 138.596 1443.39 137.134C1445.6 137.098 1444.09 142.573 1446.3 142.538C1447.18 137.869 1443.92 136.478 1445.57 133.883C1447.05 135.229 1451.58 137.586 1449.22 132.802C1451.32 133.289 1450.94 137.453 1452.86 138.206C1453.06 135.655 1454.81 139.455 1455.78 139.287C1456.3 135.982 1454.52 136.106 1455.05 132.802C1456.51 133.165 1457.33 132.581 1457.24 130.641C1454.8 131.721 1454.85 129.135 1455.05 126.318C1453.69 125.281 1452.61 129.551 1452.13 126.318C1454.92 124.537 1451.32 120.781 1455.05 123.075C1455.45 120.675 1453.66 121.525 1453.59 119.824C1456.2 120.338 1457.8 121.587 1460.15 119.824C1460.79 114.793 1457.76 120.56 1457.97 117.663C1459.05 114.722 1460.79 112.764 1463.07 114.421C1462.82 112.25 1463.21 111.037 1464.53 111.179C1462.88 113.925 1467.41 114.084 1468.17 116.582C1469.72 112.995 1470.28 119.833 1472.54 118.744C1473.33 115.989 1469.4 114.952 1471.81 113.34C1471.93 115.342 1474.28 114.004 1474.73 115.501C1474.89 117.424 1473.99 120.914 1476.19 119.824C1477.78 117.565 1475.82 116.742 1476.19 113.331C1480.4 114.678 1476.36 109.735 1478.37 109.008C1479.34 110.806 1478.11 115.891 1480.56 115.501C1482.34 114.066 1479.76 111.48 1481.29 111.179C1481.6 114.173 1483.58 111.232 1482.75 109.017C1483.99 108.831 1485.61 115.147 1485.66 110.098C1485.68 109.044 1486.55 109.256 1487.11 109.017C1487.66 105.314 1484.16 107.644 1484.93 103.613C1487.78 105.314 1486.44 100.805 1487.84 100.362C1489.95 102.285 1493.43 102.178 1495.86 103.613C1496.19 99.5207 1492.06 102.045 1491.5 99.2815C1488.02 100.123 1486.8 97.5984 1483.47 98.2008C1484.11 94.7283 1481.07 96.7214 1481.29 93.8778C1477.62 94.8257 1476.4 93.5944 1471.81 93.8778C1471.51 91.0697 1469.63 90.6179 1469.62 87.3934C1472.33 89.2183 1471.05 87.1631 1472.54 85.232C1474.71 83.6817 1475.02 86.1178 1476.91 84.1512C1475.86 85.7369 1476.35 87.5795 1478.36 87.3934C1480.24 84.7093 1477.87 83.5311 1476.91 81.9809C1478.63 81.2633 1481.53 86.543 1481.28 81.9809C1478.48 74.6726 1471.71 87.8984 1470.34 79.8194C1470.99 80.6698 1471.99 80.9888 1473.26 80.9002C1474.16 77.4011 1470.9 80.0763 1471.8 76.5772C1475.85 79.1639 1471.83 74.1589 1474.72 73.335C1476.89 72.0417 1477.19 73.0427 1479.09 74.4157C1479.44 71.0052 1476.85 71.9708 1477.63 67.9313C1476.17 68.2945 1475.35 67.7099 1475.45 65.7699C1476.09 66.6114 1477.09 66.9303 1478.36 66.8506C1478.11 63.2452 1475.38 63.3338 1475.45 59.2766C1476.4 60.3839 1478.13 60.3396 1479.09 61.4469C1479.18 56.619 1474.62 58.6919 1473.99 54.9536C1473.82 57.744 1472.73 53.4743 1471.07 54.9536C1471.26 51.4279 1468.24 52.6593 1468.16 49.5499C1464.04 51.3394 1463.01 51.6937 1459.41 52.7922C1459.7 50.1966 1456.08 53.3857 1457.22 49.5499C1460.85 51.8266 1458.03 48.8324 1457.95 45.227C1460.25 44.0134 1459.6 45.1207 1462.32 45.227C1462.77 41.7456 1459.7 43.7387 1461.59 40.904C1463.8 44.3234 1465.32 42.7998 1468.16 44.1462C1469.08 40.842 1465.66 38.6363 1467.43 37.653C1467.66 39.5044 1469.69 36.6608 1470.34 39.8233C1471.5 40.6206 1470.18 45.1207 1472.53 44.1462C1473.6 40.2928 1470.18 37.6618 1471.8 36.5722C1473.1 34.5614 1473.65 37.4581 1476.18 36.5722C1475.97 39.3981 1476.44 41.2229 1478.36 40.904C1476.85 36.4393 1477.87 34.1893 1476.18 31.1597C1479.25 31.3457 1476.16 29.4943 1476.18 27.9175C1477.96 28.5198 1477.73 32.1075 1480.55 31.1597C1480.97 26.1458 1476.14 29.6892 1478.36 24.6753C1475.57 22.9479 1475.54 25.8712 1474.72 24.6753C1474.81 20.0246 1477.83 26.4913 1477.63 21.4331C1477.43 17.6328 1474.4 23.3908 1474.72 20.3523C1477.61 17.243 1478.63 19.3602 1482.74 19.2716C1481.63 14.7538 1478.82 17.7125 1476.91 16.0205H1473.27C1471.65 15.179 1470.42 13.7527 1468.16 13.859C1464.99 14.0008 1464.43 16.9595 1460.14 14.9398C1458.84 17.8542 1463.36 17.0304 1460.87 18.182C1458.86 21.1407 1460.19 16.5963 1458.68 16.0205C1457.58 18.0048 1455.54 18.5718 1454.31 20.3523C1453.31 22.815 1456.19 24.4184 1454.31 24.6753C1450.53 25.1802 1447.18 27.1291 1443.38 30.0789C1443.85 28.9805 1445.05 28.9628 1444.83 26.8368C1443.22 27.4303 1443.79 24.7727 1442.65 24.6753C1441.93 25.7826 1441.21 26.8633 1440.46 27.9175C1438.5 25.1536 1433.01 25.2245 1435.36 19.2627C1434.12 19.7057 1431.48 21.5659 1428.8 22.5049C1425.56 23.6388 1425.56 23.8248 1425.15 20.3435C1424.62 21.3445 1423.82 21.9823 1422.96 22.5049C1422.76 20.7598 1423.66 20.6358 1423.69 19.2627C1418.55 20.6269 1418.25 19.245 1413.49 17.0924C1413.99 16.2242 1414.62 14.1337 1413.49 13.8502C1413.82 15.613 1409.52 15.613 1409.84 13.8502C1411.62 11.8216 1408.42 9.92585 1412.03 11.6887C1412.56 8.73881 1410.59 9.50951 1410.57 7.36575C1412.77 8.07443 1413.12 11.5293 1416.41 10.608C1417.54 6.76339 1413.93 9.96129 1414.23 7.36575C1415.46 7.76439 1415.59 6.51534 1415.68 5.20429C1414.09 4.51332 1413.36 8.26931 1413.5 4.12353C1411.84 2.63531 1410.75 6.91396 1410.58 4.12353C1411.23 3.63632 1411.88 3.17568 1412.04 1.96207C1408.81 3.02508 1410.13 2.1304 1407.66 0.881348C1404.98 2.29871 1402.02 3.31743 1398.18 3.04282C1397.66 4.53104 1392.49 4.55761 1395.27 7.36575C1396.2 7.02027 1397.65 5.54977 1400.38 5.20429C1399.48 11.2989 1402.94 4.76135 1403.29 9.52722C1401.43 9.48293 1402.4 10.3333 1402.57 11.6887C1401.02 13.3629 1399.31 14.8069 1397.46 16.0117C1394.28 12.92 1391.57 15.5599 1387.99 12.7694C1388.25 14.612 1387.41 14.8069 1386.53 14.9309C1383.08 14.5057 1380.44 15.2764 1377.78 16.0117C1377.14 21.0522 1380.18 15.2853 1379.96 18.1731C1379.09 19.5994 1379.68 19.874 1379.96 21.4242C1375.14 25.632 1367.13 19.245 1365.38 26.8279C1367.61 28.1921 1369.09 23.125 1369.76 25.7471C1368.86 26.2166 1368.26 27.1291 1368.3 28.9894C1371.61 31.9481 1370.24 25.1713 1373.4 27.9086C1372.54 30.2295 1370.24 30.4333 1369.03 32.2316C1369.47 34.1007 1372.48 32.1519 1372.67 34.3931C1371.21 34.0299 1370.39 34.6145 1370.48 36.5545C1371.86 39.9562 1374.28 33.9413 1374.86 36.5545C1373.79 37.5112 1372.03 37.4226 1372.67 40.8863C1373.27 44.4209 1375.23 35.5358 1376.31 39.8056C1374.75 40.0979 1372.81 45.3067 1374.13 46.29C1375.63 44.5449 1375.53 40.4434 1378.5 40.8863C1378.39 38.1933 1378.36 35.6332 1379.95 35.4738C1379.87 40.0005 1384.22 37.1569 1384.33 38.716C1382.35 39.717 1385.35 42.0999 1384.33 45.2093C1387.06 42.8706 1387 46.5823 1389.43 47.3707C1390 43.5173 1392.09 41.9582 1393.8 39.8056C1391.47 45.0675 1397.02 44.0311 1397.44 45.2093C1397.28 46.7683 1395.27 45.5813 1395.26 47.3707C1395.7 48.8678 1398.06 47.5391 1398.17 49.5322C1397.2 50.613 1396.74 52.4555 1395.26 52.7744C1395.39 48.6286 1394.66 52.3847 1393.07 51.6937C1392.92 53.5451 1394.32 54.493 1393.07 54.9359C1392.54 53.9349 1391.75 53.2971 1390.89 52.7744C1393.18 59.1348 1384.4 55.3079 1383.59 60.3484C1385.39 61.1988 1388.64 56.4241 1388.69 61.438C1388.91 64.3259 1385.87 58.559 1386.51 63.5995C1388.45 66.4874 1389.97 63.254 1391.61 62.5188C1390.77 65.9204 1392.75 65.1409 1393.07 66.8417C1391.09 67.515 1391.25 71.3595 1388.69 71.1647C1382.69 71.5544 1379.09 65.7521 1377.03 73.3261C1380.28 74.9295 1380.8 72.5555 1384.32 72.2454C1385.02 75.3547 1386.74 72.9541 1387.24 74.4069C1385.72 75.0093 1385.69 76.0989 1386.51 77.6491C1385.02 78.6855 1383.62 79.8637 1382.14 80.8913C1381.12 77.6402 1377.74 79.9346 1375.57 80.8913C1374.93 85.9318 1377.98 80.1649 1377.76 83.0616C1375.85 85.6572 1373.13 84.5764 1370.46 83.0616C1370.31 84.9042 1371.71 85.8609 1370.46 86.3038C1365.41 86.1178 1362.02 80.9533 1360.26 88.4653C1362.07 88.6336 1362.51 86.7645 1363.9 86.3038C1363.58 88.8108 1360.69 89.1917 1362.44 91.7075C1364.41 92.0264 1366.61 87.1897 1368.28 90.6268C1368.19 95.2687 1365.17 88.8108 1365.36 93.869C1367.19 95.2509 1367.65 93.3198 1368.28 94.9497C1364.99 95.747 1367.62 99.0246 1366.09 101.434C1361.58 102.391 1356.8 99.2992 1356.61 104.685C1359.85 104.101 1360.47 102.852 1362.45 102.524C1361.59 107.059 1365.53 104.455 1366.09 106.847C1363.09 108.158 1363.14 114.004 1359.53 114.412C1359.13 116.812 1360.92 115.953 1360.99 117.654C1359.48 116.715 1357.71 120.462 1359.53 120.896C1361.49 119.479 1362.14 116.13 1363.9 114.412C1363.33 115.369 1363.12 116.848 1363.17 118.735C1365.66 118.292 1364.1 115.82 1366.82 117.654C1368.2 115.634 1368.65 117.539 1370.46 117.654C1370.76 120.267 1369.12 120.01 1369.73 123.067C1371.81 122.544 1371.83 118.956 1372.64 116.573C1372.24 115.563 1370.62 114.934 1371.92 114.412C1373.81 116.254 1375.64 116.937 1373.37 119.816C1376.8 121.251 1376.49 111.533 1378.48 114.412C1377.83 114.89 1377.17 115.36 1377.02 116.573C1380.13 117.592 1378.99 112.295 1381.39 112.25C1381.86 114.616 1379.32 115.696 1382.12 115.493C1383.71 115.696 1384.14 113.083 1384.31 111.17C1388.56 113.296 1397.83 108.326 1401.81 110.089C1402.09 112.684 1398.48 109.495 1399.62 113.331H1402.54C1401.91 116.06 1397.9 119.373 1399.62 121.986C1401.08 118.744 1402.36 115.227 1404.72 113.331C1404.25 115.971 1403.25 118.894 1406.18 118.735C1406.19 112.906 1406.11 115.634 1408.36 116.573C1409.06 114.554 1406.18 112.959 1408.36 112.25C1408.85 115.856 1412.08 115.395 1412.74 118.735C1412.84 122.916 1415.2 123.731 1414.92 128.479C1413.61 128.621 1413.38 127.159 1412.01 127.398C1411.93 130.18 1409.29 129.135 1408.36 130.641C1404.87 129.657 1403.26 134.689 1399.61 131.721C1401.42 131.881 1403.15 131.916 1403.26 129.56C1397.47 131.092 1391.65 132.634 1387.22 128.479C1388.4 134.556 1383.77 132.014 1383.57 136.053C1385.9 136.974 1385.82 134.352 1387.22 133.892C1388.17 138.782 1390.99 134.574 1392.32 139.295C1390.19 138.33 1390.08 138.33 1387.95 139.295C1388.87 142.821 1389 141.59 1389.4 144.699C1388.73 145.86 1386.71 145.036 1387.22 147.95C1390.17 149.447 1389.53 145.594 1391.59 145.789C1392.04 147.286 1394.4 145.948 1394.51 147.95C1396.33 149.376 1396.79 143.671 1397.42 146.869C1397.11 148.561 1395.12 147.791 1395.97 151.192C1398.21 151.998 1397.37 148.216 1399.61 149.031C1398.66 147.596 1398.65 145 1400.34 144.699C1401.11 145.709 1400.56 148.694 1402.52 147.95C1404.52 146.807 1405.63 146.807 1407.62 147.95C1407.59 145.186 1408.17 146.63 1409.08 146.869C1409.87 146.604 1409.58 144.717 1410.54 144.699C1410.42 147.755 1412.6 147.419 1413.45 149.031C1414.11 146.763 1415.6 145.727 1417.82 145.789C1416.55 149.616 1418.31 148.446 1418.55 152.273V181.48C1410.32 182.055 1407.82 184.491 1399.59 184.722C1391.43 188.478 1386.04 196.344 1376.27 197.708C1370.76 202.891 1365.25 208.046 1358.04 210.695C1356.64 215.115 1353.1 216.347 1350.02 218.26C1348.26 218.703 1348.43 216.285 1346.37 217.179C1344.62 219.979 1341.47 220.723 1337.62 220.422C1336.25 221.626 1335.06 223.123 1333.25 223.664C1331.64 223.699 1330.01 223.726 1328.39 223.752C1325.5 222.583 1322.33 221.609 1318.39 221.174C1318.34 219.022 1313.94 219.89 1315.1 216.914C1305.17 219.669 1300.04 211.935 1290.67 210.916C1283.19 212.573 1274.35 213.352 1269.59 216.754C1260.16 216.515 1254.81 215.93 1246.8 212.892C1239.03 215.904 1234.56 210.916 1228.92 213.255C1228.26 209.72 1224.12 208.587 1222.35 205.814C1219.22 203.98 1212.33 204.742 1212.55 200.596C1204.92 200.419 1201.19 197.558 1193.02 197.753C1192.79 194.998 1190.62 193.607 1186.48 193.554C1177.01 194.661 1160.78 201.119 1153.99 194.209C1150.16 194.262 1149.22 196.176 1144.25 195.485C1142.77 193.598 1140.29 192.402 1139.32 190.17C1132.76 192.42 1127.87 188.274 1119.8 188.407C1117.03 192.783 1112.92 189.665 1108.47 192.969C1106.33 192.624 1105.9 191.109 1103.58 190.905C1097.27 196.185 1085.01 197.637 1080.94 204.352C1075.3 203.67 1072.26 201.207 1066.31 203.564C1064.88 202.005 1063.84 200.18 1059.78 200.446C1052 206.204 1046.96 213.733 1033.92 216.116C1024.85 213.308 1020.02 207.568 1006.21 208.028C1002.97 203.732 992.885 204.157 986.651 201.934C982.76 201.358 974.877 203.537 973.639 201.119C968.535 200.702 969.372 204.113 965.547 204.529C964.405 203.768 963.562 203.369 962.773 203.201V343H1680V115.785C1676.7 117.061 1673.38 117.539 1671.57 113.34L1671.59 113.305ZM1485.66 100.318C1486.03 100.885 1485.13 101.7 1484.93 101.399C1484.56 100.849 1485.46 100.026 1485.66 100.318ZM1484.2 101.399C1484.18 102.453 1483.31 102.249 1482.75 102.488C1482.76 101.434 1483.64 101.647 1484.2 101.399ZM1481.29 106.811C1481.66 107.36 1480.76 108.184 1480.56 107.892C1480.18 107.325 1481.08 106.51 1481.29 106.811ZM1476.91 107.892C1477.29 108.441 1476.39 109.265 1476.19 108.973C1475.81 108.415 1476.71 107.591 1476.91 107.892ZM1472.54 103.569C1472.91 104.118 1472.01 104.942 1471.81 104.65C1471.43 104.083 1472.33 103.268 1472.54 103.569ZM1475.45 71.1115C1474.38 70.1725 1473.14 69.4904 1473.27 66.7886C1473.82 68.4805 1475.58 68.4097 1475.45 71.1115ZM1474.72 62.4568C1474.7 63.5021 1473.83 63.2983 1473.27 63.5375C1473.28 62.4833 1474.16 62.6959 1474.72 62.4568ZM1473.27 57.0442C1473.64 57.6023 1472.73 58.4261 1472.54 58.1249C1472.16 57.5757 1473.06 56.7519 1473.27 57.0442ZM1471.81 65.7078C1472.18 66.2571 1471.28 67.0809 1471.08 66.7886C1470.7 66.2216 1471.6 65.4067 1471.81 65.7078ZM1471.81 67.8693C1472.18 68.4274 1471.28 69.2512 1471.08 68.95C1470.7 68.3831 1471.6 67.5681 1471.81 67.8693ZM1470.35 108.973C1470.73 109.54 1469.82 110.355 1469.62 110.053C1469.25 109.487 1470.15 108.672 1470.35 108.973ZM1469.62 68.95C1470 69.517 1469.09 70.3231 1468.89 70.0308C1468.52 69.4638 1469.42 68.6488 1469.62 68.95ZM1468.89 52.7213C1468.87 53.7754 1468 53.5628 1467.43 53.802C1467.46 52.7567 1468.32 52.9604 1468.89 52.7213ZM1468.89 93.8247C1468.87 94.8789 1468 94.6663 1467.43 94.9054C1467.46 93.8601 1468.32 94.0639 1468.89 93.8247ZM1465.97 87.3403C1466.35 87.8984 1465.44 88.7134 1465.24 88.421C1464.87 87.8629 1465.77 87.0391 1465.97 87.3403ZM1465.97 99.2373C1466.35 99.8042 1465.44 100.619 1465.24 100.318C1464.87 99.7688 1465.77 98.9449 1465.97 99.2373ZM1464.52 89.5017C1464.89 90.0687 1463.98 90.8837 1463.79 90.5825C1463.41 90.0156 1464.31 89.2006 1464.52 89.5017ZM1464.52 103.569C1464.89 104.118 1463.98 104.942 1463.79 104.65C1463.41 104.083 1464.31 103.268 1464.52 103.569ZM1460.87 68.95C1461.25 69.517 1460.34 70.3231 1460.14 70.0308C1459.77 69.4638 1460.67 68.6488 1460.87 68.95ZM1459.41 66.7886C1459.79 67.3466 1458.89 68.1616 1458.68 67.8693C1458.31 67.3024 1459.21 66.4874 1459.41 66.7886ZM1475.45 28.9185C1475.82 29.4854 1474.92 30.3004 1474.72 29.9992C1474.35 29.4323 1475.25 28.6173 1475.45 28.9185ZM1474.72 33.2503C1475.79 36.4128 1474.78 34.898 1473.99 32.1695C1473.34 29.9195 1474.15 31.5583 1474.72 33.2503ZM1472.54 20.2726C1472.91 20.8218 1472.01 21.6457 1471.81 21.3533C1471.43 20.7953 1472.33 19.9714 1472.54 20.2726ZM1468.89 32.1607C1469.79 32.639 1470.39 33.5426 1470.35 35.4029C1468.8 35.9167 1468.96 33.8615 1468.89 32.1607ZM1469.62 20.2726H1468.16C1468.29 19.3513 1467.88 19.2539 1467.43 19.1918C1467.15 17.0924 1470.76 17.6062 1469.62 20.2726ZM1465.97 32.1607C1466.35 32.7276 1465.44 33.5426 1465.24 33.2414C1464.87 32.6922 1465.77 31.8684 1465.97 32.1607ZM1464.52 20.2726C1464.89 20.8218 1463.98 21.6457 1463.79 21.3533C1463.41 20.7953 1464.31 19.9714 1464.52 20.2726ZM1461.6 33.2503C1461.98 33.8172 1461.07 34.6322 1460.87 34.331C1460.49 33.7818 1461.4 32.958 1461.6 33.2503ZM1460.87 23.5148C1461.25 24.064 1460.34 24.8879 1460.14 24.5955C1459.77 24.0286 1460.67 23.2136 1460.87 23.5148ZM1460.87 38.654C1461.25 39.2121 1460.34 40.0359 1460.14 39.7436C1459.77 39.1766 1460.67 38.3617 1460.87 38.654ZM1457.96 41.9051C1458.09 40.6737 1458.69 41.3027 1458.68 41.9051C1458.55 43.1364 1457.95 42.4986 1457.96 41.9051ZM1458.68 31.08C1459.06 31.6469 1458.16 32.4619 1457.96 32.1607C1457.58 31.6026 1458.48 30.7788 1458.68 31.08ZM1374.83 25.6763C1374.46 25.1182 1375.36 24.2943 1375.56 24.5955C1375.94 25.1536 1375.03 25.9686 1374.83 25.6763ZM1381.39 20.2726C1380.1 19.4753 1381.29 18.2971 1381.39 17.0215C1382.7 17.8188 1381.5 18.997 1381.39 20.2726ZM1383.58 26.757C1383.21 26.1901 1384.11 25.3751 1384.31 25.6763C1384.69 26.2255 1383.79 27.0493 1383.58 26.757ZM1386.51 41.9051C1386.64 40.6737 1387.23 41.3027 1387.23 41.9051C1387.1 43.1364 1386.5 42.4986 1386.51 41.9051ZM1388.69 42.9858C1388.32 42.4277 1389.22 41.6039 1389.42 41.9051C1389.79 42.4543 1388.89 43.2781 1388.69 42.9858ZM1391.6 21.3533C1391.23 20.7953 1392.13 19.9714 1392.33 20.2726C1392.71 20.8218 1391.81 21.6457 1391.6 21.3533ZM1394.52 21.3533C1394.14 20.7953 1395.05 19.9714 1395.25 20.2726C1395.62 20.8218 1394.72 21.6457 1394.52 21.3533ZM1395.25 39.7436C1396.14 40.2131 1396.74 41.1255 1396.71 42.9858C1395.81 42.5074 1395.21 41.6038 1395.25 39.7436ZM1396.71 18.1023C1396.34 17.553 1397.24 16.7292 1397.44 17.0215C1397.81 17.5885 1396.91 18.4035 1396.71 18.1023ZM1379.21 72.1923C1378.84 71.6253 1379.74 70.8103 1379.94 71.1115C1380.31 71.6784 1379.41 72.4934 1379.21 72.1923ZM1363.89 89.5017C1363.52 88.9348 1364.43 88.1198 1364.62 88.421C1365 88.9703 1364.1 89.7941 1363.89 89.5017ZM1363.89 103.569C1363.52 103.002 1364.43 102.187 1364.62 102.488C1365 103.038 1364.1 103.861 1363.89 103.569ZM1366.09 115.466C1364.37 115.165 1366.92 112.578 1366.82 111.143C1369.05 112.206 1365.97 114.022 1366.09 115.466ZM1366.82 105.731C1366.44 105.172 1367.34 104.349 1367.55 104.65C1367.92 105.199 1367.01 106.023 1366.82 105.731ZM1372.64 95.995C1373.02 96.562 1372.12 97.3769 1371.92 97.0758C1371.55 96.5265 1372.45 95.7027 1372.64 95.995ZM1368.28 99.2373C1367.9 98.688 1368.8 97.8642 1369 98.1565C1369.38 98.7146 1368.47 99.5384 1368.28 99.2373ZM1369 92.744C1369.18 91.3886 1370.45 91.6544 1370.46 92.744C1370.13 94.3208 1369.82 92.6288 1369 92.744ZM1369.73 113.305C1369.36 112.746 1370.26 111.923 1370.46 112.224C1370.83 112.782 1369.93 113.606 1369.73 113.305ZM1374.1 103.569C1373.17 102.063 1370.66 102.905 1369.73 101.399C1370.36 99.8131 1370.83 97.9705 1372.64 98.1565C1372.32 99.1221 1372.01 100.097 1371.19 100.318C1372.16 103.073 1375.96 101 1374.83 97.0758C1378.47 99.2727 1373.79 100.07 1374.1 103.569ZM1376.3 103.569C1376.43 102.338 1377.03 102.967 1377.03 103.569C1376.89 104.8 1376.29 104.163 1376.3 103.569ZM1388.69 78.6767C1388.67 79.7308 1387.8 79.5182 1387.23 79.7574C1387.25 78.7121 1388.12 78.9158 1388.69 78.6767ZM1379.21 107.892C1379.23 106.838 1380.1 107.05 1380.67 106.811C1380.65 107.857 1379.78 107.653 1379.21 107.892ZM1378.48 81.9277C1379.21 78.5969 1379.69 84.2841 1380.67 84.0981C1379.42 88.1907 1379.47 81.7417 1378.48 81.9277ZM1381.39 84.0981C1381.02 83.5311 1381.93 82.7161 1382.12 83.0173C1382.5 83.5666 1381.6 84.3904 1381.39 84.0981ZM1382.12 106.811C1382.3 105.447 1383.58 105.722 1383.58 106.811C1382.94 107.476 1382.28 108.122 1382.12 106.811ZM1382.85 83.0173C1382.48 82.4504 1383.38 81.6354 1383.58 81.9277C1383.96 82.4947 1383.05 83.3097 1382.85 83.0173ZM1384.31 105.731C1383.94 105.172 1384.84 104.349 1385.04 104.65C1385.41 105.199 1384.51 106.023 1384.31 105.731ZM1386.51 106.811C1387.28 105.801 1386.73 102.816 1388.69 103.569C1388.36 104.526 1388.05 105.5 1387.23 105.731C1387.25 106.776 1388.12 106.572 1388.69 106.811C1390.95 108.193 1386.62 108.193 1386.51 106.811ZM1388.69 75.4345C1388.32 74.8852 1389.22 74.0525 1389.42 74.3537C1389.79 74.9207 1388.89 75.7357 1388.69 75.4345ZM1392.33 74.3537C1392.35 73.3084 1393.22 73.5122 1393.79 73.273C1393.77 74.3272 1392.9 74.1145 1392.33 74.3537ZM1392.33 71.1115C1392.72 70.2345 1393.09 69.3575 1393.06 67.8693C1393.86 68.1351 1393.56 70.0131 1394.52 70.0308C1394.65 70.9432 1394.23 71.0495 1393.79 71.1115H1392.33ZM1394.52 106.811C1394.14 106.244 1395.05 105.429 1395.25 105.731C1395.62 106.28 1394.72 107.104 1394.52 106.811ZM1402.54 52.7213C1402.92 51.0559 1403.3 52.6504 1403.27 53.802C1402.89 55.4763 1402.51 53.8729 1402.54 52.7213ZM1400.35 48.3983C1401.11 47.2822 1401.48 48.8856 1401.08 49.4791C1400.33 50.5952 1399.95 48.9918 1400.35 48.3983ZM1400.35 55.9635C1399.97 55.4143 1400.88 54.5904 1401.08 54.8828C1401.46 55.4408 1400.56 56.2647 1400.35 55.9635ZM1399.62 52.7213C1400 53.2793 1399.1 54.1032 1398.9 53.802C1398.52 53.2528 1399.43 52.4201 1399.62 52.7213ZM1398.9 50.5598C1399.27 51.1267 1398.37 51.9417 1398.17 51.6405C1397.8 51.0736 1398.7 50.2586 1398.9 50.5598ZM1398.17 68.95C1398.11 68.6488 1398.26 68.1439 1398.17 67.8693C1397.61 66.2216 1398.63 67.0632 1398.9 67.8693C1399.39 69.3221 1398.41 70.2877 1398.17 68.95ZM1399.62 106.811C1398.87 107.927 1398.49 106.324 1398.9 105.731C1399.65 104.605 1400.02 106.218 1399.62 106.811ZM1399.62 75.4345C1399.25 74.8852 1400.15 74.0525 1400.35 74.3537C1400.73 74.9207 1399.83 75.7357 1399.62 75.4345ZM1400.35 73.273C1399.97 72.7238 1400.88 71.8911 1401.08 72.1923C1401.46 72.7592 1400.56 73.5742 1400.35 73.273ZM1401.08 66.7886C1400.71 66.2216 1401.61 65.4067 1401.81 65.7078C1402.19 66.2571 1401.29 67.0809 1401.08 66.7886ZM1402.54 99.2373C1402.16 98.688 1403.07 97.8642 1403.27 98.1565C1403.64 98.7146 1402.74 99.5384 1402.54 99.2373ZM1402.54 60.2864C1402.16 59.7372 1403.07 58.9134 1403.27 59.2057C1403.64 59.7726 1402.74 60.5876 1402.54 60.2864ZM1406.18 8.36676C1405.81 7.79981 1406.71 6.98485 1406.91 7.28604C1407.29 7.84412 1406.38 8.66794 1406.18 8.36676ZM1406.18 4.04382C1407.33 0.0840691 1407.27 6.55079 1409.1 5.12457C1408.38 8.43765 1407.16 3.87551 1406.18 4.04382ZM1408.37 9.44751C1408 8.88056 1408.91 8.06557 1409.1 8.36676C1409.48 8.9337 1408.58 9.7487 1408.37 9.44751ZM1390.15 134.937C1389.77 134.37 1390.68 133.555 1390.87 133.856C1391.25 134.423 1390.35 135.238 1390.15 134.937ZM1393.06 134.937C1393.38 133.36 1393.7 135.052 1394.52 134.937C1394.34 136.292 1393.07 136.027 1393.06 134.937ZM1393.79 142.511C1393.41 141.962 1394.32 141.138 1394.52 141.43C1394.89 141.997 1393.99 142.812 1393.79 142.511ZM1395.25 144.672C1394.87 144.123 1395.78 143.299 1395.98 143.601C1396.36 144.15 1395.45 144.974 1395.25 144.672ZM1409.1 141.421C1409.24 140.19 1409.83 140.828 1409.83 141.421C1409.7 142.653 1409.1 142.024 1409.1 141.421ZM1412.02 130.614C1411.64 130.056 1412.55 129.232 1412.75 129.533C1413.12 130.091 1412.22 130.906 1412.02 130.614ZM1412.75 145.762C1412.77 144.708 1413.64 144.921 1414.21 144.672C1414.18 145.727 1413.32 145.523 1412.75 145.762ZM1428.06 139.26C1427.69 138.711 1428.59 137.887 1428.79 138.179C1429.16 138.737 1428.27 139.561 1428.06 139.26ZM1428.06 129.533C1427.69 128.966 1428.59 128.151 1428.79 128.453C1429.16 129.002 1428.27 129.826 1428.06 129.533ZM1428.06 111.143C1428.08 110.089 1428.95 110.302 1429.52 110.062C1429.5 111.117 1428.63 110.904 1428.06 111.143ZM1429.52 126.282C1427.69 125.813 1430.73 123.944 1431.71 124.121C1431.17 125.122 1430.38 125.76 1429.52 126.282ZM1430.98 134.937C1431.35 135.504 1430.45 136.319 1430.25 136.018C1429.87 135.451 1430.78 134.636 1430.98 134.937ZM1431.71 143.601C1428.66 142.874 1431.37 136.877 1433.16 140.35C1432.69 141.457 1431.49 141.475 1431.71 143.601ZM1431.71 127.372C1431.73 126.318 1432.59 126.53 1433.16 126.291C1433.14 127.336 1432.27 127.133 1431.71 127.372ZM1433.16 125.202C1432.79 124.643 1433.69 123.82 1433.89 124.121C1434.27 124.67 1433.36 125.494 1433.16 125.202ZM1433.89 123.04C1433.52 122.482 1434.42 121.658 1434.62 121.95C1435 122.517 1434.09 123.332 1433.89 123.04ZM1441.18 119.789C1439.56 120.276 1437.23 116.449 1436.81 118.708C1435.45 116.095 1438.87 117.743 1441.18 116.547V119.789ZM1439 104.65C1439.37 105.199 1438.47 106.023 1438.27 105.731C1437.89 105.172 1438.8 104.349 1439 104.65ZM1441.18 111.143C1440.23 110.762 1440.04 109.238 1439 108.982C1439.3 106.28 1441.83 108.911 1441.18 111.143ZM1441.91 104.65C1441.89 103.596 1441.02 103.808 1440.46 103.569C1440.63 102.391 1441.91 102.834 1441.91 101.399C1443.3 101.859 1445.05 101.797 1444.83 104.65C1444.24 104.446 1444.1 103.56 1443.37 103.569C1442.72 104.047 1442.07 104.508 1441.91 105.731C1441.09 105.527 1441.51 104.641 1441.91 104.65ZM1444.1 98.1565C1444.48 98.7146 1443.57 99.5384 1443.37 99.2373C1443 98.688 1443.9 97.8642 1444.1 98.1565ZM1442.64 118.708C1443.23 114.881 1447.56 116.635 1449.93 115.466C1447.75 117.787 1446.7 117.769 1442.64 118.708ZM1449.21 121.95C1449.34 120.728 1449.94 121.357 1449.93 121.95C1449.8 123.182 1449.2 122.553 1449.21 121.95ZM1449.93 118.708C1449.56 118.159 1450.46 117.335 1450.66 117.628C1451.04 118.194 1450.14 119.009 1449.93 118.708ZM1450.66 116.547C1450.28 115.989 1451.19 115.165 1451.39 115.466C1451.77 116.024 1450.86 116.848 1450.66 116.547ZM1452.85 129.533C1452.83 130.579 1451.96 130.375 1451.39 130.614C1451.41 129.56 1452.28 129.772 1452.85 129.533ZM1448.48 108.973C1448.98 112.366 1450.42 110.381 1452.12 110.053C1452.87 113.685 1449.85 111.737 1448.48 112.215C1446.76 112.56 1445.74 113.925 1443.38 113.296C1443.1 108.946 1442.91 110.638 1441.92 106.811C1444.09 107.192 1443.78 111.258 1447.02 110.053C1447.36 107.741 1445.98 107.998 1444.83 107.892C1444.7 105.527 1445.43 104.446 1447.02 104.65C1447.23 102.736 1443.59 101.292 1445.56 100.318C1447.24 98.1742 1446.38 100.593 1447.75 101.399C1449.45 101.044 1450.89 100.291 1451.39 98.1565C1452.63 95.0649 1451.98 103.684 1449.21 101.399C1448.78 105.279 1451.36 104.694 1453.58 104.65C1451.77 105.934 1451.16 108.99 1448.48 108.973ZM1447.02 68.95C1447.39 69.517 1446.49 70.3231 1446.29 70.0308C1445.92 69.4638 1446.82 68.6488 1447.02 68.95ZM1448.48 72.1923C1448.85 72.7592 1447.95 73.5742 1447.75 73.273C1447.37 72.7238 1448.28 71.8911 1448.48 72.1923ZM1448.48 66.7886C1448.85 67.3466 1447.95 68.1616 1447.75 67.8693C1447.37 67.3024 1448.28 66.4874 1448.48 66.7886ZM1451.39 40.8243C1450.74 41.4798 1450.09 42.1265 1449.93 40.8243C1450.11 39.4601 1451.38 39.7259 1451.39 40.8243ZM1449.21 37.5732C1448.83 37.024 1449.73 36.2002 1449.93 36.4925C1450.31 37.0595 1449.41 37.8744 1449.21 37.5732ZM1451.39 46.228C1451.01 45.6699 1451.92 44.8461 1452.12 45.1472C1452.5 45.6965 1451.59 46.5203 1451.39 46.228ZM1452.85 60.2864C1453.23 60.8445 1452.32 61.6684 1452.12 61.376C1451.75 60.8091 1452.65 59.9941 1452.85 60.2864ZM1451.39 49.4791C1451.77 50.0372 1450.86 50.861 1450.66 50.5598C1450.28 49.9928 1451.19 49.1779 1451.39 49.4791ZM1457.96 113.305C1457.57 114.182 1457.19 115.059 1457.23 116.547C1456.63 116.343 1456.5 115.466 1455.77 115.466C1455.06 115.501 1455.2 116.786 1455.04 117.628C1452.94 115.82 1456.39 113.251 1457.96 113.305ZM1454.31 68.95C1454.33 67.8959 1455.2 68.1085 1455.77 67.8693C1455.74 68.9146 1454.87 68.7109 1454.31 68.95ZM1456.49 100.318C1455.74 101.443 1455.36 99.8308 1455.77 99.2373C1456.52 98.1211 1456.9 99.7245 1456.49 100.318ZM1455.77 40.8243C1455.16 42.0822 1454.8 43.721 1455.04 46.228H1452.85C1453.03 45.0498 1454.3 45.4927 1454.31 44.0665C1453.26 42.4809 1453.75 40.6294 1455.77 40.8243ZM1453.58 27.8378C1453.95 28.3958 1453.05 29.2197 1452.85 28.9185C1452.47 28.3604 1453.38 27.5366 1453.58 27.8378ZM1446.29 32.1607C1447.29 31.08 1445.97 30.3802 1447.74 28.9185C1449.15 30.9205 1448.32 30.9028 1450.66 29.9992C1452.38 27.5809 1449.75 32.391 1448.47 32.1607C1449.44 35.5003 1451.71 30.141 1452.84 33.2414C1450.63 33.6046 1447.21 35.6509 1446.28 40.8243C1444.03 41.5773 1444.88 41.5773 1442.63 40.8243C1443.21 37.6973 1446.16 38.1136 1447.74 36.4925C1446.57 34.6145 1444.45 34.1539 1441.91 34.331C1442.57 32.4442 1444.19 31.9392 1446.28 32.1695L1446.29 32.1607ZM1447.75 40.8243C1448.12 41.3735 1447.22 42.1974 1447.02 41.9051C1446.64 41.347 1447.55 40.5231 1447.75 40.8243ZM1447.02 44.0665C1447 45.1118 1446.13 44.9081 1445.56 45.1472C1445.58 44.0931 1446.45 44.3057 1447.02 44.0665ZM1441.91 58.1249C1441.54 57.5757 1442.44 56.7519 1442.64 57.0442C1443.02 57.6023 1442.11 58.4261 1441.91 58.1249ZM1441.91 29.9992C1442.29 30.5662 1441.39 31.3812 1441.18 31.08C1440.81 30.5219 1441.71 29.698 1441.91 29.9992ZM1437.54 66.7886C1438.81 63.2186 1441.44 65.637 1441.91 68.95C1442.57 68.6577 1444.36 64.9194 1442.64 64.6271C1443.3 61.6861 1443.99 67.5061 1446.29 65.7078C1446.56 63.8653 1445.71 63.6615 1444.83 63.5463C1445.49 59.9232 1446.45 62.5985 1447.74 63.5463C1448.89 63.0768 1448.37 60.1358 1450.66 61.3849C1450.54 62.6428 1450.82 63.3072 1451.38 63.5463C1450.71 65.4332 1449.11 65.9382 1447.02 65.7078C1445.16 69.4727 1441 73.0338 1436.81 70.0308C1436.69 67.6833 1439.39 69.5347 1440.45 68.95C1440.27 67.0455 1439.2 66.4874 1437.54 66.7886ZM1436.81 26.757C1437.19 27.3239 1436.29 28.1389 1436.08 27.8378C1435.71 27.2708 1436.61 26.4558 1436.81 26.757ZM1435.35 133.856C1435.72 134.423 1434.82 135.238 1434.62 134.937C1434.25 134.37 1435.15 133.555 1435.35 133.856ZM1433.16 115.466V113.305C1433.78 113.499 1433.85 112.879 1433.89 112.224C1435.31 111.79 1434.96 117.158 1433.16 115.466ZM1434.62 25.6763C1435 26.2255 1434.09 27.0493 1433.89 26.757C1433.52 26.1901 1434.42 25.3751 1434.62 25.6763ZM1433.89 23.5148C1434.27 24.064 1433.36 24.8879 1433.16 24.5955C1432.79 24.0286 1433.69 23.2136 1433.89 23.5148ZM1429.52 124.121C1427.99 122.819 1431.36 119.709 1432.44 118.708C1434.92 121.437 1429.93 122.119 1429.52 124.121ZM1430.25 25.6763C1430.23 26.7216 1429.36 26.5178 1428.79 26.757C1428.81 25.7028 1429.68 25.9155 1430.25 25.6763ZM1429.52 61.376C1429.38 62.5985 1428.79 61.9695 1428.79 61.376C1428.93 60.1447 1429.52 60.7736 1429.52 61.376ZM1429.52 97.0758C1431.03 96.119 1429.93 97.3061 1428.79 98.1565C1426.66 99.7422 1427.68 98.2451 1429.52 97.0758ZM1422.23 39.7436C1424.02 40.7623 1421.29 43.9868 1420.04 44.0665C1420.26 41.8608 1422.01 41.9493 1422.23 39.7436ZM1420.04 39.7436C1420.41 40.2928 1419.51 41.1166 1419.31 40.8243C1418.94 40.2574 1419.84 39.4424 1420.04 39.7436ZM1418.58 48.3983C1418.96 48.9653 1418.06 49.7803 1417.85 49.4791C1417.48 48.9121 1418.38 48.0971 1418.58 48.3983ZM1413.48 52.7213C1413.85 53.2793 1412.95 54.1032 1412.75 53.802C1412.37 53.2528 1413.28 52.4201 1413.48 52.7213ZM1414.93 61.376C1413.78 61.4646 1412.15 60.8445 1412.02 62.4568C1409.99 62.944 1412.59 56.557 1410.56 57.0442C1411.65 54.8119 1415.41 57.7086 1414.93 61.376ZM1414.21 20.2726C1413.83 19.7057 1414.73 18.8907 1414.93 19.1918C1415.31 19.7411 1414.41 20.5649 1414.21 20.2726ZM1415.66 51.6405C1415.29 51.0736 1416.19 50.2586 1416.39 50.5598C1416.77 51.1267 1415.86 51.9417 1415.66 51.6405ZM1417.12 94.9143C1416.75 94.3473 1417.65 93.5324 1417.85 93.8336C1418.23 94.4005 1417.33 95.2155 1417.12 94.9143ZM1417.85 116.547C1417.48 115.989 1418.38 115.165 1418.58 115.466C1418.96 116.024 1418.06 116.848 1417.85 116.547ZM1419.31 118.708C1417.55 116.529 1420.58 119.275 1420.77 120.87C1421.36 125.83 1418.97 120.666 1419.31 118.708ZM1420.04 97.0758C1420.41 97.6427 1419.51 98.4577 1419.31 98.1565C1418.94 97.6073 1419.84 96.7834 1420.04 97.0758ZM1417.85 60.2864C1417.75 58.2755 1417.38 56.681 1416.4 55.9635C1417.86 53.2528 1419.1 59.1614 1421.5 55.9635C1420.45 57.5491 1420.94 59.4006 1422.95 59.2057C1422.64 61.6241 1419.36 59.6486 1417.85 60.2864ZM1422.95 61.376C1423.33 61.9252 1422.43 62.7491 1422.23 62.4568C1421.85 61.8898 1422.76 61.0748 1422.95 61.376ZM1422.23 94.9143C1422.55 93.3375 1422.86 95.0294 1423.68 94.9143C1423.5 96.2696 1422.24 96.0039 1422.23 94.9143ZM1424.41 67.8693C1424.04 67.3024 1424.94 66.4874 1425.14 66.7886C1425.52 67.3466 1424.61 68.1616 1424.41 67.8693ZM1425.14 53.802C1424.77 53.2528 1425.67 52.4201 1425.87 52.7213C1426.25 53.2793 1425.34 54.1032 1425.14 53.802ZM1425.87 51.6405C1425.5 51.0736 1426.4 50.2586 1426.6 50.5598C1426.97 51.1267 1426.07 51.9417 1425.87 51.6405ZM1427.33 60.2864C1427.71 60.8445 1426.81 61.6684 1426.6 61.376C1426.23 60.8091 1427.13 59.9941 1427.33 60.2864Z" fill="#F48C04"/>
<path fill-rule="evenodd" clip-rule="evenodd" d="M5.78448 245.448C6.96368 245.431 7.25543 246.664 8.78796 246.155C9.23578 244.904 9.99994 244.093 10.2917 242.622C12.3213 244 13.8168 241.232 16.3066 241.208C17.1777 244.029 18.4349 241.932 19.8113 244.035C20.4686 243.786 20.6002 242.79 21.3151 242.622C23.2748 245.987 27.0589 246.775 28.3326 251.107C30.0705 250.592 30.9991 248.941 32.8439 250.4C33.2794 249.364 33.5956 248.159 34.8488 248.28C37.2646 251.947 38.8383 256.801 42.8688 258.185C45.6545 256.221 47.1253 252.41 51.3859 252.526C52.372 249.671 55.4864 249.821 57.401 248.28C58.6007 247.852 61.0371 249.167 61.4109 247.574C62.9886 247.238 62.7339 249.479 63.9172 249.694C65.121 247.921 65.2443 249.028 67.426 248.987C69.3776 250.713 70.5156 253.592 71.9413 256.065C73.5642 256.47 74.2709 255.584 75.446 255.358C76.0828 257.05 77.0812 258.237 78.9547 258.185C79.4559 259.123 79.4272 260.815 80.4543 261.012C83.1126 261.979 83.5235 266.114 86.4694 266.676C86.1612 269.7 88.1005 269.561 87.9731 272.335C88.9674 272.347 88.6099 274.264 89.9781 273.748C90.8121 278.463 93.9388 279.946 94.4893 285.066C96.2684 286.798 97.464 289.358 99.5018 290.725C103.59 290.847 104.412 295.585 107.522 297.096C108.775 295.092 111.544 295.237 113.036 293.563C114.848 297.687 118.595 295.005 123.057 295.683C125.637 299.118 129.844 300.253 133.082 302.755C137.494 301.684 140.074 298.011 145.613 298.515C148.978 294.067 153.505 291.264 160.646 292.144C161.747 290.627 163.613 290.204 164.656 288.611C167.495 289.555 170.174 288.333 173.679 289.317C172.988 280.71 175.059 272.399 173.749 265.002C174.32 268.802 171.941 265.558 172.171 268.101C170.371 267.105 169.471 264.84 168.161 263.149C167.273 264.469 166.698 262.842 165.655 262.442C166.435 264.962 163.954 262.871 164.155 264.562C163.157 264.574 163.518 266.497 162.15 265.975C162.24 264.18 164.779 262.21 163.654 261.029C163.148 261.967 163.181 263.664 162.15 263.855C161.936 262.378 162.491 261.985 162.651 261.029C161.131 261.006 162.166 264.585 160.646 264.562C160.046 261.51 162.286 260.6 161.147 258.903C160.137 259.784 157.018 261.324 158.641 258.197C157.195 258.515 157.458 261.237 156.139 261.73C155.999 260.062 154.8 262.546 154.134 262.436C153.772 260.276 155.001 260.357 154.635 258.197C153.629 258.434 153.066 258.052 153.132 256.783C154.804 257.49 154.775 255.799 154.635 253.957C155.572 253.279 156.312 256.071 156.64 253.957C154.726 252.793 157.199 250.337 154.635 251.837C154.36 250.267 155.593 250.823 155.638 249.711C153.842 250.047 152.741 250.864 151.127 249.711C150.687 246.421 152.774 250.192 152.626 248.298C151.887 246.375 150.687 245.095 149.122 246.178C149.29 244.759 149.023 243.965 148.119 244.058C149.249 245.854 146.135 245.958 145.617 247.591C144.553 245.245 144.162 249.717 142.609 249.005C142.067 247.203 144.766 246.525 143.111 245.471C143.033 246.78 141.414 245.906 141.106 246.885C140.995 248.141 141.611 250.424 140.103 249.711C139.01 248.234 140.358 247.695 140.103 245.466C137.207 246.346 139.988 243.114 138.604 242.639C137.934 243.815 138.784 247.139 137.1 246.885C135.871 245.946 137.65 244.255 136.598 244.058C136.381 246.016 135.021 244.093 135.596 242.645C134.737 242.523 133.628 246.653 133.595 243.351C133.579 242.662 132.983 242.801 132.593 242.645C132.215 240.224 134.626 241.747 134.096 239.112C132.136 240.224 133.057 237.276 132.091 236.986C130.641 238.243 128.25 238.173 126.578 239.112C126.352 236.436 129.195 238.086 129.581 236.279C131.972 236.83 132.806 235.179 135.095 235.573C134.659 233.302 136.746 234.605 136.598 232.746C139.117 233.366 139.955 232.561 143.115 232.746C143.316 230.91 144.61 230.615 144.618 228.506C142.753 229.699 143.637 228.356 142.614 227.093C141.118 226.079 140.908 227.672 139.61 226.386C140.329 227.423 139.992 228.628 138.608 228.506C137.318 226.751 138.944 225.981 139.61 224.967C138.427 224.498 136.43 227.95 136.603 224.967C138.53 220.189 143.18 228.836 144.121 223.554C143.678 224.11 142.992 224.319 142.116 224.261C141.5 221.973 143.739 223.722 143.119 221.434C140.337 223.125 143.098 219.853 141.114 219.314C139.622 218.469 139.413 219.123 138.11 220.021C137.868 217.791 139.647 218.422 139.113 215.781C140.115 216.019 140.682 215.636 140.613 214.368C140.169 214.918 139.483 215.127 138.612 215.074C138.78 212.717 140.658 212.775 140.613 210.122C139.955 210.846 138.768 210.817 138.11 211.541C138.045 208.385 141.18 209.74 141.615 207.296C141.734 209.12 142.478 206.328 143.62 207.296C143.489 204.99 145.568 205.795 145.625 203.762C148.452 204.932 149.163 205.164 151.64 205.882C151.439 204.185 153.924 206.27 153.14 203.762C150.65 205.251 152.585 203.293 152.638 200.936C151.061 200.142 151.509 200.866 149.635 200.936C149.327 198.66 151.435 199.963 150.136 198.109C148.616 200.345 147.573 199.349 145.625 200.229C144.988 198.069 147.338 196.627 146.126 195.984C145.966 197.194 144.573 195.335 144.121 197.403C143.324 197.924 144.232 200.866 142.618 200.229C141.882 197.71 144.232 195.989 143.119 195.277C142.227 193.962 141.845 195.856 140.111 195.277C140.255 197.125 139.931 198.318 138.612 198.109C139.647 195.19 138.945 193.719 140.111 191.738C138 191.86 140.124 190.649 140.111 189.618C138.887 190.012 139.043 192.358 137.108 191.738C136.816 188.46 140.136 190.777 138.612 187.498C140.526 186.369 140.551 188.28 141.114 187.498C141.052 184.457 138.977 188.686 139.113 185.378C139.249 182.894 141.332 186.658 141.114 184.672C139.125 182.639 138.427 184.023 135.6 183.965C136.36 181.011 138.295 182.946 139.61 181.839H142.112C143.226 181.289 144.068 180.357 145.621 180.426C147.799 180.519 148.189 182.453 151.135 181.133C152.026 183.038 148.924 182.5 150.633 183.253C152.018 185.187 151.102 182.216 152.137 181.839C152.893 183.137 154.294 183.507 155.141 184.672C155.831 186.282 153.851 187.33 155.141 187.498C157.741 187.828 160.042 189.103 162.659 191.031C162.335 190.313 161.509 190.302 161.657 188.912C162.766 189.3 162.372 187.562 163.161 187.498C163.65 188.222 164.151 188.929 164.66 189.618C166.008 187.811 169.788 187.857 168.169 183.959C169.019 184.249 170.836 185.465 172.68 186.079C174.907 186.821 174.903 186.942 175.187 184.666C175.552 185.32 176.099 185.737 176.69 186.079C176.83 184.938 176.214 184.857 176.189 183.959C179.727 184.851 179.932 183.948 183.202 182.54C182.857 181.973 182.426 180.606 183.202 180.42C182.976 181.573 185.935 181.573 185.709 180.42C184.488 179.094 186.691 177.854 184.205 179.007C183.839 177.078 185.199 177.582 185.207 176.18C183.7 176.644 183.457 178.903 181.197 178.3C180.417 175.787 182.898 177.878 182.697 176.18C181.847 176.441 181.756 175.624 181.699 174.767C182.792 174.315 183.293 176.771 183.198 174.061C184.341 173.087 185.084 175.885 185.203 174.061C184.76 173.742 184.308 173.441 184.201 172.647C186.419 173.342 185.511 172.757 187.208 171.941C189.053 172.867 191.087 173.533 193.725 173.354C194.082 174.327 197.636 174.344 195.725 176.18C195.089 175.955 194.094 174.993 192.217 174.767C192.833 178.752 190.458 174.478 190.212 177.594C191.494 177.565 190.824 178.121 190.713 179.007C191.777 180.102 192.948 181.046 194.222 181.834C196.408 179.812 198.269 181.538 200.734 179.714C200.553 180.918 201.128 181.046 201.736 181.127C204.107 180.849 205.923 181.353 207.751 181.834C208.191 185.129 206.104 181.359 206.252 183.247C206.852 184.179 206.445 184.359 206.252 185.373C209.567 188.124 215.073 183.948 216.273 188.906C214.744 189.798 213.721 186.485 213.265 188.199C213.881 188.506 214.296 189.103 214.268 190.319C211.991 192.254 212.932 187.823 210.763 189.612C211.355 191.13 212.932 191.263 213.766 192.439C213.466 193.661 211.392 192.387 211.264 193.852C212.267 193.615 212.834 193.997 212.768 195.265C211.823 197.49 210.159 193.557 209.76 195.265C210.492 195.891 211.704 195.833 211.264 198.098C210.849 200.409 209.506 194.599 208.758 197.391C209.83 197.582 211.166 200.988 210.262 201.631C209.23 200.49 209.296 197.808 207.254 198.098C207.332 196.337 207.349 194.663 206.256 194.559C206.313 197.519 203.322 195.659 203.248 196.679C204.612 197.333 202.55 198.891 203.248 200.924C201.371 199.395 201.412 201.822 199.744 202.338C199.353 199.818 197.911 198.799 196.736 197.391C198.339 200.832 194.522 200.154 194.234 200.924C194.345 201.944 195.73 201.168 195.734 202.338C195.43 203.316 193.807 202.448 193.733 203.751C194.403 204.458 194.715 205.662 195.734 205.871C195.647 203.16 196.145 205.616 197.237 205.164C197.34 206.375 196.383 206.994 197.237 207.284C197.607 206.63 198.15 206.212 198.741 205.871C197.163 210.029 203.203 207.527 203.754 210.823C202.517 211.379 200.282 208.257 200.249 211.535C200.097 213.424 202.192 209.653 201.749 212.949C200.417 214.837 199.37 212.723 198.244 212.242C198.819 214.466 197.459 213.957 197.242 215.069C198.602 215.509 198.49 218.023 200.249 217.895C204.378 218.15 206.847 214.356 208.265 219.308C206.034 220.357 205.677 218.805 203.252 218.602C202.776 220.635 201.588 219.065 201.247 220.015C202.291 220.409 202.312 221.121 201.749 222.135C202.772 222.813 203.733 223.583 204.756 224.255C205.455 222.129 207.78 223.629 209.267 224.255C209.707 227.551 207.616 223.78 207.764 225.674C209.074 227.371 210.944 226.664 212.78 225.674C212.883 226.879 211.926 227.504 212.78 227.794C216.252 227.672 218.582 224.295 219.794 229.207C218.549 229.317 218.245 228.095 217.292 227.794C217.509 229.433 219.502 229.682 218.294 231.327C216.938 231.536 215.43 228.373 214.28 230.62C214.342 233.655 216.416 229.433 216.285 232.74C215.028 233.644 214.715 232.381 214.28 233.447C216.54 233.968 214.732 236.111 215.784 237.687C218.89 238.312 222.173 236.291 222.3 239.812C220.073 239.43 219.65 238.613 218.29 238.399C218.882 241.365 216.174 239.662 215.784 241.226C217.846 242.083 217.813 245.906 220.295 246.172C220.57 247.742 219.342 247.18 219.292 248.292C220.328 247.678 221.544 250.128 220.295 250.412C218.951 249.485 218.5 247.296 217.292 246.172C217.682 246.798 217.83 247.765 217.793 248.999C216.08 248.709 217.156 247.093 215.286 248.292C214.333 246.971 214.025 248.217 212.784 248.292C212.575 250.001 213.701 249.833 213.282 251.831C211.852 251.489 211.844 249.143 211.281 247.585C211.56 246.925 212.673 246.514 211.782 246.172C210.479 247.377 209.222 247.823 210.779 249.705C208.421 250.644 208.635 244.29 207.271 246.172C207.718 246.485 208.17 246.792 208.273 247.585C206.133 248.252 206.917 244.788 205.27 244.759C204.949 246.305 206.691 247.012 204.769 246.879C203.676 247.012 203.376 245.303 203.265 244.052C200.344 245.442 193.971 242.193 191.235 243.346C191.038 245.043 193.519 242.958 192.739 245.466H190.734C191.165 247.249 193.918 249.416 192.739 251.124C191.736 249.004 190.857 246.705 189.23 245.466C189.554 247.192 190.245 249.103 188.231 248.999C188.219 245.188 188.276 246.971 186.728 247.585C186.247 246.265 188.227 245.222 186.728 244.759C186.395 247.116 184.172 246.815 183.72 248.999C183.65 251.733 182.027 252.265 182.22 255.37C183.12 255.463 183.276 254.507 184.221 254.663C184.275 256.482 186.091 255.799 186.728 256.783C189.127 256.14 190.236 259.43 192.743 257.49C191.498 257.594 190.31 257.617 190.236 256.077C194.214 257.079 198.215 258.087 201.264 255.37C200.45 259.343 203.635 257.681 203.77 260.322C202.172 260.925 202.221 259.21 201.264 258.909C200.606 262.106 198.667 259.355 197.755 262.442C199.222 261.811 199.296 261.811 200.758 262.442C200.126 264.747 200.04 263.942 199.76 265.975C200.224 266.734 201.609 266.195 201.26 268.101C199.234 269.08 199.674 266.56 198.256 266.688C197.948 267.667 196.325 266.792 196.251 268.101C194.998 269.034 194.682 265.303 194.25 267.394C194.464 268.501 195.828 267.997 195.249 270.221C193.708 270.748 194.287 268.275 192.747 268.808C193.396 267.869 193.404 266.172 192.245 265.975C191.711 266.636 192.089 268.588 190.742 268.101C189.369 267.354 188.605 267.354 187.237 268.101C187.258 266.294 186.863 267.238 186.235 267.394C185.688 267.221 185.894 265.987 185.232 265.975C185.31 267.974 183.815 267.754 183.227 268.808C182.775 267.325 181.752 266.647 180.224 266.688C181.103 269.19 179.891 268.425 179.722 270.928V290.024C185.384 290.401 187.097 291.993 192.755 292.144C198.367 294.6 202.073 299.743 208.791 300.635C212.575 304.024 216.367 307.395 221.322 309.126C222.279 312.017 224.716 312.822 226.836 314.073C228.044 314.362 227.929 312.781 229.342 313.366C230.546 315.197 232.711 315.683 235.357 315.486C236.302 316.274 237.116 317.253 238.36 317.606C239.47 317.629 240.591 317.647 241.701 317.664C243.689 316.899 245.867 316.262 248.579 315.979C248.607 314.571 251.635 315.139 250.838 313.192C257.667 314.994 261.188 309.937 267.634 309.271C272.774 310.354 278.847 310.864 282.125 313.088C288.605 312.932 292.282 312.55 297.792 310.563C303.133 312.532 306.202 309.271 310.08 310.8C310.532 308.489 313.38 307.748 314.596 305.935C316.749 304.736 321.482 305.234 321.334 302.523C326.576 302.408 329.144 300.537 334.757 300.664C334.913 298.863 336.408 297.953 339.251 297.919C345.764 298.643 356.918 302.865 361.59 298.347C364.219 298.382 364.869 299.633 368.283 299.181C369.302 297.948 371.003 297.166 371.668 295.706C376.18 297.177 379.545 294.467 385.087 294.554C386.998 297.415 389.82 295.376 392.877 297.536C394.348 297.311 394.648 296.32 396.242 296.187C400.577 299.639 416.473 296.274 419.271 300.664C423.15 300.218 454.486 300.983 458.578 302.523C484.297 304.979 499.459 297.363 502.252 297.536C507.602 301.301 638.976 253.323 647.941 254.881C654.173 253.045 657.493 249.291 666.984 249.593C669.211 246.784 676.146 247.062 680.431 245.608C683.106 245.231 812.824 225.108 815.546 221.959C907.937 208.349 919.583 208.349 935.112 210.66C935.897 210.162 962.772 204.303 963.314 204.193L962.772 343H-0.000305176V247.07C2.26764 247.904 4.552 248.217 5.79279 245.471L5.78448 245.448ZM133.595 236.957C133.336 237.328 133.957 237.861 134.096 237.664C134.351 237.304 133.731 236.766 133.595 236.957ZM134.594 237.664C134.61 238.353 135.206 238.22 135.596 238.376C135.584 237.687 134.984 237.826 134.594 237.664ZM136.598 241.203C136.34 241.562 136.96 242.1 137.1 241.909C137.359 241.538 136.738 241.006 136.598 241.203ZM139.606 241.909C139.347 242.268 139.968 242.807 140.103 242.616C140.362 242.251 139.742 241.712 139.606 241.909ZM142.614 239.083C142.359 239.442 142.975 239.98 143.115 239.789C143.374 239.419 142.753 238.886 142.614 239.083ZM140.608 217.86C141.344 217.246 142.199 216.8 142.112 215.034C141.73 216.14 140.522 216.094 140.608 217.86ZM141.11 212.202C141.126 212.885 141.722 212.752 142.112 212.908C142.1 212.219 141.5 212.358 141.11 212.202ZM142.112 208.663C141.853 209.027 142.478 209.566 142.614 209.369C142.872 209.01 142.252 208.471 142.112 208.663ZM143.115 214.327C142.856 214.686 143.476 215.225 143.616 215.034C143.879 214.663 143.254 214.13 143.115 214.327ZM143.115 215.74C142.856 216.105 143.476 216.644 143.616 216.447C143.879 216.076 143.254 215.544 143.115 215.74ZM144.117 242.616C143.858 242.987 144.479 243.519 144.618 243.322C144.873 242.952 144.253 242.419 144.117 242.616ZM144.618 216.447C144.36 216.818 144.98 217.345 145.12 217.154C145.374 216.783 144.754 216.25 144.618 216.447ZM145.12 205.836C145.132 206.525 145.732 206.386 146.122 206.543C146.106 205.859 145.51 205.992 145.12 205.836ZM145.12 232.711C145.132 233.401 145.732 233.262 146.122 233.418C146.106 232.734 145.51 232.868 145.12 232.711ZM147.125 228.472C146.866 228.836 147.49 229.369 147.626 229.178C147.885 228.813 147.264 228.275 147.125 228.472ZM147.125 236.25C146.866 236.621 147.49 237.154 147.626 236.957C147.885 236.598 147.264 236.059 147.125 236.25ZM148.127 229.885C147.873 230.255 148.493 230.788 148.629 230.591C148.887 230.221 148.267 229.688 148.127 229.885ZM148.127 239.083C147.873 239.442 148.493 239.98 148.629 239.789C148.887 239.419 148.267 238.886 148.127 239.083ZM150.633 216.447C150.375 216.818 150.995 217.345 151.135 217.154C151.389 216.783 150.769 216.25 150.633 216.447ZM151.636 215.034C151.377 215.399 151.998 215.932 152.137 215.74C152.392 215.37 151.772 214.837 151.636 215.034ZM140.608 190.273C140.354 190.643 140.974 191.176 141.11 190.979C141.369 190.609 140.748 190.076 140.608 190.273ZM141.11 193.105C140.378 195.173 141.069 194.182 141.611 192.398C142.059 190.927 141.504 191.999 141.11 193.105ZM142.614 184.62C142.359 184.979 142.975 185.517 143.115 185.326C143.374 184.961 142.753 184.423 142.614 184.62ZM145.12 192.393C144.503 192.705 144.089 193.296 144.117 194.512C145.186 194.848 145.07 193.505 145.12 192.393ZM144.618 184.62H145.621C145.531 184.017 145.814 183.953 146.122 183.913C146.319 182.54 143.838 182.876 144.618 184.62ZM147.125 192.393C146.866 192.763 147.49 193.296 147.626 193.099C147.885 192.74 147.264 192.201 147.125 192.393ZM148.127 184.62C147.873 184.979 148.493 185.517 148.629 185.326C148.887 184.961 148.267 184.423 148.127 184.62ZM150.132 193.105C149.873 193.476 150.494 194.009 150.633 193.812C150.892 193.453 150.268 192.914 150.132 193.105ZM150.633 186.739C150.375 187.099 150.995 187.637 151.135 187.446C151.389 187.075 150.769 186.543 150.633 186.739ZM150.633 196.638C150.375 197.003 150.995 197.542 151.135 197.351C151.389 196.98 150.769 196.447 150.633 196.638ZM152.634 198.764C152.544 197.959 152.133 198.37 152.137 198.764C152.228 199.569 152.638 199.152 152.634 198.764ZM152.137 191.686C151.878 192.057 152.499 192.589 152.634 192.393C152.893 192.028 152.273 191.489 152.137 191.686ZM209.777 188.153C210.036 187.788 209.415 187.249 209.276 187.446C209.013 187.811 209.641 188.344 209.777 188.153ZM205.266 184.62C206.157 184.098 205.34 183.328 205.266 182.494C204.37 183.015 205.192 183.786 205.266 184.62ZM203.762 188.859C204.021 188.489 203.4 187.956 203.261 188.153C203.002 188.512 203.622 189.051 203.762 188.859ZM201.753 198.764C201.662 197.959 201.252 198.37 201.252 198.764C201.346 199.569 201.757 199.152 201.753 198.764ZM200.253 199.47C200.508 199.106 199.887 198.567 199.752 198.764C199.493 199.123 200.113 199.662 200.253 199.47ZM198.248 185.326C198.507 184.961 197.887 184.423 197.747 184.62C197.488 184.979 198.108 185.517 198.248 185.326ZM196.243 185.326C196.502 184.961 195.882 184.423 195.742 184.62C195.487 184.979 196.108 185.517 196.243 185.326ZM195.742 197.351C195.13 197.658 194.715 198.254 194.739 199.47C195.356 199.158 195.771 198.567 195.742 197.351ZM194.735 183.201C194.994 182.841 194.374 182.303 194.238 182.494C193.979 182.865 194.6 183.397 194.735 183.201ZM206.769 218.567C207.024 218.196 206.404 217.663 206.268 217.86C206.009 218.231 206.63 218.764 206.769 218.567ZM217.296 229.885C217.55 229.514 216.93 228.981 216.794 229.178C216.536 229.537 217.156 230.076 217.296 229.885ZM217.296 239.083C217.55 238.712 216.93 238.179 216.794 238.376C216.536 238.735 217.156 239.274 217.296 239.083ZM215.788 246.861C216.971 246.664 215.213 244.973 215.286 244.035C213.75 244.73 215.866 245.917 215.788 246.861ZM215.286 240.496C215.545 240.131 214.925 239.592 214.785 239.789C214.531 240.148 215.151 240.687 215.286 240.496ZM211.281 234.13C211.022 234.501 211.642 235.034 211.782 234.837C212.037 234.478 211.416 233.939 211.281 234.13ZM214.284 236.25C214.543 235.891 213.923 235.353 213.783 235.544C213.528 235.909 214.148 236.447 214.284 236.25ZM213.783 232.005C213.66 231.119 212.789 231.292 212.784 232.005C213.006 233.036 213.22 231.929 213.783 232.005ZM213.282 245.448C213.54 245.083 212.92 244.545 212.784 244.742C212.526 245.106 213.146 245.645 213.282 245.448ZM210.278 239.083C210.919 238.098 212.645 238.648 213.282 237.664C212.85 236.627 212.53 235.422 211.281 235.544C211.503 236.175 211.716 236.812 212.283 236.957C211.613 238.758 209.004 237.403 209.777 234.837C207.275 236.273 210.492 236.795 210.278 239.083ZM208.77 239.083C208.676 238.278 208.269 238.689 208.269 239.083C208.364 239.888 208.774 239.471 208.77 239.083ZM200.253 222.807C200.265 223.496 200.865 223.357 201.252 223.513C201.239 222.83 200.643 222.963 200.253 222.807ZM206.769 241.909C206.753 241.22 206.157 241.359 205.767 241.203C205.779 241.886 206.379 241.753 206.769 241.909ZM207.267 224.933C206.765 222.755 206.441 226.473 205.767 226.352C206.622 229.028 206.589 224.811 207.267 224.933ZM205.266 226.352C205.52 225.981 204.9 225.448 204.764 225.645C204.506 226.004 205.126 226.543 205.266 226.352ZM204.764 241.203C204.641 240.311 203.766 240.49 203.762 241.203C204.206 241.637 204.658 242.06 204.764 241.203ZM204.263 225.645C204.518 225.274 203.902 224.741 203.762 224.933C203.503 225.303 204.128 225.836 204.263 225.645ZM203.261 240.496C203.519 240.131 202.899 239.592 202.759 239.789C202.505 240.148 203.121 240.687 203.261 240.496ZM201.753 241.203C201.219 240.542 201.601 238.59 200.253 239.083C200.475 239.708 200.689 240.345 201.252 240.496C201.239 241.179 200.643 241.046 200.253 241.203C198.696 242.106 201.675 242.106 201.753 241.203ZM200.253 220.687C200.508 220.328 199.887 219.783 199.752 219.98C199.493 220.351 200.113 220.884 200.253 220.687ZM197.747 219.98C197.735 219.297 197.135 219.43 196.744 219.274C196.761 219.963 197.357 219.824 197.747 219.98ZM197.747 217.86C197.484 217.287 197.225 216.714 197.246 215.74C196.699 215.914 196.905 217.142 196.243 217.154C196.153 217.75 196.44 217.82 196.744 217.86H197.747ZM196.243 241.203C196.502 240.832 195.882 240.299 195.742 240.496C195.487 240.855 196.108 241.394 196.243 241.203ZM190.729 205.836C190.466 204.747 190.208 205.79 190.228 206.543C190.491 207.637 190.754 206.589 190.729 205.836ZM192.233 203.009C191.715 202.28 191.457 203.328 191.732 203.716C192.25 204.446 192.508 203.398 192.233 203.009ZM192.233 207.956C192.496 207.597 191.872 207.058 191.732 207.249C191.473 207.614 192.093 208.153 192.233 207.956ZM192.734 205.836C192.476 206.201 193.096 206.74 193.236 206.543C193.49 206.184 192.87 205.639 192.734 205.836ZM193.236 204.423C192.977 204.793 193.597 205.326 193.737 205.129C193.992 204.759 193.371 204.226 193.236 204.423ZM193.737 216.447C193.774 216.25 193.671 215.92 193.737 215.74C194.119 214.663 193.421 215.213 193.236 215.74C192.899 216.69 193.568 217.322 193.737 216.447ZM192.734 241.203C193.252 241.932 193.511 240.884 193.236 240.496C192.718 239.76 192.459 240.814 192.734 241.203ZM192.734 220.687C192.989 220.328 192.373 219.783 192.233 219.98C191.974 220.351 192.595 220.884 192.734 220.687ZM192.233 219.274C192.496 218.915 191.872 218.37 191.732 218.567C191.473 218.938 192.093 219.471 192.233 219.274ZM191.732 215.034C191.991 214.663 191.37 214.13 191.231 214.327C190.972 214.686 191.592 215.225 191.732 215.034ZM190.729 236.25C190.988 235.891 190.368 235.353 190.228 235.544C189.973 235.909 190.594 236.447 190.729 236.25ZM190.729 210.782C190.988 210.423 190.368 209.885 190.228 210.076C189.973 210.447 190.594 210.979 190.729 210.782ZM188.227 176.835C188.482 176.464 187.862 175.931 187.726 176.128C187.467 176.493 188.088 177.032 188.227 176.835ZM188.227 174.008C187.438 171.419 187.475 175.648 186.222 174.715C186.715 176.881 187.558 173.898 188.227 174.008ZM186.719 177.542C186.974 177.171 186.354 176.638 186.218 176.835C185.959 177.206 186.58 177.739 186.719 177.542ZM199.251 259.592C199.509 259.222 198.885 258.689 198.749 258.886C198.491 259.257 199.111 259.789 199.251 259.592ZM197.246 259.592C197.024 258.561 196.806 259.668 196.243 259.592C196.366 260.479 197.242 260.305 197.246 259.592ZM196.744 264.545C197.003 264.186 196.383 263.647 196.243 263.838C195.988 264.209 196.609 264.742 196.744 264.545ZM195.742 265.958C196.001 265.599 195.38 265.06 195.241 265.257C194.982 265.616 195.606 266.155 195.742 265.958ZM186.218 263.832C186.124 263.027 185.717 263.444 185.717 263.832C185.811 264.637 186.218 264.226 186.218 263.832ZM184.213 256.766C184.472 256.401 183.852 255.862 183.712 256.059C183.457 256.424 184.078 256.957 184.213 256.766ZM183.712 266.67C183.7 265.981 183.1 266.12 182.709 265.958C182.726 266.647 183.322 266.514 183.712 266.67ZM173.186 262.419C173.445 262.06 172.824 261.521 172.684 261.712C172.43 262.077 173.046 262.616 173.186 262.419ZM173.186 256.059C173.445 255.689 172.824 255.156 172.684 255.353C172.43 255.712 173.046 256.25 173.186 256.059ZM173.186 244.035C173.173 243.346 172.573 243.485 172.183 243.328C172.2 244.018 172.795 243.878 173.186 244.035ZM172.183 253.934C173.444 253.627 171.353 252.404 170.679 252.52C171.049 253.175 171.596 253.592 172.183 253.934ZM171.181 259.592C170.926 259.963 171.546 260.496 171.682 260.299C171.941 259.928 171.32 259.396 171.181 259.592ZM170.679 265.257C172.775 264.782 170.914 260.861 169.681 263.131C170.006 263.855 170.831 263.867 170.679 265.257ZM170.679 254.646C170.667 253.957 170.071 254.096 169.681 253.939C169.693 254.623 170.293 254.49 170.679 254.646ZM169.681 253.227C169.936 252.862 169.315 252.323 169.18 252.52C168.921 252.879 169.541 253.418 169.681 253.227ZM169.18 251.814C169.434 251.449 168.814 250.91 168.679 251.101C168.42 251.472 169.04 252.005 169.18 251.814ZM164.167 249.688C165.281 250.007 166.883 247.504 167.171 248.981C168.107 247.273 165.757 248.35 164.167 247.568V249.688ZM165.667 239.789C165.412 240.148 166.033 240.687 166.168 240.496C166.427 240.131 165.807 239.592 165.667 239.789ZM164.167 244.035C164.825 243.786 164.952 242.79 165.667 242.622C165.461 240.855 163.723 242.575 164.167 244.035ZM163.666 239.789C163.678 239.1 164.278 239.239 164.664 239.083C164.545 238.312 163.67 238.602 163.666 237.664C162.709 237.965 161.509 237.924 161.661 239.789C162.068 239.656 162.162 239.077 162.664 239.083C163.107 239.395 163.559 239.697 163.666 240.496C164.233 240.363 163.941 239.783 163.666 239.789ZM162.162 235.544C161.903 235.909 162.524 236.447 162.664 236.25C162.918 235.891 162.298 235.353 162.162 235.544ZM163.165 248.981C162.762 246.479 159.783 247.626 158.152 246.861C159.652 248.379 160.371 248.367 163.165 248.981ZM158.649 251.101C158.559 250.302 158.148 250.713 158.152 251.101C158.243 251.906 158.654 251.495 158.649 251.101ZM158.152 248.981C158.407 248.622 157.787 248.084 157.651 248.275C157.392 248.645 158.013 249.178 158.152 248.981ZM157.651 247.568C157.91 247.203 157.285 246.664 157.15 246.861C156.891 247.226 157.511 247.765 157.651 247.568ZM156.147 256.059C156.16 256.743 156.759 256.61 157.15 256.766C157.133 256.077 156.538 256.216 156.147 256.059ZM159.151 242.616C158.806 244.834 157.815 243.537 156.648 243.322C156.131 245.697 158.206 244.423 159.151 244.736C160.33 244.962 161.032 245.854 162.659 245.442C162.848 242.598 162.98 243.705 163.662 241.203C162.166 241.452 162.384 244.11 160.153 243.322C159.919 241.811 160.872 241.979 161.657 241.909C161.747 240.363 161.246 239.656 160.153 239.789C160.009 238.538 162.511 237.594 161.156 236.957C160.001 235.555 160.597 237.136 159.652 237.664C158.485 237.432 157.495 236.94 157.15 235.544C156.299 233.522 156.747 239.158 158.649 237.664C158.941 240.201 157.17 239.818 155.646 239.789C156.891 240.629 157.31 242.627 159.151 242.616ZM160.153 216.447C159.898 216.818 160.519 217.345 160.654 217.154C160.913 216.783 160.293 216.25 160.153 216.447ZM159.151 218.567C158.896 218.938 159.516 219.471 159.652 219.274C159.911 218.915 159.29 218.37 159.151 218.567ZM159.151 215.034C158.896 215.399 159.516 215.932 159.652 215.74C159.911 215.37 159.29 214.837 159.151 215.034ZM157.15 198.057C157.594 198.486 158.045 198.909 158.152 198.057C158.029 197.165 157.154 197.339 157.15 198.057ZM158.649 195.932C158.908 195.572 158.288 195.034 158.152 195.225C157.893 195.596 158.514 196.128 158.649 195.932ZM157.15 201.59C157.409 201.226 156.784 200.687 156.648 200.884C156.39 201.243 157.01 201.782 157.15 201.59ZM156.147 210.782C155.888 211.147 156.509 211.686 156.648 211.495C156.903 211.124 156.283 210.591 156.147 210.782ZM157.15 203.716C156.891 204.081 157.511 204.62 157.651 204.423C157.91 204.052 157.285 203.519 157.15 203.716ZM152.634 245.448C152.901 246.022 153.16 246.595 153.136 247.568C153.547 247.435 153.637 246.861 154.138 246.861C154.627 246.885 154.529 247.724 154.639 248.275C156.086 247.093 153.711 245.413 152.634 245.448ZM155.145 216.447C155.132 215.758 154.533 215.897 154.142 215.74C154.159 216.424 154.754 216.291 155.145 216.447ZM153.641 236.957C154.163 237.693 154.418 236.638 154.142 236.25C153.625 235.521 153.366 236.569 153.641 236.957ZM154.142 198.057C154.561 198.88 154.804 199.951 154.643 201.59H156.147C156.024 200.82 155.149 201.11 155.145 200.177C155.864 199.14 155.531 197.93 154.142 198.057ZM155.646 189.566C155.387 189.931 156.008 190.47 156.147 190.273C156.406 189.908 155.782 189.369 155.646 189.566ZM160.659 192.393C159.968 191.686 160.876 191.228 159.656 190.273C158.69 191.582 159.262 191.57 157.655 190.979C156.468 189.398 158.28 192.543 159.155 192.393C158.489 194.576 156.928 191.072 156.151 193.099C157.676 193.337 160.022 194.675 160.663 198.057C162.207 198.55 161.624 198.55 163.169 198.057C162.774 196.013 160.745 196.285 159.66 195.225C160.461 193.997 161.92 193.696 163.67 193.812C163.21 192.578 162.101 192.248 160.663 192.398L160.659 192.393ZM159.652 198.057C159.397 198.416 160.018 198.955 160.153 198.764C160.412 198.399 159.792 197.86 159.652 198.057ZM160.153 200.177C160.17 200.861 160.765 200.727 161.156 200.884C161.143 200.195 160.543 200.334 160.153 200.177ZM163.666 209.369C163.921 209.01 163.3 208.471 163.165 208.663C162.906 209.027 163.526 209.566 163.666 209.369ZM163.666 190.979C163.407 191.35 164.028 191.883 164.167 191.686C164.426 191.321 163.802 190.782 163.666 190.979ZM166.669 215.034C165.798 212.7 163.991 214.281 163.666 216.447C163.21 216.256 161.981 213.812 163.165 213.621C162.709 211.698 162.236 215.503 160.659 214.327C160.474 213.122 161.053 212.989 161.661 212.914C161.209 210.545 160.543 212.294 159.656 212.914C158.871 212.607 159.229 210.684 157.655 211.501C157.737 212.323 157.544 212.758 157.154 212.914C157.614 214.148 158.719 214.478 160.157 214.327C161.431 216.789 164.295 219.117 167.175 217.154C167.257 215.619 165.396 216.829 164.668 216.447C164.792 215.202 165.527 214.837 166.669 215.034ZM167.171 188.859C166.912 189.23 167.532 189.763 167.672 189.566C167.931 189.195 167.31 188.662 167.171 188.859ZM168.177 258.886C167.918 259.257 168.539 259.789 168.679 259.592C168.933 259.222 168.313 258.689 168.177 258.886ZM169.681 246.861V245.448C169.254 245.576 169.208 245.17 169.18 244.742C168.206 244.458 168.444 247.968 169.681 246.861ZM168.679 188.153C168.42 188.512 169.04 189.051 169.18 188.859C169.434 188.489 168.814 187.956 168.679 188.153ZM169.18 186.739C168.921 187.099 169.541 187.637 169.681 187.446C169.936 187.075 169.315 186.543 169.18 186.739ZM172.183 252.52C173.235 251.669 170.922 249.636 170.178 248.981C168.473 250.765 171.904 251.211 172.183 252.52ZM171.682 188.153C171.698 188.836 172.294 188.703 172.684 188.859C172.672 188.17 172.072 188.309 171.682 188.153ZM172.183 211.495C172.278 212.294 172.684 211.883 172.684 211.495C172.59 210.69 172.183 211.101 172.183 211.495ZM172.183 234.837C171.144 234.211 171.9 234.988 172.684 235.544C174.147 236.58 173.449 235.602 172.183 234.837ZM177.196 197.351C175.967 198.017 177.841 200.125 178.699 200.177C178.552 198.735 177.344 198.793 177.196 197.351ZM178.699 197.351C178.445 197.71 179.065 198.248 179.201 198.057C179.459 197.687 178.839 197.154 178.699 197.351ZM179.702 203.009C179.443 203.38 180.063 203.913 180.203 203.716C180.458 203.345 179.842 202.813 179.702 203.009ZM183.211 205.836C182.956 206.201 183.576 206.74 183.712 206.543C183.971 206.184 183.35 205.639 183.211 205.836ZM182.212 211.495C183.001 211.553 184.123 211.147 184.213 212.202C185.61 212.52 183.819 208.344 185.216 208.663C184.468 207.203 181.884 209.097 182.212 211.495ZM182.709 184.62C182.968 184.249 182.348 183.716 182.212 183.913C181.953 184.272 182.574 184.811 182.709 184.62ZM181.711 205.129C181.966 204.759 181.345 204.226 181.21 204.423C180.951 204.793 181.571 205.326 181.711 205.129ZM180.704 233.424C180.959 233.053 180.343 232.52 180.203 232.717C179.944 233.088 180.565 233.621 180.704 233.424ZM180.203 247.568C180.458 247.203 179.842 246.664 179.702 246.861C179.443 247.226 180.063 247.765 180.203 247.568ZM179.201 248.981C180.413 247.556 178.33 249.352 178.198 250.395C177.791 253.638 179.435 250.261 179.201 248.981ZM178.699 234.837C178.445 235.208 179.065 235.741 179.201 235.544C179.459 235.185 178.839 234.646 178.699 234.837ZM180.203 210.782C180.273 209.468 180.532 208.425 181.206 207.956C180.199 206.184 179.349 210.047 177.697 207.956C178.416 208.993 178.083 210.203 176.699 210.076C176.912 211.657 179.168 210.365 180.203 210.782ZM176.699 211.495C176.44 211.854 177.06 212.393 177.196 212.202C177.454 211.831 176.834 211.298 176.699 211.495ZM177.196 233.424C176.974 232.393 176.76 233.499 176.197 233.424C176.32 234.31 177.192 234.136 177.196 233.424ZM175.696 215.74C175.951 215.37 175.33 214.837 175.195 215.034C174.936 215.399 175.556 215.932 175.696 215.74ZM175.195 206.543C175.449 206.184 174.829 205.639 174.693 205.836C174.431 206.201 175.055 206.74 175.195 206.543ZM174.693 205.129C174.948 204.759 174.328 204.226 174.192 204.423C173.933 204.793 174.554 205.326 174.693 205.129ZM173.687 210.782C173.428 211.147 174.049 211.686 174.188 211.495C174.443 211.124 173.827 210.591 173.687 210.782Z" fill="#F48C04"/>
</svg>
