<svg width="375" height="100" viewBox="0 0 375 100" fill="none" xmlns="http://www.w3.org/2000/svg">
<path fill-rule="evenodd" clip-rule="evenodd" d="M371.59 33.305C369.87 33.278 369.45 35.165 367.22 34.385C366.56 32.472 365.45 31.232 365.03 28.982C362.08 31.09 359.9 26.856 356.28 26.82C355.01 31.134 353.18 27.927 351.18 31.143C350.22 30.762 350.03 29.238 348.99 28.982C346.14 34.128 340.64 35.333 338.78 41.959C336.26 41.171 334.9 38.646 332.22 40.879C331.59 39.293 331.13 37.45 329.3 37.636C325.79 43.244 323.5 50.667 317.64 52.784C313.59 49.781 311.45 43.952 305.25 44.13C303.81 39.762 299.28 39.993 296.5 37.636C294.75 36.981 291.21 38.992 290.66 36.556C288.37 36.042 288.74 39.47 287.02 39.798C285.27 37.087 285.09 38.779 281.91 38.717C279.07 41.357 277.42 45.76 275.35 49.542C272.98 50.162 271.96 48.807 270.25 48.461C269.32 51.048 267.87 52.864 265.14 52.784C264.41 54.219 264.46 56.806 262.96 57.107C259.09 58.587 258.5 64.912 254.21 65.771C254.66 70.395 251.84 70.182 252.02 74.426C250.58 74.443 251.1 77.376 249.11 76.587C247.89 83.798 243.34 86.066 242.54 93.897C239.96 96.545 238.22 100.461 235.25 102.551C229.31 102.737 228.11 109.984 223.59 112.296C221.76 109.231 217.73 109.452 215.56 106.892C212.93 113.199 207.48 109.098 200.99 110.134C197.23 115.387 191.11 117.124 186.4 120.951C179.98 119.312 176.23 113.695 168.17 114.466C163.28 107.663 156.69 103.375 146.3 104.722C144.7 102.401 141.99 101.754 140.47 99.318C136.34 100.762 132.44 98.893 127.35 100.399C128.35 87.235 125.34 74.523 127.24 63.211C126.41 69.022 129.87 64.061 129.54 67.95C132.16 66.426 133.47 62.963 135.37 60.376C136.66 62.396 137.5 59.907 139.02 59.295C137.88 63.149 141.49 59.951 141.2 62.538C142.65 62.555 142.13 65.496 144.12 64.699C143.98 61.953 140.29 58.941 141.93 57.134C142.66 58.569 142.62 61.165 144.12 61.457C144.43 59.198 143.62 58.596 143.39 57.134C145.6 57.098 144.09 62.573 146.3 62.538C147.18 57.869 143.92 56.478 145.57 53.883C147.05 55.229 151.58 57.586 149.22 52.802C151.32 53.289 150.94 57.453 152.86 58.206C153.06 55.655 154.81 59.455 155.78 59.287C156.3 55.982 154.52 56.106 155.05 52.802C156.51 53.165 157.33 52.581 157.24 50.641C154.8 51.721 154.85 49.135 155.05 46.318C153.69 45.281 152.61 49.551 152.13 46.318C154.92 44.537 151.32 40.781 155.05 43.075C155.45 40.675 153.66 41.525 153.59 39.824C156.2 40.338 157.8 41.587 160.15 39.824C160.79 34.793 157.76 40.56 157.97 37.663C159.05 34.722 160.79 32.764 163.07 34.421C162.82 32.25 163.21 31.037 164.53 31.179C162.88 33.925 167.41 34.084 168.17 36.582C169.72 32.995 170.28 39.833 172.54 38.744C173.33 35.989 169.4 34.952 171.81 33.34C171.93 35.342 174.28 34.004 174.73 35.501C174.89 37.424 173.99 40.914 176.19 39.824C177.78 37.565 175.82 36.742 176.19 33.331C180.4 34.678 176.36 29.735 178.37 29.008C179.34 30.806 178.11 35.891 180.56 35.501C182.34 34.066 179.76 31.48 181.29 31.179C181.6 34.173 183.58 31.232 182.75 29.017C183.99 28.831 185.61 35.147 185.66 30.098C185.68 29.044 186.55 29.256 187.11 29.017C187.66 25.314 184.16 27.644 184.93 23.613C187.78 25.314 186.44 20.805 187.84 20.362C189.95 22.285 193.43 22.178 195.86 23.613C196.19 19.521 192.06 22.045 191.5 19.282C188.02 20.123 186.8 17.598 183.47 18.201C184.11 14.728 181.07 16.721 181.29 13.878C177.62 14.826 176.4 13.594 171.81 13.878C171.51 11.07 169.63 10.618 169.62 7.3934C172.33 9.2183 171.05 7.1631 172.54 5.232C174.71 3.6817 175.02 6.1178 176.91 4.1512C175.86 5.7369 176.35 7.5795 178.36 7.3934C180.24 4.7093 177.87 3.5311 176.91 1.9809C178.63 1.2633 181.53 6.543 181.28 1.9809C178.48 -5.3274 171.71 7.8984 170.34 -0.1806C170.99 0.6698 171.99 0.9888 173.26 0.9002C174.16 -2.5989 170.9 0.0763 171.8 -3.4228C175.85 -0.8361 171.83 -5.8411 174.72 -6.665C176.89 -7.9583 177.19 -6.9573 179.09 -5.5843C179.44 -8.9948 176.85 -8.0292 177.63 -12.069C176.17 -11.705 175.35 -12.29 175.45 -14.23C176.09 -13.389 177.09 -13.07 178.36 -13.15C178.11 -16.755 175.38 -16.666 175.45 -20.723C176.4 -19.616 178.13 -19.66 179.09 -18.553C179.18 -23.381 174.62 -21.308 173.99 -25.046C173.82 -22.256 172.73 -26.526 171.07 -25.046C171.26 -28.572 168.24 -27.341 168.16 -30.45C164.04 -28.661 163.01 -28.306 159.41 -27.208C159.7 -29.803 156.08 -26.614 157.22 -30.45C160.85 -28.173 158.03 -31.168 157.95 -34.773C160.25 -35.987 159.6 -34.879 162.32 -34.773C162.77 -38.254 159.7 -36.261 161.59 -33.096C163.8 -36.677 165.32 -35.2 168.16 -33.853C169.08 -37.158 165.66 -39.364 167.43 -40.347C167.66 -38.496 169.69 -41.339 170.34 -38.177C171.5 -38.38 170.18 -33.879 172.53 -34.853C173.6 -38.707 170.18 -41.338 171.8 -42.428C173.1 -44.439 173.65 -41.542 176.18 -42.428C175.97 -39.602 176.44 -37.777 178.36 -38.096C176.85 -42.561 177.87 -44.811 176.18 -47.84C179.25 -47.654 176.16 -49.506 176.18 -51.083C177.96 -50.48 177.73 -46.893 180.55 -47.84C180.97 -52.854 176.14 -49.311 178.36 -54.325C175.57 -56.052 175.54 -53.129 174.72 -54.325C174.81 -58.975 177.83 -52.509 177.63 -57.567C177.43 -61.367 174.4 -55.609 174.72 -58.648C177.61 -61.757 178.63 -59.64 182.74 -59.728C181.63 -64.246 178.82 -61.288 176.91 -62.98H173.27C171.65 -63.821 170.42 -65.247 168.16 -65.141C164.99 -64.999 164.43 -62.04 160.14 -64.06C158.84 -61.146 163.36 -61.97 160.87 -60.818C158.86 -57.859 160.19 -62.404 158.68 -62.98C157.58 -60.995 155.54 -60.428 154.31 -58.648C153.31 -56.185 156.19 -54.582 154.31 -54.325C150.53 -53.82 147.18 -51.871 143.38 -48.921C143.85 -50.02 145.05 -50.037 144.83 -52.163C143.22 -51.57 143.79 -54.227 142.65 -54.325C141.93 -53.217 141.21 -52.137 140.46 -51.083C138.5 -53.846 133.01 -53.776 135.36 -59.737C134.12 -59.294 131.48 -57.434 128.8 -56.495C125.56 -55.361 125.56 -55.176 125.15 -58.657C124.62 -57.656 123.82 -57.018 122.96 -56.495C122.76 -58.24 123.66 -58.364 123.69 -59.737C118.55 -58.373 118.25 -59.755 113.49 -61.908C113.99 -62.776 114.62 -64.866 113.49 -65.15C113.82 -63.387 109.52 -63.387 109.84 -65.15C111.62 -67.178 108.42 -69.074 112.03 -67.311C112.56 -70.261 110.59 -69.49 110.57 -71.634C112.77 -70.926 113.12 -67.471 116.41 -68.392C117.54 -72.237 113.93 -69.039 114.23 -71.634C115.46 -71.236 115.59 -72.485 115.68 -73.796C114.09 -74.487 113.36 -70.731 113.5 -74.876C111.84 -76.365 110.75 -72.086 110.58 -74.876C111.23 -75.364 111.88 -75.824 112.04 -77.038C108.81 -75.975 110.13 -76.87 107.66 -78.119C104.98 -76.701 102.02 -75.683 98.18 -75.958C97.66 -74.469 92.49 -74.442 95.27 -71.634C96.2 -71.98 97.65 -73.45 100.38 -73.796C99.48 -67.701 102.94 -74.239 103.29 -69.473C101.43 -69.517 102.4 -68.667 102.57 -67.312C101.02 -65.637 99.31 -64.193 97.46 -62.989C94.28 -66.08 91.57 -63.44 87.99 -66.231C88.25 -64.388 87.41 -64.193 86.53 -64.069C83.08 -64.494 80.44 -63.724 77.78 -62.989C77.14 -57.948 80.18 -63.715 79.96 -60.827C79.09 -59.401 79.68 -59.126 79.96 -57.576C75.14 -53.368 67.13 -59.755 65.38 -52.173C67.61 -53.808 69.09 -48.875 69.76 -51.497C68.86 -51.967 68.26 -52.871 68.3 -54.731C71.61 -57.69 70.24 -50.913 73.4 -53.65C72.54 -55.971 70.24 -56.175 69.03 -57.973C69.47 -59.842 72.48 -57.893 72.67 -60.134C71.21 -59.771 70.39 -60.355 70.48 -62.295C71.86 -65.697 74.28 -59.682 74.86 -62.295C73.79 -63.252 72.03 -63.163 72.67 -66.627C73.27 -70.161 75.23 -61.276 76.31 -65.546C74.75 -65.838 72.81 -71.047 74.13 -72.03C75.63 -70.285 75.53 -66.183 78.5 -66.627C78.39 -63.934 78.36 -61.374 79.95 -61.214C79.87 -65.741 84.22 -62.897 84.33 -64.456C82.35 -65.457 85.35 -67.84 84.33 -70.949C87.06 -68.611 87 -72.322 89.43 -73.111C90 -69.257 92.09 -67.698 93.8 -65.546C91.47 -70.808 97.02 -69.771 97.44 -70.949C97.28 -72.508 95.27 -71.321 95.26 -73.111C95.7 -74.608 98.06 -73.279 98.17 -75.272C97.2 -76.353 96.74 -78.195 95.26 -78.514C95.39 -74.368 94.66 -78.124 93.07 -77.433C92.92 -79.285 94.32 -80.233 93.07 -80.675C92.54 -79.674 91.75 -79.036 90.89 -78.514C93.18 -72.153 84.4 -75.98 83.59 -70.939C85.39 -71.789 88.64 -67.014 88.69 -72.029C88.91 -74.916 85.87 -69.15 86.51 -74.19C88.45 -77.078 89.97 -73.845 91.61 -73.109C90.77 -76.511 92.75 -75.731 93.07 -77.432C91.09 -78.105 91.25 -81.949 88.69 -81.754C82.69 -81.364 79.09 -75.562 77.03 -83.136C80.28 -84.739 80.8 -82.365 84.32 -82.055C85.02 -78.946 86.74 -81.346 87.24 -79.894C85.72 -80.496 85.69 -81.586 86.51 -83.136C85.02 -84.172 83.62 -85.35 82.14 -86.378C81.12 -83.127 77.74 -85.421 75.57 -86.378C74.93 -91.418 77.98 -85.651 77.76 -88.548C75.85 -91.144 73.13 -90.063 70.46 -88.548C70.31 -90.391 71.71 -91.347 70.46 -91.79C65.41 -91.604 62.02 -86.439 60.26 -93.951C62.07 -94.119 62.51 -92.25 63.9 -91.789C63.58 -94.296 60.69 -94.677 62.44 -97.193C64.41 -97.512 66.61 -92.675 68.28 -96.112C68.19 -91.47 65.17 -97.928 65.36 -92.87C67.19 -94.251 67.65 -92.32 68.28 -93.95C64.99 -94.747 67.62 -98.025 66.09 -100.434C61.58 -101.391 56.8 -98.299 56.61 -103.685C59.85 -103.101 60.47 -101.852 62.45 -101.524C61.59 -107.059 65.53 -104.455 66.09 -106.847C63.09 -108.158 63.14 -114.004 59.53 -114.412C59.13 -116.812 60.92 -115.953 60.99 -117.654C59.48 -116.715 57.71 -120.462 59.53 -120.896C61.49 -119.479 62.14 -116.13 63.9 -114.412C63.33 -115.369 63.12 -116.848 63.17 -118.735C65.66 -118.292 64.1 -115.82 66.82 -117.654C68.2 -115.634 68.65 -117.539 70.46 -117.654C70.76 -120.267 69.12 -120.01 69.73 -123.067C71.81 -122.544 71.83 -118.956 72.64 -116.573C72.24 -115.563 70.62 -114.934 71.92 -114.412C73.81 -116.254 75.64 -116.937 73.37 -119.816C76.8 -121.251 76.49 -111.533 78.48 -114.412C77.83 -114.89 77.17 -115.36 77.02 -116.573C80.13 -117.592 78.99 -112.295 81.39 -112.25C81.86 -114.616 79.32 -115.696 82.12 -115.493C83.71 -115.696 84.14 -113.083 84.31 -111.17C88.56 -113.296 97.83 -108.326 101.81 -110.089C102.09 -112.684 98.48 -109.495 99.62 -113.331H102.54C101.91 -116.06 97.9 -119.373 99.62 -121.986C101.08 -118.744 102.36 -115.227 104.72 -113.331C104.25 -115.971 103.25 -118.894 106.18 -118.735C106.19 -112.906 106.11 -115.634 108.36 -116.573C109.06 -114.554 106.18 -112.959 108.36 -112.25C108.85 -115.856 112.08 -115.395 112.74 -118.735C112.84 -122.916 115.2 -123.731 114.92 -128.479C113.61 -128.621 113.38 -127.159 112.01 -127.398C111.93 -130.18 109.29 -129.135 108.36 -130.641C104.87 -129.657 103.26 -134.689 99.61 -131.721C101.42 -131.881 103.15 -131.916 103.26 -129.56C97.47 -131.092 91.65 -132.634 87.22 -128.479C88.4 -134.556 83.77 -132.014 83.57 -136.053C85.9 -136.974 85.82 -134.352 87.22 -133.892C88.17 -138.782 90.99 -134.574 92.32 -139.295C90.19 -138.33 90.08 -138.33 87.95 -139.295C88.87 -142.821 89 -141.59 89.4 -144.699C88.73 -145.86 86.71 -145.036 87.22 -147.95C90.17 -149.447 89.53 -145.594 91.59 -145.789C92.04 -147.286 94.4 -145.948 94.51 -147.95C96.33 -149.376 96.79 -143.671 97.42 -146.869C97.11 -148.561 95.12 -147.791 95.97 -151.192C98.21 -151.998 97.37 -148.216 99.61 -149.031C98.66 -147.596 98.65 -145 100.34 -144.699C101.11 -145.709 100.56 -148.694 102.52 -147.95C104.52 -146.807 105.63 -146.807 107.62 -147.95C107.59 -145.186 108.17 -146.63 109.08 -146.869C109.87 -146.604 109.58 -144.717 110.54 -144.699C110.42 -147.755 112.6 -147.419 113.45 -149.031C114.11 -146.763 115.6 -145.727 117.82 -145.789C116.55 -149.616 118.31 -148.446 118.55 -152.273V-181.48C110.32 -182.055 107.82 -184.491 99.59 -184.722C91.43 -188.478 86.04 -196.344 76.27 -197.708C70.76 -202.891 65.25 -208.046 58.04 -210.695C56.64 -215.115 53.1 -216.347 50.02 -218.26C48.26 -218.703 48.43 -216.285 46.37 -217.179C44.62 -219.979 41.47 -220.723 37.62 -220.422C36.25 -221.626 35.06 -223.123 33.25 -223.664C31.64 -223.699 30.01 -223.726 28.39 -223.752C25.5 -222.583 22.33 -221.609 18.39 -221.174C18.34 -219.022 13.94 -219.89 15.1 -216.914C5.17 -219.669 0.04 -211.935 -9.33 -210.916C-16.81 -212.573 -25.65 -213.352 -30.41 -216.754C-39.84 -216.515 -45.19 -215.93 -53.2 -212.892C-60.97 -215.904 -65.44 -210.916 -71.08 -213.255C-71.74 -209.72 -75.88 -208.587 -77.65 -205.814C-80.78 -203.98 -87.67 -204.742 -87.45 -200.596C-95.08 -200.419 -98.81 -197.558 -106.98 -197.753C-107.21 -194.998 -109.38 -193.607 -113.52 -193.554C-122.99 -194.661 -139.22 -201.119 -146.01 -194.209C-149.84 -194.262 -150.78 -196.176 -155.75 -195.485C-157.23 -193.598 -159.71 -192.402 -160.68 -190.17C-167.24 -192.42 -172.13 -188.274 -180.2 -188.407C-182.97 -192.783 -187.08 -189.665 -191.53 -192.969C-193.67 -192.624 -194.1 -191.109 -196.42 -190.905C-202.73 -196.185 -214.99 -197.637 -219.06 -204.352C-224.7 -203.67 -227.74 -201.207 -233.69 -203.564C-235.12 -202.005 -236.16 -200.18 -240.22 -200.446C-248 -206.204 -253.04 -213.733 -266.08 -216.116C-275.15 -213.308 -279.98 -207.568 -293.79 -208.028C-297.03 -203.732 -307.12 -204.157 -313.35 -201.934C-317.24 -201.358 -325.12 -203.537 -326.36 -201.119C-331.47 -200.702 -330.63 -204.113 -334.45 -204.529C-335.6 -203.768 -336.44 -203.369 -337.23 -203.201V-343H-0.000305176V-247.07C2.26764 -247.904 4.552 -248.217 5.79279 -245.471L5.78448 -245.448Z" fill="#F48C04"/>
</svg> 