<svg width="611" height="195" viewBox="0 0 611 195" fill="none" xmlns="http://www.w3.org/2000/svg">
<path d="M339.576 0.00076355C332.376 -0.0664172 324.602 4.30835 320.507 9.64964C318.383 12.419 312.945 18.5828 311.955 19.6482C308.307 23.5738 301.248 22.5121 297.077 27.0003C291.583 32.9127 287.085 37.3732 281.366 43.5273C280.884 44.0465 269.807 39.2354 263.953 45.5347C260.535 49.2125 254.168 57.638 246.993 69.1373C239.239 81.5652 234.673 115.176 217.127 128.126C209.917 133.448 125.5 146 102.495 147.362C91 148.278 65 147.362 54.135 148.278C48 148.278 22 151.5 13 154C3.47768 156.645 3.29819 159.477 0 168.35V195H610C608.466 192.879 611.645 186.77 610 185C604.917 179.53 610.019 174.665 605.245 168.5C598.978 160.408 599.877 157.233 592.911 149.738C585.109 141.342 579.703 138.205 571.347 130.713C564.25 124.349 560.623 116.075 554.622 109.451C545.976 99.908 523.13 91.9342 521.049 88.576C508.41 68.1746 518.151 74.8028 501.867 57.2802C500.214 55.5015 485.511 51.056 483.999 52.6835C480.853 56.0685 470.224 44.5568 467.832 43.5273C462.292 41.1425 455.758 34.4402 452.207 31.8923C446.531 27.8208 431.991 31.1539 429.268 34.0841C425.355 38.2946 421.122 52.2541 417.526 56.1238C416.258 57.4887 407.342 59.1011 405.656 60.0084C404.225 60.7786 395.715 70.3703 394.595 69.1646C391.268 65.585 390.993 56.1324 386.937 51.7681C383.633 48.2131 380.953 42.342 377.46 40.4626C372.514 37.8016 367.324 33.865 364.156 30.456C356.102 21.7894 357.612 7.69531 346.428 1.67779C344.312 0.539586 341.976 0.0231571 339.576 0.00076355Z" fill="#F48C04"/>
<path fill-rule="evenodd" clip-rule="evenodd" d="M80.9996 152.563C80.9996 152.563 79.697 149.124 79.9203 145.934C80.1433 142.744 80.8152 137.075 80.2033 135.134C79.5916 133.188 78.5959 131.165 78.8956 128.861C79.1949 126.557 80.1091 125.133 80.1816 123.979C80.2543 122.825 80.3331 122.383 80.3331 122.383C80.3331 122.383 78.3435 119.131 78.4181 116.563C78.4879 113.995 79.0973 114.695 79.5565 115.136C80.0109 115.572 81.4646 117.416 81.4646 117.416L82.5273 118.024C82.5273 118.024 85.63 106.747 87.071 104.518C88.5118 102.288 96.5515 87.5952 99.5161 84.6416C102.481 81.6883 110.075 73.549 115.557 74.0159C121.035 74.4887 130.479 77.3922 135.047 76.4609C139.61 75.5239 154.217 70.5816 160.155 71.5768C166.097 72.5775 172.192 75.5181 172.192 75.5181C172.192 75.5181 176.682 75.1149 178.361 77.7506C180.041 80.3863 180.736 86.7535 181.357 90.9945C181.974 95.2355 183.06 105.493 184.743 109.902C186.426 114.311 186.43 116.258 187.501 118.547C188.567 120.836 188.797 121.54 188.797 121.54L186.391 117.006C186.391 117.006 188 121.503 188.151 122.608C188.308 123.713 188.197 125.395 188.197 125.395C188.197 125.395 187.887 122.524 187.427 121.509C186.971 120.5 186.856 120.281 186.856 120.281C186.856 120.281 187.739 125.713 187.824 128.326C187.903 130.933 187.751 131.994 187.751 131.994L187.323 126.998C187.323 126.998 187.109 132.227 187.188 134.527C187.267 136.827 187.039 137.803 187.039 137.803L186.496 132.588L186.324 141.659L185.624 132.551C185.624 132.551 185.558 139.9 185.339 142.116L185.114 144.332L184.708 132.915L184.155 140.756C184.155 140.756 183.836 132.837 183.834 132.084L183.833 131.33C183.833 131.33 183.265 134.217 183.382 135.45C183.499 136.689 183.386 137.664 183.386 137.664L182.726 131.122L182.282 136.082C182.282 136.082 181.74 131.753 181.966 129.89C182.186 128.028 182.035 126.882 182.035 126.882C182.035 126.882 181.199 127.419 181.049 129.988C180.905 132.557 180.905 133.003 180.905 133.003C180.905 133.003 180.29 128.935 180.509 126.545C180.734 124.15 180.581 122.737 180.58 122.117C180.579 121.497 179.599 127.436 179.599 127.436C179.599 127.436 179.362 123.371 179.587 121.595C179.813 119.825 179.506 118.055 179.2 117.085C178.894 116.115 178.624 115.724 178.624 115.724C178.624 115.724 178.817 117.709 178.934 118.728C179.051 119.747 179.127 120.453 179.127 120.453C179.127 120.453 178.363 117.227 178.246 116.035C178.129 114.842 176.939 110.208 176.934 107.64L176.927 104.013L176.022 107.471C176.022 107.471 176.622 103.396 176.619 101.976L176.614 99.5015C176.614 99.5015 174.416 104.394 173.204 106.621C171.988 108.848 171.995 112.563 172.835 114.234C173.676 115.911 175.511 119.252 176.279 121.724C177.041 124.19 176.299 132.167 176.454 135.173C176.615 138.185 177.914 142.505 177.235 144.46C176.551 146.415 175.187 147.137 174.959 147.76C174.731 148.382 175.112 149.618 174.58 150.511C174.049 151.403 169.559 151.273 168.876 151.194C168.188 151.109 168.798 149.641 169.554 148.972C170.315 148.298 171.985 145.938 172.287 144.694C172.588 143.451 172.195 135.887 172.189 133.053C172.184 130.219 170.344 124.751 169.429 122.994C168.513 121.231 165.914 117.191 165.914 117.191C165.914 117.191 165.317 122.952 165.32 124.1C165.322 125.253 166.236 126.483 165.253 128.528C164.266 130.573 158.283 144.449 158.283 144.449C158.283 144.449 157.754 147.022 156.838 147.386C155.927 147.749 154.941 148.201 154.713 148.916C154.485 149.625 154.412 150.641 153.994 150.912C153.576 151.183 149.615 151.713 149.006 151.013C148.397 150.313 149.689 148.259 150.828 147.232C151.967 146.199 152.764 146.237 153.41 145.164C154.056 144.096 159.173 133.15 159.168 130.762C159.163 128.375 158.234 119.53 158.534 117.226C158.833 114.922 157.601 109.048 157.601 109.048C157.601 109.048 155.318 108.719 154.898 108.191C154.478 107.668 154.026 108.426 153.3 109.141C152.579 109.857 150.536 114.834 142.544 116.162C134.554 117.491 126.329 113.954 125.491 113.696C124.653 113.439 123.129 113.543 123.129 113.543C123.129 113.543 123.601 120.532 123.607 123.54C123.612 126.548 124.148 127.788 123.997 129.644C123.851 131.506 123.777 134.254 124.393 135.841C125.004 137.422 126.078 141.397 126.081 142.724C126.083 144.051 126.39 145.375 125.326 146.714C124.262 148.053 123.96 149.122 123.807 150.098C123.66 151.073 122.749 151.703 121.528 151.804C120.313 151.904 117.802 152.552 117.8 151.578C117.798 150.604 118.937 149.178 119.618 148.371C120.304 147.569 122.355 146.04 122.043 142.235C121.732 138.437 120.812 134.46 119.74 131.378C118.667 128.289 118.586 124.929 117.894 122.989C117.208 121.044 114.305 117.008 114.305 117.008C114.305 117.008 110.141 128.65 109.841 130.687C109.541 132.725 108.947 139.726 109.023 140.786C109.1 141.851 108.878 142.914 108.116 143.009C107.353 143.105 106.591 143.473 106.593 144.266C106.595 145.066 106.981 146.389 106.598 146.921C106.221 147.458 100.894 147.87 100.738 147.165C100.587 146.46 103.095 144.218 103.626 143.059C104.157 141.906 105.894 135.952 106.422 133.205C106.95 130.452 107.693 120.175 107.376 116.464C107.065 112.747 106.151 111.696 106.151 111.696C106.151 111.696 104.171 110.832 103.711 109.863C103.255 108.894 102.721 108.193 102.721 108.193C102.721 108.193 101.272 108.829 99.299 111.772C97.3264 114.714 92.3951 123.624 92.0934 124.862C91.792 126.105 93.1 132.465 92.5708 134.598C92.0417 136.725 90.6005 138.867 89.3091 141.095C88.0178 143.318 86.9631 146.783 87.0397 147.756C87.1164 148.729 86.8148 149.972 86.5119 150.509C86.2089 151.039 85.3749 152.642 84.6875 152.83C84.0052 153.011 83.2428 153.066 83.2428 153.066C83.2428 153.066 81.6846 153.79 80.9996 152.563Z" fill="#F48C04"/>
</svg> 