<svg width="1680" height="270" viewBox="0 0 1680 270" fill="none" xmlns="http://www.w3.org/2000/svg">
<path fill-rule="evenodd" clip-rule="evenodd" d="M572.582 99.1302C572.582 99.1302 573.73 97.652 573.783 96.6003C573.843 95.5485 574.629 95.3426 574.578 94.3838C574.528 93.4251 573.968 90.9317 572.2 89.6712C570.425 88.4169 565.736 83.6077 562.105 79.4226C558.475 75.2376 557.426 72.6347 557.426 72.6347C557.426 72.6347 558.31 68.8881 558.415 67.5677C558.515 66.2472 558.305 65.4723 558.305 65.4723L555.971 69.7533C555.971 69.7533 555.963 66.3945 555.751 65.5625C555.532 64.7304 555.526 64.6162 555.526 64.6162C555.526 64.6162 553.985 66.6426 553.647 67.7933C553.309 68.944 553.232 70.6898 552.974 71.1761C552.716 71.6623 552.099 71.8686 550.352 72.1657C548.605 72.469 547.498 72.9853 546.763 73.132C546.034 73.2787 545.051 74.0895 543.918 74.1295C542.786 74.1695 541.375 73.8631 540.209 73.8406C539.037 73.8247 538.238 74.2412 538.238 74.2412C538.238 74.2412 540.031 73.7896 540.802 74.0932C541.572 74.397 542.478 74.6193 542.782 74.6786C543.082 74.7445 541.203 74.7216 540.436 74.7042C539.668 74.6869 539.691 74.8834 539.165 75.0925C538.633 75.3085 538.19 75.2797 538.19 75.2797C538.19 75.2797 538.946 75.2975 539.423 75.1918C539.901 75.0858 539.808 74.9237 540.491 74.9442C541.174 74.9645 541.661 75.0492 541.661 75.0492C541.661 75.0492 540.358 76.2084 539.465 76.4497C538.566 76.685 537.019 76.4154 535.577 76.6443C534.14 76.8732 533.702 77.1623 533.702 77.1623C533.702 77.1623 535.515 76.7358 536.34 76.8146C537.171 76.8872 538.315 77.0694 538.315 77.0694C538.315 77.0694 536.491 79.1121 535.642 79.1421C534.786 79.1723 533.753 77.8921 532.286 78.1219C530.82 78.3581 530.705 78.3622 530.705 78.3622C530.705 78.3622 533.179 78.3321 533.975 78.902C534.778 79.4716 534.975 80.0055 534.975 80.0055C534.975 80.0055 533.916 79.3875 533.482 79.1612C533.041 78.935 532.866 78.693 532.866 78.693C532.866 78.693 533.227 79.1255 533.476 79.2821C533.726 79.4387 534.293 79.7816 534.293 79.7816C534.293 79.7816 533.309 79.1991 532.818 79.0511C532.327 78.903 531.729 78.8797 531.729 78.8797C531.729 78.8797 532.928 79.181 533.313 79.5107C533.699 79.8407 534.081 80.3362 534.081 80.3362C534.081 80.3362 532.391 79.5307 531.339 79.5041C530.282 79.4842 529.761 79.8016 529.411 79.6929C529.068 79.5843 528.856 79.3564 528.856 79.3564C528.856 79.3564 529.031 79.6936 529.378 79.8595C529.731 80.0253 530.122 79.8905 530.5 79.8518C530.884 79.8063 531.404 79.7119 532 79.9007C532.589 80.0897 533.354 80.5143 533.354 80.5143C533.354 80.5143 531.823 80.0914 531.341 80.1085C530.859 80.1255 530.639 80.3112 530.218 80.4471C529.802 80.5762 528.997 80.4264 528.997 80.4264C528.997 80.4264 529.765 80.6857 530.513 80.5511C531.255 80.4232 531.498 80.4591 531.817 80.556C532.136 80.6466 532.711 80.8045 532.711 80.8045C532.711 80.8045 531.406 80.5386 530.922 80.7467C530.432 80.9613 530.106 81.1954 529.775 81.2071C529.45 81.2186 528.707 80.8693 528.707 80.8693C528.707 80.8693 529.108 81.1416 529.452 81.263C529.803 81.3906 529.981 81.3397 530.307 81.2327C530.628 81.1326 531.017 80.9532 531.354 80.9287C531.697 80.9038 531.914 81.0169 531.914 81.0169C531.914 81.0169 530.066 81.5721 529.416 82.1931C528.767 82.8202 528.131 83.1102 528.131 83.1102C528.131 83.1102 529.277 82.5288 529.63 82.2365C529.988 81.9377 531.383 81.4811 531.383 81.4811C531.383 81.4811 529.588 82.238 529.268 82.8153C528.943 83.3995 528.803 83.7287 528.497 83.8796C528.191 84.0242 527.874 83.9714 527.874 83.9714C527.874 83.9714 528.296 84.0837 528.597 83.9521C528.905 83.8268 529.167 83.0796 529.3 82.973C529.439 82.8602 529.95 82.3585 530.342 82.2428C530.735 82.1335 530.885 82.1092 530.885 82.1092C530.885 82.1092 529.875 84.3714 529.169 85.0579C528.468 85.7442 527.515 85.988 526.965 86.4271C526.421 86.8662 526.291 87.6152 526.291 87.6152C526.291 87.6152 526.875 86.5449 527.473 86.3203C528.07 86.0893 528.571 85.8616 528.78 85.689C528.982 85.5165 528.994 85.5161 528.994 85.5161C528.994 85.5161 528.013 86.2505 527.69 86.6564C527.373 87.0557 527.246 87.4037 526.964 87.6552C526.675 87.9008 526.435 87.9411 526.435 87.9411C526.435 87.9411 526.903 87.8737 527.185 87.6092C527.472 87.3445 527.63 86.894 527.767 86.7554C527.899 86.617 528.548 86.1043 528.548 86.1043C528.548 86.1043 527.722 88.0674 527.052 88.8736C526.388 89.6731 525.378 90.5484 525.378 90.5484L527.638 88.6429L524.806 91.4973C524.806 91.4973 527.787 89.2929 528.15 88.6248C528.513 87.9503 528.538 87.8604 528.538 87.8604C528.538 87.8604 527.818 89.896 527.03 90.5219C526.236 91.1478 525.858 91.5176 525.858 91.5176C525.858 91.5176 527.078 90.9655 527.778 90.1644C528.472 89.3576 528.711 88.9609 528.711 88.9609C528.711 88.9609 528.038 91.3259 526.94 92.1407C525.849 92.9618 525.146 93.133 524.71 93.002C524.281 92.8644 524.106 92.7498 524.106 92.7498C524.106 92.7498 524.348 93.1037 524.708 93.1929C525.069 93.2881 525.305 93.4133 525.821 93.2299C526.336 93.0463 526.489 92.9646 526.489 92.9646C526.489 92.9646 525.361 94.8175 523.965 95.2293C522.561 95.6353 520.796 95.5767 520.796 95.5767L522.922 95.9533C522.922 95.9533 521.584 96.4524 520.704 96.4834C519.825 96.5145 519.279 96.4702 519.279 96.4702C519.279 96.4702 520.574 96.7553 521.683 96.7162C522.791 96.677 523.669 96.6141 523.669 96.6141C523.669 96.6141 522.612 98.2099 519.698 99.0316C516.79 99.8532 515.733 101.449 512.481 102.283C509.223 103.117 495.697 103.238 492.923 102.376C490.149 101.513 479.595 99.729 473.569 101.984C467.549 104.232 462.196 108.378 462.196 108.378C462.196 108.378 458.024 109.06 456.028 112.191C454.032 115.315 450.789 122.86 448.858 124.009C446.932 125.159 445.648 124.6 445.072 123.303C444.491 122.007 444.019 119.568 444.019 119.568C444.019 119.568 443.868 120.947 444.246 122.735C444.623 124.515 446.109 125.786 446.109 125.786C446.109 125.786 443.991 124.423 443.298 123.188C442.611 121.953 442.65 120.513 442.65 120.513C442.65 120.513 442.553 123.036 443.412 124.202C444.27 125.368 445.217 126.053 445.217 126.053C445.217 126.053 443.312 125.522 442.562 124.232C441.812 122.942 441.6 122.23 441.6 122.23C441.6 122.23 442.12 124.547 442.797 125.483C443.468 126.414 444.399 126.801 444.399 126.801C444.399 126.801 442.357 126.873 440.271 125.089C438.192 123.305 437.58 120.394 437.58 120.394C437.58 120.394 437.88 122.782 438.512 124.012C439.145 125.25 439.628 125.83 439.628 125.83C439.628 125.83 435.879 123.749 434.706 121.99C433.534 120.238 430.904 119.936 430.136 119.906C429.368 119.876 429.089 119.975 429.089 119.975C429.089 119.975 432.089 120.314 432.924 121.035C433.759 121.756 434.164 122.461 434.448 122.928C434.726 123.402 436.101 124.638 436.101 124.638L437.958 126.43C437.958 126.43 434.075 123.991 433.344 123.056C432.613 122.128 432.175 121.361 432.175 121.361C432.175 121.361 433.222 123.48 433.69 124.246C434.159 125.006 436.214 126.314 436.214 126.314C436.214 126.314 433.179 124.742 432.156 123.76C431.139 122.778 430.697 121.954 430.697 121.954C430.697 121.954 431.351 123.489 432.092 124.602C432.832 125.715 433.252 126.119 433.252 126.119C433.252 126.119 430.327 123.525 429.105 123.028C427.884 122.53 426.239 122.588 426.239 122.588C426.239 122.588 429.064 123.271 430.145 124.429C431.232 125.593 431.541 126.059 431.541 126.059C431.541 126.059 429.006 124.348 427.062 124.117C425.113 123.887 424.68 124.265 423.85 123.633C423.02 123.001 422.778 122.653 422.778 122.653C422.778 122.653 423.532 124.007 424.75 124.562C425.974 125.116 427.632 125.3 428.271 125.512C428.91 125.732 432.583 127.517 432.583 127.517C432.583 127.517 426.664 125.27 424.39 125.293C422.121 125.31 420.12 126.163 420.12 126.163C420.12 126.163 424.103 125.24 427.192 126.575C430.273 127.904 431.155 128.47 431.155 128.47C431.155 128.47 426.927 126.94 424.201 127.094C421.481 127.253 420.205 127.776 420.205 127.776C420.205 127.776 425.486 127.653 428.206 128.632C430.931 129.617 431.357 130.142 431.357 130.142C431.357 130.142 426.649 129.227 424.54 129.181C422.431 129.135 422.005 129.633 421.019 129.248C420.033 128.863 419.314 128.17 419.314 128.17C419.314 128.17 420.007 129.519 421.683 129.943C423.353 130.362 426.191 130.261 427.966 130.498C429.74 130.734 430.908 131.354 430.908 131.354C430.908 131.354 426.219 130.801 424.231 130.871C422.242 130.941 419.246 131.226 419.246 131.226C419.246 131.226 424.189 131.114 427.007 131.791C429.832 132.474 431.314 132.536 431.314 132.536C431.314 132.536 427.542 132.192 425.575 132.681C423.615 133.17 421.405 132.231 421.405 132.231C421.405 132.231 423.258 133.959 425.635 133.818C428.018 133.676 432.058 133.712 432.446 133.52C432.834 133.322 427.098 134.542 426.064 134.401C425.036 134.259 423.281 133.933 423.281 133.933C423.281 133.933 425.269 134.881 427.794 134.817C430.32 134.759 433.71 134.372 433.71 134.372C433.71 134.372 431.937 136.35 428.629 136.11C425.32 135.865 422.172 134.417 422.172 134.417C422.172 134.417 426.182 137.094 428.52 137.253C430.858 137.406 435.202 134.619 435.202 134.619C435.202 134.619 433.206 136.604 431.415 137.208C429.63 137.812 427.177 137.657 427.177 137.657C427.177 137.657 431.891 138.692 434.151 137.353C436.416 136.014 438.561 134.678 438.561 134.678C438.561 134.678 437.256 136.945 435.932 137.71C434.608 138.476 433.319 138.757 433.319 138.757C433.319 138.757 436.221 138.838 438.897 137.841C441.573 136.849 444.437 135.069 444.437 135.069C444.437 135.069 443.166 137.874 441.419 139.31C439.678 140.752 438.389 141.161 438.389 141.161C438.389 141.161 442.751 139.747 444.088 138.198C445.432 136.656 446.47 134.819 446.47 134.819C446.47 134.819 445.984 137.412 445.023 138.649C444.068 139.879 443.692 140.312 443.692 140.312C443.692 140.312 446.99 138.159 447.884 136.805C448.779 135.456 453.937 131.858 455.628 129.463C457.325 127.062 457.803 125.372 457.803 125.372C457.803 125.372 456.939 129.474 455.465 131.747C453.99 134.012 451.874 135.887 450.98 136.218C450.086 136.549 449.647 136.806 449.647 136.806C449.647 136.806 456.56 135.245 458.388 132.241C460.222 129.237 461.032 126.276 461.143 125.07C461.249 123.87 461.483 127.278 460.992 128.733C460.501 130.188 459.893 131.59 459.893 131.59C459.893 131.59 462.506 129.399 462.619 127.181C462.725 124.957 462.767 123.575 462.767 123.575C462.767 123.575 466.396 130.941 467.807 132.869C469.212 134.798 471.517 136.39 470.721 138.575C469.925 140.766 466.798 143.987 464.17 145.88C461.541 147.774 462.177 149.068 463.149 150.229C464.116 151.398 471.727 164.132 472.156 165.854C472.591 167.575 472.148 168.908 472.742 169.428C473.337 169.947 473.636 170.236 473.492 170.718C473.349 171.206 470.991 171.83 470.816 172.733C470.634 173.637 471.151 177.035 472.13 178.317C473.109 179.606 473.354 180.017 474.077 178.611C474.799 177.205 476.937 171.379 477.539 169.856C478.142 168.34 478.301 167.017 477.316 165.614C476.337 164.204 471.34 156.772 471.023 155.104C470.706 153.442 470.795 151.817 471.742 150.409C472.693 148.995 475.042 148.314 476.346 147.186C477.652 146.065 479.004 144.695 479.004 144.695C479.004 144.695 478.911 146.136 478.032 147.789C477.147 149.436 475.791 150.623 476.532 151.735C477.272 152.848 488.964 162.143 491.072 164.467C493.186 166.79 492.979 168.236 493.627 168.633C494.27 169.03 495.469 169.108 495.497 169.642C495.526 170.181 494.647 170.811 494.466 171.599C494.277 172.382 494.376 173.218 495.578 174.378C496.773 175.532 498.795 177.14 499.801 176.863C500.812 176.585 500.352 175.406 500.14 173.555C499.928 171.705 499.462 169.266 498.823 168.029C498.191 166.792 498.274 165.173 498.071 164.519C497.867 163.864 490.395 158.021 489.616 157.329C488.843 156.632 485.374 153.344 485.885 151.227C486.401 149.109 486.985 146.213 489.054 143.322C491.117 140.43 492.182 136.92 492.523 135.832C492.864 134.739 493.07 131.074 493.07 131.074C493.07 131.074 499.831 134.194 506.167 135.764C512.504 137.341 522.028 136.762 522.028 136.762C522.028 136.762 523.828 138.499 524.368 140.16C524.908 141.82 526.727 152.539 526.878 155.409C527.029 158.28 527.111 159.835 526.029 160.955C524.953 162.074 521.051 165.806 519.371 166.222C517.685 166.644 516.988 167.388 516.867 167.837C516.752 168.293 516.724 168.924 516.443 168.966C516.161 169.001 513.964 167.164 512.888 168.398C511.819 169.638 511.404 171.51 511.495 173.244C511.586 174.977 511.369 176.245 512.543 175.84C513.711 175.443 514.781 174.088 515.993 173.384C517.206 172.679 518.565 171.435 520.028 171.142C521.492 170.855 522.618 169.555 523.593 168.681C524.573 167.807 527.387 164.05 529.217 163.152C531.046 162.247 532.874 159.244 533.161 158.158C533.442 157.067 532.227 143.623 532.808 141.688C533.388 139.752 534.445 138.277 535.367 138.48C536.29 138.689 546.017 146.317 546.728 149.046C547.439 151.776 544.782 157.506 543.604 158.865C542.426 160.223 541.087 160.69 540.855 161.78C540.628 162.863 540.586 164.124 539.635 164.521C538.689 164.91 537.019 164.492 536.507 165.528C535.994 166.564 536.038 168.541 536.59 170.322C537.136 172.096 537.648 173.217 538.549 171.989C539.456 170.755 541.567 167.748 542.55 166.93C543.534 166.119 545.797 164.844 546.074 163.695C546.358 162.547 548.155 156.789 549.648 154.879C551.141 152.969 551.833 150.966 551.662 148.872C551.497 146.779 551.012 145.123 548.888 142.615C546.771 140.113 542.578 133.97 542.741 132.704C542.898 131.445 547.256 126.737 548.193 124.006C549.129 121.276 547.84 117.307 547.723 116.109C547.606 114.917 550.211 103.978 550.818 100.363C551.424 96.7467 551.235 93.1525 555.453 93.3664C559.671 93.5736 559.785 95.7261 561.057 96.1648C562.335 96.5968 565.901 97.3742 566.556 98.0064C567.218 98.6446 567.191 100.325 568.867 100.864C570.544 101.403 571.756 100.578 572.585 99.1295L572.582 99.1302Z" fill="#C7DDE8"/>
<path fill-rule="evenodd" clip-rule="evenodd" d="M9.78546 100.697C11.7801 100.674 12.2736 102.364 14.8659 101.665C15.6235 99.9516 16.9161 98.8408 17.4096 96.8254C20.8429 98.7138 23.3727 94.9211 27.5844 94.8894C29.0578 98.7535 31.1845 95.8812 33.5128 98.7614C34.6248 98.4203 34.8472 97.0555 36.0565 96.8254C39.3716 101.435 45.7726 102.514 47.9271 108.45C50.8669 107.743 52.4376 105.482 55.5582 107.482C56.2949 106.061 56.83 104.411 58.9498 104.577C63.0364 109.6 65.6982 116.249 72.5161 118.146C77.2282 115.456 79.7164 110.235 86.9235 110.394C88.5916 106.482 93.8596 106.688 97.0983 104.577C99.1277 103.99 103.249 105.791 103.881 103.609C106.55 103.149 106.119 106.22 108.121 106.514C110.157 104.086 110.366 105.601 114.056 105.545C117.358 107.91 119.283 111.853 121.694 115.242C124.44 115.797 125.635 114.583 127.623 114.274C128.7 116.59 130.389 118.217 133.558 118.146C134.406 119.431 134.357 121.748 136.095 122.018C140.591 123.343 141.286 129.008 146.269 129.778C145.748 133.919 149.029 133.729 148.813 137.53C150.495 137.546 149.89 140.172 152.205 139.466C153.616 145.924 158.905 147.956 159.836 154.97C162.845 157.342 164.868 160.849 168.315 162.722C175.23 162.889 176.62 169.379 181.881 171.45C184.001 168.705 188.685 168.903 191.208 166.61C194.273 172.259 200.612 168.586 208.159 169.514C212.524 174.219 219.641 175.774 225.117 179.202C232.582 177.734 236.946 172.704 246.315 173.394C252.007 167.3 259.666 163.46 271.745 164.666C273.607 162.587 276.763 162.008 278.528 159.826C283.331 161.119 287.862 159.445 293.79 160.794C292.623 149.003 296.125 137.617 293.908 127.485C294.874 132.69 290.85 128.246 291.24 131.73C288.195 130.365 286.673 127.262 284.456 124.945C282.955 126.755 281.982 124.525 280.217 123.977C281.537 127.429 277.34 124.565 277.68 126.882C275.991 126.897 276.603 129.532 274.289 128.818C274.441 126.358 278.737 123.66 276.832 122.041C275.977 123.327 276.033 125.652 274.289 125.914C273.927 123.89 274.865 123.351 275.136 122.041C272.565 122.01 274.316 126.913 271.745 126.882C270.73 122.7 274.518 121.454 272.593 119.129C270.883 120.336 265.608 122.446 268.353 118.161C265.907 118.598 266.352 122.327 264.121 123.002C263.884 120.716 261.855 124.12 260.729 123.97C260.117 121.01 262.196 121.121 261.577 118.161C259.874 118.487 258.922 117.963 259.033 116.225C261.862 117.193 261.813 114.877 261.577 112.353C263.162 111.425 264.413 115.249 264.969 112.353C261.73 110.759 265.914 107.394 261.577 109.449C261.111 107.299 263.196 108.061 263.273 106.537C260.236 106.998 258.373 108.116 255.642 106.537C254.898 102.03 258.429 107.196 258.178 104.601C256.927 101.967 254.898 100.213 252.25 101.697C252.535 99.7533 252.083 98.6662 250.554 98.7932C252.466 101.253 247.197 101.396 246.322 103.633C244.522 100.42 243.861 106.545 241.234 105.569C240.317 103.102 244.883 102.173 242.082 100.729C241.95 102.522 239.212 101.324 238.691 102.665C238.503 104.387 239.546 107.513 236.995 106.537C235.146 104.514 237.426 103.776 236.995 100.721C232.095 101.927 236.8 97.4998 234.458 96.8492C233.325 98.4599 234.764 103.014 231.914 102.665C229.836 101.38 232.846 99.063 231.066 98.7932C230.698 101.475 228.398 98.8408 229.371 96.8572C227.918 96.6905 226.042 102.348 225.986 97.8252C225.958 96.881 224.951 97.0714 224.29 96.8572C223.651 93.5405 227.73 95.6273 226.834 92.0171C223.519 93.5405 225.076 89.5018 223.442 89.1051C220.989 90.8269 216.944 90.7317 214.115 92.0171C213.733 88.3513 218.543 90.6126 219.196 88.1371C223.241 88.8908 224.652 86.6295 228.523 87.1691C227.786 84.0587 231.317 85.844 231.066 83.297C235.327 84.146 236.745 83.0431 242.089 83.297C242.43 80.7817 244.619 80.3771 244.633 77.4889C241.478 79.1234 242.972 77.2826 241.241 75.5529C238.712 74.1643 238.357 76.3463 236.161 74.5848C237.377 76.0051 236.807 77.6555 234.465 77.4889C232.283 75.0847 235.035 74.0294 236.161 72.6409C234.159 71.9982 230.782 76.7272 231.073 72.6409C234.333 66.0949 242.2 77.9412 243.792 70.7048C243.041 71.4666 241.881 71.7522 240.4 71.6729C239.358 68.5387 243.146 70.9349 242.096 67.8008C237.391 70.1177 242.061 65.6347 238.705 64.8968C236.182 63.7383 235.827 64.6349 233.624 65.8648C233.214 62.81 236.223 63.6748 235.32 60.0567C237.016 60.382 237.975 59.8583 237.857 58.1207C237.106 58.8744 235.945 59.1601 234.472 59.0887C234.757 55.8593 237.933 55.9386 237.857 52.3046C236.745 53.2964 234.736 53.2567 233.624 54.2486C233.513 49.9242 238.816 51.7809 239.552 48.4325C239.754 50.9319 241.012 47.1075 242.944 48.4325C242.722 45.2746 246.238 46.3775 246.336 43.5925C251.117 45.1952 252.32 45.5126 256.51 46.4965C256.17 44.1717 260.375 47.0281 259.047 43.5925C254.836 45.6316 258.109 42.9498 258.199 39.7204C255.531 38.6334 256.288 39.6252 253.119 39.7204C252.598 36.6021 256.163 38.3874 253.967 35.8483C251.395 38.9111 249.63 37.5463 246.336 38.7524C245.258 35.7928 249.234 33.8171 247.184 32.9364C246.913 34.5947 244.556 32.0477 243.792 34.8803C242.444 35.5944 243.98 39.6252 241.248 38.7524C240.004 35.3008 243.98 32.9443 242.096 31.9683C240.588 30.1672 239.942 32.7618 237.009 31.9683C237.252 34.4995 236.703 36.134 234.472 35.8483C236.223 31.8493 235.035 29.8339 237.009 27.1203C233.436 27.2869 237.03 25.6286 237.009 24.2163C234.938 24.7558 235.202 27.9693 231.928 27.1203C231.435 22.6294 237.05 25.8032 234.472 21.3122C237.711 19.765 237.752 22.3834 238.705 21.3122C238.6 17.1466 235.091 22.9388 235.32 18.4082C235.549 15.0042 239.073 20.1617 238.705 17.4401C235.341 14.6551 234.159 16.5515 229.378 16.4721C230.663 12.4255 233.937 15.0757 236.161 13.5602H240.393C242.277 12.8064 243.702 11.5289 246.329 11.6241C250.012 11.7511 250.672 14.4012 255.656 12.5921C257.164 15.2026 251.917 14.4647 254.808 15.4962C257.15 18.1463 255.6 14.0759 257.351 13.5602C258.63 15.3375 261 15.8453 262.432 17.4401C263.599 19.646 260.25 21.0821 262.432 21.3122C266.831 21.7645 270.723 23.5101 275.15 26.1523C274.601 25.1684 273.204 25.1526 273.455 23.2483C275.331 23.7799 274.664 21.3995 275.998 21.3122C276.825 22.3041 277.673 23.272 278.535 24.2163C280.815 21.7407 287.209 21.8042 284.47 16.4642C285.909 16.8609 288.981 18.5272 292.101 19.3682C295.868 20.3839 295.861 20.5505 296.341 17.4322C296.959 18.3288 297.884 18.9001 298.885 19.3682C299.121 17.8051 298.078 17.6941 298.037 16.4642C304.021 17.6861 304.368 16.4483 309.9 14.5202C309.317 13.7426 308.587 11.8701 309.9 11.6162C309.518 13.1952 314.522 13.1952 314.14 11.6162C312.076 9.79919 315.801 8.10116 311.596 9.68014C310.978 7.03793 313.278 7.72825 313.292 5.80808C310.741 6.44285 310.331 9.53734 306.509 8.71214C305.188 5.26854 309.386 8.13291 309.046 5.80808C307.607 6.16514 307.454 5.04637 307.357 3.87206C309.205 3.25316 310.053 6.6174 309.893 2.90403C311.826 1.57102 313.084 5.40341 313.285 2.90403C312.534 2.46763 311.77 2.05503 311.589 0.967999C315.342 1.92015 313.806 1.11877 316.677 0C319.797 1.26953 323.237 2.182 327.699 1.93603C328.304 3.26903 334.316 3.29283 331.084 5.80808C330.007 5.49864 328.325 4.1815 325.149 3.87206C326.191 9.33103 322.174 3.47532 321.757 7.74411C323.925 7.70444 322.793 8.46615 322.605 9.68014C324.405 11.1798 326.386 12.4731 328.54 13.5522C332.238 10.7831 335.386 13.1476 339.556 10.6482C339.25 12.2986 340.223 12.4731 341.252 12.5842C345.262 12.2033 348.334 12.8937 351.427 13.5522C352.17 18.067 348.64 12.9016 348.89 15.4883C349.905 16.7657 349.217 17.0117 348.89 18.4002C354.499 22.1692 363.812 16.4483 365.841 23.2403C363.256 24.4623 361.525 19.9237 360.754 22.2723C361.796 22.6928 362.498 23.5101 362.449 25.1764C358.599 27.8265 360.191 21.7565 356.521 24.2083C357.522 26.2872 360.191 26.4697 361.601 28.0804C361.094 29.7546 357.584 28.009 357.369 30.0164C359.065 29.6911 360.024 30.2148 359.913 31.9525C358.314 34.9993 355.499 29.6118 354.825 31.9525C356.062 32.8094 358.112 32.73 357.369 35.8325C356.667 38.9983 354.394 31.04 353.129 34.8645C354.943 35.1263 357.202 39.7918 355.673 40.6725C353.929 39.1094 354.04 35.4357 350.586 35.8325C350.718 33.4204 350.746 31.1273 348.897 30.9844C348.994 35.039 343.935 32.492 343.809 33.8885C346.117 34.7851 342.628 36.9195 343.809 39.7045C340.633 37.6098 340.703 40.9344 337.881 41.6405C337.221 38.189 334.781 36.7926 332.794 34.8645C335.504 39.5776 329.048 38.6492 328.561 39.7045C328.749 41.101 331.091 40.0378 331.098 41.6405C330.584 42.9815 327.838 41.7913 327.713 43.5766C328.846 44.5446 329.374 46.195 331.098 46.4806C330.952 42.7673 331.793 46.1315 333.642 45.5126C333.815 47.171 332.196 48.0199 333.642 48.4167C334.267 47.5201 335.184 46.9488 336.185 46.4806C333.516 52.1776 343.733 48.7499 344.664 53.2647C342.572 54.0264 338.792 49.7497 338.736 54.2406C338.479 56.8273 342.023 51.6619 341.273 56.1767C339.021 58.7633 337.249 55.8672 335.344 55.2087C336.317 58.2555 334.017 57.5573 333.649 59.0807C335.949 59.6837 335.761 63.1273 338.736 62.9528C345.721 63.3019 349.898 58.1048 352.295 64.8888C348.522 66.325 347.917 64.1985 343.816 63.9208C343.01 66.7058 341.002 64.5556 340.425 65.8568C342.19 66.3964 342.225 67.3723 341.273 68.7609C343.003 69.6892 344.629 70.7445 346.36 71.6649C347.542 68.7529 351.475 70.808 353.991 71.6649C354.735 76.1797 351.197 71.0143 351.447 73.6089C353.665 75.9337 356.827 74.9657 359.933 73.6089C360.107 75.2593 358.488 76.1162 359.933 76.5129C365.806 76.3463 369.747 71.7205 371.797 78.449C369.691 78.5997 369.177 76.9255 367.565 76.5129C367.933 78.7584 371.304 79.0996 369.26 81.353C366.967 81.6387 364.416 77.3064 362.47 80.385C362.574 84.5427 366.084 78.7584 365.862 83.289C363.735 84.5268 363.207 82.7971 362.47 84.2571C366.293 84.9712 363.235 87.907 365.014 90.0652C370.268 90.9221 375.821 88.1529 376.037 92.9771C372.27 92.4535 371.554 91.3347 369.253 91.0411C370.254 95.1036 365.674 92.7708 365.014 94.9132C368.503 96.0875 368.447 101.324 372.645 101.689C373.111 103.84 371.033 103.07 370.949 104.593C372.701 103.752 374.758 107.109 372.645 107.497C370.372 106.228 369.608 103.229 367.565 101.689C368.225 102.546 368.475 103.871 368.412 105.561C365.514 105.165 367.335 102.951 364.173 104.593C362.561 102.784 362.039 104.49 359.94 104.593C359.586 106.934 361.49 106.704 360.781 109.441C358.363 108.973 358.349 105.76 357.397 103.625C357.869 102.721 359.753 102.157 358.245 101.689C356.041 103.34 353.915 103.951 356.549 106.529C352.559 107.815 352.921 99.1106 350.613 101.689C351.371 102.118 352.136 102.538 352.309 103.625C348.688 104.538 350.016 99.7929 347.229 99.7533C346.687 101.872 349.634 102.84 346.381 102.657C344.532 102.84 344.025 100.499 343.837 98.7853C338.896 100.69 328.116 96.2383 323.488 97.8172C323.154 100.142 327.352 97.2856 326.031 100.721H322.64C323.369 103.165 328.026 106.133 326.031 108.473C324.336 105.569 322.848 102.419 320.096 100.721C320.645 103.086 321.813 105.704 318.407 105.561C318.386 100.34 318.484 102.784 315.863 103.625C315.05 101.816 318.4 100.388 315.863 99.7533C315.3 102.983 311.541 102.57 310.776 105.561C310.658 109.306 307.913 110.036 308.239 114.289C309.761 114.416 310.025 113.107 311.624 113.321C311.714 115.813 314.786 114.877 315.863 116.225C319.922 115.345 321.799 119.852 326.038 117.193C323.932 117.336 321.924 117.368 321.799 115.257C328.526 116.63 335.296 118.011 340.453 114.289C339.076 119.732 344.463 117.455 344.692 121.073C341.989 121.899 342.072 119.55 340.453 119.137C339.341 123.517 336.06 119.748 334.517 123.977C336.998 123.113 337.124 123.113 339.598 123.977C338.527 127.135 338.381 126.033 337.909 128.818C338.694 129.857 341.036 129.119 340.446 131.73C337.019 133.07 337.763 129.619 335.365 129.794C334.844 131.134 332.099 129.936 331.974 131.73C329.854 133.007 329.319 127.897 328.589 130.762C328.95 132.277 331.258 131.587 330.278 134.634C327.672 135.356 328.651 131.968 326.045 132.698C327.143 131.412 327.157 129.087 325.197 128.818C324.294 129.722 324.933 132.396 322.654 131.73C320.332 130.706 319.04 130.706 316.725 131.73C316.76 129.254 316.093 130.547 315.03 130.762C314.105 130.523 314.453 128.833 313.334 128.818C313.466 131.555 310.936 131.253 309.942 132.698C309.178 130.666 307.447 129.738 304.862 129.794C306.349 133.221 304.299 132.174 304.014 135.602V161.762C313.591 162.278 316.489 164.46 326.059 164.666C335.553 168.03 341.822 175.076 353.185 176.298C359.586 180.94 366.001 185.558 374.383 187.93C376.002 191.889 380.123 192.992 383.709 194.706C385.753 195.103 385.558 192.937 387.949 193.738C389.985 196.245 393.648 196.912 398.124 196.642C399.722 197.721 401.098 199.062 403.204 199.546C405.081 199.578 406.978 199.602 408.855 199.626C412.218 198.578 415.902 197.705 420.489 197.317C420.537 195.389 425.66 196.166 424.311 193.5C435.862 195.968 441.818 189.041 452.723 188.128C461.417 189.612 471.689 190.31 477.235 193.357C488.196 193.143 494.416 192.619 503.736 189.898C512.771 192.596 517.962 188.128 524.523 190.223C525.288 187.057 530.104 186.042 532.161 183.558C535.803 181.916 543.81 182.598 543.559 178.885C552.428 178.726 556.771 190.163 566.265 190.338C566.529 187.87 569.059 186.624 573.868 186.577C584.884 187.568 602.097 200.895 609.999 194.706C609.999 249.368 609.999 198.5 609.999 232H-0.000183105V102.919C3.83624 104.062 7.7005 104.49 9.79938 100.729L9.78546 100.697ZM225.986 89.0654C225.548 89.5732 226.598 90.3032 226.834 90.0334C227.265 89.5415 226.215 88.8036 225.986 89.0654ZM227.675 90.0334C227.703 90.9777 228.71 90.7951 229.371 91.0094C229.35 90.0652 228.335 90.2556 227.675 90.0334ZM231.066 94.8815C230.629 95.3734 231.678 96.1113 231.914 95.8495C232.352 95.3416 231.303 94.6117 231.066 94.8815ZM236.154 95.8495C235.716 96.3414 236.766 97.0793 236.995 96.8175C237.433 96.3176 236.383 95.5797 236.154 95.8495ZM241.241 91.9774C240.81 92.4693 241.853 93.2073 242.089 92.9454C242.527 92.4376 241.478 91.7076 241.241 91.9774ZM237.85 62.9052C239.094 62.0641 240.539 61.4532 240.393 59.0331C239.747 60.5486 237.704 60.4851 237.85 62.9052ZM238.698 55.1531C238.725 56.0894 239.733 55.9069 240.393 56.1211C240.373 55.1769 239.358 55.3674 238.698 55.1531ZM240.393 50.3051C239.956 50.805 241.012 51.5429 241.241 51.2731C241.679 50.7812 240.63 50.0433 240.393 50.3051ZM242.089 58.0651C241.651 58.5571 242.701 59.295 242.937 59.0331C243.382 58.5253 242.326 57.7953 242.089 58.0651ZM242.089 60.0011C241.651 60.501 242.701 61.2389 242.937 60.9691C243.382 60.4613 242.326 59.7314 242.089 60.0011ZM243.785 96.8175C243.347 97.3253 244.397 98.0553 244.633 97.7855C245.064 97.2777 244.014 96.5477 243.785 96.8175ZM244.633 60.9691C244.195 61.4769 245.245 62.199 245.481 61.9372C245.912 61.4294 244.862 60.6994 244.633 60.9691ZM245.481 46.433C245.502 47.3772 246.516 47.1868 247.177 47.401C247.149 46.4648 246.141 46.6473 245.481 46.433ZM245.481 83.2494C245.502 84.1936 246.516 84.0032 247.177 84.2174C247.149 83.2811 246.141 83.4636 245.481 83.2494ZM248.872 77.4413C248.435 77.9412 249.491 78.6712 249.72 78.4093C250.158 77.9094 249.109 77.1715 248.872 77.4413ZM248.872 88.0974C248.435 88.6052 249.491 89.3352 249.72 89.0654C250.158 88.5735 249.109 87.8356 248.872 88.0974ZM250.568 79.3773C250.137 79.8851 251.187 80.6151 251.416 80.3453C251.854 79.8375 250.805 79.1075 250.568 79.3773ZM250.568 91.9774C250.137 92.4693 251.187 93.2073 251.416 92.9454C251.854 92.4376 250.805 91.7076 250.568 91.9774ZM254.808 60.9691C254.37 61.4769 255.419 62.199 255.656 61.9372C256.087 61.4294 255.037 60.6994 254.808 60.9691ZM256.504 59.0331C256.066 59.533 257.115 60.263 257.351 60.0011C257.782 59.4933 256.733 58.7633 256.504 59.0331ZM237.85 25.1129C237.419 25.6207 238.468 26.3507 238.698 26.0809C239.135 25.5731 238.086 24.8431 237.85 25.1129ZM238.698 28.9929C237.461 31.8255 238.628 30.4687 239.546 28.0248C240.303 26.0095 239.365 27.4774 238.698 28.9929ZM241.241 17.3687C240.81 17.8607 241.853 18.5986 242.089 18.3368C242.527 17.8369 241.478 17.099 241.241 17.3687ZM245.481 28.0169C244.438 28.4454 243.736 29.2547 243.785 30.921C245.592 31.3812 245.397 29.5403 245.481 28.0169ZM244.633 17.3687H246.329C246.176 16.5435 246.655 16.4563 247.177 16.4007C247.51 14.5202 243.312 14.9804 244.633 17.3687ZM248.872 28.0169C248.435 28.5247 249.491 29.2547 249.72 28.9849C250.158 28.493 249.109 27.7551 248.872 28.0169ZM250.568 17.3687C250.137 17.8607 251.187 18.5986 251.416 18.3368C251.854 17.8369 250.805 17.099 250.568 17.3687ZM253.96 28.9929C253.522 29.5007 254.571 30.2307 254.808 29.9609C255.246 29.469 254.189 28.731 253.96 28.9929ZM254.808 20.2728C254.37 20.7647 255.419 21.5026 255.656 21.2408C256.087 20.733 255.037 20.003 254.808 20.2728ZM254.808 33.833C254.37 34.3328 255.419 35.0707 255.656 34.8089C256.087 34.3011 255.037 33.5711 254.808 33.833ZM258.192 36.7449C258.039 35.642 257.344 36.2054 257.351 36.7449C257.504 37.8479 258.199 37.2766 258.192 36.7449ZM257.351 27.0489C256.914 27.5567 257.963 28.2867 258.192 28.0169C258.63 27.517 257.581 26.7791 257.351 27.0489ZM354.853 22.2088C355.291 21.709 354.241 20.971 354.005 21.2408C353.56 21.7407 354.624 22.4707 354.853 22.2088ZM347.222 17.3687C348.73 16.6546 347.347 15.5993 347.222 14.4568C345.707 15.1709 347.097 16.2262 347.222 17.3687ZM344.678 23.1768C345.116 22.669 344.067 21.9391 343.83 22.2088C343.392 22.7008 344.442 23.4387 344.678 23.1768ZM341.28 36.7449C341.127 35.642 340.432 36.2054 340.432 36.7449C340.592 37.8479 341.287 37.2766 341.28 36.7449ZM338.743 37.7129C339.174 37.2131 338.124 36.4752 337.895 36.7449C337.457 37.2369 338.507 37.9748 338.743 37.7129ZM335.351 18.3368C335.789 17.8369 334.74 17.099 334.503 17.3687C334.066 17.8607 335.115 18.5986 335.351 18.3368ZM331.96 18.3368C332.397 17.8369 331.348 17.099 331.112 17.3687C330.681 17.8607 331.73 18.5986 331.96 18.3368ZM331.112 34.8089C330.076 35.2294 329.374 36.0467 329.416 37.7129C330.458 37.2845 331.16 36.4751 331.112 34.8089ZM329.409 15.4248C329.847 14.9328 328.797 14.1949 328.568 14.4568C328.13 14.9646 329.18 15.6946 329.409 15.4248ZM349.766 63.8732C350.197 63.3654 349.147 62.6354 348.918 62.9052C348.48 63.413 349.529 64.143 349.766 63.8732ZM367.572 79.3773C368.002 78.8695 366.953 78.1395 366.724 78.4093C366.286 78.9013 367.335 79.6392 367.572 79.3773ZM367.572 91.9774C368.002 91.4696 366.953 90.7396 366.724 91.0094C366.286 91.5013 367.335 92.2392 367.572 91.9774ZM365.021 102.633C367.022 102.364 364.048 100.047 364.173 98.7614C361.574 99.7136 365.153 101.34 365.021 102.633ZM364.173 93.9134C364.611 93.4136 363.561 92.6757 363.325 92.9454C362.894 93.4374 363.944 94.1753 364.173 93.9134ZM357.397 85.1934C356.959 85.7012 358.008 86.4311 358.245 86.1614C358.675 85.6694 357.626 84.9315 357.397 85.1934ZM362.477 88.0974C362.915 87.6055 361.866 86.8675 361.629 87.1294C361.198 87.6293 362.248 88.3672 362.477 88.0974ZM361.629 82.2814C361.421 81.0674 359.947 81.3054 359.94 82.2814C360.316 83.6937 360.677 82.1782 361.629 82.2814ZM360.781 100.697C361.219 100.198 360.17 99.4597 359.94 99.7295C359.503 100.229 360.552 100.967 360.781 100.697ZM355.701 91.9774C356.785 90.6285 359.704 91.3823 360.781 90.0334C360.052 88.6132 359.509 86.9628 357.397 87.1294C357.772 87.9942 358.133 88.8671 359.092 89.0654C357.96 91.5331 353.546 89.6764 354.853 86.1614C350.62 88.1291 356.062 88.8433 355.701 91.9774ZM353.15 91.9774C352.99 90.8745 352.302 91.4379 352.302 91.9774C352.462 93.0803 353.157 92.509 353.15 91.9774ZM338.743 69.6813C338.764 70.6255 339.778 70.4351 340.432 70.6493C340.411 69.713 339.403 69.8955 338.743 69.6813ZM349.766 95.8495C349.738 94.9052 348.73 95.0957 348.07 94.8815C348.091 95.8177 349.105 95.6352 349.766 95.8495ZM350.607 72.5933C349.759 69.6099 349.21 74.7039 348.07 74.5373C349.515 78.203 349.46 72.4266 350.607 72.5933ZM347.222 74.5373C347.653 74.0294 346.603 73.2994 346.374 73.5692C345.936 74.0612 346.986 74.7991 347.222 74.5373ZM346.374 94.8815C346.165 93.6595 344.685 93.9055 344.678 94.8815C345.429 95.4765 346.193 96.0558 346.374 94.8815ZM345.526 73.5692C345.957 73.0614 344.914 72.3314 344.678 72.5933C344.24 73.1011 345.297 73.8311 345.526 73.5692ZM343.83 93.9134C344.268 93.4136 343.219 92.6757 342.982 92.9454C342.551 93.4374 343.594 94.1753 343.83 93.9134ZM341.28 94.8815C340.376 93.9769 341.022 91.303 338.743 91.9774C339.118 92.8343 339.48 93.7071 340.432 93.9134C340.411 94.8497 339.403 94.6672 338.743 94.8815C336.109 96.1192 341.148 96.1192 341.28 94.8815ZM338.743 66.7773C339.174 66.2853 338.124 65.5394 337.895 65.8092C337.457 66.317 338.507 67.047 338.743 66.7773ZM334.503 65.8092C334.483 64.8729 333.468 65.0555 332.808 64.8412C332.835 65.7854 333.843 65.595 334.503 65.8092ZM334.503 62.9052C334.059 62.1196 333.621 61.3341 333.655 60.0011C332.731 60.2392 333.079 61.9213 331.96 61.9372C331.807 62.7544 332.293 62.8496 332.808 62.9052H334.503ZM331.96 94.8815C332.397 94.3736 331.348 93.6437 331.112 93.9134C330.681 94.4054 331.73 95.1433 331.96 94.8815ZM322.633 46.433C322.188 44.9413 321.75 46.3696 321.785 47.401C322.23 48.9007 322.674 47.4645 322.633 46.433ZM325.176 42.561C324.301 41.5612 323.863 42.9974 324.329 43.529C325.204 44.5287 325.642 43.0926 325.176 42.561ZM325.176 49.3371C325.621 48.8451 324.565 48.1072 324.329 48.3691C323.891 48.869 324.94 49.6068 325.176 49.3371ZM326.024 46.433C325.587 46.9329 326.636 47.6708 326.872 47.401C327.303 46.9091 326.254 46.1632 326.024 46.433ZM326.872 44.497C326.434 45.0048 327.484 45.7348 327.72 45.465C328.151 44.9572 327.102 44.2272 326.872 44.497ZM327.72 60.9691C327.783 60.6994 327.609 60.2471 327.72 60.0011C328.367 58.5253 327.185 59.2791 326.872 60.0011C326.302 61.3024 327.435 62.1673 327.72 60.9691ZM326.024 94.8815C326.9 95.8812 327.338 94.445 326.872 93.9134C325.997 92.9057 325.559 94.3498 326.024 94.8815ZM326.024 66.7773C326.455 66.2853 325.413 65.5394 325.176 65.8092C324.739 66.317 325.788 67.047 326.024 66.7773ZM325.176 64.8412C325.621 64.3493 324.565 63.6034 324.329 63.8732C323.891 64.381 324.94 65.111 325.176 64.8412ZM324.329 59.0331C324.766 58.5253 323.717 57.7953 323.481 58.0651C323.043 58.5571 324.092 59.295 324.329 59.0331ZM322.633 88.0974C323.071 87.6055 322.021 86.8675 321.785 87.1294C321.354 87.6293 322.403 88.3672 322.633 88.0974ZM322.633 53.2091C323.071 52.7172 322.021 51.9793 321.785 52.2411C321.354 52.7489 322.403 53.4789 322.633 53.2091ZM318.4 6.70468C318.831 6.19687 317.782 5.46691 317.552 5.73668C317.115 6.23656 318.164 6.97446 318.4 6.70468ZM318.4 2.83263C317.066 -0.714122 317.128 5.07812 315.009 3.80065C315.843 6.76818 317.267 2.68187 318.4 2.83263ZM315.85 7.67271C316.28 7.1649 315.231 6.43491 315.002 6.70468C314.564 7.21249 315.613 7.94249 315.85 7.67271ZM337.047 120.074C337.485 119.566 336.428 118.836 336.199 119.106C335.761 119.613 336.811 120.343 337.047 120.074ZM333.655 120.074C333.28 118.661 332.912 120.177 331.96 120.074C332.168 121.288 333.649 121.05 333.655 120.074ZM332.808 126.858C333.245 126.366 332.196 125.628 331.96 125.89C331.529 126.397 332.578 127.128 332.808 126.858ZM331.112 128.794C331.55 128.302 330.5 127.564 330.264 127.834C329.826 128.326 330.882 129.064 331.112 128.794ZM315.002 125.882C314.842 124.779 314.154 125.35 314.154 125.882C314.314 126.985 315.002 126.421 315.002 125.882ZM311.61 116.202C312.048 115.702 310.998 114.964 310.762 115.234C310.331 115.733 311.381 116.463 311.61 116.202ZM310.762 129.77C310.741 128.825 309.727 129.016 309.066 128.794C309.094 129.738 310.102 129.555 310.762 129.77ZM292.956 123.946C293.394 123.454 292.345 122.716 292.108 122.978C291.677 123.478 292.72 124.216 292.956 123.946ZM292.956 115.234C293.394 114.726 292.345 113.996 292.108 114.266C291.677 114.758 292.72 115.495 292.956 115.234ZM292.956 98.7614C292.935 97.8172 291.921 98.0077 291.26 97.7934C291.288 98.7377 292.296 98.5472 292.956 98.7614ZM291.26 112.322C293.394 111.901 289.857 110.227 288.717 110.386C289.342 111.282 290.267 111.853 291.26 112.322ZM289.565 120.074C289.134 120.581 290.183 121.311 290.413 121.042C290.85 120.534 289.801 119.804 289.565 120.074ZM288.717 127.834C292.261 127.183 289.113 121.811 287.028 124.922C287.577 125.914 288.974 125.929 288.717 127.834ZM288.717 113.298C288.696 112.353 287.688 112.544 287.028 112.33C287.049 113.266 288.063 113.083 288.717 113.298ZM287.028 111.354C287.459 110.854 286.409 110.116 286.18 110.386C285.742 110.878 286.792 111.615 287.028 111.354ZM286.18 109.418C286.611 108.918 285.561 108.18 285.332 108.442C284.894 108.949 285.944 109.679 286.18 109.418ZM277.701 106.506C279.584 106.942 282.295 103.514 282.781 105.538C284.366 103.197 280.391 104.673 277.701 103.602V106.506ZM280.238 92.9454C279.807 93.4374 280.856 94.1753 281.086 93.9134C281.523 93.4136 280.474 92.6757 280.238 92.9454ZM277.701 98.7614C278.813 98.4203 279.028 97.0555 280.238 96.8254C279.89 94.4054 276.95 96.7619 277.701 98.7614ZM276.853 92.9454C276.874 92.0012 277.889 92.1916 278.542 91.9774C278.34 90.9221 276.86 91.3188 276.853 90.0334C275.234 90.446 273.204 90.3905 273.462 92.9454C274.15 92.7629 274.309 91.9695 275.157 91.9774C275.908 92.4059 276.672 92.8185 276.853 93.9134C277.812 93.7309 277.319 92.9375 276.853 92.9454ZM274.309 87.1294C273.872 87.6293 274.921 88.3672 275.157 88.0974C275.588 87.6055 274.539 86.8675 274.309 87.1294ZM276.005 105.538C275.324 102.11 270.285 103.681 267.526 102.633C270.063 104.712 271.279 104.696 276.005 105.538ZM268.367 108.442C268.214 107.347 267.519 107.91 267.526 108.442C267.679 109.545 268.374 108.981 268.367 108.442ZM267.526 105.538C267.957 105.046 266.908 104.308 266.678 104.57C266.24 105.077 267.29 105.807 267.526 105.538ZM266.678 103.602C267.116 103.102 266.06 102.364 265.83 102.633C265.393 103.133 266.442 103.871 266.678 103.602ZM264.135 115.234C264.156 116.17 265.17 115.987 265.83 116.202C265.803 115.257 264.795 115.448 264.135 115.234ZM269.215 96.8175C268.631 99.8564 266.956 98.0791 264.983 97.7855C264.107 101.039 267.617 99.2931 269.215 99.7215C271.21 100.031 272.398 101.253 275.15 100.69C275.47 96.7937 275.692 98.3092 276.846 94.8815C274.316 95.2226 274.685 98.8646 270.911 97.7855C270.515 95.7146 272.127 95.9447 273.455 95.8495C273.607 93.7309 272.76 92.7629 270.911 92.9454C270.668 91.2316 274.9 89.9382 272.607 89.0654C270.654 87.1452 271.661 89.3114 270.063 90.0334C268.089 89.7161 266.414 89.0416 265.83 87.1294C264.392 84.3602 265.149 92.0806 268.367 90.0334C268.861 93.5088 265.865 92.9851 263.287 92.9454C265.393 94.0959 266.101 96.8334 269.215 96.8175ZM270.911 60.9691C270.48 61.4769 271.529 62.199 271.759 61.9372C272.197 61.4294 271.147 60.6994 270.911 60.9691ZM269.215 63.8732C268.784 64.381 269.834 65.111 270.063 64.8412C270.501 64.3493 269.451 63.6034 269.215 63.8732ZM269.215 59.0331C268.784 59.533 269.834 60.263 270.063 60.0011C270.501 59.4933 269.451 58.7633 269.215 59.0331ZM265.83 35.7769C266.581 36.3641 267.346 36.9433 267.526 35.7769C267.318 34.555 265.837 34.793 265.83 35.7769ZM268.367 32.8649C268.805 32.373 267.756 31.6351 267.526 31.8969C267.088 32.4047 268.138 33.1347 268.367 32.8649ZM265.83 40.617C266.268 40.1171 265.212 39.3792 264.983 39.649C264.545 40.1409 265.594 40.8788 265.83 40.617ZM264.135 53.2091C263.697 53.709 264.746 54.4469 264.983 54.1851C265.413 53.6773 264.364 52.9473 264.135 53.2091ZM265.83 43.529C265.393 44.0289 266.442 44.7668 266.678 44.497C267.116 43.9892 266.06 43.2592 265.83 43.529ZM258.192 100.697C258.644 101.483 259.082 102.269 259.04 103.602C259.735 103.419 259.888 102.633 260.736 102.633C261.563 102.665 261.396 103.816 261.584 104.57C264.03 102.951 260.013 100.65 258.192 100.697ZM262.439 60.9691C262.418 60.0249 261.403 60.2154 260.743 60.0011C260.771 60.9374 261.779 60.7549 262.439 60.9691ZM259.895 89.0654C260.778 90.0731 261.209 88.629 260.743 88.0974C259.867 87.0977 259.43 88.5338 259.895 89.0654ZM260.743 35.7769C261.452 36.9036 261.862 38.3715 261.591 40.617H264.135C263.926 39.5617 262.446 39.9584 262.439 38.681C263.655 37.2607 263.092 35.6024 260.743 35.7769ZM263.287 24.1449C262.849 24.6447 263.898 25.3827 264.135 25.1129C264.573 24.613 263.516 23.8751 263.287 24.1449ZM271.766 28.0169C270.598 27.0489 272.134 26.4221 270.07 25.1129C268.437 26.9061 269.403 26.8902 266.685 26.0809C264.677 23.9148 267.742 28.2232 269.222 28.0169C268.096 31.0082 265.455 26.2078 264.142 28.9849C266.72 29.3103 270.688 31.1431 271.773 35.7769C274.386 36.4514 273.399 36.4514 276.012 35.7769C275.345 32.976 271.912 33.349 270.077 31.8969C271.432 30.2148 273.899 29.8022 276.86 29.9609C276.082 28.2708 274.205 27.8185 271.773 28.0248L271.766 28.0169ZM270.063 35.7769C269.632 36.2689 270.682 37.0068 270.911 36.7449C271.349 36.2451 270.299 35.5071 270.063 35.7769ZM270.911 38.681C270.939 39.6173 271.946 39.4347 272.607 39.649C272.586 38.7048 271.571 38.8952 270.911 38.681ZM276.853 51.2731C277.284 50.7812 276.235 50.0433 276.005 50.3051C275.567 50.805 276.617 51.5429 276.853 51.2731ZM276.853 26.0809C276.415 26.5887 277.465 27.3187 277.701 27.0489C278.139 26.549 277.082 25.8111 276.853 26.0809ZM281.934 59.0331C280.46 55.8355 277.402 58.0016 276.853 60.9691C276.082 60.7073 274.004 57.3589 276.005 57.0971C275.234 54.4628 274.435 59.6758 271.766 58.0651C271.453 56.4147 272.433 56.2322 273.462 56.1291C272.697 52.8838 271.571 55.2801 270.07 56.1291C268.742 55.7085 269.347 53.0742 266.685 54.193C266.824 55.3197 266.498 55.9148 265.837 56.1291C266.616 57.8191 268.485 58.2714 270.918 58.0651C273.072 61.4373 277.916 64.627 282.788 61.9372C282.927 59.8345 279.779 61.4928 278.549 60.9691C278.757 59.2632 280.001 58.7633 281.934 59.0331ZM282.781 23.1768C282.344 23.6846 283.393 24.4146 283.629 24.1449C284.067 23.637 283.018 22.9071 282.781 23.1768ZM284.484 119.106C284.046 119.613 285.096 120.343 285.332 120.074C285.763 119.566 284.714 118.836 284.484 119.106ZM287.028 102.633V100.697C286.305 100.872 286.229 100.317 286.18 99.7295C284.533 99.3407 284.936 104.149 287.028 102.633ZM285.332 22.2088C284.894 22.7008 285.944 23.4387 286.18 23.1768C286.611 22.669 285.561 21.9391 285.332 22.2088ZM286.18 20.2728C285.742 20.7647 286.792 21.5026 287.028 21.2408C287.459 20.733 286.409 20.003 286.18 20.2728ZM291.26 110.386C293.04 109.219 289.127 106.434 287.869 105.538C284.985 107.981 290.788 108.592 291.26 110.386ZM290.413 22.2088C290.44 23.1451 291.448 22.9626 292.108 23.1768C292.088 22.2326 291.073 22.4231 290.413 22.2088ZM291.26 54.1851C291.42 55.2801 292.108 54.7167 292.108 54.1851C291.949 53.0822 291.26 53.6455 291.26 54.1851ZM291.26 86.1614C289.502 85.3044 290.781 86.3677 292.108 87.1294C294.583 88.5497 293.401 87.2087 291.26 86.1614ZM299.739 34.8089C297.661 35.7214 300.831 38.6096 302.283 38.681C302.033 36.7053 299.99 36.7846 299.739 34.8089ZM302.283 34.8089C301.852 35.3008 302.902 36.0388 303.131 35.7769C303.569 35.2691 302.519 34.5391 302.283 34.8089ZM303.979 42.561C303.541 43.0688 304.591 43.7988 304.827 43.529C305.258 43.0212 304.215 42.2912 303.979 42.561ZM309.914 46.433C309.483 46.9329 310.533 47.6708 310.762 47.401C311.2 46.9091 310.151 46.1632 309.914 46.433ZM308.225 54.1851C309.56 54.2644 311.457 53.709 311.61 55.1531C313.973 55.5895 310.943 49.8687 313.306 50.3051C312.041 48.3056 307.669 50.9002 308.225 54.1851ZM309.066 17.3687C309.504 16.8609 308.455 16.1309 308.225 16.4007C307.788 16.8927 308.837 17.6306 309.066 17.3687ZM307.377 45.465C307.808 44.9572 306.759 44.2272 306.53 44.497C306.092 45.0048 307.141 45.7348 307.377 45.465ZM305.675 84.2253C306.106 83.7175 305.063 82.9875 304.827 83.2573C304.389 83.7651 305.438 84.4951 305.675 84.2253ZM304.827 103.602C305.258 103.102 304.215 102.364 303.979 102.633C303.541 103.133 304.591 103.871 304.827 103.602ZM303.131 105.538C305.181 103.586 301.658 106.045 301.435 107.474C300.747 111.917 303.527 107.291 303.131 105.538ZM302.283 86.1614C301.852 86.6692 302.902 87.3992 303.131 87.1294C303.569 86.6374 302.519 85.8995 302.283 86.1614ZM304.827 53.2091C304.945 51.408 305.383 49.9798 306.523 49.3371C304.82 46.9091 303.381 52.2015 300.587 49.3371C301.804 50.7574 301.241 52.4157 298.899 52.2411C299.26 54.4073 303.075 52.6378 304.827 53.2091ZM298.899 54.1851C298.461 54.677 299.51 55.415 299.739 55.1531C300.177 54.6453 299.128 53.9153 298.899 54.1851ZM299.739 84.2253C299.364 82.813 299.003 84.3285 298.051 84.2253C298.259 85.4393 299.733 85.2013 299.739 84.2253ZM297.203 60.0011C297.634 59.4933 296.584 58.7633 296.355 59.0331C295.917 59.533 296.966 60.263 297.203 60.0011ZM296.355 47.401C296.786 46.9091 295.736 46.1632 295.507 46.433C295.062 46.9329 296.119 47.6708 296.355 47.401ZM295.507 45.465C295.938 44.9572 294.888 44.2272 294.659 44.497C294.221 45.0048 295.271 45.7348 295.507 45.465ZM293.804 53.2091C293.366 53.709 294.416 54.4469 294.652 54.1851C295.083 53.6773 294.04 52.9473 293.804 53.2091Z" fill="#C7DDE8"/>
<path d="M0 231.014L1680 118V269.5H0V231.014Z" fill="#C7DDE8"/>
</svg>
