<svg width="610" height="232" viewBox="0 0 610 232" fill="none" xmlns="http://www.w3.org/2000/svg">
<path fill-rule="evenodd" clip-rule="evenodd" d="M572.582 99.1305C572.582 99.1305 573.73 97.6523 573.783 96.6005C573.843 95.5488 574.629 95.3429 574.578 94.3841C574.528 93.4253 573.968 90.932 572.2 89.6714C570.425 88.4171 565.736 83.6079 562.105 79.4229C558.475 75.2378 557.426 72.6349 557.426 72.6349C557.426 72.6349 558.31 68.8883 558.415 67.5679C558.515 66.2475 558.305 65.4725 558.305 65.4725L555.971 69.7535C555.971 69.7535 555.963 66.3948 555.751 65.5627C555.532 64.7306 555.526 64.6164 555.526 64.6164C555.526 64.6164 553.985 66.6429 553.647 67.7935C553.309 68.9442 553.232 70.6901 552.974 71.1763C552.716 71.6625 552.099 71.8688 550.352 72.1659C548.605 72.4693 547.498 72.9855 546.763 73.1322C546.034 73.2789 545.051 74.0897 543.918 74.1297C542.786 74.1697 541.375 73.8634 540.209 73.8408C539.037 73.825 538.238 74.2414 538.238 74.2414C538.238 74.2414 540.031 73.7899 540.802 74.0935C541.572 74.3973 542.478 74.6196 542.782 74.6788C543.082 74.7448 541.203 74.7218 540.436 74.7045C539.668 74.6871 539.691 74.8836 539.165 75.0927C538.633 75.3088 538.19 75.28 538.19 75.28C538.19 75.28 538.946 75.2977 539.423 75.192C539.901 75.0861 539.808 74.9239 540.491 74.9445C541.174 74.9648 541.661 75.0495 541.661 75.0495C541.661 75.0495 540.358 76.2086 539.465 76.45C538.566 76.6853 537.019 76.4156 535.577 76.6445C534.14 76.8735 533.702 77.1625 533.702 77.1625C533.702 77.1625 535.515 76.7361 536.34 76.8149C537.171 76.8874 538.315 77.0696 538.315 77.0696C538.315 77.0696 536.491 79.1124 535.642 79.1424C534.786 79.1726 533.753 77.8924 532.286 78.1221C530.82 78.3584 530.705 78.3624 530.705 78.3624C530.705 78.3624 533.179 78.3323 533.975 78.9023C534.778 79.4718 534.975 80.0057 534.975 80.0057C534.975 80.0057 533.916 79.3878 533.482 79.1614C533.041 78.9353 532.866 78.6932 532.866 78.6932C532.866 78.6932 533.227 79.1258 533.476 79.2824C533.726 79.4389 534.293 79.7818 534.293 79.7818C534.293 79.7818 533.309 79.1994 532.818 79.0513C532.327 78.9032 531.729 78.8799 531.729 78.8799C531.729 78.8799 532.928 79.1812 533.313 79.511C533.699 79.8409 534.081 80.3365 534.081 80.3365C534.081 80.3365 532.391 79.531 531.339 79.5044C530.282 79.4845 529.761 79.8018 529.411 79.6932C529.068 79.5846 528.856 79.3566 528.856 79.3566C528.856 79.3566 529.031 79.6938 529.378 79.8598C529.731 80.0255 530.122 79.8907 530.5 79.852C530.884 79.8066 531.404 79.7121 532 79.9009C532.589 80.09 533.354 80.5145 533.354 80.5145C533.354 80.5145 531.823 80.0917 531.341 80.1087C530.859 80.1257 530.639 80.3115 530.218 80.4473C529.802 80.5764 528.997 80.4266 528.997 80.4266C528.997 80.4266 529.765 80.6859 530.513 80.5513C531.255 80.4235 531.498 80.4593 531.817 80.5562C532.136 80.6468 532.711 80.8047 532.711 80.8047C532.711 80.8047 531.406 80.5389 530.922 80.7469C530.432 80.9615 530.106 81.1957 529.775 81.2074C529.45 81.2189 528.707 80.8696 528.707 80.8696C528.707 80.8696 529.108 81.1418 529.452 81.2632C529.803 81.3909 529.981 81.3399 530.307 81.233C530.628 81.1328 531.017 80.9534 531.354 80.929C531.697 80.9041 531.914 81.0171 531.914 81.0171C531.914 81.0171 530.066 81.5723 529.416 82.1933C528.767 82.8204 528.131 83.1104 528.131 83.1104C528.131 83.1104 529.277 82.5291 529.63 82.2368C529.988 81.938 531.383 81.4814 531.383 81.4814C531.383 81.4814 529.588 82.2382 529.268 82.8155C528.943 83.3998 528.803 83.729 528.497 83.8798C528.191 84.0244 527.874 83.9716 527.874 83.9716C527.874 83.9716 528.296 84.084 528.597 83.9524C528.905 83.8271 529.167 83.0799 529.3 82.9733C529.439 82.8604 529.95 82.3588 530.342 82.243C530.735 82.1338 530.885 82.1094 530.885 82.1094C530.885 82.1094 529.875 84.3716 529.169 85.0582C528.468 85.7445 527.515 85.9882 526.965 86.4273C526.421 86.8664 526.291 87.6154 526.291 87.6154C526.291 87.6154 526.875 86.5452 527.473 86.3205C528.07 86.0896 528.571 85.8618 528.78 85.6893C528.982 85.5167 528.994 85.5163 528.994 85.5163C528.994 85.5163 528.013 86.2507 527.69 86.6567C527.373 87.0559 527.246 87.404 526.964 87.6554C526.675 87.901 526.435 87.9414 526.435 87.9414C526.435 87.9414 526.903 87.8739 527.185 87.6095C527.472 87.3448 527.63 86.8942 527.767 86.7556C527.899 86.6172 528.548 86.1046 528.548 86.1046C528.548 86.1046 527.722 88.0676 527.052 88.8739C526.388 89.6734 525.378 90.5486 525.378 90.5486L527.638 88.6431L524.806 91.4975C524.806 91.4975 527.787 89.2932 528.15 88.625C528.513 87.9506 528.538 87.8606 528.538 87.8606C528.538 87.8606 527.818 89.8962 527.03 90.5221C526.236 91.1481 525.858 91.5178 525.858 91.5178C525.858 91.5178 527.078 90.9657 527.778 90.1647C528.472 89.3578 528.711 88.9612 528.711 88.9612C528.711 88.9612 528.038 91.3261 526.94 92.141C525.849 92.9621 525.146 93.1332 524.71 93.0023C524.281 92.8646 524.106 92.7501 524.106 92.7501C524.106 92.7501 524.348 93.104 524.708 93.1931C525.069 93.2883 525.305 93.4135 525.821 93.2301C526.336 93.0465 526.489 92.9648 526.489 92.9648C526.489 92.9648 525.361 94.8178 523.965 95.2296C522.561 95.6355 520.796 95.5769 520.796 95.5769L522.922 95.9536C522.922 95.9536 521.584 96.4526 520.704 96.4837C519.825 96.5147 519.279 96.4705 519.279 96.4705C519.279 96.4705 520.574 96.7556 521.683 96.7164C522.791 96.6773 523.669 96.6144 523.669 96.6144C523.669 96.6144 522.612 98.2101 519.698 99.0319C516.79 99.8534 515.733 101.449 512.481 102.283C509.223 103.117 495.697 103.239 492.923 102.376C490.149 101.513 479.595 99.7293 473.569 101.984C467.549 104.233 462.196 108.379 462.196 108.379C462.196 108.379 458.024 109.06 456.028 112.191C454.032 115.315 450.789 122.86 448.858 124.01C446.932 125.159 445.648 124.6 445.072 123.304C444.491 122.007 444.019 119.568 444.019 119.568C444.019 119.568 443.868 120.948 444.246 122.735C444.623 124.515 446.109 125.786 446.109 125.786C446.109 125.786 443.991 124.423 443.298 123.188C442.611 121.953 442.65 120.514 442.65 120.514C442.65 120.514 442.553 123.037 443.412 124.202C444.27 125.368 445.217 126.053 445.217 126.053C445.217 126.053 443.312 125.523 442.562 124.232C441.812 122.942 441.6 122.23 441.6 122.23C441.6 122.23 442.12 124.547 442.797 125.484C443.468 126.414 444.399 126.801 444.399 126.801C444.399 126.801 442.357 126.873 440.271 125.089C438.192 123.305 437.58 120.394 437.58 120.394C437.58 120.394 437.88 122.782 438.512 124.013C439.145 125.25 439.628 125.831 439.628 125.831C439.628 125.831 435.879 123.749 434.706 121.99C433.534 120.238 430.904 119.936 430.136 119.906C429.368 119.876 429.089 119.975 429.089 119.975C429.089 119.975 432.089 120.314 432.924 121.035C433.759 121.757 434.164 122.461 434.448 122.928C434.726 123.402 436.101 124.639 436.101 124.639L437.958 126.431C437.958 126.431 434.075 123.991 433.344 123.056C432.613 122.128 432.175 121.361 432.175 121.361C432.175 121.361 433.222 123.48 433.69 124.247C434.159 125.006 436.214 126.314 436.214 126.314C436.214 126.314 433.179 124.742 432.156 123.76C431.139 122.778 430.697 121.954 430.697 121.954C430.697 121.954 431.351 123.489 432.092 124.602C432.832 125.715 433.252 126.12 433.252 126.12C433.252 126.12 430.327 123.526 429.105 123.028C427.884 122.531 426.239 122.589 426.239 122.589C426.239 122.589 429.064 123.271 430.145 124.429C431.232 125.593 431.541 126.059 431.541 126.059C431.541 126.059 429.006 124.348 427.062 124.118C425.113 123.888 424.68 124.265 423.85 123.633C423.02 123.001 422.778 122.653 422.778 122.653C422.778 122.653 423.532 124.007 424.75 124.562C425.974 125.117 427.632 125.3 428.271 125.513C428.91 125.732 432.583 127.517 432.583 127.517C432.583 127.517 426.664 125.271 424.39 125.294C422.121 125.31 420.12 126.163 420.12 126.163C420.12 126.163 424.103 125.24 427.192 126.575C430.273 127.904 431.155 128.471 431.155 128.471C431.155 128.471 426.927 126.941 424.201 127.094C421.481 127.253 420.205 127.776 420.205 127.776C420.205 127.776 425.486 127.653 428.206 128.632C430.931 129.617 431.357 130.143 431.357 130.143C431.357 130.143 426.649 129.228 424.54 129.181C422.431 129.135 422.005 129.633 421.019 129.248C420.033 128.863 419.314 128.17 419.314 128.17C419.314 128.17 420.007 129.52 421.683 129.944C423.353 130.362 426.191 130.262 427.966 130.498C429.74 130.734 430.908 131.355 430.908 131.355C430.908 131.355 426.219 130.801 424.231 130.872C422.242 130.942 419.246 131.226 419.246 131.226C419.246 131.226 424.189 131.115 427.007 131.791C429.832 132.474 431.314 132.536 431.314 132.536C431.314 132.536 427.542 132.192 425.575 132.682C423.615 133.171 421.405 132.231 421.405 132.231C421.405 132.231 423.258 133.959 425.635 133.818C428.018 133.677 432.058 133.712 432.446 133.52C432.834 133.322 427.098 134.543 426.064 134.401C425.036 134.259 423.281 133.933 423.281 133.933C423.281 133.933 425.269 134.881 427.794 134.817C430.32 134.76 433.71 134.373 433.71 134.373C433.71 134.373 431.937 136.35 428.629 136.111C425.32 135.865 422.172 134.417 422.172 134.417C422.172 134.417 426.182 137.094 428.52 137.253C430.858 137.406 435.202 134.619 435.202 134.619C435.202 134.619 433.206 136.604 431.415 137.208C429.63 137.812 427.177 137.657 427.177 137.657C427.177 137.657 431.891 138.693 434.151 137.353C436.416 136.014 438.561 134.678 438.561 134.678C438.561 134.678 437.256 136.945 435.932 137.71C434.608 138.476 433.319 138.757 433.319 138.757C433.319 138.757 436.221 138.839 438.897 137.841C441.573 136.85 444.437 135.069 444.437 135.069C444.437 135.069 443.166 137.875 441.419 139.31C439.678 140.752 438.389 141.161 438.389 141.161C438.389 141.161 442.751 139.747 444.088 138.198C445.432 136.656 446.47 134.819 446.47 134.819C446.47 134.819 445.984 137.413 445.023 138.649C444.068 139.879 443.692 140.312 443.692 140.312C443.692 140.312 446.99 138.16 447.884 136.805C448.779 135.456 453.937 131.858 455.628 129.464C457.325 127.062 457.803 125.372 457.803 125.372C457.803 125.372 456.939 129.475 455.465 131.747C453.99 134.013 451.874 135.888 450.98 136.218C450.086 136.549 449.647 136.806 449.647 136.806C449.647 136.806 456.56 135.245 458.388 132.241C460.222 129.238 461.032 126.276 461.143 125.07C461.249 123.87 461.483 127.279 460.992 128.734C460.501 130.189 459.893 131.591 459.893 131.591C459.893 131.591 462.506 129.399 462.619 127.181C462.725 124.957 462.767 123.575 462.767 123.575C462.767 123.575 466.396 130.941 467.807 132.87C469.212 134.798 471.517 136.39 470.721 138.575C469.925 140.766 466.798 143.987 464.17 145.88C461.541 147.774 462.177 149.068 463.149 150.23C464.116 151.398 471.727 164.132 472.156 165.854C472.591 167.575 472.148 168.908 472.742 169.428C473.337 169.947 473.636 170.236 473.492 170.718C473.349 171.207 470.991 171.831 470.816 172.734C470.634 173.637 471.151 177.035 472.13 178.317C473.109 179.606 473.354 180.017 474.077 178.611C474.799 177.205 476.937 171.379 477.539 169.856C478.142 168.34 478.301 167.017 477.316 165.614C476.337 164.205 471.34 156.773 471.023 155.104C470.706 153.443 470.795 151.817 471.742 150.409C472.693 148.996 475.042 148.314 476.346 147.187C477.652 146.066 479.004 144.695 479.004 144.695C479.004 144.695 478.911 146.136 478.032 147.789C477.147 149.436 475.791 150.623 476.532 151.736C477.272 152.848 488.964 162.143 491.072 164.467C493.186 166.791 492.979 168.236 493.627 168.633C494.27 169.03 495.469 169.109 495.497 169.642C495.526 170.182 494.647 170.811 494.466 171.6C494.277 172.382 494.376 173.219 495.578 174.379C496.773 175.532 498.795 177.14 499.801 176.863C500.812 176.586 500.352 175.406 500.14 173.556C499.928 171.706 499.462 169.266 498.823 168.029C498.191 166.792 498.274 165.173 498.071 164.519C497.867 163.864 490.395 158.021 489.616 157.33C488.843 156.632 485.374 153.344 485.885 151.227C486.401 149.11 486.985 146.213 489.054 143.322C491.117 140.431 492.182 136.92 492.523 135.833C492.864 134.739 493.07 131.074 493.07 131.074C493.07 131.074 499.831 134.194 506.167 135.764C512.504 137.341 522.028 136.763 522.028 136.763C522.028 136.763 523.828 138.5 524.368 140.16C524.908 141.82 526.727 152.539 526.878 155.41C527.029 158.28 527.111 159.835 526.029 160.955C524.953 162.074 521.051 165.807 519.371 166.222C517.685 166.645 516.988 167.388 516.867 167.838C516.752 168.293 516.724 168.924 516.443 168.966C516.161 169.001 513.964 167.164 512.888 168.398C511.819 169.638 511.404 171.51 511.495 173.244C511.586 174.977 511.369 176.245 512.543 175.841C513.711 175.443 514.781 174.089 515.993 173.384C517.206 172.68 518.565 171.436 520.028 171.142C521.492 170.855 522.618 169.555 523.593 168.682C524.573 167.807 527.387 164.05 529.217 163.152C531.046 162.247 532.874 159.244 533.161 158.158C533.442 157.067 532.227 143.623 532.808 141.688C533.388 139.753 534.445 138.278 535.367 138.48C536.29 138.689 546.017 146.317 546.728 149.047C547.439 151.776 544.782 157.506 543.604 158.865C542.426 160.223 541.087 160.69 540.855 161.78C540.628 162.863 540.586 164.124 539.635 164.521C538.689 164.91 537.019 164.492 536.507 165.528C535.994 166.564 536.038 168.541 536.59 170.322C537.136 172.097 537.648 173.217 538.549 171.989C539.456 170.755 541.567 167.748 542.55 166.931C543.534 166.12 545.797 164.844 546.074 163.695C546.358 162.547 548.155 156.79 549.648 154.879C551.141 152.969 551.833 150.966 551.662 148.873C551.497 146.779 551.012 145.123 548.888 142.615C546.771 140.114 542.578 133.97 542.741 132.705C542.898 131.446 547.256 126.737 548.193 124.007C549.129 121.276 547.84 117.307 547.723 116.109C547.606 114.917 550.211 103.979 550.818 100.363C551.424 96.7469 551.235 93.1527 555.453 93.3666C559.671 93.5738 559.785 95.7263 561.057 96.165C562.335 96.597 565.901 97.3744 566.556 98.0066C567.218 98.6449 567.191 100.325 568.867 100.864C570.544 101.403 571.756 100.578 572.585 99.1297L572.582 99.1305Z" fill="#C7DDE8"/>
<path fill-rule="evenodd" clip-rule="evenodd" d="M9.78644 100.697C11.7811 100.674 12.2745 102.364 14.8669 101.665C15.6245 99.9516 16.9171 98.8408 17.4106 96.8254C20.8439 98.7138 23.3737 94.9211 27.5854 94.8894C29.0588 98.7535 31.1855 95.8812 33.5137 98.7614C34.6257 98.4203 34.8481 97.0555 36.0574 96.8254C39.3726 101.435 45.7736 102.514 47.928 108.45C50.8679 107.743 52.4386 105.482 55.5591 107.482C56.2958 106.061 56.831 104.411 58.9507 104.577C63.0374 109.6 65.6992 116.249 72.5171 118.146C77.2292 115.456 79.7173 110.235 86.9245 110.394C88.5925 106.482 93.8605 106.688 97.0992 104.577C99.1286 103.99 103.25 105.791 103.882 103.609C106.551 103.149 106.12 106.22 108.122 106.514C110.158 104.086 110.367 105.601 114.057 105.545C117.359 107.91 119.284 111.853 121.695 115.242C124.441 115.797 125.636 114.583 127.624 114.274C128.701 116.59 130.39 118.217 133.559 118.146C134.407 119.431 134.358 121.748 136.096 122.018C140.592 123.343 141.287 129.008 146.27 129.778C145.749 133.919 149.03 133.729 148.814 137.53C150.496 137.546 149.891 140.172 152.206 139.466C153.617 145.924 158.905 147.956 159.837 154.97C162.846 157.342 164.869 160.849 168.316 162.722C175.231 162.889 176.621 169.379 181.882 171.45C184.002 168.705 188.686 168.903 191.209 166.61C194.274 172.259 200.613 168.586 208.16 169.514C212.525 174.219 219.642 175.774 225.118 179.202C232.583 177.734 236.947 172.704 246.316 173.394C252.008 167.3 259.667 163.46 271.746 164.666C273.608 162.587 276.764 162.008 278.529 159.826C283.332 161.119 287.863 159.445 293.791 160.794C292.624 149.003 296.126 137.617 293.909 127.485C294.875 132.69 290.851 128.246 291.241 131.73C288.196 130.365 286.674 127.262 284.457 124.945C282.956 126.755 281.983 124.525 280.218 123.977C281.538 127.429 277.341 124.565 277.681 126.882C275.992 126.897 276.604 129.532 274.29 128.818C274.442 126.358 278.738 123.66 276.833 122.041C275.978 123.327 276.034 125.652 274.29 125.914C273.928 123.89 274.866 123.351 275.137 122.041C272.566 122.01 274.317 126.913 271.746 126.882C270.731 122.7 274.519 121.454 272.594 119.129C270.884 120.336 265.609 122.446 268.354 118.161C265.908 118.598 266.353 122.327 264.122 123.002C263.885 120.716 261.856 124.12 260.73 123.97C260.118 121.01 262.197 121.121 261.578 118.161C259.875 118.487 258.923 117.963 259.034 116.225C261.863 117.193 261.814 114.877 261.578 112.353C263.163 111.425 264.414 115.249 264.97 112.353C261.731 110.759 265.915 107.394 261.578 109.449C261.112 107.299 263.197 108.061 263.274 106.537C260.237 106.998 258.374 108.116 255.643 106.537C254.899 102.03 258.43 107.196 258.179 104.601C256.928 101.967 254.899 100.213 252.251 101.697C252.536 99.7533 252.084 98.6662 250.555 98.7932C252.467 101.253 247.198 101.396 246.323 103.633C244.523 100.42 243.862 106.545 241.235 105.569C240.318 103.102 244.884 102.173 242.083 100.729C241.951 102.522 239.213 101.324 238.692 102.665C238.504 104.387 239.546 107.513 236.996 106.537C235.147 104.514 237.427 103.776 236.996 100.721C232.096 101.927 236.801 97.4998 234.459 96.8492C233.326 98.4599 234.765 103.014 231.915 102.665C229.837 101.38 232.847 99.063 231.067 98.7932C230.699 101.475 228.399 98.8408 229.372 96.8572C227.919 96.6905 226.043 102.348 225.987 97.8252C225.959 96.881 224.952 97.0714 224.291 96.8572C223.652 93.5405 227.731 95.6273 226.835 92.0171C223.52 93.5405 225.077 89.5018 223.443 89.1051C220.99 90.8269 216.945 90.7317 214.116 92.0171C213.734 88.3513 218.544 90.6126 219.197 88.1371C223.242 88.8908 224.653 86.6295 228.524 87.1691C227.787 84.0587 231.318 85.844 231.067 83.297C235.328 84.146 236.746 83.0431 242.09 83.297C242.431 80.7817 244.62 80.3771 244.634 77.4889C241.479 79.1234 242.973 77.2826 241.242 75.5529C238.712 74.1643 238.358 76.3463 236.162 74.5848C237.378 76.0051 236.808 77.6555 234.466 77.4889C232.284 75.0847 235.036 74.0294 236.162 72.6409C234.16 71.9982 230.783 76.7272 231.074 72.6409C234.334 66.0949 242.201 77.9412 243.793 70.7048C243.042 71.4666 241.882 71.7522 240.401 71.6729C239.359 68.5387 243.147 70.9349 242.097 67.8008C237.392 70.1177 242.062 65.6347 238.706 64.8968C236.183 63.7383 235.828 64.6349 233.625 65.8648C233.215 62.81 236.224 63.6748 235.321 60.0567C237.017 60.382 237.976 59.8583 237.858 58.1207C237.107 58.8744 235.946 59.1601 234.473 59.0887C234.758 55.8593 237.934 55.9386 237.858 52.3046C236.746 53.2964 234.737 53.2567 233.625 54.2486C233.514 49.9242 238.817 51.7809 239.553 48.4325C239.755 50.9319 241.013 47.1075 242.945 48.4325C242.723 45.2746 246.239 46.3775 246.337 43.5925C251.118 45.1952 252.321 45.5126 256.511 46.4965C256.171 44.1717 260.376 47.0281 259.048 43.5925C254.836 45.6316 258.11 42.9498 258.2 39.7204C255.531 38.6334 256.289 39.6252 253.12 39.7204C252.599 36.6021 256.164 38.3874 253.968 35.8483C251.396 38.9111 249.631 37.5463 246.337 38.7524C245.259 35.7928 249.235 33.8171 247.185 32.9364C246.913 34.5947 244.557 32.0477 243.793 34.8803C242.445 35.5944 243.981 39.6252 241.249 38.7524C240.005 35.3008 243.981 32.9443 242.097 31.9683C240.589 30.1672 239.943 32.7618 237.01 31.9683C237.253 34.4995 236.704 36.134 234.473 35.8483C236.224 31.8493 235.036 29.8339 237.01 27.1203C233.437 27.2869 237.031 25.6286 237.01 24.2163C234.939 24.7558 235.203 27.9693 231.929 27.1203C231.436 22.6294 237.051 25.8032 234.473 21.3122C237.712 19.765 237.753 22.3834 238.706 21.3122C238.601 17.1466 235.092 22.9388 235.321 18.4082C235.55 15.0042 239.074 20.1617 238.706 17.4401C235.342 14.6551 234.16 16.5515 229.379 16.4721C230.664 12.4255 233.938 15.0757 236.162 13.5602H240.394C242.278 12.8064 243.703 11.5289 246.33 11.6241C250.013 11.7511 250.673 14.4012 255.657 12.5921C257.165 15.2026 251.917 14.4647 254.809 15.4962C257.151 18.1463 255.601 14.0759 257.352 13.5602C258.631 15.3375 261.001 15.8453 262.433 17.4401C263.6 19.646 260.251 21.0821 262.433 21.3122C266.832 21.7645 270.724 23.5101 275.151 26.1523C274.602 25.1684 273.205 25.1526 273.456 23.2483C275.332 23.7799 274.665 21.3995 275.999 21.3122C276.826 22.3041 277.674 23.272 278.536 24.2163C280.816 21.7407 287.21 21.8042 284.471 16.4642C285.91 16.8609 288.982 18.5272 292.102 19.3682C295.869 20.3839 295.862 20.5505 296.342 17.4322C296.96 18.3288 297.885 18.9001 298.886 19.3682C299.122 17.8051 298.079 17.6941 298.038 16.4642C304.022 17.6861 304.369 16.4483 309.901 14.5202C309.318 13.7426 308.588 11.8701 309.901 11.6162C309.519 13.1952 314.523 13.1952 314.141 11.6162C312.077 9.79919 315.802 8.10116 311.597 9.68014C310.979 7.03793 313.279 7.72825 313.293 5.80808C310.742 6.44285 310.332 9.53734 306.51 8.71214C305.189 5.26854 309.387 8.13291 309.046 5.80808C307.608 6.16514 307.455 5.04637 307.358 3.87206C309.206 3.25316 310.054 6.6174 309.894 2.90403C311.827 1.57102 313.085 5.40341 313.286 2.90403C312.535 2.46763 311.771 2.05503 311.59 0.967999C315.343 1.92015 313.807 1.11877 316.678 0C319.798 1.26953 323.238 2.182 327.7 1.93603C328.305 3.26903 334.317 3.29283 331.085 5.80808C330.008 5.49864 328.326 4.1815 325.15 3.87206C326.192 9.33103 322.175 3.47532 321.758 7.74411C323.926 7.70444 322.794 8.46615 322.606 9.68014C324.406 11.1798 326.387 12.4731 328.541 13.5522C332.239 10.7831 335.387 13.1476 339.557 10.6482C339.251 12.2986 340.224 12.4731 341.253 12.5842C345.263 12.2033 348.335 12.8937 351.428 13.5522C352.171 18.067 348.641 12.9016 348.891 15.4883C349.906 16.7657 349.218 17.0117 348.891 18.4002C354.5 22.1692 363.813 16.4483 365.842 23.2403C363.257 24.4623 361.526 19.9237 360.754 22.2723C361.797 22.6928 362.499 23.5101 362.45 25.1764C358.6 27.8265 360.192 21.7565 356.522 24.2083C357.523 26.2872 360.192 26.4697 361.602 28.0804C361.095 29.7546 357.585 28.009 357.37 30.0164C359.066 29.6911 360.025 30.2148 359.914 31.9525C358.315 34.9993 355.5 29.6118 354.826 31.9525C356.063 32.8094 358.113 32.73 357.37 35.8325C356.668 38.9983 354.395 31.04 353.13 34.8645C354.944 35.1263 357.203 39.7918 355.674 40.6725C353.93 39.1094 354.041 35.4357 350.587 35.8325C350.719 33.4204 350.747 31.1273 348.898 30.9844C348.995 35.039 343.935 32.492 343.81 33.8885C346.118 34.7851 342.629 36.9195 343.81 39.7045C340.634 37.6098 340.704 40.9344 337.882 41.6405C337.222 38.189 334.782 36.7926 332.795 34.8645C335.505 39.5776 329.049 38.6492 328.562 39.7045C328.75 41.101 331.092 40.0378 331.099 41.6405C330.585 42.9815 327.839 41.7913 327.714 43.5766C328.847 44.5446 329.375 46.195 331.099 46.4806C330.953 42.7673 331.794 46.1315 333.643 45.5126C333.816 47.171 332.197 48.0199 333.643 48.4167C334.268 47.5201 335.185 46.9488 336.186 46.4806C333.517 52.1776 343.734 48.7499 344.665 53.2647C342.573 54.0264 338.792 49.7497 338.737 54.2406C338.48 56.8273 342.024 51.6619 341.274 56.1767C339.022 58.7633 337.25 55.8672 335.345 55.2087C336.318 58.2555 334.018 57.5573 333.65 59.0807C335.95 59.6837 335.762 63.1273 338.737 62.9528C345.722 63.3019 349.899 58.1048 352.296 64.8888C348.522 66.325 347.918 64.1985 343.817 63.9208C343.011 66.7058 341.003 64.5556 340.426 65.8568C342.191 66.3964 342.226 67.3723 341.274 68.7609C343.004 69.6892 344.63 70.7445 346.361 71.6649C347.543 68.7529 351.476 70.808 353.992 71.6649C354.736 76.1797 351.198 71.0143 351.448 73.6089C353.665 75.9337 356.828 74.9657 359.934 73.6089C360.108 75.2593 358.489 76.1162 359.934 76.5129C365.807 76.3463 369.748 71.7205 371.798 78.449C369.692 78.5997 369.178 76.9255 367.566 76.5129C367.934 78.7584 371.305 79.0996 369.261 81.353C366.968 81.6387 364.417 77.3064 362.471 80.385C362.575 84.5427 366.085 78.7584 365.863 83.289C363.736 84.5268 363.208 82.7971 362.471 84.2571C366.294 84.9712 363.236 87.907 365.015 90.0652C370.269 90.9221 375.822 88.1529 376.038 92.9771C372.271 92.4535 371.555 91.3347 369.254 91.0411C370.255 95.1036 365.675 92.7708 365.015 94.9132C368.504 96.0875 368.448 101.324 372.646 101.689C373.112 103.84 371.034 103.07 370.95 104.593C372.702 103.752 374.759 107.109 372.646 107.497C370.373 106.228 369.609 103.229 367.566 101.689C368.226 102.546 368.476 103.871 368.413 105.561C365.515 105.165 367.336 102.951 364.174 104.593C362.562 102.784 362.04 104.49 359.941 104.593C359.587 106.934 361.491 106.704 360.782 109.441C358.364 108.973 358.35 105.76 357.398 103.625C357.87 102.721 359.754 102.157 358.246 101.689C356.042 103.34 353.916 103.951 356.55 106.529C352.56 107.815 352.922 99.1106 350.614 101.689C351.372 102.118 352.137 102.538 352.31 103.625C348.689 104.538 350.017 99.7929 347.23 99.7533C346.688 101.872 349.635 102.84 346.382 102.657C344.533 102.84 344.026 100.499 343.838 98.7853C338.897 100.69 328.117 96.2383 323.489 97.8172C323.155 100.142 327.353 97.2856 326.032 100.721H322.641C323.37 103.165 328.027 106.133 326.032 108.473C324.337 105.569 322.849 102.419 320.097 100.721C320.646 103.086 321.814 105.704 318.408 105.561C318.387 100.34 318.485 102.784 315.864 103.625C315.051 101.816 318.401 100.388 315.864 99.7533C315.301 102.983 311.542 102.57 310.777 105.561C310.659 109.306 307.914 110.036 308.24 114.289C309.762 114.416 310.026 113.107 311.625 113.321C311.715 115.813 314.787 114.877 315.864 116.225C319.923 115.345 321.8 119.852 326.039 117.193C323.933 117.336 321.925 117.368 321.8 115.257C328.527 116.63 335.297 118.011 340.454 114.289C339.077 119.732 344.464 117.455 344.693 121.073C341.99 121.899 342.073 119.55 340.454 119.137C339.342 123.517 336.061 119.748 334.518 123.977C336.999 123.113 337.124 123.113 339.599 123.977C338.528 127.135 338.382 126.033 337.91 128.818C338.695 129.857 341.037 129.119 340.447 131.73C337.02 133.07 337.764 129.619 335.366 129.794C334.845 131.134 332.1 129.936 331.975 131.73C329.855 133.007 329.32 127.897 328.59 130.762C328.951 132.277 331.259 131.587 330.279 134.634C327.672 135.356 328.652 131.968 326.046 132.698C327.144 131.412 327.158 129.087 325.198 128.818C324.295 129.722 324.934 132.396 322.655 131.73C320.333 130.706 319.041 130.706 316.726 131.73C316.761 129.254 316.094 130.547 315.03 130.762C314.106 130.523 314.454 128.833 313.335 128.818C313.467 131.555 310.937 131.253 309.943 132.698C309.179 130.666 307.448 129.738 304.863 129.794C306.35 133.221 304.3 132.174 304.015 135.602V161.762C313.592 162.278 316.49 164.46 326.06 164.666C335.554 168.03 341.823 175.076 353.186 176.298C359.587 180.94 366.002 185.558 374.383 187.93C376.003 191.889 380.124 192.992 383.71 194.706C385.754 195.103 385.559 192.937 387.95 193.738C389.986 196.245 393.649 196.912 398.125 196.642C399.723 197.721 401.099 199.062 403.205 199.546C405.082 199.578 406.979 199.602 408.855 199.626C412.219 198.578 415.903 197.705 420.49 197.317C420.538 195.389 425.661 196.166 424.312 193.5C435.863 195.968 441.819 189.041 452.724 188.128C461.418 189.612 471.69 190.31 477.236 193.357C488.197 193.143 494.417 192.619 503.737 189.898C512.772 192.596 517.963 188.128 524.524 190.223C525.289 187.057 530.105 186.042 532.162 183.558C535.804 181.916 543.81 182.598 543.56 178.885C552.428 178.726 556.772 190.163 566.266 190.338C566.53 187.87 569.06 186.624 573.869 186.577C584.885 187.568 602.098 200.895 610 194.706C610 249.368 610 198.5 610 232H0.000793457V102.919C3.83722 104.062 7.70148 104.49 9.80035 100.729L9.78644 100.697ZM225.987 89.0654C225.549 89.5732 226.599 90.3032 226.835 90.0334C227.266 89.5415 226.216 88.8036 225.987 89.0654ZM227.676 90.0334C227.704 90.9777 228.711 90.7951 229.372 91.0094C229.351 90.0652 228.336 90.2556 227.676 90.0334ZM231.067 94.8815C230.63 95.3734 231.679 96.1113 231.915 95.8495C232.353 95.3416 231.304 94.6117 231.067 94.8815ZM236.155 95.8495C235.717 96.3414 236.766 97.0793 236.996 96.8175C237.434 96.3176 236.384 95.5797 236.155 95.8495ZM241.242 91.9774C240.811 92.4693 241.854 93.2073 242.09 92.9454C242.528 92.4376 241.479 91.7076 241.242 91.9774ZM237.851 62.9052C239.095 62.0641 240.54 61.4532 240.394 59.0331C239.748 60.5486 237.705 60.4851 237.851 62.9052ZM238.699 55.1531C238.726 56.0894 239.734 55.9069 240.394 56.1211C240.374 55.1769 239.359 55.3674 238.699 55.1531ZM240.394 50.3051C239.957 50.805 241.013 51.5429 241.242 51.2731C241.68 50.7812 240.631 50.0433 240.394 50.3051ZM242.09 58.0651C241.652 58.5571 242.702 59.295 242.938 59.0331C243.383 58.5253 242.326 57.7953 242.09 58.0651ZM242.09 60.0011C241.652 60.501 242.702 61.2389 242.938 60.9691C243.383 60.4613 242.326 59.7314 242.09 60.0011ZM243.786 96.8175C243.348 97.3253 244.398 98.0553 244.634 97.7855C245.065 97.2777 244.015 96.5477 243.786 96.8175ZM244.634 60.9691C244.196 61.4769 245.245 62.199 245.482 61.9372C245.913 61.4294 244.863 60.6994 244.634 60.9691ZM245.482 46.433C245.503 47.3772 246.517 47.1868 247.178 47.401C247.15 46.4648 246.142 46.6473 245.482 46.433ZM245.482 83.2494C245.503 84.1936 246.517 84.0032 247.178 84.2174C247.15 83.2811 246.142 83.4636 245.482 83.2494ZM248.873 77.4413C248.436 77.9412 249.492 78.6712 249.721 78.4093C250.159 77.9094 249.11 77.1715 248.873 77.4413ZM248.873 88.0974C248.436 88.6052 249.492 89.3352 249.721 89.0654C250.159 88.5735 249.11 87.8356 248.873 88.0974ZM250.569 79.3773C250.138 79.8851 251.188 80.6151 251.417 80.3453C251.855 79.8375 250.805 79.1075 250.569 79.3773ZM250.569 91.9774C250.138 92.4693 251.188 93.2073 251.417 92.9454C251.855 92.4376 250.805 91.7076 250.569 91.9774ZM254.809 60.9691C254.371 61.4769 255.42 62.199 255.657 61.9372C256.087 61.4294 255.038 60.6994 254.809 60.9691ZM256.504 59.0331C256.067 59.533 257.116 60.263 257.352 60.0011C257.783 59.4933 256.734 58.7633 256.504 59.0331ZM237.851 25.1129C237.42 25.6207 238.469 26.3507 238.699 26.0809C239.136 25.5731 238.087 24.8431 237.851 25.1129ZM238.699 28.9929C237.461 31.8255 238.629 30.4687 239.547 28.0248C240.304 26.0095 239.366 27.4774 238.699 28.9929ZM241.242 17.3687C240.811 17.8607 241.854 18.5986 242.09 18.3368C242.528 17.8369 241.479 17.099 241.242 17.3687ZM245.482 28.0169C244.439 28.4454 243.737 29.2547 243.786 30.921C245.593 31.3812 245.398 29.5403 245.482 28.0169ZM244.634 17.3687H246.33C246.177 16.5435 246.656 16.4563 247.178 16.4007C247.511 14.5202 243.313 14.9804 244.634 17.3687ZM248.873 28.0169C248.436 28.5247 249.492 29.2547 249.721 28.9849C250.159 28.493 249.11 27.7551 248.873 28.0169ZM250.569 17.3687C250.138 17.8607 251.188 18.5986 251.417 18.3368C251.855 17.8369 250.805 17.099 250.569 17.3687ZM253.961 28.9929C253.523 29.5007 254.572 30.2307 254.809 29.9609C255.247 29.469 254.19 28.731 253.961 28.9929ZM254.809 20.2728C254.371 20.7647 255.42 21.5026 255.657 21.2408C256.087 20.733 255.038 20.003 254.809 20.2728ZM254.809 33.833C254.371 34.3328 255.42 35.0707 255.657 34.8089C256.087 34.3011 255.038 33.5711 254.809 33.833ZM258.193 36.7449C258.04 35.642 257.345 36.2054 257.352 36.7449C257.505 37.8479 258.2 37.2766 258.193 36.7449ZM257.352 27.0489C256.915 27.5567 257.964 28.2867 258.193 28.0169C258.631 27.517 257.582 26.7791 257.352 27.0489ZM354.854 22.2088C355.292 21.709 354.242 20.971 354.006 21.2408C353.561 21.7407 354.625 22.4707 354.854 22.2088ZM347.223 17.3687C348.731 16.6546 347.348 15.5993 347.223 14.4568C345.708 15.1709 347.098 16.2262 347.223 17.3687ZM344.679 23.1768C345.117 22.669 344.068 21.9391 343.831 22.2088C343.393 22.7008 344.443 23.4387 344.679 23.1768ZM341.281 36.7449C341.128 35.642 340.433 36.2054 340.433 36.7449C340.593 37.8479 341.288 37.2766 341.281 36.7449ZM338.744 37.7129C339.175 37.2131 338.125 36.4752 337.896 36.7449C337.458 37.2369 338.508 37.9748 338.744 37.7129ZM335.352 18.3368C335.79 17.8369 334.741 17.099 334.504 17.3687C334.067 17.8607 335.116 18.5986 335.352 18.3368ZM331.961 18.3368C332.398 17.8369 331.349 17.099 331.113 17.3687C330.682 17.8607 331.731 18.5986 331.961 18.3368ZM331.113 34.8089C330.077 35.2294 329.375 36.0467 329.417 37.7129C330.459 37.2845 331.161 36.4751 331.113 34.8089ZM329.41 15.4248C329.848 14.9328 328.798 14.1949 328.569 14.4568C328.131 14.9646 329.181 15.6946 329.41 15.4248ZM349.767 63.8732C350.197 63.3654 349.148 62.6354 348.919 62.9052C348.481 63.413 349.53 64.143 349.767 63.8732ZM367.572 79.3773C368.003 78.8695 366.954 78.1395 366.725 78.4093C366.287 78.9013 367.336 79.6392 367.572 79.3773ZM367.572 91.9774C368.003 91.4696 366.954 90.7396 366.725 91.0094C366.287 91.5013 367.336 92.2392 367.572 91.9774ZM365.022 102.633C367.023 102.364 364.049 100.047 364.174 98.7614C361.575 99.7136 365.154 101.34 365.022 102.633ZM364.174 93.9134C364.612 93.4136 363.562 92.6757 363.326 92.9454C362.895 93.4374 363.945 94.1753 364.174 93.9134ZM357.398 85.1934C356.96 85.7012 358.009 86.4311 358.246 86.1614C358.676 85.6694 357.627 84.9315 357.398 85.1934ZM362.478 88.0974C362.916 87.6055 361.867 86.8675 361.63 87.1294C361.199 87.6293 362.249 88.3672 362.478 88.0974ZM361.63 82.2814C361.422 81.0674 359.948 81.3054 359.941 82.2814C360.317 83.6937 360.678 82.1782 361.63 82.2814ZM360.782 100.697C361.22 100.198 360.171 99.4597 359.941 99.7295C359.503 100.229 360.553 100.967 360.782 100.697ZM355.702 91.9774C356.786 90.6285 359.705 91.3823 360.782 90.0334C360.053 88.6132 359.51 86.9628 357.398 87.1294C357.773 87.9942 358.134 88.8671 359.093 89.0654C357.961 91.5331 353.547 89.6764 354.854 86.1614C350.621 88.1291 356.063 88.8433 355.702 91.9774ZM353.151 91.9774C352.991 90.8745 352.303 91.4379 352.303 91.9774C352.463 93.0803 353.158 92.509 353.151 91.9774ZM338.744 69.6813C338.765 70.6255 339.779 70.4351 340.433 70.6493C340.412 69.713 339.404 69.8955 338.744 69.6813ZM349.767 95.8495C349.739 94.9052 348.731 95.0957 348.071 94.8815C348.092 95.8177 349.106 95.6352 349.767 95.8495ZM350.607 72.5933C349.76 69.6099 349.211 74.7039 348.071 74.5373C349.516 78.203 349.461 72.4266 350.607 72.5933ZM347.223 74.5373C347.654 74.0294 346.604 73.2994 346.375 73.5692C345.937 74.0612 346.987 74.7991 347.223 74.5373ZM346.375 94.8815C346.166 93.6595 344.686 93.9055 344.679 94.8815C345.43 95.4765 346.194 96.0558 346.375 94.8815ZM345.527 73.5692C345.958 73.0614 344.915 72.3314 344.679 72.5933C344.241 73.1011 345.298 73.8311 345.527 73.5692ZM343.831 93.9134C344.269 93.4136 343.22 92.6757 342.983 92.9454C342.552 93.4374 343.595 94.1753 343.831 93.9134ZM341.281 94.8815C340.377 93.9769 341.023 91.303 338.744 91.9774C339.119 92.8343 339.481 93.7071 340.433 93.9134C340.412 94.8497 339.404 94.6672 338.744 94.8815C336.11 96.1192 341.149 96.1192 341.281 94.8815ZM338.744 66.7773C339.175 66.2853 338.125 65.5394 337.896 65.8092C337.458 66.317 338.508 67.047 338.744 66.7773ZM334.504 65.8092C334.484 64.8729 333.469 65.0555 332.809 64.8412C332.836 65.7854 333.844 65.595 334.504 65.8092ZM334.504 62.9052C334.06 62.1196 333.622 61.3341 333.656 60.0011C332.732 60.2392 333.08 61.9213 331.961 61.9372C331.808 62.7544 332.294 62.8496 332.809 62.9052H334.504ZM331.961 94.8815C332.398 94.3736 331.349 93.6437 331.113 93.9134C330.682 94.4054 331.731 95.1433 331.961 94.8815ZM322.634 46.433C322.189 44.9413 321.751 46.3696 321.786 47.401C322.231 48.9007 322.675 47.4645 322.634 46.433ZM325.177 42.561C324.302 41.5612 323.864 42.9974 324.33 43.529C325.205 44.5287 325.643 43.0926 325.177 42.561ZM325.177 49.3371C325.622 48.8451 324.566 48.1072 324.33 48.3691C323.892 48.869 324.941 49.6068 325.177 49.3371ZM326.025 46.433C325.588 46.9329 326.637 47.6708 326.873 47.401C327.304 46.9091 326.255 46.1632 326.025 46.433ZM326.873 44.497C326.435 45.0048 327.485 45.7348 327.721 45.465C328.152 44.9572 327.103 44.2272 326.873 44.497ZM327.721 60.9691C327.784 60.6994 327.61 60.2471 327.721 60.0011C328.367 58.5253 327.186 59.2791 326.873 60.0011C326.303 61.3024 327.436 62.1673 327.721 60.9691ZM326.025 94.8815C326.901 95.8812 327.339 94.445 326.873 93.9134C325.998 92.9057 325.56 94.3498 326.025 94.8815ZM326.025 66.7773C326.456 66.2853 325.414 65.5394 325.177 65.8092C324.74 66.317 325.789 67.047 326.025 66.7773ZM325.177 64.8412C325.622 64.3493 324.566 63.6034 324.33 63.8732C323.892 64.381 324.941 65.111 325.177 64.8412ZM324.33 59.0331C324.767 58.5253 323.718 57.7953 323.482 58.0651C323.044 58.5571 324.093 59.295 324.33 59.0331ZM322.634 88.0974C323.072 87.6055 322.022 86.8675 321.786 87.1294C321.355 87.6293 322.404 88.3672 322.634 88.0974ZM322.634 53.2091C323.072 52.7172 322.022 51.9793 321.786 52.2411C321.355 52.7489 322.404 53.4789 322.634 53.2091ZM318.401 6.70468C318.832 6.19687 317.783 5.46691 317.553 5.73668C317.115 6.23656 318.165 6.97446 318.401 6.70468ZM318.401 2.83263C317.067 -0.714122 317.129 5.07812 315.01 3.80065C315.844 6.76818 317.268 2.68187 318.401 2.83263ZM315.851 7.67271C316.281 7.1649 315.232 6.43491 315.003 6.70468C314.565 7.21249 315.614 7.94249 315.851 7.67271ZM337.048 120.074C337.486 119.566 336.429 118.836 336.2 119.106C335.762 119.613 336.812 120.343 337.048 120.074ZM333.656 120.074C333.281 118.661 332.913 120.177 331.961 120.074C332.169 121.288 333.65 121.05 333.656 120.074ZM332.809 126.858C333.246 126.366 332.197 125.628 331.961 125.89C331.53 126.397 332.579 127.128 332.809 126.858ZM331.113 128.794C331.551 128.302 330.501 127.564 330.265 127.834C329.827 128.326 330.883 129.064 331.113 128.794ZM315.003 125.882C314.843 124.779 314.155 125.35 314.155 125.882C314.315 126.985 315.003 126.421 315.003 125.882ZM311.611 116.202C312.049 115.702 310.999 114.964 310.763 115.234C310.332 115.733 311.382 116.463 311.611 116.202ZM310.763 129.77C310.742 128.825 309.728 129.016 309.067 128.794C309.095 129.738 310.103 129.555 310.763 129.77ZM292.957 123.946C293.395 123.454 292.346 122.716 292.109 122.978C291.678 123.478 292.721 124.216 292.957 123.946ZM292.957 115.234C293.395 114.726 292.346 113.996 292.109 114.266C291.678 114.758 292.721 115.495 292.957 115.234ZM292.957 98.7614C292.936 97.8172 291.922 98.0077 291.261 97.7934C291.289 98.7377 292.297 98.5472 292.957 98.7614ZM291.261 112.322C293.395 111.901 289.858 110.227 288.718 110.386C289.343 111.282 290.268 111.853 291.261 112.322ZM289.566 120.074C289.135 120.581 290.184 121.311 290.414 121.042C290.851 120.534 289.802 119.804 289.566 120.074ZM288.718 127.834C292.262 127.183 289.114 121.811 287.029 124.922C287.578 125.914 288.975 125.929 288.718 127.834ZM288.718 113.298C288.697 112.353 287.689 112.544 287.029 112.33C287.05 113.266 288.064 113.083 288.718 113.298ZM287.029 111.354C287.46 110.854 286.41 110.116 286.181 110.386C285.743 110.878 286.793 111.615 287.029 111.354ZM286.181 109.418C286.612 108.918 285.562 108.18 285.333 108.442C284.895 108.949 285.945 109.679 286.181 109.418ZM277.702 106.506C279.585 106.942 282.296 103.514 282.782 105.538C284.367 103.197 280.392 104.673 277.702 103.602V106.506ZM280.239 92.9454C279.808 93.4374 280.857 94.1753 281.087 93.9134C281.524 93.4136 280.475 92.6757 280.239 92.9454ZM277.702 98.7614C278.814 98.4203 279.029 97.0555 280.239 96.8254C279.891 94.4054 276.951 96.7619 277.702 98.7614ZM276.854 92.9454C276.875 92.0012 277.89 92.1916 278.543 91.9774C278.341 90.9221 276.861 91.3188 276.854 90.0334C275.235 90.446 273.205 90.3905 273.462 92.9454C274.151 92.7629 274.31 91.9695 275.158 91.9774C275.909 92.4059 276.673 92.8185 276.854 93.9134C277.813 93.7309 277.32 92.9375 276.854 92.9454ZM274.31 87.1294C273.873 87.6293 274.922 88.3672 275.158 88.0974C275.589 87.6055 274.54 86.8675 274.31 87.1294ZM276.006 105.538C275.325 102.11 270.286 103.681 267.527 102.633C270.064 104.712 271.28 104.696 276.006 105.538ZM268.368 108.442C268.215 107.347 267.52 107.91 267.527 108.442C267.68 109.545 268.375 108.981 268.368 108.442ZM267.527 105.538C267.958 105.046 266.909 104.308 266.679 104.57C266.241 105.077 267.291 105.807 267.527 105.538ZM266.679 103.602C267.117 103.102 266.061 102.364 265.831 102.633C265.394 103.133 266.443 103.871 266.679 103.602ZM264.136 115.234C264.156 116.17 265.171 115.987 265.831 116.202C265.804 115.257 264.796 115.448 264.136 115.234ZM269.216 96.8175C268.632 99.8564 266.957 98.0791 264.983 97.7855C264.108 101.039 267.618 99.2931 269.216 99.7215C271.211 100.031 272.399 101.253 275.151 100.69C275.471 96.7937 275.693 98.3092 276.847 94.8815C274.317 95.2226 274.686 98.8646 270.912 97.7855C270.516 95.7146 272.128 95.9447 273.456 95.8495C273.608 93.7309 272.761 92.7629 270.912 92.9454C270.669 91.2316 274.901 89.9382 272.608 89.0654C270.655 87.1452 271.662 89.3114 270.064 90.0334C268.09 89.7161 266.415 89.0416 265.831 87.1294C264.393 84.3602 265.15 92.0806 268.368 90.0334C268.862 93.5088 265.866 92.9851 263.288 92.9454C265.394 94.0959 266.102 96.8334 269.216 96.8175ZM270.912 60.9691C270.481 61.4769 271.53 62.199 271.76 61.9372C272.198 61.4294 271.148 60.6994 270.912 60.9691ZM269.216 63.8732C268.785 64.381 269.835 65.111 270.064 64.8412C270.502 64.3493 269.452 63.6034 269.216 63.8732ZM269.216 59.0331C268.785 59.533 269.835 60.263 270.064 60.0011C270.502 59.4933 269.452 58.7633 269.216 59.0331ZM265.831 35.7769C266.582 36.3641 267.346 36.9433 267.527 35.7769C267.319 34.555 265.838 34.793 265.831 35.7769ZM268.368 32.8649C268.806 32.373 267.757 31.6351 267.527 31.8969C267.089 32.4047 268.139 33.1347 268.368 32.8649ZM265.831 40.617C266.269 40.1171 265.213 39.3792 264.983 39.649C264.546 40.1409 265.595 40.8788 265.831 40.617ZM264.136 53.2091C263.698 53.709 264.747 54.4469 264.983 54.1851C265.414 53.6773 264.365 52.9473 264.136 53.2091ZM265.831 43.529C265.394 44.0289 266.443 44.7668 266.679 44.497C267.117 43.9892 266.061 43.2592 265.831 43.529ZM258.193 100.697C258.645 101.483 259.083 102.269 259.041 103.602C259.736 103.419 259.889 102.633 260.737 102.633C261.564 102.665 261.397 103.816 261.585 104.57C264.031 102.951 260.014 100.65 258.193 100.697ZM262.44 60.9691C262.419 60.0249 261.404 60.2154 260.744 60.0011C260.772 60.9374 261.78 60.7549 262.44 60.9691ZM259.896 89.0654C260.779 90.0731 261.21 88.629 260.744 88.0974C259.868 87.0977 259.431 88.5338 259.896 89.0654ZM260.744 35.7769C261.453 36.9036 261.863 38.3715 261.592 40.617H264.136C263.927 39.5617 262.447 39.9584 262.44 38.681C263.656 37.2607 263.093 35.6024 260.744 35.7769ZM263.288 24.1449C262.85 24.6447 263.899 25.3827 264.136 25.1129C264.573 24.613 263.517 23.8751 263.288 24.1449ZM271.767 28.0169C270.599 27.0489 272.135 26.4221 270.071 25.1129C268.438 26.9061 269.404 26.8902 266.686 26.0809C264.678 23.9148 267.743 28.2232 269.223 28.0169C268.097 31.0082 265.456 26.2078 264.143 28.9849C266.721 29.3103 270.689 31.1431 271.774 35.7769C274.387 36.4514 273.4 36.4514 276.013 35.7769C275.346 32.976 271.913 33.349 270.078 31.8969C271.433 30.2148 273.9 29.8022 276.861 29.9609C276.083 28.2708 274.206 27.8185 271.774 28.0248L271.767 28.0169ZM270.064 35.7769C269.633 36.2689 270.682 37.0068 270.912 36.7449C271.35 36.2451 270.3 35.5071 270.064 35.7769ZM270.912 38.681C270.94 39.6173 271.947 39.4347 272.608 39.649C272.587 38.7048 271.572 38.8952 270.912 38.681ZM276.854 51.2731C277.285 50.7812 276.236 50.0433 276.006 50.3051C275.568 50.805 276.618 51.5429 276.854 51.2731ZM276.854 26.0809C276.416 26.5887 277.466 27.3187 277.702 27.0489C278.14 26.549 277.083 25.8111 276.854 26.0809ZM281.935 59.0331C280.461 55.8355 277.403 58.0016 276.854 60.9691C276.083 60.7073 274.005 57.3589 276.006 57.0971C275.235 54.4628 274.435 59.6758 271.767 58.0651C271.454 56.4147 272.434 56.2322 273.462 56.1291C272.698 52.8838 271.572 55.2801 270.071 56.1291C268.743 55.7085 269.348 53.0742 266.686 54.193C266.825 55.3197 266.499 55.9148 265.838 56.1291C266.617 57.8191 268.486 58.2714 270.919 58.0651C273.073 61.4373 277.917 64.627 282.789 61.9372C282.928 59.8345 279.78 61.4928 278.55 60.9691C278.758 59.2632 280.002 58.7633 281.935 59.0331ZM282.782 23.1768C282.345 23.6846 283.394 24.4146 283.63 24.1449C284.068 23.637 283.019 22.9071 282.782 23.1768ZM284.485 119.106C284.047 119.613 285.097 120.343 285.333 120.074C285.764 119.566 284.715 118.836 284.485 119.106ZM287.029 102.633V100.697C286.306 100.872 286.23 100.317 286.181 99.7295C284.534 99.3407 284.937 104.149 287.029 102.633ZM285.333 22.2088C284.895 22.7008 285.945 23.4387 286.181 23.1768C286.612 22.669 285.562 21.9391 285.333 22.2088ZM286.181 20.2728C285.743 20.7647 286.793 21.5026 287.029 21.2408C287.46 20.733 286.41 20.003 286.181 20.2728ZM291.261 110.386C293.041 109.219 289.128 106.434 287.87 105.538C284.986 107.981 290.789 108.592 291.261 110.386ZM290.414 22.2088C290.441 23.1451 291.449 22.9626 292.109 23.1768C292.089 22.2326 291.074 22.4231 290.414 22.2088ZM291.261 54.1851C291.421 55.2801 292.109 54.7167 292.109 54.1851C291.949 53.0822 291.261 53.6455 291.261 54.1851ZM291.261 86.1614C289.503 85.3044 290.782 86.3677 292.109 87.1294C294.584 88.5497 293.402 87.2087 291.261 86.1614ZM299.74 34.8089C297.662 35.7214 300.832 38.6096 302.284 38.681C302.034 36.7053 299.991 36.7846 299.74 34.8089ZM302.284 34.8089C301.853 35.3008 302.903 36.0388 303.132 35.7769C303.57 35.2691 302.52 34.5391 302.284 34.8089ZM303.98 42.561C303.542 43.0688 304.592 43.7988 304.828 43.529C305.259 43.0212 304.216 42.2912 303.98 42.561ZM309.915 46.433C309.484 46.9329 310.534 47.6708 310.763 47.401C311.201 46.9091 310.152 46.1632 309.915 46.433ZM308.226 54.1851C309.561 54.2644 311.458 53.709 311.611 55.1531C313.974 55.5895 310.944 49.8687 313.307 50.3051C312.042 48.3056 307.67 50.9002 308.226 54.1851ZM309.067 17.3687C309.505 16.8609 308.456 16.1309 308.226 16.4007C307.789 16.8927 308.838 17.6306 309.067 17.3687ZM307.378 45.465C307.809 44.9572 306.76 44.2272 306.531 44.497C306.093 45.0048 307.142 45.7348 307.378 45.465ZM305.676 84.2253C306.107 83.7175 305.064 82.9875 304.828 83.2573C304.39 83.7651 305.439 84.4951 305.676 84.2253ZM304.828 103.602C305.259 103.102 304.216 102.364 303.98 102.633C303.542 103.133 304.592 103.871 304.828 103.602ZM303.132 105.538C305.182 103.586 301.659 106.045 301.436 107.474C300.748 111.917 303.528 107.291 303.132 105.538ZM302.284 86.1614C301.853 86.6692 302.903 87.3992 303.132 87.1294C303.57 86.6374 302.52 85.8995 302.284 86.1614ZM304.828 53.2091C304.946 51.408 305.384 49.9798 306.524 49.3371C304.821 46.9091 303.382 52.2015 300.588 49.3371C301.805 50.7574 301.242 52.4157 298.9 52.2411C299.261 54.4073 303.076 52.6378 304.828 53.2091ZM298.9 54.1851C298.462 54.677 299.511 55.415 299.74 55.1531C300.178 54.6453 299.129 53.9153 298.9 54.1851ZM299.74 84.2253C299.365 82.813 299.004 84.3285 298.052 84.2253C298.26 85.4393 299.733 85.2013 299.74 84.2253ZM297.204 60.0011C297.635 59.4933 296.585 58.7633 296.356 59.0331C295.918 59.533 296.967 60.263 297.204 60.0011ZM296.356 47.401C296.787 46.9091 295.737 46.1632 295.508 46.433C295.063 46.9329 296.12 47.6708 296.356 47.401ZM295.508 45.465C295.939 44.9572 294.889 44.2272 294.66 44.497C294.222 45.0048 295.272 45.7348 295.508 45.465ZM293.805 53.2091C293.367 53.709 294.417 54.4469 294.653 54.1851C295.084 53.6773 294.041 52.9473 293.805 53.2091Z" fill="#C7DDE8"/>
</svg>
